<?xml version="1.0" encoding="utf-8" standalone="no"?>
<!DOCTYPE svg PUBLIC "-//W3C//DTD SVG 1.1//EN"
  "http://www.w3.org/Graphics/SVG/1.1/DTD/svg11.dtd">
<svg xmlns:xlink="http://www.w3.org/1999/xlink" width="576pt" height="432pt" viewBox="0 0 576 432" xmlns="http://www.w3.org/2000/svg" version="1.1">
 <metadata>
  <rdf:RDF xmlns:dc="http://purl.org/dc/elements/1.1/" xmlns:cc="http://creativecommons.org/ns#" xmlns:rdf="http://www.w3.org/1999/02/22-rdf-syntax-ns#">
   <cc:Work>
    <dc:type rdf:resource="http://purl.org/dc/dcmitype/StillImage"/>
    <dc:date>2025-02-19T08:38:41.589386</dc:date>
    <dc:format>image/svg+xml</dc:format>
    <dc:creator>
     <cc:Agent>
      <dc:title>Matplotlib v3.8.4, https://matplotlib.org/</dc:title>
     </cc:Agent>
    </dc:creator>
   </cc:Work>
  </rdf:RDF>
 </metadata>
 <defs>
  <style type="text/css">*{stroke-linejoin: round; stroke-linecap: butt}</style>
 </defs>
 <g id="figure_1">
  <g id="patch_1">
   <path d="M 0 432 
L 576 432 
L 576 0 
L 0 0 
z
" style="fill: #ffffff"/>
  </g>
  <g id="axes_1">
   <g id="patch_2">
    <path d="M 56.18 193.477287 
L 183.33 193.477287 
L 183.33 38.874574 
L 56.18 38.874574 
z
" style="fill: #ffffff"/>
   </g>
   <g id="matplotlib.axis_1">
    <g id="xtick_1">
     <g id="line2d_1">
      <defs>
       <path id="m9b7d2febbc" d="M 0 0 
L 0 3.5 
" style="stroke: #000000; stroke-width: 0.8"/>
      </defs>
      <g>
       <use xlink:href="#m9b7d2febbc" x="56.18" y="193.477287" style="stroke: #000000; stroke-width: 0.8"/>
      </g>
     </g>
     <g id="text_1">
      <!-- 20 -->
      <g transform="translate(49.8175 208.075724) scale(0.1 -0.1)">
       <defs>
        <path id="DejaVuSans-32" d="M 1228 531 
L 3431 531 
L 3431 0 
L 469 0 
L 469 531 
Q 828 903 1448 1529 
Q 2069 2156 2228 2338 
Q 2531 2678 2651 2914 
Q 2772 3150 2772 3378 
Q 2772 3750 2511 3984 
Q 2250 4219 1831 4219 
Q 1534 4219 1204 4116 
Q 875 4013 500 3803 
L 500 4441 
Q 881 4594 1212 4672 
Q 1544 4750 1819 4750 
Q 2544 4750 2975 4387 
Q 3406 4025 3406 3419 
Q 3406 3131 3298 2873 
Q 3191 2616 2906 2266 
Q 2828 2175 2409 1742 
Q 1991 1309 1228 531 
z
" transform="scale(0.015625)"/>
        <path id="DejaVuSans-30" d="M 2034 4250 
Q 1547 4250 1301 3770 
Q 1056 3291 1056 2328 
Q 1056 1369 1301 889 
Q 1547 409 2034 409 
Q 2525 409 2770 889 
Q 3016 1369 3016 2328 
Q 3016 3291 2770 3770 
Q 2525 4250 2034 4250 
z
M 2034 4750 
Q 2819 4750 3233 4129 
Q 3647 3509 3647 2328 
Q 3647 1150 3233 529 
Q 2819 -91 2034 -91 
Q 1250 -91 836 529 
Q 422 1150 422 2328 
Q 422 3509 836 4129 
Q 1250 4750 2034 4750 
z
" transform="scale(0.015625)"/>
       </defs>
       <use xlink:href="#DejaVuSans-32"/>
       <use xlink:href="#DejaVuSans-30" x="63.623047"/>
      </g>
     </g>
    </g>
    <g id="xtick_2">
     <g id="line2d_2">
      <g>
       <use xlink:href="#m9b7d2febbc" x="98.563333" y="193.477287" style="stroke: #000000; stroke-width: 0.8"/>
      </g>
     </g>
     <g id="text_2">
      <!-- 21 -->
      <g transform="translate(92.200833 208.075724) scale(0.1 -0.1)">
       <defs>
        <path id="DejaVuSans-31" d="M 794 531 
L 1825 531 
L 1825 4091 
L 703 3866 
L 703 4441 
L 1819 4666 
L 2450 4666 
L 2450 531 
L 3481 531 
L 3481 0 
L 794 0 
L 794 531 
z
" transform="scale(0.015625)"/>
       </defs>
       <use xlink:href="#DejaVuSans-32"/>
       <use xlink:href="#DejaVuSans-31" x="63.623047"/>
      </g>
     </g>
    </g>
    <g id="xtick_3">
     <g id="line2d_3">
      <g>
       <use xlink:href="#m9b7d2febbc" x="140.946667" y="193.477287" style="stroke: #000000; stroke-width: 0.8"/>
      </g>
     </g>
     <g id="text_3">
      <!-- 22 -->
      <g transform="translate(134.584167 208.075724) scale(0.1 -0.1)">
       <use xlink:href="#DejaVuSans-32"/>
       <use xlink:href="#DejaVuSans-32" x="63.623047"/>
      </g>
     </g>
    </g>
    <g id="xtick_4">
     <g id="line2d_4">
      <g>
       <use xlink:href="#m9b7d2febbc" x="183.33" y="193.477287" style="stroke: #000000; stroke-width: 0.8"/>
      </g>
     </g>
     <g id="text_4">
      <!-- 23 -->
      <g transform="translate(176.9675 208.075724) scale(0.1 -0.1)">
       <defs>
        <path id="DejaVuSans-33" d="M 2597 2516 
Q 3050 2419 3304 2112 
Q 3559 1806 3559 1356 
Q 3559 666 3084 287 
Q 2609 -91 1734 -91 
Q 1441 -91 1130 -33 
Q 819 25 488 141 
L 488 750 
Q 750 597 1062 519 
Q 1375 441 1716 441 
Q 2309 441 2620 675 
Q 2931 909 2931 1356 
Q 2931 1769 2642 2001 
Q 2353 2234 1838 2234 
L 1294 2234 
L 1294 2753 
L 1863 2753 
Q 2328 2753 2575 2939 
Q 2822 3125 2822 3475 
Q 2822 3834 2567 4026 
Q 2313 4219 1838 4219 
Q 1578 4219 1281 4162 
Q 984 4106 628 3988 
L 628 4550 
Q 988 4650 1302 4700 
Q 1616 4750 1894 4750 
Q 2613 4750 3031 4423 
Q 3450 4097 3450 3541 
Q 3450 3153 3228 2886 
Q 3006 2619 2597 2516 
z
" transform="scale(0.015625)"/>
       </defs>
       <use xlink:href="#DejaVuSans-32"/>
       <use xlink:href="#DejaVuSans-33" x="63.623047"/>
      </g>
     </g>
    </g>
    <g id="text_5">
     <!-- t [s] -->
     <g transform="translate(109.699531 221.753849) scale(0.1 -0.1)">
      <defs>
       <path id="DejaVuSans-74" d="M 1172 4494 
L 1172 3500 
L 2356 3500 
L 2356 3053 
L 1172 3053 
L 1172 1153 
Q 1172 725 1289 603 
Q 1406 481 1766 481 
L 2356 481 
L 2356 0 
L 1766 0 
Q 1100 0 847 248 
Q 594 497 594 1153 
L 594 3053 
L 172 3053 
L 172 3500 
L 594 3500 
L 594 4494 
L 1172 4494 
z
" transform="scale(0.015625)"/>
       <path id="DejaVuSans-20" transform="scale(0.015625)"/>
       <path id="DejaVuSans-5b" d="M 550 4863 
L 1875 4863 
L 1875 4416 
L 1125 4416 
L 1125 -397 
L 1875 -397 
L 1875 -844 
L 550 -844 
L 550 4863 
z
" transform="scale(0.015625)"/>
       <path id="DejaVuSans-73" d="M 2834 3397 
L 2834 2853 
Q 2591 2978 2328 3040 
Q 2066 3103 1784 3103 
Q 1356 3103 1142 2972 
Q 928 2841 928 2578 
Q 928 2378 1081 2264 
Q 1234 2150 1697 2047 
L 1894 2003 
Q 2506 1872 2764 1633 
Q 3022 1394 3022 966 
Q 3022 478 2636 193 
Q 2250 -91 1575 -91 
Q 1294 -91 989 -36 
Q 684 19 347 128 
L 347 722 
Q 666 556 975 473 
Q 1284 391 1588 391 
Q 1994 391 2212 530 
Q 2431 669 2431 922 
Q 2431 1156 2273 1281 
Q 2116 1406 1581 1522 
L 1381 1569 
Q 847 1681 609 1914 
Q 372 2147 372 2553 
Q 372 3047 722 3315 
Q 1072 3584 1716 3584 
Q 2034 3584 2315 3537 
Q 2597 3491 2834 3397 
z
" transform="scale(0.015625)"/>
       <path id="DejaVuSans-5d" d="M 1947 4863 
L 1947 -844 
L 622 -844 
L 622 -397 
L 1369 -397 
L 1369 4416 
L 622 4416 
L 622 4863 
L 1947 4863 
z
" transform="scale(0.015625)"/>
      </defs>
      <use xlink:href="#DejaVuSans-74"/>
      <use xlink:href="#DejaVuSans-20" x="39.208984"/>
      <use xlink:href="#DejaVuSans-5b" x="70.996094"/>
      <use xlink:href="#DejaVuSans-73" x="110.009766"/>
      <use xlink:href="#DejaVuSans-5d" x="162.109375"/>
     </g>
    </g>
   </g>
   <g id="matplotlib.axis_2">
    <g id="ytick_1">
     <g id="line2d_5">
      <defs>
       <path id="m8e918c58c1" d="M 0 0 
L -3.5 0 
" style="stroke: #000000; stroke-width: 0.8"/>
      </defs>
      <g>
       <use xlink:href="#m8e918c58c1" x="56.18" y="167.182671" style="stroke: #000000; stroke-width: 0.8"/>
      </g>
     </g>
     <g id="text_6">
      <!-- −1.5 -->
      <g transform="translate(24.897188 170.981889) scale(0.1 -0.1)">
       <defs>
        <path id="DejaVuSans-2212" d="M 678 2272 
L 4684 2272 
L 4684 1741 
L 678 1741 
L 678 2272 
z
" transform="scale(0.015625)"/>
        <path id="DejaVuSans-2e" d="M 684 794 
L 1344 794 
L 1344 0 
L 684 0 
L 684 794 
z
" transform="scale(0.015625)"/>
        <path id="DejaVuSans-35" d="M 691 4666 
L 3169 4666 
L 3169 4134 
L 1269 4134 
L 1269 2991 
Q 1406 3038 1543 3061 
Q 1681 3084 1819 3084 
Q 2600 3084 3056 2656 
Q 3513 2228 3513 1497 
Q 3513 744 3044 326 
Q 2575 -91 1722 -91 
Q 1428 -91 1123 -41 
Q 819 9 494 109 
L 494 744 
Q 775 591 1075 516 
Q 1375 441 1709 441 
Q 2250 441 2565 725 
Q 2881 1009 2881 1497 
Q 2881 1984 2565 2268 
Q 2250 2553 1709 2553 
Q 1456 2553 1204 2497 
Q 953 2441 691 2322 
L 691 4666 
z
" transform="scale(0.015625)"/>
       </defs>
       <use xlink:href="#DejaVuSans-2212"/>
       <use xlink:href="#DejaVuSans-31" x="83.789062"/>
       <use xlink:href="#DejaVuSans-2e" x="147.412109"/>
       <use xlink:href="#DejaVuSans-35" x="179.199219"/>
      </g>
     </g>
    </g>
    <g id="ytick_2">
     <g id="line2d_6">
      <g>
       <use xlink:href="#m8e918c58c1" x="56.18" y="135.935262" style="stroke: #000000; stroke-width: 0.8"/>
      </g>
     </g>
     <g id="text_7">
      <!-- −1.0 -->
      <g transform="translate(24.897188 139.734481) scale(0.1 -0.1)">
       <use xlink:href="#DejaVuSans-2212"/>
       <use xlink:href="#DejaVuSans-31" x="83.789062"/>
       <use xlink:href="#DejaVuSans-2e" x="147.412109"/>
       <use xlink:href="#DejaVuSans-30" x="179.199219"/>
      </g>
     </g>
    </g>
    <g id="ytick_3">
     <g id="line2d_7">
      <g>
       <use xlink:href="#m8e918c58c1" x="56.18" y="104.687854" style="stroke: #000000; stroke-width: 0.8"/>
      </g>
     </g>
     <g id="text_8">
      <!-- −0.5 -->
      <g transform="translate(24.897188 108.487073) scale(0.1 -0.1)">
       <use xlink:href="#DejaVuSans-2212"/>
       <use xlink:href="#DejaVuSans-30" x="83.789062"/>
       <use xlink:href="#DejaVuSans-2e" x="147.412109"/>
       <use xlink:href="#DejaVuSans-35" x="179.199219"/>
      </g>
     </g>
    </g>
    <g id="ytick_4">
     <g id="line2d_8">
      <g>
       <use xlink:href="#m8e918c58c1" x="56.18" y="73.440446" style="stroke: #000000; stroke-width: 0.8"/>
      </g>
     </g>
     <g id="text_9">
      <!-- 0.0 -->
      <g transform="translate(33.276875 77.239664) scale(0.1 -0.1)">
       <use xlink:href="#DejaVuSans-30"/>
       <use xlink:href="#DejaVuSans-2e" x="63.623047"/>
       <use xlink:href="#DejaVuSans-30" x="95.410156"/>
      </g>
     </g>
    </g>
    <g id="ytick_5">
     <g id="line2d_9">
      <g>
       <use xlink:href="#m8e918c58c1" x="56.18" y="42.193037" style="stroke: #000000; stroke-width: 0.8"/>
      </g>
     </g>
     <g id="text_10">
      <!-- 0.5 -->
      <g transform="translate(33.276875 45.992256) scale(0.1 -0.1)">
       <use xlink:href="#DejaVuSans-30"/>
       <use xlink:href="#DejaVuSans-2e" x="63.623047"/>
       <use xlink:href="#DejaVuSans-35" x="95.410156"/>
      </g>
     </g>
    </g>
    <g id="text_11">
     <!-- Force Imposed [N] -->
     <g transform="translate(18.8175 161.953274) rotate(-90) scale(0.1 -0.1)">
      <defs>
       <path id="DejaVuSans-46" d="M 628 4666 
L 3309 4666 
L 3309 4134 
L 1259 4134 
L 1259 2759 
L 3109 2759 
L 3109 2228 
L 1259 2228 
L 1259 0 
L 628 0 
L 628 4666 
z
" transform="scale(0.015625)"/>
       <path id="DejaVuSans-6f" d="M 1959 3097 
Q 1497 3097 1228 2736 
Q 959 2375 959 1747 
Q 959 1119 1226 758 
Q 1494 397 1959 397 
Q 2419 397 2687 759 
Q 2956 1122 2956 1747 
Q 2956 2369 2687 2733 
Q 2419 3097 1959 3097 
z
M 1959 3584 
Q 2709 3584 3137 3096 
Q 3566 2609 3566 1747 
Q 3566 888 3137 398 
Q 2709 -91 1959 -91 
Q 1206 -91 779 398 
Q 353 888 353 1747 
Q 353 2609 779 3096 
Q 1206 3584 1959 3584 
z
" transform="scale(0.015625)"/>
       <path id="DejaVuSans-72" d="M 2631 2963 
Q 2534 3019 2420 3045 
Q 2306 3072 2169 3072 
Q 1681 3072 1420 2755 
Q 1159 2438 1159 1844 
L 1159 0 
L 581 0 
L 581 3500 
L 1159 3500 
L 1159 2956 
Q 1341 3275 1631 3429 
Q 1922 3584 2338 3584 
Q 2397 3584 2469 3576 
Q 2541 3569 2628 3553 
L 2631 2963 
z
" transform="scale(0.015625)"/>
       <path id="DejaVuSans-63" d="M 3122 3366 
L 3122 2828 
Q 2878 2963 2633 3030 
Q 2388 3097 2138 3097 
Q 1578 3097 1268 2742 
Q 959 2388 959 1747 
Q 959 1106 1268 751 
Q 1578 397 2138 397 
Q 2388 397 2633 464 
Q 2878 531 3122 666 
L 3122 134 
Q 2881 22 2623 -34 
Q 2366 -91 2075 -91 
Q 1284 -91 818 406 
Q 353 903 353 1747 
Q 353 2603 823 3093 
Q 1294 3584 2113 3584 
Q 2378 3584 2631 3529 
Q 2884 3475 3122 3366 
z
" transform="scale(0.015625)"/>
       <path id="DejaVuSans-65" d="M 3597 1894 
L 3597 1613 
L 953 1613 
Q 991 1019 1311 708 
Q 1631 397 2203 397 
Q 2534 397 2845 478 
Q 3156 559 3463 722 
L 3463 178 
Q 3153 47 2828 -22 
Q 2503 -91 2169 -91 
Q 1331 -91 842 396 
Q 353 884 353 1716 
Q 353 2575 817 3079 
Q 1281 3584 2069 3584 
Q 2775 3584 3186 3129 
Q 3597 2675 3597 1894 
z
M 3022 2063 
Q 3016 2534 2758 2815 
Q 2500 3097 2075 3097 
Q 1594 3097 1305 2825 
Q 1016 2553 972 2059 
L 3022 2063 
z
" transform="scale(0.015625)"/>
       <path id="DejaVuSans-49" d="M 628 4666 
L 1259 4666 
L 1259 0 
L 628 0 
L 628 4666 
z
" transform="scale(0.015625)"/>
       <path id="DejaVuSans-6d" d="M 3328 2828 
Q 3544 3216 3844 3400 
Q 4144 3584 4550 3584 
Q 5097 3584 5394 3201 
Q 5691 2819 5691 2113 
L 5691 0 
L 5113 0 
L 5113 2094 
Q 5113 2597 4934 2840 
Q 4756 3084 4391 3084 
Q 3944 3084 3684 2787 
Q 3425 2491 3425 1978 
L 3425 0 
L 2847 0 
L 2847 2094 
Q 2847 2600 2669 2842 
Q 2491 3084 2119 3084 
Q 1678 3084 1418 2786 
Q 1159 2488 1159 1978 
L 1159 0 
L 581 0 
L 581 3500 
L 1159 3500 
L 1159 2956 
Q 1356 3278 1631 3431 
Q 1906 3584 2284 3584 
Q 2666 3584 2933 3390 
Q 3200 3197 3328 2828 
z
" transform="scale(0.015625)"/>
       <path id="DejaVuSans-70" d="M 1159 525 
L 1159 -1331 
L 581 -1331 
L 581 3500 
L 1159 3500 
L 1159 2969 
Q 1341 3281 1617 3432 
Q 1894 3584 2278 3584 
Q 2916 3584 3314 3078 
Q 3713 2572 3713 1747 
Q 3713 922 3314 415 
Q 2916 -91 2278 -91 
Q 1894 -91 1617 61 
Q 1341 213 1159 525 
z
M 3116 1747 
Q 3116 2381 2855 2742 
Q 2594 3103 2138 3103 
Q 1681 3103 1420 2742 
Q 1159 2381 1159 1747 
Q 1159 1113 1420 752 
Q 1681 391 2138 391 
Q 2594 391 2855 752 
Q 3116 1113 3116 1747 
z
" transform="scale(0.015625)"/>
       <path id="DejaVuSans-64" d="M 2906 2969 
L 2906 4863 
L 3481 4863 
L 3481 0 
L 2906 0 
L 2906 525 
Q 2725 213 2448 61 
Q 2172 -91 1784 -91 
Q 1150 -91 751 415 
Q 353 922 353 1747 
Q 353 2572 751 3078 
Q 1150 3584 1784 3584 
Q 2172 3584 2448 3432 
Q 2725 3281 2906 2969 
z
M 947 1747 
Q 947 1113 1208 752 
Q 1469 391 1925 391 
Q 2381 391 2643 752 
Q 2906 1113 2906 1747 
Q 2906 2381 2643 2742 
Q 2381 3103 1925 3103 
Q 1469 3103 1208 2742 
Q 947 2381 947 1747 
z
" transform="scale(0.015625)"/>
       <path id="DejaVuSans-4e" d="M 628 4666 
L 1478 4666 
L 3547 763 
L 3547 4666 
L 4159 4666 
L 4159 0 
L 3309 0 
L 1241 3903 
L 1241 0 
L 628 0 
L 628 4666 
z
" transform="scale(0.015625)"/>
      </defs>
      <use xlink:href="#DejaVuSans-46"/>
      <use xlink:href="#DejaVuSans-6f" x="53.894531"/>
      <use xlink:href="#DejaVuSans-72" x="115.076172"/>
      <use xlink:href="#DejaVuSans-63" x="153.939453"/>
      <use xlink:href="#DejaVuSans-65" x="208.919922"/>
      <use xlink:href="#DejaVuSans-20" x="270.443359"/>
      <use xlink:href="#DejaVuSans-49" x="302.230469"/>
      <use xlink:href="#DejaVuSans-6d" x="331.722656"/>
      <use xlink:href="#DejaVuSans-70" x="429.134766"/>
      <use xlink:href="#DejaVuSans-6f" x="492.611328"/>
      <use xlink:href="#DejaVuSans-73" x="553.792969"/>
      <use xlink:href="#DejaVuSans-65" x="605.892578"/>
      <use xlink:href="#DejaVuSans-64" x="667.416016"/>
      <use xlink:href="#DejaVuSans-20" x="730.892578"/>
      <use xlink:href="#DejaVuSans-5b" x="762.679688"/>
      <use xlink:href="#DejaVuSans-4e" x="801.693359"/>
      <use xlink:href="#DejaVuSans-5d" x="876.498047"/>
     </g>
    </g>
   </g>
   <g id="line2d_10">
    <path d="M 56.100649 81.69829 
L 56.524372 84.027661 
L 56.806854 84.430134 
L 57.089337 83.772672 
L 57.795542 81.149735 
L 57.936783 81.616215 
L 58.219265 84.630611 
L 58.92547 95.06579 
L 59.066711 95.614477 
L 59.207952 95.110292 
L 59.490434 91.448704 
L 60.055398 83.140351 
L 60.196639 82.520239 
L 60.33788 82.82067 
L 60.620362 86.18583 
L 61.326567 99.451199 
L 61.609049 100.947315 
L 61.75029 100.298029 
L 62.032772 96.438775 
L 62.597736 88.013875 
L 62.738977 87.661103 
L 62.880218 88.306533 
L 63.1627 91.862026 
L 63.727664 99.439398 
L 63.868905 99.280645 
L 64.151387 95.505982 
L 64.716351 86.46258 
L 64.857592 86.261081 
L 64.998833 87.275636 
L 65.281315 92.889497 
L 65.846279 107.167436 
L 65.98752 108.332983 
L 66.128761 108.1233 
L 66.270002 106.640649 
L 66.552484 100.171178 
L 67.117448 82.980487 
L 67.258689 81.594502 
L 67.39993 82.132079 
L 67.682412 88.395312 
L 68.388618 113.760594 
L 68.529859 115.107715 
L 68.6711 114.408584 
L 68.953582 107.910101 
L 69.659787 86.691373 
L 69.801028 86.378589 
L 69.942269 88.081788 
L 70.365992 100.642226 
L 70.789715 112.779791 
L 70.930956 114.60466 
L 71.072197 114.718186 
L 71.213438 113.06701 
L 72.060884 94.279668 
L 72.202125 94.340327 
L 72.343366 95.861635 
L 72.767089 106.481135 
L 73.049571 112.680532 
L 73.190812 113.787495 
L 73.332053 113.326481 
L 73.614535 108.311765 
L 74.179499 95.277657 
L 74.32074 94.137267 
L 74.461981 94.235884 
L 74.744463 97.296444 
L 75.309427 104.135473 
L 75.450668 104.480298 
L 75.591909 103.722465 
L 75.874391 98.528713 
L 76.580596 80.230106 
L 76.721837 79.021569 
L 76.863078 79.22319 
L 77.14556 83.578332 
L 77.851765 100.520472 
L 77.993006 101.268053 
L 78.134247 100.839661 
L 78.416729 97.088547 
L 78.840452 90.046148 
L 78.981693 89.435899 
L 79.122934 89.825726 
L 79.405416 92.822373 
L 80.111622 103.588392 
L 80.394104 104.992665 
L 80.535345 105.030571 
L 81.100309 104.120808 
L 81.24155 104.140289 
L 81.382791 104.432374 
L 81.665273 106.142038 
L 82.088996 109.562048 
L 82.230237 110.039322 
L 82.371478 110.031735 
L 82.65396 109.22725 
L 83.218924 106.769817 
L 83.360165 106.731315 
L 83.501406 107.160552 
L 84.207611 111.613071 
L 84.348852 111.358398 
L 84.631334 109.226505 
L 85.47878 99.502917 
L 85.620021 99.583564 
L 85.761262 100.107891 
L 86.043744 102.617172 
L 86.749949 112.769138 
L 86.89119 112.934851 
L 87.032431 112.345399 
L 87.314913 109.405416 
L 88.021118 100.245084 
L 88.162359 100.514973 
L 88.444841 103.786962 
L 88.868564 109.234831 
L 89.151046 110.371054 
L 89.292287 109.952273 
L 89.574769 107.010298 
L 89.998492 102.311489 
L 90.139733 102.04476 
L 90.280974 102.412792 
L 90.563456 104.601639 
L 91.128421 110.88201 
L 91.269662 110.833101 
L 91.410903 109.459734 
L 91.693385 103.428864 
L 92.39959 86.250955 
L 92.540831 84.861937 
L 92.682072 84.966351 
L 92.964554 89.343954 
L 93.388277 97.508988 
L 93.670759 99.375084 
L 93.812 98.953387 
L 94.094482 94.927144 
L 94.659446 84.152592 
L 94.800687 83.559046 
L 94.941928 83.978837 
L 95.22441 86.866112 
L 96.071856 98.540162 
L 96.213097 97.971614 
L 96.495579 94.687628 
L 97.060543 86.521112 
L 97.201784 85.735934 
L 97.343025 86.004126 
L 97.625507 88.872837 
L 98.190471 96.330393 
L 98.472953 97.84573 
L 98.614194 97.631719 
L 98.896676 95.047267 
L 99.46164 89.051829 
L 99.744122 88.346509 
L 99.885363 88.524317 
L 100.167845 89.638933 
L 100.450327 90.785184 
L 100.591568 90.805312 
L 100.87405 89.502543 
L 101.297773 87.481401 
L 101.580255 86.983104 
L 101.721496 87.386929 
L 102.003978 90.7292 
L 102.992666 109.072075 
L 103.133907 109.629563 
L 103.275148 109.271406 
L 103.981353 103.859932 
L 104.122594 104.057233 
L 104.405076 105.564726 
L 104.97004 110.32 
L 105.111281 110.390935 
L 105.252522 109.689949 
L 105.676245 104.576088 
L 106.241209 98.707868 
L 106.38245 97.951289 
L 106.523691 97.840286 
L 106.806173 99.28152 
L 107.229896 101.236193 
L 107.371137 101.398375 
L 107.512378 101.18268 
L 107.79486 99.718027 
L 108.218583 96.954605 
L 108.359824 96.83054 
L 108.501065 97.602086 
L 108.783547 101.870142 
L 109.348511 112.548548 
L 109.489752 113.671004 
L 109.630993 113.523234 
L 109.913475 109.471088 
L 110.478439 98.895085 
L 110.61968 97.928233 
L 110.760921 98.056976 
L 110.902162 99.298918 
L 111.184644 104.747234 
L 111.749608 117.140474 
L 111.890849 117.961501 
L 112.03209 117.719925 
L 112.314572 114.409735 
L 113.020777 102.188108 
L 113.162018 102.136787 
L 113.303259 103.113889 
L 113.726983 109.872071 
L 114.009465 113.795527 
L 114.150706 114.184355 
L 114.291947 113.099834 
L 114.574429 107.048963 
L 115.139393 93.074305 
L 115.280634 91.665673 
L 115.421875 91.635141 
L 115.563116 93.195407 
L 115.845598 100.706194 
L 116.410562 118.393543 
L 116.693044 121.926285 
L 116.834285 121.734121 
L 117.116767 118.42018 
L 117.399249 114.278072 
L 117.54049 113.426586 
L 117.681731 113.966723 
L 117.964213 119.066416 
L 118.670418 139.056484 
L 118.811659 140.012307 
L 118.9529 138.902694 
L 119.235382 131.591327 
L 119.800346 112.588491 
L 119.941587 110.610355 
L 120.082828 110.59573 
L 120.224069 112.523643 
L 120.647792 126.1616 
L 121.071515 137.597997 
L 121.212756 138.804712 
L 121.353997 138.512264 
L 121.495238 136.571102 
L 121.918961 123.574668 
L 122.342684 113.154137 
L 122.483925 112.28657 
L 122.625166 112.94939 
L 122.907648 117.866868 
L 123.331371 126.785445 
L 123.472612 127.913958 
L 123.613853 127.3435 
L 123.896335 121.591812 
L 124.461299 106.376518 
L 124.743782 103.952338 
L 124.885023 105.072823 
L 125.167505 111.72447 
L 125.732469 128.45509 
L 126.014951 131.975827 
L 126.156192 132.210445 
L 126.297433 131.479048 
L 126.862397 125.713805 
L 127.003638 125.516884 
L 127.144879 126.22034 
L 127.427361 130.20848 
L 128.133566 143.381411 
L 128.274807 143.632802 
L 128.416048 142.636653 
L 129.404735 130.793708 
L 129.545976 131.526494 
L 130.393422 141.638313 
L 130.534663 141.277817 
L 130.817145 138.59139 
L 131.664591 126.647982 
L 131.947073 128.705699 
L 132.370796 135.158365 
L 132.653278 138.869885 
L 132.794519 139.382822 
L 132.93576 139.011911 
L 133.218242 136.48989 
L 133.641965 132.22799 
L 133.783206 131.866953 
L 133.924447 132.257704 
L 134.206929 135.77488 
L 134.913134 149.465981 
L 135.195616 151.539492 
L 135.478098 152.274893 
L 135.619339 152.125283 
L 136.043063 151.213497 
L 136.325545 151.017019 
L 136.466786 150.671199 
L 136.749268 148.710235 
L 137.03175 144.873877 
L 137.596714 131.991747 
L 137.879196 127.747422 
L 138.020437 127.566581 
L 138.161678 128.688911 
L 138.44416 134.491832 
L 139.291606 159.782258 
L 139.432847 159.870517 
L 139.574088 158.311173 
L 139.85657 151.569113 
L 140.562775 130.868863 
L 140.704016 130.168201 
L 140.845257 130.960036 
L 141.127739 135.870656 
L 141.833944 152.148907 
L 141.975185 152.6684 
L 142.116426 151.863506 
L 142.540149 144.771358 
L 143.105113 136.239221 
L 143.246354 135.699456 
L 143.387595 135.99186 
L 143.670077 137.399403 
L 143.811318 137.513239 
L 143.952559 137.043712 
L 144.235041 134.7909 
L 144.658764 130.723131 
L 144.800005 130.266742 
L 144.941246 130.612078 
L 145.223728 133.639795 
L 145.788692 142.114075 
L 145.929933 142.44837 
L 146.071174 141.687185 
L 146.353656 136.557744 
L 146.777379 119.528995 
L 147.201102 103.262542 
L 147.483585 99.458902 
L 147.624826 100.572429 
L 147.907308 109.133962 
L 148.754754 145.119472 
L 148.895995 146.885046 
L 149.037236 146.931109 
L 149.178477 145.301445 
L 150.167164 125.360472 
L 150.308405 124.970284 
L 150.449646 125.382614 
L 150.732128 128.021502 
L 151.579574 137.557946 
L 152.003297 141.171625 
L 152.568261 143.334617 
L 152.709502 143.479914 
L 152.850743 143.099511 
L 153.133225 140.328423 
L 153.980671 128.183759 
L 154.121912 127.684782 
L 154.263153 128.085255 
L 154.545635 132.090191 
L 155.25184 146.720409 
L 155.534322 148.61305 
L 155.675563 147.965902 
L 155.958045 144.106136 
L 156.523009 135.67549 
L 156.805491 133.449955 
L 156.946732 133.280964 
L 157.087973 133.914065 
L 157.935419 141.66263 
L 158.217901 142.165428 
L 158.359142 141.840818 
L 158.924107 139.476043 
L 159.34783 139.208202 
L 159.489071 138.817467 
L 159.771553 136.735358 
L 160.195276 130.844908 
L 160.618999 123.994764 
L 160.76024 123.029416 
L 160.901481 123.186584 
L 161.183963 126.292887 
L 162.17265 142.398954 
L 162.313891 140.998369 
L 162.596373 134.591565 
L 163.161337 119.675059 
L 163.443819 117.281781 
L 163.58506 118.547217 
L 163.867542 125.614773 
L 164.432506 141.689092 
L 164.573747 143.506265 
L 164.714988 143.806058 
L 164.856229 142.542359 
L 165.279952 132.822176 
L 165.703675 123.859063 
L 165.986157 120.830236 
L 166.127398 120.60464 
L 166.268639 121.363318 
L 166.692362 127.427487 
L 166.974844 130.934311 
L 167.257326 132.078581 
L 167.398567 131.794495 
L 167.681049 130.01287 
L 167.963531 127.9985 
L 168.104772 127.58318 
L 168.246013 127.734828 
L 168.528495 129.353604 
L 168.810977 131.149511 
L 168.952218 131.486174 
L 169.093459 131.198479 
L 169.2347 130.07254 
L 169.517182 124.932249 
L 170.082147 112.299187 
L 170.223388 111.150224 
L 170.364629 111.328583 
L 170.50587 112.82626 
L 170.788352 119.464233 
L 171.494557 140.415886 
L 171.635798 140.923191 
L 171.777039 139.837009 
L 172.059521 133.755411 
L 172.765726 112.216902 
L 172.906967 110.80094 
L 173.048208 111.023898 
L 173.33069 115.681295 
L 174.036895 131.803867 
L 174.178136 132.687179 
L 174.319377 132.527966 
L 174.601859 130.430593 
L 175.308064 123.052243 
L 175.449305 122.639232 
L 175.873028 122.495608 
L 176.15551 121.401812 
L 176.720474 118.402591 
L 177.002956 117.754023 
L 177.144197 118.034894 
L 177.426679 120.289797 
L 178.274125 129.887435 
L 178.415366 129.432581 
L 178.697848 125.602011 
L 179.404053 111.425388 
L 179.686535 109.326711 
L 179.827776 109.304551 
L 180.110258 110.682459 
L 180.39274 111.938091 
L 180.533981 112.065984 
L 180.816463 111.671781 
L 181.381428 110.417415 
L 181.522669 110.474057 
L 181.805151 111.434678 
L 182.087633 113.612254 
L 182.652597 118.542673 
L 182.935079 119.726498 
L 183.07632 119.696962 
L 183.358802 118.062008 
L 183.358802 118.062008 
" clip-path="url(#p8faf7d8f41)" style="fill: none; stroke: #1f77b4; stroke-width: 1.5; stroke-linecap: square"/>
   </g>
   <g id="patch_3">
    <path d="M 56.18 193.477287 
L 56.18 38.874574 
" style="fill: none; stroke: #000000; stroke-width: 0.8; stroke-linejoin: miter; stroke-linecap: square"/>
   </g>
   <g id="patch_4">
    <path d="M 183.33 193.477287 
L 183.33 38.874574 
" style="fill: none; stroke: #000000; stroke-width: 0.8; stroke-linejoin: miter; stroke-linecap: square"/>
   </g>
   <g id="patch_5">
    <path d="M 56.18 193.477287 
L 183.33 193.477287 
" style="fill: none; stroke: #000000; stroke-width: 0.8; stroke-linejoin: miter; stroke-linecap: square"/>
   </g>
   <g id="patch_6">
    <path d="M 56.18 38.874574 
L 183.33 38.874574 
" style="fill: none; stroke: #000000; stroke-width: 0.8; stroke-linejoin: miter; stroke-linecap: square"/>
   </g>
  </g>
  <g id="axes_2">
   <g id="patch_7">
    <path d="M 243.92 193.477287 
L 371.07 193.477287 
L 371.07 38.874574 
L 243.92 38.874574 
z
" style="fill: #ffffff"/>
   </g>
   <g id="matplotlib.axis_3">
    <g id="xtick_5">
     <g id="line2d_11">
      <g>
       <use xlink:href="#m9b7d2febbc" x="243.92" y="193.477287" style="stroke: #000000; stroke-width: 0.8"/>
      </g>
     </g>
     <g id="text_12">
      <!-- 20 -->
      <g transform="translate(237.5575 208.075724) scale(0.1 -0.1)">
       <use xlink:href="#DejaVuSans-32"/>
       <use xlink:href="#DejaVuSans-30" x="63.623047"/>
      </g>
     </g>
    </g>
    <g id="xtick_6">
     <g id="line2d_12">
      <g>
       <use xlink:href="#m9b7d2febbc" x="286.303333" y="193.477287" style="stroke: #000000; stroke-width: 0.8"/>
      </g>
     </g>
     <g id="text_13">
      <!-- 21 -->
      <g transform="translate(279.940833 208.075724) scale(0.1 -0.1)">
       <use xlink:href="#DejaVuSans-32"/>
       <use xlink:href="#DejaVuSans-31" x="63.623047"/>
      </g>
     </g>
    </g>
    <g id="xtick_7">
     <g id="line2d_13">
      <g>
       <use xlink:href="#m9b7d2febbc" x="328.686667" y="193.477287" style="stroke: #000000; stroke-width: 0.8"/>
      </g>
     </g>
     <g id="text_14">
      <!-- 22 -->
      <g transform="translate(322.324167 208.075724) scale(0.1 -0.1)">
       <use xlink:href="#DejaVuSans-32"/>
       <use xlink:href="#DejaVuSans-32" x="63.623047"/>
      </g>
     </g>
    </g>
    <g id="xtick_8">
     <g id="line2d_14">
      <g>
       <use xlink:href="#m9b7d2febbc" x="371.07" y="193.477287" style="stroke: #000000; stroke-width: 0.8"/>
      </g>
     </g>
     <g id="text_15">
      <!-- 23 -->
      <g transform="translate(364.7075 208.075724) scale(0.1 -0.1)">
       <use xlink:href="#DejaVuSans-32"/>
       <use xlink:href="#DejaVuSans-33" x="63.623047"/>
      </g>
     </g>
    </g>
    <g id="text_16">
     <!-- t [s] -->
     <g transform="translate(297.439531 221.753849) scale(0.1 -0.1)">
      <use xlink:href="#DejaVuSans-74"/>
      <use xlink:href="#DejaVuSans-20" x="39.208984"/>
      <use xlink:href="#DejaVuSans-5b" x="70.996094"/>
      <use xlink:href="#DejaVuSans-73" x="110.009766"/>
      <use xlink:href="#DejaVuSans-5d" x="162.109375"/>
     </g>
    </g>
   </g>
   <g id="matplotlib.axis_4">
    <g id="ytick_6">
     <g id="line2d_15">
      <g>
       <use xlink:href="#m8e918c58c1" x="243.92" y="180.489572" style="stroke: #000000; stroke-width: 0.8"/>
      </g>
     </g>
     <g id="text_17">
      <!-- 70.0 -->
      <g transform="translate(214.654375 184.288791) scale(0.1 -0.1)">
       <defs>
        <path id="DejaVuSans-37" d="M 525 4666 
L 3525 4666 
L 3525 4397 
L 1831 0 
L 1172 0 
L 2766 4134 
L 525 4134 
L 525 4666 
z
" transform="scale(0.015625)"/>
       </defs>
       <use xlink:href="#DejaVuSans-37"/>
       <use xlink:href="#DejaVuSans-30" x="63.623047"/>
       <use xlink:href="#DejaVuSans-2e" x="127.246094"/>
       <use xlink:href="#DejaVuSans-30" x="159.033203"/>
      </g>
     </g>
    </g>
    <g id="ytick_7">
     <g id="line2d_16">
      <g>
       <use xlink:href="#m8e918c58c1" x="243.92" y="150.112758" style="stroke: #000000; stroke-width: 0.8"/>
      </g>
     </g>
     <g id="text_18">
      <!-- 70.5 -->
      <g transform="translate(214.654375 153.911977) scale(0.1 -0.1)">
       <use xlink:href="#DejaVuSans-37"/>
       <use xlink:href="#DejaVuSans-30" x="63.623047"/>
       <use xlink:href="#DejaVuSans-2e" x="127.246094"/>
       <use xlink:href="#DejaVuSans-35" x="159.033203"/>
      </g>
     </g>
    </g>
    <g id="ytick_8">
     <g id="line2d_17">
      <g>
       <use xlink:href="#m8e918c58c1" x="243.92" y="119.735945" style="stroke: #000000; stroke-width: 0.8"/>
      </g>
     </g>
     <g id="text_19">
      <!-- 71.0 -->
      <g transform="translate(214.654375 123.535164) scale(0.1 -0.1)">
       <use xlink:href="#DejaVuSans-37"/>
       <use xlink:href="#DejaVuSans-31" x="63.623047"/>
       <use xlink:href="#DejaVuSans-2e" x="127.246094"/>
       <use xlink:href="#DejaVuSans-30" x="159.033203"/>
      </g>
     </g>
    </g>
    <g id="ytick_9">
     <g id="line2d_18">
      <g>
       <use xlink:href="#m8e918c58c1" x="243.92" y="89.359131" style="stroke: #000000; stroke-width: 0.8"/>
      </g>
     </g>
     <g id="text_20">
      <!-- 71.5 -->
      <g transform="translate(214.654375 93.15835) scale(0.1 -0.1)">
       <use xlink:href="#DejaVuSans-37"/>
       <use xlink:href="#DejaVuSans-31" x="63.623047"/>
       <use xlink:href="#DejaVuSans-2e" x="127.246094"/>
       <use xlink:href="#DejaVuSans-35" x="159.033203"/>
      </g>
     </g>
    </g>
    <g id="ytick_10">
     <g id="line2d_19">
      <g>
       <use xlink:href="#m8e918c58c1" x="243.92" y="58.982318" style="stroke: #000000; stroke-width: 0.8"/>
      </g>
     </g>
     <g id="text_21">
      <!-- 72.0 -->
      <g transform="translate(214.654375 62.781536) scale(0.1 -0.1)">
       <use xlink:href="#DejaVuSans-37"/>
       <use xlink:href="#DejaVuSans-32" x="63.623047"/>
       <use xlink:href="#DejaVuSans-2e" x="127.246094"/>
       <use xlink:href="#DejaVuSans-30" x="159.033203"/>
      </g>
     </g>
    </g>
    <g id="text_22">
     <!-- Laser [mm] -->
     <g transform="translate(208.574687 144.993899) rotate(-90) scale(0.1 -0.1)">
      <defs>
       <path id="DejaVuSans-4c" d="M 628 4666 
L 1259 4666 
L 1259 531 
L 3531 531 
L 3531 0 
L 628 0 
L 628 4666 
z
" transform="scale(0.015625)"/>
       <path id="DejaVuSans-61" d="M 2194 1759 
Q 1497 1759 1228 1600 
Q 959 1441 959 1056 
Q 959 750 1161 570 
Q 1363 391 1709 391 
Q 2188 391 2477 730 
Q 2766 1069 2766 1631 
L 2766 1759 
L 2194 1759 
z
M 3341 1997 
L 3341 0 
L 2766 0 
L 2766 531 
Q 2569 213 2275 61 
Q 1981 -91 1556 -91 
Q 1019 -91 701 211 
Q 384 513 384 1019 
Q 384 1609 779 1909 
Q 1175 2209 1959 2209 
L 2766 2209 
L 2766 2266 
Q 2766 2663 2505 2880 
Q 2244 3097 1772 3097 
Q 1472 3097 1187 3025 
Q 903 2953 641 2809 
L 641 3341 
Q 956 3463 1253 3523 
Q 1550 3584 1831 3584 
Q 2591 3584 2966 3190 
Q 3341 2797 3341 1997 
z
" transform="scale(0.015625)"/>
      </defs>
      <use xlink:href="#DejaVuSans-4c"/>
      <use xlink:href="#DejaVuSans-61" x="55.712891"/>
      <use xlink:href="#DejaVuSans-73" x="116.992188"/>
      <use xlink:href="#DejaVuSans-65" x="169.091797"/>
      <use xlink:href="#DejaVuSans-72" x="230.615234"/>
      <use xlink:href="#DejaVuSans-20" x="271.728516"/>
      <use xlink:href="#DejaVuSans-5b" x="303.515625"/>
      <use xlink:href="#DejaVuSans-6d" x="342.529297"/>
      <use xlink:href="#DejaVuSans-6d" x="439.941406"/>
      <use xlink:href="#DejaVuSans-5d" x="537.353516"/>
     </g>
    </g>
   </g>
   <g id="line2d_20">
    <path d="M 243.840649 122.07576 
L 244.546854 117.92268 
L 245.111819 115.8276 
L 245.394301 115.384018 
L 245.676783 115.257015 
L 245.959265 115.380773 
L 246.241747 115.772905 
L 246.806711 117.23529 
L 247.230434 118.02419 
L 247.371675 118.061734 
L 247.654157 117.769257 
L 248.07788 116.516844 
L 248.925326 113.711661 
L 249.207808 113.32231 
L 249.349049 113.325555 
L 249.49029 113.504934 
L 249.772772 114.379584 
L 250.337736 117.369245 
L 252.597592 130.093615 
L 252.880074 131.012762 
L 253.162556 131.268158 
L 253.445038 130.901982 
L 253.868761 129.612025 
L 254.292484 127.523433 
L 254.857448 123.574299 
L 256.269859 112.839329 
L 256.693582 111.087712 
L 256.976064 110.531496 
L 257.117305 110.515736 
L 257.258546 110.695116 
L 257.541028 111.6481 
L 257.964751 114.506123 
L 258.812197 121.085232 
L 259.094679 121.703559 
L 259.23592 121.717001 
L 259.518402 121.373074 
L 260.224607 120.194823 
L 260.507089 120.029812 
L 260.789571 120.133176 
L 261.072053 120.458099 
L 261.495776 121.412936 
L 262.343222 123.511725 
L 262.625704 123.67071 
L 262.908186 123.406971 
L 263.190668 122.809966 
L 263.614391 121.272492 
L 264.320596 118.663375 
L 264.744319 117.942611 
L 265.168042 117.457776 
L 265.591765 116.460296 
L 266.156729 114.214573 
L 266.862934 111.63095 
L 267.145416 111.179024 
L 267.427899 111.090493 
L 268.557827 111.242062 
L 268.98155 111.231865 
L 269.264032 111.387142 
L 269.546514 111.920646 
L 269.828996 112.990898 
L 270.39396 116.331439 
L 271.100165 120.173038 
L 271.382647 120.79739 
L 271.523888 120.819639 
L 271.665129 120.653238 
L 271.947611 119.802691 
L 272.512575 117.026709 
L 273.21878 112.178822 
L 274.066226 106.121629 
L 274.489949 104.185998 
L 274.772431 103.723411 
L 274.913672 103.779496 
L 275.196154 104.485891 
L 276.184841 108.26028 
L 277.738492 111.353769 
L 278.162215 113.035859 
L 278.868421 116.133055 
L 279.150903 116.602131 
L 280.13959 117.089283 
L 280.987036 117.982937 
L 281.410759 119.136158 
L 282.116964 121.295204 
L 282.399446 121.416644 
L 282.540687 121.246535 
L 282.823169 120.31441 
L 283.246892 117.412352 
L 283.953097 109.979915 
L 285.365507 94.40911 
L 285.647989 93.245227 
L 285.930471 92.756684 
L 286.212953 92.682986 
L 286.495435 92.970828 
L 288.190327 96.280777 
L 288.896532 98.498225 
L 289.461496 100.301755 
L 289.743978 100.7852 
L 290.026461 100.903396 
L 290.308943 100.620189 
L 290.732666 99.486435 
L 292.145076 94.714565 
L 292.286317 94.600541 
L 292.427558 94.67563 
L 292.71004 95.348651 
L 293.275004 96.929695 
L 293.416245 97.002931 
L 293.557486 96.904202 
L 293.839968 96.267335 
L 294.404932 93.98963 
L 295.252378 90.467392 
L 295.53486 89.881047 
L 295.958583 89.576055 
L 296.382306 89.316488 
L 296.664788 88.650883 
L 297.229752 86.050573 
L 297.794716 83.851202 
L 298.077198 83.339019 
L 298.35968 83.196257 
L 299.065885 83.292668 
L 299.913331 82.455099 
L 300.195813 82.59508 
L 300.619536 83.22036 
L 301.043259 84.291539 
L 301.466983 86.025543 
L 302.738152 92.112401 
L 303.020634 92.270922 
L 303.161875 92.094787 
L 303.444357 91.195571 
L 303.86808 88.669423 
L 304.998008 80.804065 
L 305.28049 79.938222 
L 305.562972 79.725932 
L 305.845454 80.020727 
L 308.387792 84.05283 
L 308.670274 84.361066 
L 308.952756 84.366165 
L 309.235238 83.84703 
L 309.658961 82.107001 
L 310.082684 80.472189 
L 310.365166 80.214939 
L 310.506407 80.391074 
L 310.788889 81.412194 
L 311.212612 84.43152 
L 313.472469 105.518599 
L 314.037433 110.512028 
L 314.461156 112.402699 
L 314.743638 112.766094 
L 314.884879 112.718352 
L 315.167361 112.221002 
L 315.591084 110.707631 
L 316.297289 107.057 
L 317.568458 100.311489 
L 318.274663 97.566563 
L 318.980868 95.745419 
L 319.828314 93.786148 
L 320.958242 90.431701 
L 321.240724 90.117439 
L 321.381965 90.074332 
L 321.523206 90.153593 
L 321.805688 90.842838 
L 322.08817 92.295489 
L 322.511893 95.62815 
L 323.924304 108.274186 
L 324.348027 109.638306 
L 324.630509 109.920585 
L 325.195473 110.16532 
L 325.477955 110.627443 
L 326.325401 112.824033 
L 326.466642 112.708155 
L 326.749124 111.835823 
L 327.172847 109.319872 
L 328.161534 101.238979 
L 328.585257 98.6929 
L 328.867739 98.141783 
L 329.00898 98.200649 
L 329.291462 98.844006 
L 329.715185 100.741166 
L 331.127595 108.530972 
L 331.551318 109.625791 
L 331.8338 109.88165 
L 331.975041 109.826029 
L 332.257523 109.345829 
L 332.963728 107.260945 
L 333.669933 105.294258 
L 333.952415 105.120904 
L 334.234897 105.336901 
L 334.799861 106.050712 
L 335.082344 105.985357 
L 335.364826 105.636794 
L 335.788549 104.677322 
L 336.353513 102.540062 
L 336.918477 100.511263 
L 337.200959 99.919357 
L 337.483441 99.81553 
L 337.765923 100.242426 
L 338.613369 102.265198 
L 338.895851 102.401471 
L 339.178333 102.268906 
L 339.460815 101.922198 
L 339.884538 100.809302 
L 341.155707 96.43559 
L 341.57943 95.168808 
L 341.861912 94.874477 
L 342.003153 94.969961 
L 342.285635 95.655961 
L 342.709358 97.609206 
L 343.980527 104.70745 
L 344.545491 106.6454 
L 344.827973 107.048193 
L 344.969214 107.031506 
L 345.251696 106.594877 
L 345.675419 105.26413 
L 346.240384 102.521521 
L 347.370312 95.602193 
L 347.511553 95.403346 
L 347.652794 95.40659 
L 348.076517 95.959562 
L 348.50024 96.841164 
L 348.923963 98.379565 
L 349.347686 100.907104 
L 350.053891 106.956881 
L 351.042578 115.243573 
L 351.32506 116.298066 
L 351.466301 116.3764 
L 351.607542 116.150205 
L 351.890024 114.941362 
L 352.596229 111.396875 
L 352.73747 111.281924 
L 352.878711 111.469647 
L 353.161193 112.719743 
L 355.138567 126.02304 
L 355.421049 126.727117 
L 355.56229 126.823065 
L 355.703531 126.754001 
L 355.986013 126.200103 
L 356.409736 124.719177 
L 357.539665 120.160523 
L 357.822147 119.730846 
L 357.963388 119.74197 
L 358.24587 120.180918 
L 358.810834 122.041924 
L 360.082003 126.467086 
L 361.211931 131.122151 
L 361.918136 135.153327 
L 363.471787 145.071123 
L 363.754269 145.534637 
L 364.036751 145.661176 
L 364.319233 145.554568 
L 364.742956 144.995571 
L 365.731643 143.094239 
L 366.155366 142.335467 
L 366.437848 142.208465 
L 366.861571 142.481474 
L 367.285294 142.656682 
L 367.709017 142.455981 
L 368.13274 141.941481 
L 368.556463 140.998231 
L 369.40391 138.906395 
L 370.251356 137.416663 
L 370.675079 137.082933 
L 370.957561 137.154778 
L 371.098802 137.291978 
L 371.098802 137.291978 
" clip-path="url(#pbd5a05b470)" style="fill: none; stroke: #1f77b4; stroke-width: 1.5; stroke-linecap: square"/>
   </g>
   <g id="patch_8">
    <path d="M 243.92 193.477287 
L 243.92 38.874574 
" style="fill: none; stroke: #000000; stroke-width: 0.8; stroke-linejoin: miter; stroke-linecap: square"/>
   </g>
   <g id="patch_9">
    <path d="M 371.07 193.477287 
L 371.07 38.874574 
" style="fill: none; stroke: #000000; stroke-width: 0.8; stroke-linejoin: miter; stroke-linecap: square"/>
   </g>
   <g id="patch_10">
    <path d="M 243.92 193.477287 
L 371.07 193.477287 
" style="fill: none; stroke: #000000; stroke-width: 0.8; stroke-linejoin: miter; stroke-linecap: square"/>
   </g>
   <g id="patch_11">
    <path d="M 243.92 38.874574 
L 371.07 38.874574 
" style="fill: none; stroke: #000000; stroke-width: 0.8; stroke-linejoin: miter; stroke-linecap: square"/>
   </g>
  </g>
  <g id="axes_3">
   <g id="patch_12">
    <path d="M 431.66 193.477287 
L 558.81 193.477287 
L 558.81 38.874574 
L 431.66 38.874574 
z
" style="fill: #ffffff"/>
   </g>
   <g id="matplotlib.axis_5">
    <g id="xtick_9">
     <g id="line2d_21">
      <g>
       <use xlink:href="#m9b7d2febbc" x="431.66" y="193.477287" style="stroke: #000000; stroke-width: 0.8"/>
      </g>
     </g>
     <g id="text_23">
      <!-- 20 -->
      <g transform="translate(425.2975 208.075724) scale(0.1 -0.1)">
       <use xlink:href="#DejaVuSans-32"/>
       <use xlink:href="#DejaVuSans-30" x="63.623047"/>
      </g>
     </g>
    </g>
    <g id="xtick_10">
     <g id="line2d_22">
      <g>
       <use xlink:href="#m9b7d2febbc" x="474.043333" y="193.477287" style="stroke: #000000; stroke-width: 0.8"/>
      </g>
     </g>
     <g id="text_24">
      <!-- 21 -->
      <g transform="translate(467.680833 208.075724) scale(0.1 -0.1)">
       <use xlink:href="#DejaVuSans-32"/>
       <use xlink:href="#DejaVuSans-31" x="63.623047"/>
      </g>
     </g>
    </g>
    <g id="xtick_11">
     <g id="line2d_23">
      <g>
       <use xlink:href="#m9b7d2febbc" x="516.426667" y="193.477287" style="stroke: #000000; stroke-width: 0.8"/>
      </g>
     </g>
     <g id="text_25">
      <!-- 22 -->
      <g transform="translate(510.064167 208.075724) scale(0.1 -0.1)">
       <use xlink:href="#DejaVuSans-32"/>
       <use xlink:href="#DejaVuSans-32" x="63.623047"/>
      </g>
     </g>
    </g>
    <g id="xtick_12">
     <g id="line2d_24">
      <g>
       <use xlink:href="#m9b7d2febbc" x="558.81" y="193.477287" style="stroke: #000000; stroke-width: 0.8"/>
      </g>
     </g>
     <g id="text_26">
      <!-- 23 -->
      <g transform="translate(552.4475 208.075724) scale(0.1 -0.1)">
       <use xlink:href="#DejaVuSans-32"/>
       <use xlink:href="#DejaVuSans-33" x="63.623047"/>
      </g>
     </g>
    </g>
    <g id="text_27">
     <!-- t [s] -->
     <g transform="translate(485.179531 221.753849) scale(0.1 -0.1)">
      <use xlink:href="#DejaVuSans-74"/>
      <use xlink:href="#DejaVuSans-20" x="39.208984"/>
      <use xlink:href="#DejaVuSans-5b" x="70.996094"/>
      <use xlink:href="#DejaVuSans-73" x="110.009766"/>
      <use xlink:href="#DejaVuSans-5d" x="162.109375"/>
     </g>
    </g>
   </g>
   <g id="matplotlib.axis_6">
    <g id="ytick_11">
     <g id="line2d_25">
      <g>
       <use xlink:href="#m8e918c58c1" x="431.66" y="157.494731" style="stroke: #000000; stroke-width: 0.8"/>
      </g>
     </g>
     <g id="text_28">
      <!-- 54.0 -->
      <g transform="translate(402.394375 161.293949) scale(0.1 -0.1)">
       <defs>
        <path id="DejaVuSans-34" d="M 2419 4116 
L 825 1625 
L 2419 1625 
L 2419 4116 
z
M 2253 4666 
L 3047 4666 
L 3047 1625 
L 3713 1625 
L 3713 1100 
L 3047 1100 
L 3047 0 
L 2419 0 
L 2419 1100 
L 313 1100 
L 313 1709 
L 2253 4666 
z
" transform="scale(0.015625)"/>
       </defs>
       <use xlink:href="#DejaVuSans-35"/>
       <use xlink:href="#DejaVuSans-34" x="63.623047"/>
       <use xlink:href="#DejaVuSans-2e" x="127.246094"/>
       <use xlink:href="#DejaVuSans-30" x="159.033203"/>
      </g>
     </g>
    </g>
    <g id="ytick_12">
     <g id="line2d_26">
      <g>
       <use xlink:href="#m8e918c58c1" x="431.66" y="119.120895" style="stroke: #000000; stroke-width: 0.8"/>
      </g>
     </g>
     <g id="text_29">
      <!-- 54.5 -->
      <g transform="translate(402.394375 122.920114) scale(0.1 -0.1)">
       <use xlink:href="#DejaVuSans-35"/>
       <use xlink:href="#DejaVuSans-34" x="63.623047"/>
       <use xlink:href="#DejaVuSans-2e" x="127.246094"/>
       <use xlink:href="#DejaVuSans-35" x="159.033203"/>
      </g>
     </g>
    </g>
    <g id="ytick_13">
     <g id="line2d_27">
      <g>
       <use xlink:href="#m8e918c58c1" x="431.66" y="80.747059" style="stroke: #000000; stroke-width: 0.8"/>
      </g>
     </g>
     <g id="text_30">
      <!-- 55.0 -->
      <g transform="translate(402.394375 84.546278) scale(0.1 -0.1)">
       <use xlink:href="#DejaVuSans-35"/>
       <use xlink:href="#DejaVuSans-35" x="63.623047"/>
       <use xlink:href="#DejaVuSans-2e" x="127.246094"/>
       <use xlink:href="#DejaVuSans-30" x="159.033203"/>
      </g>
     </g>
    </g>
    <g id="ytick_14">
     <g id="line2d_28">
      <g>
       <use xlink:href="#m8e918c58c1" x="431.66" y="42.373223" style="stroke: #000000; stroke-width: 0.8"/>
      </g>
     </g>
     <g id="text_31">
      <!-- 55.5 -->
      <g transform="translate(402.394375 46.172442) scale(0.1 -0.1)">
       <use xlink:href="#DejaVuSans-35"/>
       <use xlink:href="#DejaVuSans-35" x="63.623047"/>
       <use xlink:href="#DejaVuSans-2e" x="127.246094"/>
       <use xlink:href="#DejaVuSans-35" x="159.033203"/>
      </g>
     </g>
    </g>
    <g id="text_32">
     <!-- US Horizontal [mm] -->
     <g transform="translate(396.314688 165.359524) rotate(-90) scale(0.1 -0.1)">
      <defs>
       <path id="DejaVuSans-55" d="M 556 4666 
L 1191 4666 
L 1191 1831 
Q 1191 1081 1462 751 
Q 1734 422 2344 422 
Q 2950 422 3222 751 
Q 3494 1081 3494 1831 
L 3494 4666 
L 4128 4666 
L 4128 1753 
Q 4128 841 3676 375 
Q 3225 -91 2344 -91 
Q 1459 -91 1007 375 
Q 556 841 556 1753 
L 556 4666 
z
" transform="scale(0.015625)"/>
       <path id="DejaVuSans-53" d="M 3425 4513 
L 3425 3897 
Q 3066 4069 2747 4153 
Q 2428 4238 2131 4238 
Q 1616 4238 1336 4038 
Q 1056 3838 1056 3469 
Q 1056 3159 1242 3001 
Q 1428 2844 1947 2747 
L 2328 2669 
Q 3034 2534 3370 2195 
Q 3706 1856 3706 1288 
Q 3706 609 3251 259 
Q 2797 -91 1919 -91 
Q 1588 -91 1214 -16 
Q 841 59 441 206 
L 441 856 
Q 825 641 1194 531 
Q 1563 422 1919 422 
Q 2459 422 2753 634 
Q 3047 847 3047 1241 
Q 3047 1584 2836 1778 
Q 2625 1972 2144 2069 
L 1759 2144 
Q 1053 2284 737 2584 
Q 422 2884 422 3419 
Q 422 4038 858 4394 
Q 1294 4750 2059 4750 
Q 2388 4750 2728 4690 
Q 3069 4631 3425 4513 
z
" transform="scale(0.015625)"/>
       <path id="DejaVuSans-48" d="M 628 4666 
L 1259 4666 
L 1259 2753 
L 3553 2753 
L 3553 4666 
L 4184 4666 
L 4184 0 
L 3553 0 
L 3553 2222 
L 1259 2222 
L 1259 0 
L 628 0 
L 628 4666 
z
" transform="scale(0.015625)"/>
       <path id="DejaVuSans-69" d="M 603 3500 
L 1178 3500 
L 1178 0 
L 603 0 
L 603 3500 
z
M 603 4863 
L 1178 4863 
L 1178 4134 
L 603 4134 
L 603 4863 
z
" transform="scale(0.015625)"/>
       <path id="DejaVuSans-7a" d="M 353 3500 
L 3084 3500 
L 3084 2975 
L 922 459 
L 3084 459 
L 3084 0 
L 275 0 
L 275 525 
L 2438 3041 
L 353 3041 
L 353 3500 
z
" transform="scale(0.015625)"/>
       <path id="DejaVuSans-6e" d="M 3513 2113 
L 3513 0 
L 2938 0 
L 2938 2094 
Q 2938 2591 2744 2837 
Q 2550 3084 2163 3084 
Q 1697 3084 1428 2787 
Q 1159 2491 1159 1978 
L 1159 0 
L 581 0 
L 581 3500 
L 1159 3500 
L 1159 2956 
Q 1366 3272 1645 3428 
Q 1925 3584 2291 3584 
Q 2894 3584 3203 3211 
Q 3513 2838 3513 2113 
z
" transform="scale(0.015625)"/>
       <path id="DejaVuSans-6c" d="M 603 4863 
L 1178 4863 
L 1178 0 
L 603 0 
L 603 4863 
z
" transform="scale(0.015625)"/>
      </defs>
      <use xlink:href="#DejaVuSans-55"/>
      <use xlink:href="#DejaVuSans-53" x="73.193359"/>
      <use xlink:href="#DejaVuSans-20" x="136.669922"/>
      <use xlink:href="#DejaVuSans-48" x="168.457031"/>
      <use xlink:href="#DejaVuSans-6f" x="243.652344"/>
      <use xlink:href="#DejaVuSans-72" x="304.833984"/>
      <use xlink:href="#DejaVuSans-69" x="345.947266"/>
      <use xlink:href="#DejaVuSans-7a" x="373.730469"/>
      <use xlink:href="#DejaVuSans-6f" x="426.220703"/>
      <use xlink:href="#DejaVuSans-6e" x="487.402344"/>
      <use xlink:href="#DejaVuSans-74" x="550.78125"/>
      <use xlink:href="#DejaVuSans-61" x="589.990234"/>
      <use xlink:href="#DejaVuSans-6c" x="651.269531"/>
      <use xlink:href="#DejaVuSans-20" x="679.052734"/>
      <use xlink:href="#DejaVuSans-5b" x="710.839844"/>
      <use xlink:href="#DejaVuSans-6d" x="749.853516"/>
      <use xlink:href="#DejaVuSans-6d" x="847.265625"/>
      <use xlink:href="#DejaVuSans-5d" x="944.677734"/>
     </g>
    </g>
   </g>
   <g id="line2d_29">
    <path d="M 431.580649 120.34789 
L 433.416783 134.932185 
L 434.122988 139.824942 
L 434.970434 143.718186 
L 435.81788 147.055462 
L 436.382844 148.46251 
L 436.806567 148.989202 
L 437.23029 149.167206 
L 437.512772 149.099869 
L 437.795254 148.798024 
L 438.218977 147.899808 
L 439.490146 144.637189 
L 439.913869 144.126599 
L 440.196351 143.840857 
L 440.478833 143.240973 
L 440.902556 141.431952 
L 442.314966 133.894025 
L 442.738689 132.977365 
L 443.162412 132.640095 
L 443.727377 132.639802 
L 444.574823 132.756032 
L 444.857305 133.198406 
L 445.139787 134.175377 
L 445.704751 137.262334 
L 446.552197 141.648309 
L 447.964607 148.305293 
L 448.670812 152.775585 
L 450.083222 163.484494 
L 450.365704 164.509479 
L 450.648186 164.769165 
L 450.789427 164.583257 
L 451.071909 163.645517 
L 451.778114 159.655074 
L 452.343078 156.920025 
L 452.908042 155.317699 
L 453.473006 153.666189 
L 454.03797 151.063178 
L 455.026658 146.239514 
L 455.450381 145.031841 
L 455.874104 144.36667 
L 456.297827 144.123379 
L 457.286514 144.078585 
L 457.992719 143.910536 
L 459.122647 143.570631 
L 459.54637 143.66783 
L 459.828852 143.983435 
L 460.252575 144.910635 
L 460.676298 146.310364 
L 461.241262 148.974563 
L 461.806226 152.399377 
L 463.7836 166.348362 
L 464.207323 167.576529 
L 464.489805 167.831531 
L 464.772287 167.742236 
L 465.19601 167.242772 
L 466.184697 165.960443 
L 466.749662 165.336552 
L 467.032144 164.52119 
L 467.455867 162.270088 
L 468.162072 156.478236 
L 469.009518 150.260405 
L 469.715723 146.47168 
L 470.280687 144.36989 
L 470.70441 143.445911 
L 471.128133 142.985385 
L 471.551856 142.820849 
L 472.681784 142.769907 
L 472.964266 142.919219 
L 473.246748 143.358666 
L 473.670471 144.518032 
L 474.235435 146.820954 
L 475.647845 153.940806 
L 476.495291 160.55651 
L 477.342737 166.88735 
L 477.907702 169.560332 
L 478.331425 170.721747 
L 478.755148 171.344175 
L 479.178871 171.604739 
L 479.461353 171.600348 
L 479.743835 171.370817 
L 480.026317 170.85203 
L 480.591281 169.177097 
L 481.579968 165.721543 
L 482.144932 162.230564 
L 483.698583 151.959052 
L 484.828511 146.700626 
L 485.393475 144.732631 
L 485.675957 144.353788 
L 485.958439 144.443668 
L 486.382162 145.200769 
L 488.077054 149.357505 
L 488.500777 151.214247 
L 489.065742 155.009999 
L 490.619393 166.826747 
L 491.325598 171.28972 
L 492.314285 178.362729 
L 492.596767 178.964077 
L 492.738008 178.881223 
L 493.02049 178.08372 
L 495.704069 165.974203 
L 496.269033 160.997421 
L 497.25772 152.273486 
L 498.105166 147.420545 
L 498.67013 145.148949 
L 499.093853 144.170807 
L 499.517576 143.723456 
L 499.941299 143.598444 
L 500.929987 143.666366 
L 501.212469 143.85286 
L 501.636192 144.538526 
L 502.059915 145.725119 
L 502.624879 148.109723 
L 503.189843 151.231228 
L 503.754807 155.707961 
L 506.014663 175.907567 
L 506.579627 179.910014 
L 506.862109 180.940854 
L 507.00335 181.084311 
L 507.144591 180.970716 
L 507.427073 180.067231 
L 507.992037 176.753377 
L 508.698242 173.064193 
L 509.263206 171.447522 
L 509.686929 170.252731 
L 510.110652 168.124885 
L 510.534375 164.665818 
L 512.370509 147.080054 
L 512.935473 144.338857 
L 513.359196 143.278154 
L 513.782919 142.791865 
L 514.347883 142.575508 
L 514.630365 142.666267 
L 514.912847 142.999145 
L 515.33657 143.902924 
L 516.042775 146.023451 
L 517.031462 150.199509 
L 517.596426 153.141254 
L 518.443872 159.479998 
L 519.432559 166.529879 
L 521.127451 174.671496 
L 521.409933 174.919471 
L 521.692415 174.6106 
L 522.116138 173.549604 
L 522.963585 171.360862 
L 523.528549 169.915754 
L 523.952272 167.903844 
L 524.375995 164.653814 
L 526.212128 148.09772 
L 526.777092 145.29182 
L 527.200815 144.057213 
L 527.624538 143.41517 
L 528.048261 143.178613 
L 530.449358 142.724821 
L 530.73184 142.897262 
L 531.014322 143.404045 
L 531.438045 144.97563 
L 532.285491 149.868388 
L 533.132937 155.54928 
L 534.404107 164.53173 
L 535.110312 168.055206 
L 535.534035 169.035104 
L 535.816517 169.079313 
L 536.098999 168.742335 
L 536.663963 167.547544 
L 537.087686 166.25409 
L 537.511409 164.067691 
L 538.217614 158.978192 
L 539.630024 148.578154 
L 540.336229 144.926445 
L 540.901193 143.277569 
L 541.324916 141.94664 
L 541.748639 139.778978 
L 542.596085 135.217927 
L 542.878567 134.945067 
L 543.019808 135.130975 
L 543.30229 136.02802 
L 544.855941 142.582828 
L 545.279665 143.086098 
L 545.703388 143.507393 
L 546.127111 144.231411 
L 546.550834 145.343641 
L 547.115798 147.639829 
L 548.104485 152.802813 
L 549.093172 159.196305 
L 549.375654 159.740856 
L 549.516895 159.700161 
L 549.799377 159.123113 
L 551.070546 154.566454 
L 551.63551 152.278756 
L 552.482956 147.224682 
L 553.612884 140.408724 
L 555.449017 126.927584 
L 555.87274 125.572941 
L 556.296463 124.961346 
L 556.578946 124.842775 
L 557.002669 124.950221 
L 557.285151 125.224839 
L 557.567633 125.780222 
L 558.132597 127.642819 
L 558.838802 130.084221 
L 558.838802 130.084221 
" clip-path="url(#pa367792ab5)" style="fill: none; stroke: #1f77b4; stroke-width: 1.5; stroke-linecap: square"/>
   </g>
   <g id="patch_13">
    <path d="M 431.66 193.477287 
L 431.66 38.874574 
" style="fill: none; stroke: #000000; stroke-width: 0.8; stroke-linejoin: miter; stroke-linecap: square"/>
   </g>
   <g id="patch_14">
    <path d="M 558.81 193.477287 
L 558.81 38.874574 
" style="fill: none; stroke: #000000; stroke-width: 0.8; stroke-linejoin: miter; stroke-linecap: square"/>
   </g>
   <g id="patch_15">
    <path d="M 431.66 193.477287 
L 558.81 193.477287 
" style="fill: none; stroke: #000000; stroke-width: 0.8; stroke-linejoin: miter; stroke-linecap: square"/>
   </g>
   <g id="patch_16">
    <path d="M 431.66 38.874574 
L 558.81 38.874574 
" style="fill: none; stroke: #000000; stroke-width: 0.8; stroke-linejoin: miter; stroke-linecap: square"/>
   </g>
  </g>
  <g id="axes_4">
   <g id="patch_17">
    <path d="M 56.18 390.04 
L 183.33 390.04 
L 183.33 235.437287 
L 56.18 235.437287 
z
" style="fill: #ffffff"/>
   </g>
   <g id="matplotlib.axis_7">
    <g id="xtick_13">
     <g id="line2d_30">
      <g>
       <use xlink:href="#m9b7d2febbc" x="56.18" y="390.04" style="stroke: #000000; stroke-width: 0.8"/>
      </g>
     </g>
     <g id="text_33">
      <!-- 20 -->
      <g transform="translate(49.8175 404.638438) scale(0.1 -0.1)">
       <use xlink:href="#DejaVuSans-32"/>
       <use xlink:href="#DejaVuSans-30" x="63.623047"/>
      </g>
     </g>
    </g>
    <g id="xtick_14">
     <g id="line2d_31">
      <g>
       <use xlink:href="#m9b7d2febbc" x="98.563333" y="390.04" style="stroke: #000000; stroke-width: 0.8"/>
      </g>
     </g>
     <g id="text_34">
      <!-- 21 -->
      <g transform="translate(92.200833 404.638438) scale(0.1 -0.1)">
       <use xlink:href="#DejaVuSans-32"/>
       <use xlink:href="#DejaVuSans-31" x="63.623047"/>
      </g>
     </g>
    </g>
    <g id="xtick_15">
     <g id="line2d_32">
      <g>
       <use xlink:href="#m9b7d2febbc" x="140.946667" y="390.04" style="stroke: #000000; stroke-width: 0.8"/>
      </g>
     </g>
     <g id="text_35">
      <!-- 22 -->
      <g transform="translate(134.584167 404.638438) scale(0.1 -0.1)">
       <use xlink:href="#DejaVuSans-32"/>
       <use xlink:href="#DejaVuSans-32" x="63.623047"/>
      </g>
     </g>
    </g>
    <g id="xtick_16">
     <g id="line2d_33">
      <g>
       <use xlink:href="#m9b7d2febbc" x="183.33" y="390.04" style="stroke: #000000; stroke-width: 0.8"/>
      </g>
     </g>
     <g id="text_36">
      <!-- 23 -->
      <g transform="translate(176.9675 404.638438) scale(0.1 -0.1)">
       <use xlink:href="#DejaVuSans-32"/>
       <use xlink:href="#DejaVuSans-33" x="63.623047"/>
      </g>
     </g>
    </g>
    <g id="text_37">
     <!-- t [s] -->
     <g transform="translate(109.699531 418.316562) scale(0.1 -0.1)">
      <use xlink:href="#DejaVuSans-74"/>
      <use xlink:href="#DejaVuSans-20" x="39.208984"/>
      <use xlink:href="#DejaVuSans-5b" x="70.996094"/>
      <use xlink:href="#DejaVuSans-73" x="110.009766"/>
      <use xlink:href="#DejaVuSans-5d" x="162.109375"/>
     </g>
    </g>
   </g>
   <g id="matplotlib.axis_8">
    <g id="ytick_15">
     <g id="line2d_34">
      <g>
       <use xlink:href="#m8e918c58c1" x="56.18" y="358.393081" style="stroke: #000000; stroke-width: 0.8"/>
      </g>
     </g>
     <g id="text_38">
      <!-- 55 -->
      <g transform="translate(36.455 362.1923) scale(0.1 -0.1)">
       <use xlink:href="#DejaVuSans-35"/>
       <use xlink:href="#DejaVuSans-35" x="63.623047"/>
      </g>
     </g>
    </g>
    <g id="ytick_16">
     <g id="line2d_35">
      <g>
       <use xlink:href="#m8e918c58c1" x="56.18" y="317.036498" style="stroke: #000000; stroke-width: 0.8"/>
      </g>
     </g>
     <g id="text_39">
      <!-- 56 -->
      <g transform="translate(36.455 320.835716) scale(0.1 -0.1)">
       <defs>
        <path id="DejaVuSans-36" d="M 2113 2584 
Q 1688 2584 1439 2293 
Q 1191 2003 1191 1497 
Q 1191 994 1439 701 
Q 1688 409 2113 409 
Q 2538 409 2786 701 
Q 3034 994 3034 1497 
Q 3034 2003 2786 2293 
Q 2538 2584 2113 2584 
z
M 3366 4563 
L 3366 3988 
Q 3128 4100 2886 4159 
Q 2644 4219 2406 4219 
Q 1781 4219 1451 3797 
Q 1122 3375 1075 2522 
Q 1259 2794 1537 2939 
Q 1816 3084 2150 3084 
Q 2853 3084 3261 2657 
Q 3669 2231 3669 1497 
Q 3669 778 3244 343 
Q 2819 -91 2113 -91 
Q 1303 -91 875 529 
Q 447 1150 447 2328 
Q 447 3434 972 4092 
Q 1497 4750 2381 4750 
Q 2619 4750 2861 4703 
Q 3103 4656 3366 4563 
z
" transform="scale(0.015625)"/>
       </defs>
       <use xlink:href="#DejaVuSans-35"/>
       <use xlink:href="#DejaVuSans-36" x="63.623047"/>
      </g>
     </g>
    </g>
    <g id="ytick_17">
     <g id="line2d_36">
      <g>
       <use xlink:href="#m8e918c58c1" x="56.18" y="275.679914" style="stroke: #000000; stroke-width: 0.8"/>
      </g>
     </g>
     <g id="text_40">
      <!-- 57 -->
      <g transform="translate(36.455 279.479133) scale(0.1 -0.1)">
       <use xlink:href="#DejaVuSans-35"/>
       <use xlink:href="#DejaVuSans-37" x="63.623047"/>
      </g>
     </g>
    </g>
    <g id="text_41">
     <!-- US Vertical [mm] -->
     <g transform="translate(30.375313 355.108956) rotate(-90) scale(0.1 -0.1)">
      <defs>
       <path id="DejaVuSans-56" d="M 1831 0 
L 50 4666 
L 709 4666 
L 2188 738 
L 3669 4666 
L 4325 4666 
L 2547 0 
L 1831 0 
z
" transform="scale(0.015625)"/>
      </defs>
      <use xlink:href="#DejaVuSans-55"/>
      <use xlink:href="#DejaVuSans-53" x="73.193359"/>
      <use xlink:href="#DejaVuSans-20" x="136.669922"/>
      <use xlink:href="#DejaVuSans-56" x="168.457031"/>
      <use xlink:href="#DejaVuSans-65" x="229.115234"/>
      <use xlink:href="#DejaVuSans-72" x="290.638672"/>
      <use xlink:href="#DejaVuSans-74" x="331.751953"/>
      <use xlink:href="#DejaVuSans-69" x="370.960938"/>
      <use xlink:href="#DejaVuSans-63" x="398.744141"/>
      <use xlink:href="#DejaVuSans-61" x="453.724609"/>
      <use xlink:href="#DejaVuSans-6c" x="515.003906"/>
      <use xlink:href="#DejaVuSans-20" x="542.787109"/>
      <use xlink:href="#DejaVuSans-5b" x="574.574219"/>
      <use xlink:href="#DejaVuSans-6d" x="613.587891"/>
      <use xlink:href="#DejaVuSans-6d" x="711"/>
      <use xlink:href="#DejaVuSans-5d" x="808.412109"/>
     </g>
    </g>
   </g>
   <g id="line2d_37">
    <path d="M 56.100649 318.031666 
L 56.806854 320.91983 
L 57.936783 324.31394 
L 58.501747 327.430229 
L 59.631675 334.005943 
L 60.055398 335.201469 
L 60.33788 335.419813 
L 60.620362 335.110283 
L 61.044085 333.847233 
L 62.880218 326.933592 
L 63.303941 326.293075 
L 63.868905 325.878632 
L 64.57511 325.692156 
L 65.98752 325.625107 
L 68.6711 325.640568 
L 69.094823 325.921543 
L 69.518546 326.56348 
L 70.648474 328.530941 
L 71.354679 329.373868 
L 71.778402 330.421571 
L 72.484607 332.991054 
L 74.32074 340.795582 
L 75.168186 344.382794 
L 75.73315 345.903312 
L 76.439355 347.090004 
L 76.863078 347.452385 
L 77.286801 347.520697 
L 77.710524 347.38439 
L 78.134247 347.010965 
L 78.55797 346.213474 
L 78.840452 345.178392 
L 79.264175 342.44941 
L 80.111622 334.393093 
L 81.524032 321.931248 
L 82.371478 315.436782 
L 82.795201 313.249558 
L 83.218924 312.164623 
L 83.501406 311.997395 
L 83.783888 312.195229 
L 84.207611 313.023642 
L 84.772575 314.681256 
L 85.196298 316.478333 
L 85.761262 320.038882 
L 86.467467 326.529877 
L 87.738636 338.506759 
L 88.3036 341.612005 
L 88.727323 342.830565 
L 89.151046 343.406715 
L 89.433528 343.508788 
L 89.71601 343.292337 
L 89.998492 342.713978 
L 90.422215 341.142345 
L 90.845939 338.614511 
L 91.552144 332.588917 
L 92.258349 326.919867 
L 95.22441 309.568162 
L 95.648133 308.395353 
L 95.930615 308.122424 
L 96.213097 308.190893 
L 96.495579 308.514622 
L 96.919302 309.425387 
L 97.343025 311.012955 
L 97.907989 314.427258 
L 98.896676 320.779579 
L 99.320399 322.083173 
L 99.46164 322.216483 
L 99.602881 322.193292 
L 99.885363 321.730416 
L 100.450327 319.820696 
L 101.156532 317.532189 
L 101.580255 316.76341 
L 102.003978 316.446307 
L 102.427702 316.427533 
L 103.133907 316.702829 
L 104.122594 317.160342 
L 104.405076 317.626531 
L 104.828799 319.042452 
L 106.523691 326.128213 
L 106.806173 326.364541 
L 106.947414 326.214193 
L 107.229896 325.338452 
L 107.653619 322.84501 
L 109.066029 312.945549 
L 110.337198 307.321935 
L 111.325885 303.514329 
L 111.890849 302.120494 
L 112.314572 301.558543 
L 112.738295 301.335624 
L 113.585742 301.26747 
L 114.574429 301.327262 
L 114.998152 301.676076 
L 115.421875 302.318013 
L 115.845598 303.368714 
L 116.410562 305.638763 
L 117.822972 312.036993 
L 118.529177 314.148964 
L 119.094141 315.283279 
L 119.941587 316.576619 
L 120.36531 318.101712 
L 120.789033 320.68997 
L 122.625166 334.202673 
L 123.048889 335.164553 
L 123.331371 335.328626 
L 123.613853 335.067213 
L 123.896335 334.391831 
L 124.60254 331.787639 
L 125.87371 327.270731 
L 127.003638 323.944617 
L 127.427361 323.286115 
L 127.709843 323.177416 
L 127.992325 323.292583 
L 128.557289 323.898708 
L 129.122253 324.792435 
L 129.828458 326.463143 
L 130.252181 328.019789 
L 130.675904 330.440502 
L 131.240868 335.261419 
L 133.077001 352.996014 
L 133.500724 354.762485 
L 133.924447 355.67814 
L 134.34817 356.073652 
L 134.771893 356.157424 
L 135.054375 355.877868 
L 135.336857 355.088265 
L 135.619339 353.650888 
L 136.043063 350.072511 
L 136.608027 342.818733 
L 138.302919 318.926339 
L 138.867883 314.11047 
L 139.432847 311.118182 
L 139.85657 309.917923 
L 140.139052 309.677808 
L 140.280293 309.742017 
L 140.562775 310.270996 
L 140.845257 311.392532 
L 141.26898 314.213647 
L 141.833944 320.140482 
L 142.540149 330.469215 
L 143.670077 347.84553 
L 144.235041 353.068427 
L 144.658764 355.14853 
L 144.941246 355.873293 
L 145.223728 356.081382 
L 145.364969 355.971579 
L 145.647451 355.32412 
L 146.071174 353.498646 
L 146.636138 349.836971 
L 147.342344 343.31395 
L 149.6022 319.944225 
L 150.167164 317.106229 
L 150.590887 315.969863 
L 150.873369 315.659544 
L 151.155851 315.682735 
L 151.438333 316.113585 
L 151.720815 317.017566 
L 152.144538 319.272786 
L 152.568261 322.694347 
L 153.133225 329.315338 
L 155.110599 354.929871 
L 155.816804 360.791549 
L 156.099286 362.03125 
L 156.240527 362.285564 
L 156.381768 362.265054 
L 156.523009 361.955208 
L 156.805491 360.453937 
L 157.229214 356.016699 
L 157.794178 346.647637 
L 159.630312 312.453172 
L 160.195276 307.095545 
L 160.618999 305.077443 
L 161.042722 304.15106 
L 161.466445 303.4162 
L 161.890168 302.037195 
L 162.737614 298.601594 
L 163.020096 298.309575 
L 163.161337 298.407388 
L 163.443819 299.135937 
L 163.726301 300.624429 
L 164.150024 304.26812 
L 164.714988 311.843734 
L 165.421193 325.25468 
L 166.40988 343.79844 
L 166.974844 350.669485 
L 167.398567 353.603085 
L 167.681049 354.50754 
L 167.82229 354.635485 
L 167.963531 354.552187 
L 168.246013 353.786721 
L 168.528495 352.237648 
L 168.952218 348.421207 
L 169.658423 339.117774 
L 170.929593 322.153378 
L 171.635798 315.652129 
L 172.200762 312.463268 
L 172.624485 311.236662 
L 172.906967 310.958684 
L 173.189449 311.04151 
L 173.471931 311.38559 
L 173.895654 312.332956 
L 174.319377 314.06251 
L 174.884341 317.645936 
L 177.002956 333.90387 
L 177.991643 341.716917 
L 178.415366 343.57489 
L 178.697848 344.089986 
L 178.839089 344.091406 
L 178.98033 343.888996 
L 179.262812 342.787496 
L 179.545294 340.676787 
L 179.969017 335.603449 
L 180.816463 321.357149 
L 181.66391 308.110907 
L 182.370115 300.49885 
L 182.935079 296.973797 
L 183.358802 295.661368 
L 183.358802 295.661368 
" clip-path="url(#p204219fd49)" style="fill: none; stroke: #1f77b4; stroke-width: 1.5; stroke-linecap: square"/>
   </g>
   <g id="patch_18">
    <path d="M 56.18 390.04 
L 56.18 235.437287 
" style="fill: none; stroke: #000000; stroke-width: 0.8; stroke-linejoin: miter; stroke-linecap: square"/>
   </g>
   <g id="patch_19">
    <path d="M 183.33 390.04 
L 183.33 235.437287 
" style="fill: none; stroke: #000000; stroke-width: 0.8; stroke-linejoin: miter; stroke-linecap: square"/>
   </g>
   <g id="patch_20">
    <path d="M 56.18 390.04 
L 183.33 390.04 
" style="fill: none; stroke: #000000; stroke-width: 0.8; stroke-linejoin: miter; stroke-linecap: square"/>
   </g>
   <g id="patch_21">
    <path d="M 56.18 235.437287 
L 183.33 235.437287 
" style="fill: none; stroke: #000000; stroke-width: 0.8; stroke-linejoin: miter; stroke-linecap: square"/>
   </g>
  </g>
  <g id="axes_5">
   <g id="patch_22">
    <path d="M 243.92 390.04 
L 371.07 390.04 
L 371.07 235.437287 
L 243.92 235.437287 
z
" style="fill: #ffffff"/>
   </g>
   <g id="matplotlib.axis_9">
    <g id="xtick_17">
     <g id="line2d_38">
      <g>
       <use xlink:href="#m9b7d2febbc" x="243.92" y="390.04" style="stroke: #000000; stroke-width: 0.8"/>
      </g>
     </g>
     <g id="text_42">
      <!-- 20 -->
      <g transform="translate(237.5575 404.638438) scale(0.1 -0.1)">
       <use xlink:href="#DejaVuSans-32"/>
       <use xlink:href="#DejaVuSans-30" x="63.623047"/>
      </g>
     </g>
    </g>
    <g id="xtick_18">
     <g id="line2d_39">
      <g>
       <use xlink:href="#m9b7d2febbc" x="286.303333" y="390.04" style="stroke: #000000; stroke-width: 0.8"/>
      </g>
     </g>
     <g id="text_43">
      <!-- 21 -->
      <g transform="translate(279.940833 404.638438) scale(0.1 -0.1)">
       <use xlink:href="#DejaVuSans-32"/>
       <use xlink:href="#DejaVuSans-31" x="63.623047"/>
      </g>
     </g>
    </g>
    <g id="xtick_19">
     <g id="line2d_40">
      <g>
       <use xlink:href="#m9b7d2febbc" x="328.686667" y="390.04" style="stroke: #000000; stroke-width: 0.8"/>
      </g>
     </g>
     <g id="text_44">
      <!-- 22 -->
      <g transform="translate(322.324167 404.638438) scale(0.1 -0.1)">
       <use xlink:href="#DejaVuSans-32"/>
       <use xlink:href="#DejaVuSans-32" x="63.623047"/>
      </g>
     </g>
    </g>
    <g id="xtick_20">
     <g id="line2d_41">
      <g>
       <use xlink:href="#m9b7d2febbc" x="371.07" y="390.04" style="stroke: #000000; stroke-width: 0.8"/>
      </g>
     </g>
     <g id="text_45">
      <!-- 23 -->
      <g transform="translate(364.7075 404.638438) scale(0.1 -0.1)">
       <use xlink:href="#DejaVuSans-32"/>
       <use xlink:href="#DejaVuSans-33" x="63.623047"/>
      </g>
     </g>
    </g>
    <g id="text_46">
     <!-- t [s] -->
     <g transform="translate(297.439531 418.316562) scale(0.1 -0.1)">
      <use xlink:href="#DejaVuSans-74"/>
      <use xlink:href="#DejaVuSans-20" x="39.208984"/>
      <use xlink:href="#DejaVuSans-5b" x="70.996094"/>
      <use xlink:href="#DejaVuSans-73" x="110.009766"/>
      <use xlink:href="#DejaVuSans-5d" x="162.109375"/>
     </g>
    </g>
   </g>
   <g id="matplotlib.axis_10">
    <g id="ytick_18">
     <g id="line2d_42">
      <g>
       <use xlink:href="#m8e918c58c1" x="243.92" y="387.306466" style="stroke: #000000; stroke-width: 0.8"/>
      </g>
     </g>
     <g id="text_47">
      <!-- 12 -->
      <g transform="translate(224.195 391.105685) scale(0.1 -0.1)">
       <use xlink:href="#DejaVuSans-31"/>
       <use xlink:href="#DejaVuSans-32" x="63.623047"/>
      </g>
     </g>
    </g>
    <g id="ytick_19">
     <g id="line2d_43">
      <g>
       <use xlink:href="#m8e918c58c1" x="243.92" y="361.840099" style="stroke: #000000; stroke-width: 0.8"/>
      </g>
     </g>
     <g id="text_48">
      <!-- 14 -->
      <g transform="translate(224.195 365.639318) scale(0.1 -0.1)">
       <use xlink:href="#DejaVuSans-31"/>
       <use xlink:href="#DejaVuSans-34" x="63.623047"/>
      </g>
     </g>
    </g>
    <g id="ytick_20">
     <g id="line2d_44">
      <g>
       <use xlink:href="#m8e918c58c1" x="243.92" y="336.373732" style="stroke: #000000; stroke-width: 0.8"/>
      </g>
     </g>
     <g id="text_49">
      <!-- 16 -->
      <g transform="translate(224.195 340.172951) scale(0.1 -0.1)">
       <use xlink:href="#DejaVuSans-31"/>
       <use xlink:href="#DejaVuSans-36" x="63.623047"/>
      </g>
     </g>
    </g>
    <g id="ytick_21">
     <g id="line2d_45">
      <g>
       <use xlink:href="#m8e918c58c1" x="243.92" y="310.907365" style="stroke: #000000; stroke-width: 0.8"/>
      </g>
     </g>
     <g id="text_50">
      <!-- 18 -->
      <g transform="translate(224.195 314.706584) scale(0.1 -0.1)">
       <defs>
        <path id="DejaVuSans-38" d="M 2034 2216 
Q 1584 2216 1326 1975 
Q 1069 1734 1069 1313 
Q 1069 891 1326 650 
Q 1584 409 2034 409 
Q 2484 409 2743 651 
Q 3003 894 3003 1313 
Q 3003 1734 2745 1975 
Q 2488 2216 2034 2216 
z
M 1403 2484 
Q 997 2584 770 2862 
Q 544 3141 544 3541 
Q 544 4100 942 4425 
Q 1341 4750 2034 4750 
Q 2731 4750 3128 4425 
Q 3525 4100 3525 3541 
Q 3525 3141 3298 2862 
Q 3072 2584 2669 2484 
Q 3125 2378 3379 2068 
Q 3634 1759 3634 1313 
Q 3634 634 3220 271 
Q 2806 -91 2034 -91 
Q 1263 -91 848 271 
Q 434 634 434 1313 
Q 434 1759 690 2068 
Q 947 2378 1403 2484 
z
M 1172 3481 
Q 1172 3119 1398 2916 
Q 1625 2713 2034 2713 
Q 2441 2713 2670 2916 
Q 2900 3119 2900 3481 
Q 2900 3844 2670 4047 
Q 2441 4250 2034 4250 
Q 1625 4250 1398 4047 
Q 1172 3844 1172 3481 
z
" transform="scale(0.015625)"/>
       </defs>
       <use xlink:href="#DejaVuSans-31"/>
       <use xlink:href="#DejaVuSans-38" x="63.623047"/>
      </g>
     </g>
    </g>
    <g id="ytick_22">
     <g id="line2d_46">
      <g>
       <use xlink:href="#m8e918c58c1" x="243.92" y="285.440999" style="stroke: #000000; stroke-width: 0.8"/>
      </g>
     </g>
     <g id="text_51">
      <!-- 20 -->
      <g transform="translate(224.195 289.240217) scale(0.1 -0.1)">
       <use xlink:href="#DejaVuSans-32"/>
       <use xlink:href="#DejaVuSans-30" x="63.623047"/>
      </g>
     </g>
    </g>
    <g id="ytick_23">
     <g id="line2d_47">
      <g>
       <use xlink:href="#m8e918c58c1" x="243.92" y="259.974632" style="stroke: #000000; stroke-width: 0.8"/>
      </g>
     </g>
     <g id="text_52">
      <!-- 22 -->
      <g transform="translate(224.195 263.77385) scale(0.1 -0.1)">
       <use xlink:href="#DejaVuSans-32"/>
       <use xlink:href="#DejaVuSans-32" x="63.623047"/>
      </g>
     </g>
    </g>
    <g id="text_53">
     <!-- Belt Revolution [V] -->
     <g transform="translate(218.115312 359.574581) rotate(-90) scale(0.1 -0.1)">
      <defs>
       <path id="DejaVuSans-42" d="M 1259 2228 
L 1259 519 
L 2272 519 
Q 2781 519 3026 730 
Q 3272 941 3272 1375 
Q 3272 1813 3026 2020 
Q 2781 2228 2272 2228 
L 1259 2228 
z
M 1259 4147 
L 1259 2741 
L 2194 2741 
Q 2656 2741 2882 2914 
Q 3109 3088 3109 3444 
Q 3109 3797 2882 3972 
Q 2656 4147 2194 4147 
L 1259 4147 
z
M 628 4666 
L 2241 4666 
Q 2963 4666 3353 4366 
Q 3744 4066 3744 3513 
Q 3744 3084 3544 2831 
Q 3344 2578 2956 2516 
Q 3422 2416 3680 2098 
Q 3938 1781 3938 1306 
Q 3938 681 3513 340 
Q 3088 0 2303 0 
L 628 0 
L 628 4666 
z
" transform="scale(0.015625)"/>
       <path id="DejaVuSans-52" d="M 2841 2188 
Q 3044 2119 3236 1894 
Q 3428 1669 3622 1275 
L 4263 0 
L 3584 0 
L 2988 1197 
Q 2756 1666 2539 1819 
Q 2322 1972 1947 1972 
L 1259 1972 
L 1259 0 
L 628 0 
L 628 4666 
L 2053 4666 
Q 2853 4666 3247 4331 
Q 3641 3997 3641 3322 
Q 3641 2881 3436 2590 
Q 3231 2300 2841 2188 
z
M 1259 4147 
L 1259 2491 
L 2053 2491 
Q 2509 2491 2742 2702 
Q 2975 2913 2975 3322 
Q 2975 3731 2742 3939 
Q 2509 4147 2053 4147 
L 1259 4147 
z
" transform="scale(0.015625)"/>
       <path id="DejaVuSans-76" d="M 191 3500 
L 800 3500 
L 1894 563 
L 2988 3500 
L 3597 3500 
L 2284 0 
L 1503 0 
L 191 3500 
z
" transform="scale(0.015625)"/>
       <path id="DejaVuSans-75" d="M 544 1381 
L 544 3500 
L 1119 3500 
L 1119 1403 
Q 1119 906 1312 657 
Q 1506 409 1894 409 
Q 2359 409 2629 706 
Q 2900 1003 2900 1516 
L 2900 3500 
L 3475 3500 
L 3475 0 
L 2900 0 
L 2900 538 
Q 2691 219 2414 64 
Q 2138 -91 1772 -91 
Q 1169 -91 856 284 
Q 544 659 544 1381 
z
M 1991 3584 
L 1991 3584 
z
" transform="scale(0.015625)"/>
      </defs>
      <use xlink:href="#DejaVuSans-42"/>
      <use xlink:href="#DejaVuSans-65" x="68.603516"/>
      <use xlink:href="#DejaVuSans-6c" x="130.126953"/>
      <use xlink:href="#DejaVuSans-74" x="157.910156"/>
      <use xlink:href="#DejaVuSans-20" x="197.119141"/>
      <use xlink:href="#DejaVuSans-52" x="228.90625"/>
      <use xlink:href="#DejaVuSans-65" x="293.888672"/>
      <use xlink:href="#DejaVuSans-76" x="355.412109"/>
      <use xlink:href="#DejaVuSans-6f" x="414.591797"/>
      <use xlink:href="#DejaVuSans-6c" x="475.773438"/>
      <use xlink:href="#DejaVuSans-75" x="503.556641"/>
      <use xlink:href="#DejaVuSans-74" x="566.935547"/>
      <use xlink:href="#DejaVuSans-69" x="606.144531"/>
      <use xlink:href="#DejaVuSans-6f" x="633.927734"/>
      <use xlink:href="#DejaVuSans-6e" x="695.109375"/>
      <use xlink:href="#DejaVuSans-20" x="758.488281"/>
      <use xlink:href="#DejaVuSans-5b" x="790.275391"/>
      <use xlink:href="#DejaVuSans-56" x="829.289062"/>
      <use xlink:href="#DejaVuSans-5d" x="897.697266"/>
     </g>
    </g>
   </g>
   <g id="line2d_48">
    <path d="M 243.840649 244.736939 
L 332.257523 244.755178 
L 332.398764 244.907625 
L 332.681246 245.750663 
L 333.387451 248.416993 
L 333.669933 248.707559 
L 333.952415 248.471128 
L 334.376138 247.506148 
L 335.223585 245.479891 
L 335.647308 244.949156 
L 336.071031 244.717218 
L 336.635995 244.664565 
L 340.16702 244.735433 
L 371.098802 244.736963 
L 371.098802 244.736963 
" clip-path="url(#pd74c66531a)" style="fill: none; stroke: #1f77b4; stroke-width: 1.5; stroke-linecap: square"/>
   </g>
   <g id="patch_23">
    <path d="M 243.92 390.04 
L 243.92 235.437287 
" style="fill: none; stroke: #000000; stroke-width: 0.8; stroke-linejoin: miter; stroke-linecap: square"/>
   </g>
   <g id="patch_24">
    <path d="M 371.07 390.04 
L 371.07 235.437287 
" style="fill: none; stroke: #000000; stroke-width: 0.8; stroke-linejoin: miter; stroke-linecap: square"/>
   </g>
   <g id="patch_25">
    <path d="M 243.92 390.04 
L 371.07 390.04 
" style="fill: none; stroke: #000000; stroke-width: 0.8; stroke-linejoin: miter; stroke-linecap: square"/>
   </g>
   <g id="patch_26">
    <path d="M 243.92 235.437287 
L 371.07 235.437287 
" style="fill: none; stroke: #000000; stroke-width: 0.8; stroke-linejoin: miter; stroke-linecap: square"/>
   </g>
  </g>
  <g id="axes_6">
   <g id="patch_27">
    <path d="M 431.66 390.04 
L 558.81 390.04 
L 558.81 235.437287 
L 431.66 235.437287 
z
" style="fill: #ffffff"/>
   </g>
   <g id="matplotlib.axis_11">
    <g id="xtick_21">
     <g id="line2d_49">
      <g>
       <use xlink:href="#m9b7d2febbc" x="431.66" y="390.04" style="stroke: #000000; stroke-width: 0.8"/>
      </g>
     </g>
     <g id="text_54">
      <!-- 20 -->
      <g transform="translate(425.2975 404.638438) scale(0.1 -0.1)">
       <use xlink:href="#DejaVuSans-32"/>
       <use xlink:href="#DejaVuSans-30" x="63.623047"/>
      </g>
     </g>
    </g>
    <g id="xtick_22">
     <g id="line2d_50">
      <g>
       <use xlink:href="#m9b7d2febbc" x="474.043333" y="390.04" style="stroke: #000000; stroke-width: 0.8"/>
      </g>
     </g>
     <g id="text_55">
      <!-- 21 -->
      <g transform="translate(467.680833 404.638438) scale(0.1 -0.1)">
       <use xlink:href="#DejaVuSans-32"/>
       <use xlink:href="#DejaVuSans-31" x="63.623047"/>
      </g>
     </g>
    </g>
    <g id="xtick_23">
     <g id="line2d_51">
      <g>
       <use xlink:href="#m9b7d2febbc" x="516.426667" y="390.04" style="stroke: #000000; stroke-width: 0.8"/>
      </g>
     </g>
     <g id="text_56">
      <!-- 22 -->
      <g transform="translate(510.064167 404.638438) scale(0.1 -0.1)">
       <use xlink:href="#DejaVuSans-32"/>
       <use xlink:href="#DejaVuSans-32" x="63.623047"/>
      </g>
     </g>
    </g>
    <g id="xtick_24">
     <g id="line2d_52">
      <g>
       <use xlink:href="#m9b7d2febbc" x="558.81" y="390.04" style="stroke: #000000; stroke-width: 0.8"/>
      </g>
     </g>
     <g id="text_57">
      <!-- 23 -->
      <g transform="translate(552.4475 404.638438) scale(0.1 -0.1)">
       <use xlink:href="#DejaVuSans-32"/>
       <use xlink:href="#DejaVuSans-33" x="63.623047"/>
      </g>
     </g>
    </g>
    <g id="text_58">
     <!-- t [s] -->
     <g transform="translate(485.179531 418.316562) scale(0.1 -0.1)">
      <use xlink:href="#DejaVuSans-74"/>
      <use xlink:href="#DejaVuSans-20" x="39.208984"/>
      <use xlink:href="#DejaVuSans-5b" x="70.996094"/>
      <use xlink:href="#DejaVuSans-73" x="110.009766"/>
      <use xlink:href="#DejaVuSans-5d" x="162.109375"/>
     </g>
    </g>
   </g>
   <g id="matplotlib.axis_12">
    <g id="ytick_24">
     <g id="line2d_53">
      <g>
       <use xlink:href="#m8e918c58c1" x="431.66" y="380.544892" style="stroke: #000000; stroke-width: 0.8"/>
      </g>
     </g>
     <g id="text_59">
      <!-- −12 -->
      <g transform="translate(403.555313 384.344111) scale(0.1 -0.1)">
       <use xlink:href="#DejaVuSans-2212"/>
       <use xlink:href="#DejaVuSans-31" x="83.789062"/>
       <use xlink:href="#DejaVuSans-32" x="147.412109"/>
      </g>
     </g>
    </g>
    <g id="ytick_25">
     <g id="line2d_54">
      <g>
       <use xlink:href="#m8e918c58c1" x="431.66" y="357.773984" style="stroke: #000000; stroke-width: 0.8"/>
      </g>
     </g>
     <g id="text_60">
      <!-- −10 -->
      <g transform="translate(403.555313 361.573203) scale(0.1 -0.1)">
       <use xlink:href="#DejaVuSans-2212"/>
       <use xlink:href="#DejaVuSans-31" x="83.789062"/>
       <use xlink:href="#DejaVuSans-30" x="147.412109"/>
      </g>
     </g>
    </g>
    <g id="ytick_26">
     <g id="line2d_55">
      <g>
       <use xlink:href="#m8e918c58c1" x="431.66" y="335.003077" style="stroke: #000000; stroke-width: 0.8"/>
      </g>
     </g>
     <g id="text_61">
      <!-- −8 -->
      <g transform="translate(409.917813 338.802296) scale(0.1 -0.1)">
       <use xlink:href="#DejaVuSans-2212"/>
       <use xlink:href="#DejaVuSans-38" x="83.789062"/>
      </g>
     </g>
    </g>
    <g id="ytick_27">
     <g id="line2d_56">
      <g>
       <use xlink:href="#m8e918c58c1" x="431.66" y="312.232169" style="stroke: #000000; stroke-width: 0.8"/>
      </g>
     </g>
     <g id="text_62">
      <!-- −6 -->
      <g transform="translate(409.917813 316.031388) scale(0.1 -0.1)">
       <use xlink:href="#DejaVuSans-2212"/>
       <use xlink:href="#DejaVuSans-36" x="83.789062"/>
      </g>
     </g>
    </g>
    <g id="ytick_28">
     <g id="line2d_57">
      <g>
       <use xlink:href="#m8e918c58c1" x="431.66" y="289.461262" style="stroke: #000000; stroke-width: 0.8"/>
      </g>
     </g>
     <g id="text_63">
      <!-- −4 -->
      <g transform="translate(409.917813 293.26048) scale(0.1 -0.1)">
       <use xlink:href="#DejaVuSans-2212"/>
       <use xlink:href="#DejaVuSans-34" x="83.789062"/>
      </g>
     </g>
    </g>
    <g id="ytick_29">
     <g id="line2d_58">
      <g>
       <use xlink:href="#m8e918c58c1" x="431.66" y="266.690354" style="stroke: #000000; stroke-width: 0.8"/>
      </g>
     </g>
     <g id="text_64">
      <!-- −2 -->
      <g transform="translate(409.917813 270.489573) scale(0.1 -0.1)">
       <use xlink:href="#DejaVuSans-2212"/>
       <use xlink:href="#DejaVuSans-32" x="83.789062"/>
      </g>
     </g>
    </g>
    <g id="ytick_30">
     <g id="line2d_59">
      <g>
       <use xlink:href="#m8e918c58c1" x="431.66" y="243.919446" style="stroke: #000000; stroke-width: 0.8"/>
      </g>
     </g>
     <g id="text_65">
      <!-- 0 -->
      <g transform="translate(418.2975 247.718665) scale(0.1 -0.1)">
       <use xlink:href="#DejaVuSans-30"/>
      </g>
     </g>
    </g>
    <g id="text_66">
     <!-- PT Revolution [V] -->
     <g transform="translate(397.475625 355.787081) rotate(-90) scale(0.1 -0.1)">
      <defs>
       <path id="DejaVuSans-50" d="M 1259 4147 
L 1259 2394 
L 2053 2394 
Q 2494 2394 2734 2622 
Q 2975 2850 2975 3272 
Q 2975 3691 2734 3919 
Q 2494 4147 2053 4147 
L 1259 4147 
z
M 628 4666 
L 2053 4666 
Q 2838 4666 3239 4311 
Q 3641 3956 3641 3272 
Q 3641 2581 3239 2228 
Q 2838 1875 2053 1875 
L 1259 1875 
L 1259 0 
L 628 0 
L 628 4666 
z
" transform="scale(0.015625)"/>
       <path id="DejaVuSans-54" d="M -19 4666 
L 3928 4666 
L 3928 4134 
L 2272 4134 
L 2272 0 
L 1638 0 
L 1638 4134 
L -19 4134 
L -19 4666 
z
" transform="scale(0.015625)"/>
      </defs>
      <use xlink:href="#DejaVuSans-50"/>
      <use xlink:href="#DejaVuSans-54" x="60.302734"/>
      <use xlink:href="#DejaVuSans-20" x="121.386719"/>
      <use xlink:href="#DejaVuSans-52" x="153.173828"/>
      <use xlink:href="#DejaVuSans-65" x="218.15625"/>
      <use xlink:href="#DejaVuSans-76" x="279.679688"/>
      <use xlink:href="#DejaVuSans-6f" x="338.859375"/>
      <use xlink:href="#DejaVuSans-6c" x="400.041016"/>
      <use xlink:href="#DejaVuSans-75" x="427.824219"/>
      <use xlink:href="#DejaVuSans-74" x="491.203125"/>
      <use xlink:href="#DejaVuSans-69" x="530.412109"/>
      <use xlink:href="#DejaVuSans-6f" x="558.195312"/>
      <use xlink:href="#DejaVuSans-6e" x="619.376953"/>
      <use xlink:href="#DejaVuSans-20" x="682.755859"/>
      <use xlink:href="#DejaVuSans-5b" x="714.542969"/>
      <use xlink:href="#DejaVuSans-56" x="753.556641"/>
      <use xlink:href="#DejaVuSans-5d" x="821.964844"/>
     </g>
    </g>
   </g>
   <g id="line2d_60">
    <path d="M 431.439408 242.883958 
L 432.710578 243.715301 
L 433.558024 243.746942 
L 435.252916 243.662508 
L 439.913869 243.671274 
L 440.337592 245.186223 
L 440.761315 257.371064 
L 441.608761 301.826521 
L 442.032484 313.728176 
L 442.456207 314.892752 
L 442.87993 303.885494 
L 443.727377 268.40936 
L 444.1511 255.197253 
L 444.574823 247.401902 
L 444.998546 243.889629 
L 445.422269 242.913915 
L 445.845992 243.03293 
L 446.693438 243.657683 
L 447.540884 243.75928 
L 449.659499 243.664956 
L 453.896729 243.670269 
L 454.320452 243.891866 
L 454.744175 250.375806 
L 456.015345 309.611099 
L 456.439068 315.838599 
L 456.862791 309.555321 
L 458.557683 250.00399 
L 458.981406 244.934025 
L 459.405129 243.116598 
L 459.828852 242.920158 
L 460.676298 243.569712 
L 461.100021 243.733835 
L 461.947467 243.739402 
L 463.642359 243.666865 
L 468.303313 243.676372 
L 468.727036 246.279599 
L 469.150759 261.055522 
L 469.998205 304.375179 
L 470.421928 314.737379 
L 470.845651 313.578102 
L 471.269374 300.821384 
L 472.11682 265.54807 
L 472.540543 253.359105 
L 472.964266 246.480744 
L 473.387989 243.568455 
L 473.811712 242.885881 
L 474.235435 243.09531 
L 475.082881 243.684728 
L 475.930327 243.753469 
L 478.048943 243.664284 
L 482.286173 243.673356 
L 482.709896 244.274466 
L 483.133619 253.140075 
L 483.981065 297.77374 
L 484.404788 311.517429 
L 484.828511 315.491778 
L 485.252234 306.920483 
L 486.523403 257.555779 
L 486.947126 248.656794 
L 487.370849 244.373049 
L 487.794572 242.992068 
L 488.218295 242.966189 
L 489.065742 243.613487 
L 489.489465 243.746638 
L 490.760634 243.692156 
L 493.302972 243.672944 
L 496.692756 243.705161 
L 497.116479 247.780826 
L 497.540202 265.124613 
L 497.963925 289.788549 
L 498.387648 306.908294 
L 498.811371 315.633502 
L 499.235094 312.271307 
L 499.658817 298.039028 
L 500.506264 263.1456 
L 500.929987 251.866146 
L 501.35371 245.764029 
L 501.777433 243.340435 
L 502.201156 242.88548 
L 503.472325 243.711961 
L 504.319771 243.7512 
L 506.438386 243.667882 
L 510.675616 243.668993 
L 511.099339 245.051886 
L 511.523063 256.848921 
L 512.370509 301.360614 
L 512.794232 313.472192 
L 513.217955 314.903501 
L 513.641678 304.104332 
L 514.912847 255.370473 
L 515.33657 247.492421 
L 515.760293 243.923453 
L 516.184016 242.918858 
L 516.607739 243.027492 
L 517.455185 243.654927 
L 518.302631 243.760455 
L 520.421246 243.664116 
L 524.658477 243.673154 
L 525.0822 243.867017 
L 525.505923 250.100374 
L 526.777092 309.313404 
L 527.200815 315.766182 
L 527.624538 309.718278 
L 529.31943 250.127644 
L 529.743153 244.989013 
L 530.166876 243.132228 
L 530.590599 242.91957 
L 531.438045 243.567132 
L 531.861768 243.733258 
L 532.709214 243.738911 
L 534.404107 243.663136 
L 539.06506 243.67133 
L 539.488783 246.12735 
L 539.912506 260.599333 
L 540.759952 304.032908 
L 541.183675 314.538336 
L 541.607398 313.564784 
L 542.031121 300.950887 
L 542.878567 265.70786 
L 543.30229 253.465208 
L 543.726013 246.53481 
L 544.149736 243.586834 
L 544.573459 242.886257 
L 544.997182 243.089811 
L 545.844629 243.682258 
L 546.692075 243.753451 
L 548.81069 243.664346 
L 553.04792 243.671594 
L 553.471643 244.203707 
L 553.895366 252.722575 
L 554.742812 297.476637 
L 555.166535 311.486614 
L 555.590258 316.074109 
L 556.013981 308.111254 
L 557.285151 258.360586 
L 557.708874 249.086586 
L 558.132597 244.541085 
L 558.55632 243.021692 
L 558.980043 242.94544 
L 558.980043 242.94544 
" clip-path="url(#pab9cac28f9)" style="fill: none; stroke: #1f77b4; stroke-width: 1.5; stroke-linecap: square"/>
   </g>
   <g id="patch_28">
    <path d="M 431.66 390.04 
L 431.66 235.437287 
" style="fill: none; stroke: #000000; stroke-width: 0.8; stroke-linejoin: miter; stroke-linecap: square"/>
   </g>
   <g id="patch_29">
    <path d="M 558.81 390.04 
L 558.81 235.437287 
" style="fill: none; stroke: #000000; stroke-width: 0.8; stroke-linejoin: miter; stroke-linecap: square"/>
   </g>
   <g id="patch_30">
    <path d="M 431.66 390.04 
L 558.81 390.04 
" style="fill: none; stroke: #000000; stroke-width: 0.8; stroke-linejoin: miter; stroke-linecap: square"/>
   </g>
   <g id="patch_31">
    <path d="M 431.66 235.437287 
L 558.81 235.437287 
" style="fill: none; stroke: #000000; stroke-width: 0.8; stroke-linejoin: miter; stroke-linecap: square"/>
   </g>
  </g>
  <g id="text_67">
   <!-- The different data collected in a random timespan -->
   <g transform="translate(86.4975 20.7975) scale(0.16 -0.16)">
    <defs>
     <path id="DejaVuSans-68" d="M 3513 2113 
L 3513 0 
L 2938 0 
L 2938 2094 
Q 2938 2591 2744 2837 
Q 2550 3084 2163 3084 
Q 1697 3084 1428 2787 
Q 1159 2491 1159 1978 
L 1159 0 
L 581 0 
L 581 4863 
L 1159 4863 
L 1159 2956 
Q 1366 3272 1645 3428 
Q 1925 3584 2291 3584 
Q 2894 3584 3203 3211 
Q 3513 2838 3513 2113 
z
" transform="scale(0.015625)"/>
     <path id="DejaVuSans-66" d="M 2375 4863 
L 2375 4384 
L 1825 4384 
Q 1516 4384 1395 4259 
Q 1275 4134 1275 3809 
L 1275 3500 
L 2222 3500 
L 2222 3053 
L 1275 3053 
L 1275 0 
L 697 0 
L 697 3053 
L 147 3053 
L 147 3500 
L 697 3500 
L 697 3744 
Q 697 4328 969 4595 
Q 1241 4863 1831 4863 
L 2375 4863 
z
" transform="scale(0.015625)"/>
    </defs>
    <use xlink:href="#DejaVuSans-54"/>
    <use xlink:href="#DejaVuSans-68" x="61.083984"/>
    <use xlink:href="#DejaVuSans-65" x="124.462891"/>
    <use xlink:href="#DejaVuSans-20" x="185.986328"/>
    <use xlink:href="#DejaVuSans-64" x="217.773438"/>
    <use xlink:href="#DejaVuSans-69" x="281.25"/>
    <use xlink:href="#DejaVuSans-66" x="309.033203"/>
    <use xlink:href="#DejaVuSans-66" x="344.238281"/>
    <use xlink:href="#DejaVuSans-65" x="379.443359"/>
    <use xlink:href="#DejaVuSans-72" x="440.966797"/>
    <use xlink:href="#DejaVuSans-65" x="479.830078"/>
    <use xlink:href="#DejaVuSans-6e" x="541.353516"/>
    <use xlink:href="#DejaVuSans-74" x="604.732422"/>
    <use xlink:href="#DejaVuSans-20" x="643.941406"/>
    <use xlink:href="#DejaVuSans-64" x="675.728516"/>
    <use xlink:href="#DejaVuSans-61" x="739.205078"/>
    <use xlink:href="#DejaVuSans-74" x="800.484375"/>
    <use xlink:href="#DejaVuSans-61" x="839.693359"/>
    <use xlink:href="#DejaVuSans-20" x="900.972656"/>
    <use xlink:href="#DejaVuSans-63" x="932.759766"/>
    <use xlink:href="#DejaVuSans-6f" x="987.740234"/>
    <use xlink:href="#DejaVuSans-6c" x="1048.921875"/>
    <use xlink:href="#DejaVuSans-6c" x="1076.705078"/>
    <use xlink:href="#DejaVuSans-65" x="1104.488281"/>
    <use xlink:href="#DejaVuSans-63" x="1166.011719"/>
    <use xlink:href="#DejaVuSans-74" x="1220.992188"/>
    <use xlink:href="#DejaVuSans-65" x="1260.201172"/>
    <use xlink:href="#DejaVuSans-64" x="1321.724609"/>
    <use xlink:href="#DejaVuSans-20" x="1385.201172"/>
    <use xlink:href="#DejaVuSans-69" x="1416.988281"/>
    <use xlink:href="#DejaVuSans-6e" x="1444.771484"/>
    <use xlink:href="#DejaVuSans-20" x="1508.150391"/>
    <use xlink:href="#DejaVuSans-61" x="1539.9375"/>
    <use xlink:href="#DejaVuSans-20" x="1601.216797"/>
    <use xlink:href="#DejaVuSans-72" x="1633.003906"/>
    <use xlink:href="#DejaVuSans-61" x="1674.117188"/>
    <use xlink:href="#DejaVuSans-6e" x="1735.396484"/>
    <use xlink:href="#DejaVuSans-64" x="1798.775391"/>
    <use xlink:href="#DejaVuSans-6f" x="1862.251953"/>
    <use xlink:href="#DejaVuSans-6d" x="1923.433594"/>
    <use xlink:href="#DejaVuSans-20" x="2020.845703"/>
    <use xlink:href="#DejaVuSans-74" x="2052.632812"/>
    <use xlink:href="#DejaVuSans-69" x="2091.841797"/>
    <use xlink:href="#DejaVuSans-6d" x="2119.625"/>
    <use xlink:href="#DejaVuSans-65" x="2217.037109"/>
    <use xlink:href="#DejaVuSans-73" x="2278.560547"/>
    <use xlink:href="#DejaVuSans-70" x="2330.660156"/>
    <use xlink:href="#DejaVuSans-61" x="2394.136719"/>
    <use xlink:href="#DejaVuSans-6e" x="2455.416016"/>
   </g>
  </g>
 </g>
 <defs>
  <clipPath id="p8faf7d8f41">
   <rect x="56.18" y="38.874574" width="127.15" height="154.602713"/>
  </clipPath>
  <clipPath id="pbd5a05b470">
   <rect x="243.92" y="38.874574" width="127.15" height="154.602713"/>
  </clipPath>
  <clipPath id="pa367792ab5">
   <rect x="431.66" y="38.874574" width="127.15" height="154.602713"/>
  </clipPath>
  <clipPath id="p204219fd49">
   <rect x="56.18" y="235.437287" width="127.15" height="154.602713"/>
  </clipPath>
  <clipPath id="pd74c66531a">
   <rect x="243.92" y="235.437287" width="127.15" height="154.602713"/>
  </clipPath>
  <clipPath id="pab9cac28f9">
   <rect x="431.66" y="235.437287" width="127.15" height="154.602713"/>
  </clipPath>
 </defs>
</svg>
