<?xml version="1.0" encoding="utf-8" standalone="no"?>
<!DOCTYPE svg PUBLIC "-//W3C//DTD SVG 1.1//EN"
  "http://www.w3.org/Graphics/SVG/1.1/DTD/svg11.dtd">
<svg xmlns:xlink="http://www.w3.org/1999/xlink" width="576pt" height="288pt" viewBox="0 0 576 288" xmlns="http://www.w3.org/2000/svg" version="1.1">
 <metadata>
  <rdf:RDF xmlns:dc="http://purl.org/dc/elements/1.1/" xmlns:cc="http://creativecommons.org/ns#" xmlns:rdf="http://www.w3.org/1999/02/22-rdf-syntax-ns#">
   <cc:Work>
    <dc:type rdf:resource="http://purl.org/dc/dcmitype/StillImage"/>
    <dc:date>2025-02-19T08:39:58.622441</dc:date>
    <dc:format>image/svg+xml</dc:format>
    <dc:creator>
     <cc:Agent>
      <dc:title>Matplotlib v3.8.4, https://matplotlib.org/</dc:title>
     </cc:Agent>
    </dc:creator>
   </cc:Work>
  </rdf:RDF>
 </metadata>
 <defs>
  <style type="text/css">*{stroke-linejoin: round; stroke-linecap: butt}</style>
 </defs>
 <g id="figure_1">
  <g id="patch_1">
   <path d="M 0 288 
L 576 288 
L 576 0 
L 0 0 
z
" style="fill: #ffffff"/>
  </g>
  <g id="axes_1">
   <g id="patch_2">
    <path d="M 72 256.32 
L 518.4 256.32 
L 518.4 34.56 
L 72 34.56 
z
" style="fill: #ffffff"/>
   </g>
   <g id="matplotlib.axis_1">
    <g id="xtick_1">
     <g id="line2d_1">
      <defs>
       <path id="m73586dab97" d="M 0 0 
L 0 3.5 
" style="stroke: #000000; stroke-width: 0.8"/>
      </defs>
      <g>
       <use xlink:href="#m73586dab97" x="92.253236" y="256.32" style="stroke: #000000; stroke-width: 0.8"/>
      </g>
     </g>
     <g id="text_1">
      <!-- 0 -->
      <g transform="translate(89.071986 270.918437) scale(0.1 -0.1)">
       <defs>
        <path id="DejaVuSans-30" d="M 2034 4250 
Q 1547 4250 1301 3770 
Q 1056 3291 1056 2328 
Q 1056 1369 1301 889 
Q 1547 409 2034 409 
Q 2525 409 2770 889 
Q 3016 1369 3016 2328 
Q 3016 3291 2770 3770 
Q 2525 4250 2034 4250 
z
M 2034 4750 
Q 2819 4750 3233 4129 
Q 3647 3509 3647 2328 
Q 3647 1150 3233 529 
Q 2819 -91 2034 -91 
Q 1250 -91 836 529 
Q 422 1150 422 2328 
Q 422 3509 836 4129 
Q 1250 4750 2034 4750 
z
" transform="scale(0.015625)"/>
       </defs>
       <use xlink:href="#DejaVuSans-30"/>
      </g>
     </g>
    </g>
    <g id="xtick_2">
     <g id="line2d_2">
      <g>
       <use xlink:href="#m73586dab97" x="146.355778" y="256.32" style="stroke: #000000; stroke-width: 0.8"/>
      </g>
     </g>
     <g id="text_2">
      <!-- 20 -->
      <g transform="translate(139.993278 270.918437) scale(0.1 -0.1)">
       <defs>
        <path id="DejaVuSans-32" d="M 1228 531 
L 3431 531 
L 3431 0 
L 469 0 
L 469 531 
Q 828 903 1448 1529 
Q 2069 2156 2228 2338 
Q 2531 2678 2651 2914 
Q 2772 3150 2772 3378 
Q 2772 3750 2511 3984 
Q 2250 4219 1831 4219 
Q 1534 4219 1204 4116 
Q 875 4013 500 3803 
L 500 4441 
Q 881 4594 1212 4672 
Q 1544 4750 1819 4750 
Q 2544 4750 2975 4387 
Q 3406 4025 3406 3419 
Q 3406 3131 3298 2873 
Q 3191 2616 2906 2266 
Q 2828 2175 2409 1742 
Q 1991 1309 1228 531 
z
" transform="scale(0.015625)"/>
       </defs>
       <use xlink:href="#DejaVuSans-32"/>
       <use xlink:href="#DejaVuSans-30" x="63.623047"/>
      </g>
     </g>
    </g>
    <g id="xtick_3">
     <g id="line2d_3">
      <g>
       <use xlink:href="#m73586dab97" x="200.458321" y="256.32" style="stroke: #000000; stroke-width: 0.8"/>
      </g>
     </g>
     <g id="text_3">
      <!-- 40 -->
      <g transform="translate(194.095821 270.918437) scale(0.1 -0.1)">
       <defs>
        <path id="DejaVuSans-34" d="M 2419 4116 
L 825 1625 
L 2419 1625 
L 2419 4116 
z
M 2253 4666 
L 3047 4666 
L 3047 1625 
L 3713 1625 
L 3713 1100 
L 3047 1100 
L 3047 0 
L 2419 0 
L 2419 1100 
L 313 1100 
L 313 1709 
L 2253 4666 
z
" transform="scale(0.015625)"/>
       </defs>
       <use xlink:href="#DejaVuSans-34"/>
       <use xlink:href="#DejaVuSans-30" x="63.623047"/>
      </g>
     </g>
    </g>
    <g id="xtick_4">
     <g id="line2d_4">
      <g>
       <use xlink:href="#m73586dab97" x="254.560864" y="256.32" style="stroke: #000000; stroke-width: 0.8"/>
      </g>
     </g>
     <g id="text_4">
      <!-- 60 -->
      <g transform="translate(248.198364 270.918437) scale(0.1 -0.1)">
       <defs>
        <path id="DejaVuSans-36" d="M 2113 2584 
Q 1688 2584 1439 2293 
Q 1191 2003 1191 1497 
Q 1191 994 1439 701 
Q 1688 409 2113 409 
Q 2538 409 2786 701 
Q 3034 994 3034 1497 
Q 3034 2003 2786 2293 
Q 2538 2584 2113 2584 
z
M 3366 4563 
L 3366 3988 
Q 3128 4100 2886 4159 
Q 2644 4219 2406 4219 
Q 1781 4219 1451 3797 
Q 1122 3375 1075 2522 
Q 1259 2794 1537 2939 
Q 1816 3084 2150 3084 
Q 2853 3084 3261 2657 
Q 3669 2231 3669 1497 
Q 3669 778 3244 343 
Q 2819 -91 2113 -91 
Q 1303 -91 875 529 
Q 447 1150 447 2328 
Q 447 3434 972 4092 
Q 1497 4750 2381 4750 
Q 2619 4750 2861 4703 
Q 3103 4656 3366 4563 
z
" transform="scale(0.015625)"/>
       </defs>
       <use xlink:href="#DejaVuSans-36"/>
       <use xlink:href="#DejaVuSans-30" x="63.623047"/>
      </g>
     </g>
    </g>
    <g id="xtick_5">
     <g id="line2d_5">
      <g>
       <use xlink:href="#m73586dab97" x="308.663406" y="256.32" style="stroke: #000000; stroke-width: 0.8"/>
      </g>
     </g>
     <g id="text_5">
      <!-- 80 -->
      <g transform="translate(302.300906 270.918437) scale(0.1 -0.1)">
       <defs>
        <path id="DejaVuSans-38" d="M 2034 2216 
Q 1584 2216 1326 1975 
Q 1069 1734 1069 1313 
Q 1069 891 1326 650 
Q 1584 409 2034 409 
Q 2484 409 2743 651 
Q 3003 894 3003 1313 
Q 3003 1734 2745 1975 
Q 2488 2216 2034 2216 
z
M 1403 2484 
Q 997 2584 770 2862 
Q 544 3141 544 3541 
Q 544 4100 942 4425 
Q 1341 4750 2034 4750 
Q 2731 4750 3128 4425 
Q 3525 4100 3525 3541 
Q 3525 3141 3298 2862 
Q 3072 2584 2669 2484 
Q 3125 2378 3379 2068 
Q 3634 1759 3634 1313 
Q 3634 634 3220 271 
Q 2806 -91 2034 -91 
Q 1263 -91 848 271 
Q 434 634 434 1313 
Q 434 1759 690 2068 
Q 947 2378 1403 2484 
z
M 1172 3481 
Q 1172 3119 1398 2916 
Q 1625 2713 2034 2713 
Q 2441 2713 2670 2916 
Q 2900 3119 2900 3481 
Q 2900 3844 2670 4047 
Q 2441 4250 2034 4250 
Q 1625 4250 1398 4047 
Q 1172 3844 1172 3481 
z
" transform="scale(0.015625)"/>
       </defs>
       <use xlink:href="#DejaVuSans-38"/>
       <use xlink:href="#DejaVuSans-30" x="63.623047"/>
      </g>
     </g>
    </g>
    <g id="xtick_6">
     <g id="line2d_6">
      <g>
       <use xlink:href="#m73586dab97" x="362.765949" y="256.32" style="stroke: #000000; stroke-width: 0.8"/>
      </g>
     </g>
     <g id="text_6">
      <!-- 100 -->
      <g transform="translate(353.222199 270.918437) scale(0.1 -0.1)">
       <defs>
        <path id="DejaVuSans-31" d="M 794 531 
L 1825 531 
L 1825 4091 
L 703 3866 
L 703 4441 
L 1819 4666 
L 2450 4666 
L 2450 531 
L 3481 531 
L 3481 0 
L 794 0 
L 794 531 
z
" transform="scale(0.015625)"/>
       </defs>
       <use xlink:href="#DejaVuSans-31"/>
       <use xlink:href="#DejaVuSans-30" x="63.623047"/>
       <use xlink:href="#DejaVuSans-30" x="127.246094"/>
      </g>
     </g>
    </g>
    <g id="xtick_7">
     <g id="line2d_7">
      <g>
       <use xlink:href="#m73586dab97" x="416.868491" y="256.32" style="stroke: #000000; stroke-width: 0.8"/>
      </g>
     </g>
     <g id="text_7">
      <!-- 120 -->
      <g transform="translate(407.324741 270.918437) scale(0.1 -0.1)">
       <use xlink:href="#DejaVuSans-31"/>
       <use xlink:href="#DejaVuSans-32" x="63.623047"/>
       <use xlink:href="#DejaVuSans-30" x="127.246094"/>
      </g>
     </g>
    </g>
    <g id="xtick_8">
     <g id="line2d_8">
      <g>
       <use xlink:href="#m73586dab97" x="470.971034" y="256.32" style="stroke: #000000; stroke-width: 0.8"/>
      </g>
     </g>
     <g id="text_8">
      <!-- 140 -->
      <g transform="translate(461.427284 270.918437) scale(0.1 -0.1)">
       <use xlink:href="#DejaVuSans-31"/>
       <use xlink:href="#DejaVuSans-34" x="63.623047"/>
       <use xlink:href="#DejaVuSans-30" x="127.246094"/>
      </g>
     </g>
    </g>
    <g id="text_9">
     <!-- Frequency (Hz) -->
     <g transform="translate(257.495313 284.596563) scale(0.1 -0.1)">
      <defs>
       <path id="DejaVuSans-46" d="M 628 4666 
L 3309 4666 
L 3309 4134 
L 1259 4134 
L 1259 2759 
L 3109 2759 
L 3109 2228 
L 1259 2228 
L 1259 0 
L 628 0 
L 628 4666 
z
" transform="scale(0.015625)"/>
       <path id="DejaVuSans-72" d="M 2631 2963 
Q 2534 3019 2420 3045 
Q 2306 3072 2169 3072 
Q 1681 3072 1420 2755 
Q 1159 2438 1159 1844 
L 1159 0 
L 581 0 
L 581 3500 
L 1159 3500 
L 1159 2956 
Q 1341 3275 1631 3429 
Q 1922 3584 2338 3584 
Q 2397 3584 2469 3576 
Q 2541 3569 2628 3553 
L 2631 2963 
z
" transform="scale(0.015625)"/>
       <path id="DejaVuSans-65" d="M 3597 1894 
L 3597 1613 
L 953 1613 
Q 991 1019 1311 708 
Q 1631 397 2203 397 
Q 2534 397 2845 478 
Q 3156 559 3463 722 
L 3463 178 
Q 3153 47 2828 -22 
Q 2503 -91 2169 -91 
Q 1331 -91 842 396 
Q 353 884 353 1716 
Q 353 2575 817 3079 
Q 1281 3584 2069 3584 
Q 2775 3584 3186 3129 
Q 3597 2675 3597 1894 
z
M 3022 2063 
Q 3016 2534 2758 2815 
Q 2500 3097 2075 3097 
Q 1594 3097 1305 2825 
Q 1016 2553 972 2059 
L 3022 2063 
z
" transform="scale(0.015625)"/>
       <path id="DejaVuSans-71" d="M 947 1747 
Q 947 1113 1208 752 
Q 1469 391 1925 391 
Q 2381 391 2643 752 
Q 2906 1113 2906 1747 
Q 2906 2381 2643 2742 
Q 2381 3103 1925 3103 
Q 1469 3103 1208 2742 
Q 947 2381 947 1747 
z
M 2906 525 
Q 2725 213 2448 61 
Q 2172 -91 1784 -91 
Q 1150 -91 751 415 
Q 353 922 353 1747 
Q 353 2572 751 3078 
Q 1150 3584 1784 3584 
Q 2172 3584 2448 3432 
Q 2725 3281 2906 2969 
L 2906 3500 
L 3481 3500 
L 3481 -1331 
L 2906 -1331 
L 2906 525 
z
" transform="scale(0.015625)"/>
       <path id="DejaVuSans-75" d="M 544 1381 
L 544 3500 
L 1119 3500 
L 1119 1403 
Q 1119 906 1312 657 
Q 1506 409 1894 409 
Q 2359 409 2629 706 
Q 2900 1003 2900 1516 
L 2900 3500 
L 3475 3500 
L 3475 0 
L 2900 0 
L 2900 538 
Q 2691 219 2414 64 
Q 2138 -91 1772 -91 
Q 1169 -91 856 284 
Q 544 659 544 1381 
z
M 1991 3584 
L 1991 3584 
z
" transform="scale(0.015625)"/>
       <path id="DejaVuSans-6e" d="M 3513 2113 
L 3513 0 
L 2938 0 
L 2938 2094 
Q 2938 2591 2744 2837 
Q 2550 3084 2163 3084 
Q 1697 3084 1428 2787 
Q 1159 2491 1159 1978 
L 1159 0 
L 581 0 
L 581 3500 
L 1159 3500 
L 1159 2956 
Q 1366 3272 1645 3428 
Q 1925 3584 2291 3584 
Q 2894 3584 3203 3211 
Q 3513 2838 3513 2113 
z
" transform="scale(0.015625)"/>
       <path id="DejaVuSans-63" d="M 3122 3366 
L 3122 2828 
Q 2878 2963 2633 3030 
Q 2388 3097 2138 3097 
Q 1578 3097 1268 2742 
Q 959 2388 959 1747 
Q 959 1106 1268 751 
Q 1578 397 2138 397 
Q 2388 397 2633 464 
Q 2878 531 3122 666 
L 3122 134 
Q 2881 22 2623 -34 
Q 2366 -91 2075 -91 
Q 1284 -91 818 406 
Q 353 903 353 1747 
Q 353 2603 823 3093 
Q 1294 3584 2113 3584 
Q 2378 3584 2631 3529 
Q 2884 3475 3122 3366 
z
" transform="scale(0.015625)"/>
       <path id="DejaVuSans-79" d="M 2059 -325 
Q 1816 -950 1584 -1140 
Q 1353 -1331 966 -1331 
L 506 -1331 
L 506 -850 
L 844 -850 
Q 1081 -850 1212 -737 
Q 1344 -625 1503 -206 
L 1606 56 
L 191 3500 
L 800 3500 
L 1894 763 
L 2988 3500 
L 3597 3500 
L 2059 -325 
z
" transform="scale(0.015625)"/>
       <path id="DejaVuSans-20" transform="scale(0.015625)"/>
       <path id="DejaVuSans-28" d="M 1984 4856 
Q 1566 4138 1362 3434 
Q 1159 2731 1159 2009 
Q 1159 1288 1364 580 
Q 1569 -128 1984 -844 
L 1484 -844 
Q 1016 -109 783 600 
Q 550 1309 550 2009 
Q 550 2706 781 3412 
Q 1013 4119 1484 4856 
L 1984 4856 
z
" transform="scale(0.015625)"/>
       <path id="DejaVuSans-48" d="M 628 4666 
L 1259 4666 
L 1259 2753 
L 3553 2753 
L 3553 4666 
L 4184 4666 
L 4184 0 
L 3553 0 
L 3553 2222 
L 1259 2222 
L 1259 0 
L 628 0 
L 628 4666 
z
" transform="scale(0.015625)"/>
       <path id="DejaVuSans-7a" d="M 353 3500 
L 3084 3500 
L 3084 2975 
L 922 459 
L 3084 459 
L 3084 0 
L 275 0 
L 275 525 
L 2438 3041 
L 353 3041 
L 353 3500 
z
" transform="scale(0.015625)"/>
       <path id="DejaVuSans-29" d="M 513 4856 
L 1013 4856 
Q 1481 4119 1714 3412 
Q 1947 2706 1947 2009 
Q 1947 1309 1714 600 
Q 1481 -109 1013 -844 
L 513 -844 
Q 928 -128 1133 580 
Q 1338 1288 1338 2009 
Q 1338 2731 1133 3434 
Q 928 4138 513 4856 
z
" transform="scale(0.015625)"/>
      </defs>
      <use xlink:href="#DejaVuSans-46"/>
      <use xlink:href="#DejaVuSans-72" x="50.269531"/>
      <use xlink:href="#DejaVuSans-65" x="89.132812"/>
      <use xlink:href="#DejaVuSans-71" x="150.65625"/>
      <use xlink:href="#DejaVuSans-75" x="214.132812"/>
      <use xlink:href="#DejaVuSans-65" x="277.511719"/>
      <use xlink:href="#DejaVuSans-6e" x="339.035156"/>
      <use xlink:href="#DejaVuSans-63" x="402.414062"/>
      <use xlink:href="#DejaVuSans-79" x="457.394531"/>
      <use xlink:href="#DejaVuSans-20" x="516.574219"/>
      <use xlink:href="#DejaVuSans-28" x="548.361328"/>
      <use xlink:href="#DejaVuSans-48" x="587.375"/>
      <use xlink:href="#DejaVuSans-7a" x="662.570312"/>
      <use xlink:href="#DejaVuSans-29" x="715.060547"/>
     </g>
    </g>
   </g>
   <g id="matplotlib.axis_2">
    <g id="ytick_1">
     <g id="line2d_9">
      <defs>
       <path id="m89170b4779" d="M 0 0 
L -3.5 0 
" style="stroke: #000000; stroke-width: 0.8"/>
      </defs>
      <g>
       <use xlink:href="#m89170b4779" x="72" y="246.245193" style="stroke: #000000; stroke-width: 0.8"/>
      </g>
     </g>
     <g id="text_10">
      <!-- 0 -->
      <g transform="translate(58.6375 250.044412) scale(0.1 -0.1)">
       <use xlink:href="#DejaVuSans-30"/>
      </g>
     </g>
    </g>
    <g id="ytick_2">
     <g id="line2d_10">
      <g>
       <use xlink:href="#m89170b4779" x="72" y="213.267851" style="stroke: #000000; stroke-width: 0.8"/>
      </g>
     </g>
     <g id="text_11">
      <!-- 500 -->
      <g transform="translate(45.9125 217.06707) scale(0.1 -0.1)">
       <defs>
        <path id="DejaVuSans-35" d="M 691 4666 
L 3169 4666 
L 3169 4134 
L 1269 4134 
L 1269 2991 
Q 1406 3038 1543 3061 
Q 1681 3084 1819 3084 
Q 2600 3084 3056 2656 
Q 3513 2228 3513 1497 
Q 3513 744 3044 326 
Q 2575 -91 1722 -91 
Q 1428 -91 1123 -41 
Q 819 9 494 109 
L 494 744 
Q 775 591 1075 516 
Q 1375 441 1709 441 
Q 2250 441 2565 725 
Q 2881 1009 2881 1497 
Q 2881 1984 2565 2268 
Q 2250 2553 1709 2553 
Q 1456 2553 1204 2497 
Q 953 2441 691 2322 
L 691 4666 
z
" transform="scale(0.015625)"/>
       </defs>
       <use xlink:href="#DejaVuSans-35"/>
       <use xlink:href="#DejaVuSans-30" x="63.623047"/>
       <use xlink:href="#DejaVuSans-30" x="127.246094"/>
      </g>
     </g>
    </g>
    <g id="ytick_3">
     <g id="line2d_11">
      <g>
       <use xlink:href="#m89170b4779" x="72" y="180.290508" style="stroke: #000000; stroke-width: 0.8"/>
      </g>
     </g>
     <g id="text_12">
      <!-- 1000 -->
      <g transform="translate(39.55 184.089727) scale(0.1 -0.1)">
       <use xlink:href="#DejaVuSans-31"/>
       <use xlink:href="#DejaVuSans-30" x="63.623047"/>
       <use xlink:href="#DejaVuSans-30" x="127.246094"/>
       <use xlink:href="#DejaVuSans-30" x="190.869141"/>
      </g>
     </g>
    </g>
    <g id="ytick_4">
     <g id="line2d_12">
      <g>
       <use xlink:href="#m89170b4779" x="72" y="147.313165" style="stroke: #000000; stroke-width: 0.8"/>
      </g>
     </g>
     <g id="text_13">
      <!-- 1500 -->
      <g transform="translate(39.55 151.112384) scale(0.1 -0.1)">
       <use xlink:href="#DejaVuSans-31"/>
       <use xlink:href="#DejaVuSans-35" x="63.623047"/>
       <use xlink:href="#DejaVuSans-30" x="127.246094"/>
       <use xlink:href="#DejaVuSans-30" x="190.869141"/>
      </g>
     </g>
    </g>
    <g id="ytick_5">
     <g id="line2d_13">
      <g>
       <use xlink:href="#m89170b4779" x="72" y="114.335823" style="stroke: #000000; stroke-width: 0.8"/>
      </g>
     </g>
     <g id="text_14">
      <!-- 2000 -->
      <g transform="translate(39.55 118.135042) scale(0.1 -0.1)">
       <use xlink:href="#DejaVuSans-32"/>
       <use xlink:href="#DejaVuSans-30" x="63.623047"/>
       <use xlink:href="#DejaVuSans-30" x="127.246094"/>
       <use xlink:href="#DejaVuSans-30" x="190.869141"/>
      </g>
     </g>
    </g>
    <g id="ytick_6">
     <g id="line2d_14">
      <g>
       <use xlink:href="#m89170b4779" x="72" y="81.35848" style="stroke: #000000; stroke-width: 0.8"/>
      </g>
     </g>
     <g id="text_15">
      <!-- 2500 -->
      <g transform="translate(39.55 85.157699) scale(0.1 -0.1)">
       <use xlink:href="#DejaVuSans-32"/>
       <use xlink:href="#DejaVuSans-35" x="63.623047"/>
       <use xlink:href="#DejaVuSans-30" x="127.246094"/>
       <use xlink:href="#DejaVuSans-30" x="190.869141"/>
      </g>
     </g>
    </g>
    <g id="ytick_7">
     <g id="line2d_15">
      <g>
       <use xlink:href="#m89170b4779" x="72" y="48.381137" style="stroke: #000000; stroke-width: 0.8"/>
      </g>
     </g>
     <g id="text_16">
      <!-- 3000 -->
      <g transform="translate(39.55 52.180356) scale(0.1 -0.1)">
       <defs>
        <path id="DejaVuSans-33" d="M 2597 2516 
Q 3050 2419 3304 2112 
Q 3559 1806 3559 1356 
Q 3559 666 3084 287 
Q 2609 -91 1734 -91 
Q 1441 -91 1130 -33 
Q 819 25 488 141 
L 488 750 
Q 750 597 1062 519 
Q 1375 441 1716 441 
Q 2309 441 2620 675 
Q 2931 909 2931 1356 
Q 2931 1769 2642 2001 
Q 2353 2234 1838 2234 
L 1294 2234 
L 1294 2753 
L 1863 2753 
Q 2328 2753 2575 2939 
Q 2822 3125 2822 3475 
Q 2822 3834 2567 4026 
Q 2313 4219 1838 4219 
Q 1578 4219 1281 4162 
Q 984 4106 628 3988 
L 628 4550 
Q 988 4650 1302 4700 
Q 1616 4750 1894 4750 
Q 2613 4750 3031 4423 
Q 3450 4097 3450 3541 
Q 3450 3153 3228 2886 
Q 3006 2619 2597 2516 
z
" transform="scale(0.015625)"/>
       </defs>
       <use xlink:href="#DejaVuSans-33"/>
       <use xlink:href="#DejaVuSans-30" x="63.623047"/>
       <use xlink:href="#DejaVuSans-30" x="127.246094"/>
       <use xlink:href="#DejaVuSans-30" x="190.869141"/>
      </g>
     </g>
    </g>
    <g id="text_17">
     <!-- Amplitude -->
     <g transform="translate(33.470312 171.062656) rotate(-90) scale(0.1 -0.1)">
      <defs>
       <path id="DejaVuSans-41" d="M 2188 4044 
L 1331 1722 
L 3047 1722 
L 2188 4044 
z
M 1831 4666 
L 2547 4666 
L 4325 0 
L 3669 0 
L 3244 1197 
L 1141 1197 
L 716 0 
L 50 0 
L 1831 4666 
z
" transform="scale(0.015625)"/>
       <path id="DejaVuSans-6d" d="M 3328 2828 
Q 3544 3216 3844 3400 
Q 4144 3584 4550 3584 
Q 5097 3584 5394 3201 
Q 5691 2819 5691 2113 
L 5691 0 
L 5113 0 
L 5113 2094 
Q 5113 2597 4934 2840 
Q 4756 3084 4391 3084 
Q 3944 3084 3684 2787 
Q 3425 2491 3425 1978 
L 3425 0 
L 2847 0 
L 2847 2094 
Q 2847 2600 2669 2842 
Q 2491 3084 2119 3084 
Q 1678 3084 1418 2786 
Q 1159 2488 1159 1978 
L 1159 0 
L 581 0 
L 581 3500 
L 1159 3500 
L 1159 2956 
Q 1356 3278 1631 3431 
Q 1906 3584 2284 3584 
Q 2666 3584 2933 3390 
Q 3200 3197 3328 2828 
z
" transform="scale(0.015625)"/>
       <path id="DejaVuSans-70" d="M 1159 525 
L 1159 -1331 
L 581 -1331 
L 581 3500 
L 1159 3500 
L 1159 2969 
Q 1341 3281 1617 3432 
Q 1894 3584 2278 3584 
Q 2916 3584 3314 3078 
Q 3713 2572 3713 1747 
Q 3713 922 3314 415 
Q 2916 -91 2278 -91 
Q 1894 -91 1617 61 
Q 1341 213 1159 525 
z
M 3116 1747 
Q 3116 2381 2855 2742 
Q 2594 3103 2138 3103 
Q 1681 3103 1420 2742 
Q 1159 2381 1159 1747 
Q 1159 1113 1420 752 
Q 1681 391 2138 391 
Q 2594 391 2855 752 
Q 3116 1113 3116 1747 
z
" transform="scale(0.015625)"/>
       <path id="DejaVuSans-6c" d="M 603 4863 
L 1178 4863 
L 1178 0 
L 603 0 
L 603 4863 
z
" transform="scale(0.015625)"/>
       <path id="DejaVuSans-69" d="M 603 3500 
L 1178 3500 
L 1178 0 
L 603 0 
L 603 3500 
z
M 603 4863 
L 1178 4863 
L 1178 4134 
L 603 4134 
L 603 4863 
z
" transform="scale(0.015625)"/>
       <path id="DejaVuSans-74" d="M 1172 4494 
L 1172 3500 
L 2356 3500 
L 2356 3053 
L 1172 3053 
L 1172 1153 
Q 1172 725 1289 603 
Q 1406 481 1766 481 
L 2356 481 
L 2356 0 
L 1766 0 
Q 1100 0 847 248 
Q 594 497 594 1153 
L 594 3053 
L 172 3053 
L 172 3500 
L 594 3500 
L 594 4494 
L 1172 4494 
z
" transform="scale(0.015625)"/>
       <path id="DejaVuSans-64" d="M 2906 2969 
L 2906 4863 
L 3481 4863 
L 3481 0 
L 2906 0 
L 2906 525 
Q 2725 213 2448 61 
Q 2172 -91 1784 -91 
Q 1150 -91 751 415 
Q 353 922 353 1747 
Q 353 2572 751 3078 
Q 1150 3584 1784 3584 
Q 2172 3584 2448 3432 
Q 2725 3281 2906 2969 
z
M 947 1747 
Q 947 1113 1208 752 
Q 1469 391 1925 391 
Q 2381 391 2643 752 
Q 2906 1113 2906 1747 
Q 2906 2381 2643 2742 
Q 2381 3103 1925 3103 
Q 1469 3103 1208 2742 
Q 947 2381 947 1747 
z
" transform="scale(0.015625)"/>
      </defs>
      <use xlink:href="#DejaVuSans-41"/>
      <use xlink:href="#DejaVuSans-6d" x="68.408203"/>
      <use xlink:href="#DejaVuSans-70" x="165.820312"/>
      <use xlink:href="#DejaVuSans-6c" x="229.296875"/>
      <use xlink:href="#DejaVuSans-69" x="257.080078"/>
      <use xlink:href="#DejaVuSans-74" x="284.863281"/>
      <use xlink:href="#DejaVuSans-75" x="324.072266"/>
      <use xlink:href="#DejaVuSans-64" x="387.451172"/>
      <use xlink:href="#DejaVuSans-65" x="450.927734"/>
     </g>
    </g>
   </g>
   <g id="line2d_16">
    <path d="M 92.290909 234.617195 
L 92.328583 233.086037 
L 92.366256 234.556553 
L 92.403929 239.060606 
L 92.441603 238.999417 
L 92.62997 197.564048 
L 92.667643 44.64 
L 92.705317 148.415624 
L 92.856011 230.53589 
L 92.931357 231.179265 
L 92.969031 227.754331 
L 93.044378 239.609593 
L 93.082051 234.427952 
L 93.119725 228.907845 
L 93.157398 237.407732 
L 93.195071 238.897282 
L 93.232745 237.370883 
L 93.270418 238.220788 
L 93.308092 235.571464 
L 93.345765 235.607474 
L 93.421112 240.497594 
L 93.458785 237.837847 
L 93.496459 238.744338 
L 93.534132 223.251632 
L 93.571806 240.6083 
L 93.609479 240.805058 
L 93.647153 243.65786 
L 93.684826 239.343322 
L 93.722499 239.398508 
L 93.760173 240.178816 
L 93.797846 239.276701 
L 93.83552 238.988505 
L 93.873193 239.898923 
L 93.910867 236.330593 
L 93.94854 206.56321 
L 94.023887 234.001671 
L 94.099234 239.961089 
L 94.136907 239.358756 
L 94.287601 237.418592 
L 94.325274 237.434728 
L 94.400621 216.34252 
L 94.551315 243.909093 
L 94.588988 242.996577 
L 94.626662 243.853054 
L 94.664335 245.306624 
L 94.702009 242.599363 
L 94.777355 243.639639 
L 94.815029 221.06208 
L 94.852702 242.920415 
L 94.890376 244.496451 
L 94.928049 244.454148 
L 95.041069 242.477667 
L 95.116416 244.332801 
L 95.229437 227.56063 
L 95.26711 237.172215 
L 95.38013 244.625215 
L 95.417804 244.391264 
L 95.455477 244.239368 
L 95.530824 243.971992 
L 95.568497 245.570853 
L 95.681518 242.062933 
L 95.794538 245.929218 
L 95.869885 244.148972 
L 95.907558 245.408317 
L 95.982905 243.91651 
L 96.020579 244.837281 
L 96.058252 245.384424 
L 96.095925 232.614967 
L 96.133599 245.799033 
L 96.208946 243.803023 
L 96.246619 246.069812 
L 96.321966 245.133098 
L 96.359639 244.105272 
L 96.397313 244.305329 
L 96.434986 245.20801 
L 96.510333 239.552375 
L 96.548007 242.181092 
L 96.661027 245.273813 
L 96.6987 244.862229 
L 96.811721 243.944839 
L 96.849394 244.511344 
L 96.887067 244.723726 
L 96.962414 241.367304 
L 97.037761 245.850514 
L 97.075435 245.193249 
L 97.113108 245.328577 
L 97.150781 245.118089 
L 97.188455 244.870039 
L 97.226128 244.925416 
L 97.301475 244.868503 
L 97.339149 245.561893 
L 97.376822 237.814152 
L 97.452169 245.131346 
L 97.489842 244.537804 
L 97.527516 245.877482 
L 97.602863 244.610109 
L 97.640536 244.662898 
L 97.715883 244.813613 
L 97.753556 243.768522 
L 97.79123 239.954031 
L 97.828903 244.4622 
L 97.866577 245.172673 
L 97.90425 244.520983 
L 97.941924 244.346886 
L 97.979597 245.845222 
L 98.054944 245.407495 
L 98.092617 245.659834 
L 98.243311 238.684922 
L 98.318658 245.806842 
L 98.394005 244.752864 
L 98.469352 244.438352 
L 98.507025 244.567972 
L 98.544698 245.107686 
L 98.620045 245.01741 
L 98.657719 239.229849 
L 98.695392 245.386846 
L 98.733066 245.264535 
L 98.770739 245.292485 
L 98.808412 245.853819 
L 98.846086 245.668367 
L 98.921433 244.398271 
L 98.959106 244.682466 
L 98.99678 244.583367 
L 99.034453 243.070872 
L 99.072126 235.371661 
L 99.1098 240.76756 
L 99.185147 244.875037 
L 99.22282 243.683324 
L 99.298167 244.322785 
L 99.373514 245.793426 
L 99.524208 243.610932 
L 99.561881 243.344173 
L 99.599554 237.670798 
L 99.637228 242.191843 
L 99.787922 245.79806 
L 99.938615 241.969002 
L 99.976289 244.937919 
L 100.051636 243.124717 
L 100.164656 245.672573 
L 100.202329 245.39193 
L 100.277676 240.922081 
L 100.31535 238.27053 
L 100.353023 92.40968 
L 100.390696 240.290123 
L 100.466043 244.466181 
L 100.503717 243.705862 
L 100.54139 243.797946 
L 100.579064 243.55324 
L 100.65441 245.44725 
L 100.692084 244.476044 
L 100.729757 244.366975 
L 100.805104 241.691055 
L 100.918124 244.778899 
L 100.955798 244.42874 
L 100.993471 246.000716 
L 101.031145 243.762123 
L 101.068818 244.817952 
L 101.144165 244.875803 
L 101.219512 241.122298 
L 101.257185 245.30865 
L 101.332532 245.193751 
L 101.370206 245.091737 
L 101.483226 246.022287 
L 101.520899 245.608376 
L 101.596246 244.775019 
L 101.63392 236.439933 
L 101.671593 244.598618 
L 101.709266 245.61028 
L 101.784613 245.270773 
L 101.822287 245.155156 
L 101.897634 246.065018 
L 101.935307 245.263895 
L 101.97298 245.198222 
L 102.086001 238.982499 
L 102.236694 245.298835 
L 102.274368 244.735217 
L 102.312041 245.196792 
L 102.349715 246.013132 
L 102.425062 245.925563 
L 102.462735 245.137284 
L 102.500408 237.320918 
L 102.538082 244.436882 
L 102.688776 245.764287 
L 102.801796 244.826642 
L 102.839469 244.925354 
L 102.877143 245.614621 
L 102.914816 243.025587 
L 102.990163 244.700189 
L 103.027836 244.565299 
L 103.06551 244.790551 
L 103.103183 245.201448 
L 103.140857 244.716917 
L 103.17853 244.813036 
L 103.216204 244.915074 
L 103.253877 244.611119 
L 103.29155 245.489688 
L 103.329224 244.530463 
L 103.366897 243.521885 
L 103.404571 244.994406 
L 103.442244 244.80265 
L 103.517591 246.156627 
L 103.555264 245.365895 
L 103.630611 244.66184 
L 103.705958 245.880153 
L 103.743632 245.006952 
L 103.781305 243.843417 
L 103.818978 245.348365 
L 103.856652 245.593425 
L 103.931999 244.757879 
L 103.969672 245.751005 
L 104.045019 245.36803 
L 104.082693 245.767753 
L 104.120366 245.200176 
L 104.158039 244.476866 
L 104.195713 245.4953 
L 104.27106 245.536088 
L 104.346407 245.411393 
L 104.38408 246.03356 
L 104.421753 245.57934 
L 104.4971 245.694158 
L 104.534774 245.87261 
L 104.572447 245.670288 
L 104.610121 243.448365 
L 104.647794 243.971198 
L 104.798488 246.08727 
L 104.873835 245.493415 
L 104.911508 245.893942 
L 104.949181 245.850413 
L 104.986855 245.996987 
L 105.024528 245.455773 
L 105.062202 241.972715 
L 105.099875 245.622333 
L 105.175222 246.114947 
L 105.212895 245.689049 
L 105.288242 245.22813 
L 105.325916 245.622503 
L 105.363589 245.783686 
L 105.401263 245.62278 
L 105.476609 241.890027 
L 105.514283 243.233078 
L 105.58963 245.477412 
L 105.664977 245.101784 
L 105.70265 245.430186 
L 105.777997 245.393647 
L 105.853344 244.482515 
L 105.891017 244.613847 
L 105.928691 243.060773 
L 105.966364 244.614637 
L 106.041711 245.94544 
L 106.079384 245.787308 
L 106.305425 245.083093 
L 106.343098 243.641493 
L 106.380772 245.201436 
L 106.569139 246.012086 
L 106.606812 245.865138 
L 106.757506 243.598261 
L 106.795179 245.979274 
L 106.870526 244.635238 
L 106.945873 245.733895 
L 106.983547 245.270943 
L 107.02122 245.182126 
L 107.171914 246.141466 
L 107.209587 244.094737 
L 107.284934 245.335199 
L 107.322607 245.345587 
L 107.360281 245.126671 
L 107.397954 245.68499 
L 107.473301 245.509818 
L 107.548648 245.932689 
L 107.623995 242.66522 
L 107.661668 245.49731 
L 107.737015 245.100445 
L 107.812362 245.911113 
L 107.850035 244.58587 
L 107.925382 245.194372 
L 108.000729 244.596095 
L 108.038403 243.182837 
L 108.076076 245.072517 
L 108.151423 245.924273 
L 108.189096 245.038412 
L 108.22677 246.164372 
L 108.302117 245.878508 
L 108.33979 246.040703 
L 108.415137 246.07238 
L 108.490484 244.284122 
L 108.641177 245.95298 
L 108.678851 245.990543 
L 108.754198 246.011207 
L 108.867218 242.891387 
L 108.942565 245.48583 
L 109.017912 245.299261 
L 109.093259 245.507134 
L 109.168605 245.168441 
L 109.206279 245.601874 
L 109.281626 245.256636 
L 109.319299 245.127265 
L 109.356973 245.486954 
L 109.394646 245.101819 
L 109.54534 245.179041 
L 109.65836 246.168942 
L 109.77138 243.166327 
L 109.846727 245.992844 
L 109.884401 245.384405 
L 109.922074 245.329538 
L 109.959747 245.972987 
L 110.035094 245.659408 
L 110.072768 245.679005 
L 110.185788 243.215153 
L 110.261135 245.76063 
L 110.336482 245.425425 
L 110.411829 245.528622 
L 110.449502 245.992876 
L 110.524849 245.688057 
L 110.562522 244.381211 
L 110.637869 245.398161 
L 110.713216 245.872678 
L 110.75089 245.193481 
L 110.826236 245.798964 
L 110.86391 245.572044 
L 110.901583 245.922269 
L 110.939257 245.956788 
L 111.014604 243.818979 
L 111.052277 245.308231 
L 111.202971 245.94727 
L 111.278318 245.580318 
L 111.315991 245.941971 
L 111.391338 245.901571 
L 111.466685 244.297559 
L 111.504358 245.617488 
L 111.542032 245.476462 
L 111.579705 246.131013 
L 111.655052 245.957365 
L 111.730399 246.236389 
L 111.805746 245.370248 
L 111.994113 246.128933 
L 112.031786 245.256426 
L 112.107133 245.878773 
L 112.18248 245.626742 
L 112.220153 245.900768 
L 112.257827 244.878054 
L 112.333174 245.551509 
L 112.446194 245.935206 
L 112.483867 245.845082 
L 112.521541 246.203917 
L 112.559214 245.722415 
L 112.596888 245.641458 
L 112.634561 245.790654 
L 112.672234 245.709497 
L 112.747581 244.722183 
L 112.898275 246.009583 
L 113.048969 245.588853 
L 113.086642 245.702574 
L 113.161989 244.843734 
L 113.199662 245.434593 
L 113.237336 245.972602 
L 113.312683 245.482024 
L 113.425703 246.085454 
L 113.538723 245.102464 
L 113.689417 246.012478 
L 113.72709 246.13174 
L 113.877784 245.485883 
L 113.915458 245.766558 
L 113.953131 245.664603 
L 113.990804 244.329178 
L 114.028478 245.360886 
L 114.179172 246.084209 
L 114.254518 246.072745 
L 114.442886 244.409422 
L 114.480559 245.991641 
L 114.555906 245.445709 
L 114.744273 246.048019 
L 114.93264 245.161335 
L 114.970314 246.017844 
L 115.04566 245.774749 
L 115.083334 245.986515 
L 115.121007 245.334601 
L 115.196354 245.608307 
L 115.234028 245.37302 
L 115.271701 245.800884 
L 115.460068 245.52076 
L 115.535415 246.068612 
L 115.573088 245.632131 
L 115.648435 245.94047 
L 115.686109 245.216518 
L 115.761456 245.529612 
L 115.799129 246.099704 
L 115.874476 246.018379 
L 115.949823 245.811155 
L 115.987496 245.842281 
L 116.02517 246.068165 
L 116.062843 245.935194 
L 116.100516 245.240717 
L 116.13819 245.999005 
L 116.175863 245.326038 
L 116.288884 246.031622 
L 116.36423 246.135951 
L 116.401904 245.388146 
L 116.477251 245.897715 
L 116.514924 245.018037 
L 116.552598 240.399495 
L 116.590271 246.128541 
L 116.627945 245.265149 
L 116.703291 245.957658 
L 116.740965 246.035131 
L 116.778638 246.016559 
L 116.816312 245.476525 
L 116.853985 245.71183 
L 116.891659 246.085259 
L 116.929332 245.881711 
L 117.004679 244.804956 
L 117.042352 245.605454 
L 117.080026 246.138945 
L 117.155373 245.979241 
L 117.193046 245.936377 
L 117.34374 245.271511 
L 117.45676 246.092072 
L 117.494433 245.962038 
L 117.645127 245.728697 
L 117.720474 245.948489 
L 117.758147 245.894954 
L 117.795821 245.255879 
L 117.833494 245.514198 
L 117.871168 246.005659 
L 117.908841 245.321598 
L 117.946515 245.130806 
L 117.984188 245.482677 
L 118.021861 245.598301 
L 118.059535 245.481191 
L 118.097208 246.232632 
L 118.172555 245.946867 
L 118.247902 245.998248 
L 118.323249 245.652809 
L 118.398596 245.582478 
L 118.436269 245.819313 
L 118.473943 245.594703 
L 118.511616 245.906618 
L 118.549289 246.023149 
L 118.737657 243.975874 
L 118.77533 245.981221 
L 118.850677 245.976442 
L 118.88835 246.022681 
L 119.001371 245.753765 
L 119.039044 245.785286 
L 119.076717 245.815808 
L 119.114391 245.045592 
L 119.189738 245.449253 
L 119.227411 246.091996 
L 119.302758 245.761567 
L 119.340431 245.51395 
L 119.378105 246.123729 
L 119.453452 245.772661 
L 119.491125 245.631694 
L 119.528799 244.989821 
L 119.566472 245.597777 
L 119.679492 245.986885 
L 119.717166 245.397973 
L 119.792513 245.834463 
L 119.830186 246.143309 
L 119.867859 245.656012 
L 120.018553 245.972385 
L 120.169247 245.687415 
L 120.244594 245.733802 
L 120.395287 246.196601 
L 120.545981 245.724716 
L 120.621328 245.689274 
L 120.696675 246.179051 
L 120.734348 245.639453 
L 120.772022 245.799574 
L 120.809695 246.199879 
L 120.847369 245.93463 
L 120.885042 245.801773 
L 120.922715 246.14709 
L 120.960389 246.064465 
L 120.998062 245.526604 
L 121.073409 245.760789 
L 121.111083 245.770753 
L 121.186429 246.130644 
L 121.224103 245.90264 
L 121.261776 245.345182 
L 121.29945 246.046943 
L 121.337123 245.530314 
L 121.450143 245.994664 
L 121.487817 245.841419 
L 121.52549 246.055208 
L 121.563164 245.927511 
L 121.600837 245.992733 
L 121.638511 245.86929 
L 121.676184 245.21582 
L 121.713857 245.601758 
L 121.826878 246.120877 
L 121.902225 245.589998 
L 121.977571 245.880648 
L 122.015245 246.170061 
L 122.128265 245.211335 
L 122.203612 245.991141 
L 122.241285 245.973444 
L 122.278959 245.877776 
L 122.316632 246.168536 
L 122.391979 246.0546 
L 122.467326 245.920969 
L 122.504999 246.068102 
L 122.580346 245.944686 
L 122.61802 245.929203 
L 122.655693 246.138518 
L 122.693367 245.952423 
L 122.806387 245.787003 
L 122.84406 246.107969 
L 122.881734 245.920556 
L 122.994754 245.657367 
L 122.957081 246.08718 
L 123.032428 245.710007 
L 123.070101 245.890756 
L 123.145448 245.788025 
L 123.183121 245.728925 
L 123.296142 246.122161 
L 123.371488 245.531762 
L 123.409162 246.055934 
L 123.484509 245.93879 
L 123.559856 246.15128 
L 123.710549 245.748488 
L 123.785896 246.235275 
L 123.82357 245.669482 
L 123.898916 245.94593 
L 124.011937 245.755521 
L 124.04961 246.162524 
L 124.124957 246.142375 
L 124.16263 246.068002 
L 124.200304 245.690064 
L 124.275651 245.962939 
L 124.313324 246.086352 
L 124.350998 245.998855 
L 124.426344 245.717628 
L 124.464018 245.818436 
L 124.539365 246.176512 
L 124.577038 245.965802 
L 124.614712 245.948204 
L 124.652385 245.619107 
L 124.690058 245.940271 
L 124.727732 245.993943 
L 124.803079 245.837616 
L 124.840752 246.003755 
L 124.878426 245.7167 
L 124.916099 245.632273 
L 125.029119 246.162426 
L 125.066793 245.626809 
L 125.14214 245.819122 
L 125.330507 246.186259 
L 125.4812 245.194935 
L 125.631894 246.094386 
L 125.707241 245.792178 
L 125.744914 246.102883 
L 125.782588 246.155708 
L 125.933282 245.77461 
L 125.970955 245.930118 
L 126.046302 245.841483 
L 126.121649 245.903351 
L 126.159322 245.655596 
L 126.196996 245.845491 
L 126.234669 246.152503 
L 126.310016 245.945406 
L 126.347689 245.698202 
L 126.385363 246.030785 
L 126.423036 246.132926 
L 126.46071 246.034375 
L 126.498383 245.951241 
L 126.536056 246.151164 
L 126.57373 245.897879 
L 126.611403 245.88996 
L 126.68675 246.192084 
L 126.724424 245.910823 
L 126.762097 245.865665 
L 126.875117 246.141502 
L 126.912791 246.129698 
L 126.950464 245.831926 
L 126.988138 246.184676 
L 127.025811 246.009407 
L 127.101158 246.148138 
L 127.214178 245.693053 
L 127.289525 246.105431 
L 127.327198 246.060678 
L 127.364872 245.980652 
L 127.440219 246.059984 
L 127.515566 246.120513 
L 127.628586 245.672122 
L 127.666259 245.801612 
L 127.854626 246.212245 
L 127.8923 246.100015 
L 128.00532 245.790623 
L 128.042994 246.080795 
L 128.080667 245.658418 
L 128.11834 245.978045 
L 128.193687 245.652141 
L 128.231361 245.721568 
L 128.269034 246.128705 
L 128.344381 246.0932 
L 128.382054 246.084461 
L 128.419728 245.628985 
L 128.495075 245.785664 
L 128.532748 245.640182 
L 128.608095 246.191329 
L 128.645768 246.124853 
L 128.721115 246.011009 
L 128.758789 246.143778 
L 128.834136 246.114283 
L 129.022503 245.689393 
L 129.135523 246.116942 
L 129.173197 246.004569 
L 129.399237 245.88461 
L 129.474584 246.18948 
L 129.512257 246.12776 
L 129.549931 245.811674 
L 129.587604 246.16168 
L 129.625278 245.963793 
L 129.662951 246.008489 
L 129.700625 245.774768 
L 129.775971 245.876331 
L 129.851318 246.194129 
L 129.888992 246.064471 
L 129.926665 246.165855 
L 129.964339 245.912915 
L 130.039685 246.04273 
L 130.228053 245.696881 
L 130.378746 246.151222 
L 130.454093 245.980997 
L 130.52944 246.026592 
L 130.567113 246.118516 
L 130.604787 246.061761 
L 130.64246 245.814942 
L 130.680134 246.023508 
L 130.717807 246.189041 
L 130.793154 246.048178 
L 130.981521 245.966808 
L 131.019195 245.788825 
L 131.056868 246.100164 
L 131.207562 245.807009 
L 131.132215 246.18226 
L 131.282909 245.98476 
L 131.395929 246.123223 
L 131.471276 245.747702 
L 131.508949 245.854385 
L 131.659643 246.173446 
L 131.885683 246.131323 
L 132.074051 245.992389 
L 132.111724 246.121468 
L 132.149397 245.991034 
L 132.224744 246.059049 
L 132.262418 245.887404 
L 132.300091 245.293472 
L 132.337765 245.626571 
L 132.375438 246.14553 
L 132.450785 246.059295 
L 132.601479 246.174314 
L 132.639152 246.144452 
L 132.714499 245.923191 
L 132.752172 244.338903 
L 132.789846 245.965078 
L 132.865193 246.028728 
L 132.978213 246.149379 
L 133.015886 245.967854 
L 133.091233 246.055467 
L 133.128907 246.157836 
L 133.16658 245.878855 
L 133.241927 246.078578 
L 133.2796 246.123602 
L 133.317274 245.960586 
L 133.354947 246.077951 
L 133.392621 246.155373 
L 133.467967 246.115863 
L 133.543314 246.181627 
L 133.580988 245.88793 
L 133.694008 246.142796 
L 133.731681 246.029034 
L 133.769355 245.924493 
L 133.807028 246.169995 
L 133.882375 245.974661 
L 133.957722 246.208473 
L 133.995395 246.095066 
L 134.183763 246.010502 
L 134.37213 246.174381 
L 134.409803 245.965485 
L 134.48515 246.086298 
L 134.635844 246.161391 
L 134.711191 246.087974 
L 134.748864 246.194364 
L 134.861884 245.927114 
L 134.899558 246.156066 
L 134.974905 246.137258 
L 135.050251 245.900405 
L 135.125598 245.941635 
L 135.163272 246.196248 
L 135.200945 246.174159 
L 135.313965 245.847997 
L 135.464659 246.115928 
L 135.615353 246.176332 
L 135.653026 245.901873 
L 135.728373 246.115639 
L 135.766047 245.93062 
L 135.80372 246.21142 
L 135.992087 245.923254 
L 136.105108 246.189908 
L 136.142781 245.881761 
L 136.218128 246.180898 
L 136.293475 246.04876 
L 136.368822 246.130516 
L 136.406495 246.167817 
L 136.444168 246.100751 
L 136.594862 246.052025 
L 136.745556 246.203537 
L 136.89625 246.030387 
L 136.933923 246.092382 
L 137.00927 246.007327 
L 137.046943 245.910252 
L 137.084617 246.02735 
L 137.197637 246.130556 
L 137.272984 246.021435 
L 137.310657 246.129867 
L 137.386004 246.113648 
L 137.423678 246.004771 
L 137.461351 246.227674 
L 137.499024 246.060014 
L 137.649718 246.130019 
L 137.800412 246.10919 
L 137.951106 245.993619 
L 138.139473 246.230501 
L 138.290166 245.973744 
L 138.55388 246.24 
L 138.666901 246.080089 
L 138.704574 246.206309 
L 138.742248 246.021355 
L 138.779921 246.029271 
L 138.817594 246.238395 
L 138.892941 246.058176 
L 139.043635 246.155464 
L 139.269676 246.07442 
L 139.307349 246.200874 
L 139.345022 246.092718 
L 139.382696 246.052841 
L 139.420369 246.127999 
L 139.458043 246.187246 
L 139.495716 246.136238 
L 139.53339 245.91999 
L 139.608736 246.107095 
L 139.721757 246.109466 
L 139.797104 246.157998 
L 139.834777 246.045011 
L 139.87245 246.174252 
L 140.023144 246.201395 
L 140.060818 245.97861 
L 140.136164 246.158564 
L 140.211511 246.13808 
L 140.249185 246.046284 
L 140.286858 246.2055 
L 140.324532 246.100716 
L 140.437552 246.235469 
L 140.475225 246.158236 
L 140.550572 246.074211 
L 140.588246 246.132008 
L 140.701266 246.200092 
L 140.738939 246.050139 
L 140.814286 246.104012 
L 140.85196 246.201529 
L 140.889633 246.060963 
L 140.927306 245.92478 
L 140.96498 246.110534 
L 141.040327 246.06712 
L 141.115674 246.197438 
L 141.228694 246.20696 
L 141.266367 245.929037 
L 141.341714 246.012849 
L 141.454734 246.197293 
L 141.492408 246.142174 
L 141.718449 246.161053 
L 141.756122 245.989462 
L 141.793795 246.137071 
L 141.831469 246.21618 
L 141.869142 246.049643 
L 141.906816 246.168417 
L 141.944489 246.126832 
L 141.982163 246.185522 
L 142.019836 246.214665 
L 142.057509 246.093941 
L 142.132856 246.163205 
L 142.245877 246.077262 
L 142.28355 246.218344 
L 142.358897 246.161824 
L 142.660284 246.096768 
L 142.848651 246.175395 
L 142.961672 246.100311 
L 142.999345 246.135119 
L 143.150039 246.185097 
L 143.187712 246.054353 
L 143.263059 246.103981 
L 143.338406 246.180306 
L 143.376079 246.205399 
L 143.413753 245.985923 
L 143.4891 246.034539 
L 143.526773 246.223235 
L 143.60212 246.165577 
L 143.677467 246.114969 
L 143.71514 246.150886 
L 143.865834 246.195767 
L 144.204895 246.10565 
L 144.317915 246.151922 
L 144.581629 246.069382 
L 144.619303 246.184761 
L 144.694649 246.095428 
L 144.732323 246.17168 
L 144.80767 246.075827 
L 144.996037 246.17021 
L 145.297424 246.143477 
L 145.485791 246.208626 
L 145.598812 246.094781 
L 145.636485 246.134581 
L 145.749505 246.204791 
L 145.900199 246.150508 
L 146.276933 246.205328 
L 146.314607 246.089216 
L 146.389954 246.17259 
L 146.502974 246.146181 
L 146.540647 246.06169 
L 146.578321 246.168698 
L 146.691341 246.210884 
L 146.842035 246.164889 
L 146.879708 246.229438 
L 146.955055 246.181457 
L 146.992729 246.101829 
L 147.068075 246.155449 
L 150.08195 246.186239 
L 150.119623 246.234153 
L 150.19497 246.158217 
L 150.383337 246.181201 
L 150.534031 246.117662 
L 150.647051 246.202172 
L 151.061459 246.195813 
L 151.099132 246.109529 
L 151.174479 246.172543 
L 151.325173 246.166558 
L 151.62656 246.233132 
L 151.777254 246.118569 
L 151.814928 246.223092 
L 151.890274 246.144152 
L 151.965621 246.147036 
L 152.003295 246.221306 
L 152.078642 246.152414 
L 152.304682 246.17877 
L 152.455376 246.189284 
L 152.60607 246.120857 
L 152.643743 246.174576 
L 153.208844 246.156016 
L 153.359538 246.223474 
L 153.623252 246.13013 
L 153.773946 246.217017 
L 153.886966 246.157483 
L 153.92464 246.210235 
L 154.188354 246.144343 
L 154.376721 246.214675 
L 154.678108 246.13903 
L 154.828802 246.196879 
L 156.109699 246.166706 
L 156.147372 246.216378 
L 156.222719 246.146595 
L 160.065409 246.214883 
L 160.178429 246.147643 
L 160.329123 246.173096 
L 160.51749 246.228898 
L 160.705857 246.16571 
L 160.894224 246.195332 
L 161.346305 246.166332 
L 161.534672 246.226731 
L 161.685366 246.197407 
L 161.986754 246.183018 
L 162.325814 246.228995 
L 162.551855 246.177463 
L 162.890916 246.19008 
L 163.342997 246.175388 
L 163.757405 246.194863 
L 164.021119 246.17282 
L 164.171812 246.194957 
L 165.113648 246.14872 
L 165.226668 246.203865 
L 165.452709 246.205452 
L 166.356871 246.187275 
L 166.771279 246.18484 
L 167.22336 246.184597 
L 167.374054 246.195518 
L 167.524748 246.200356 
L 167.713115 246.211193 
L 168.31589 246.188443 
L 169.709807 246.21185 
L 169.935847 246.181715 
L 170.425602 246.201887 
L 170.990703 246.201138 
L 171.593478 246.1988 
L 171.819519 246.18872 
L 172.158579 246.212409 
L 172.346947 246.187682 
L 173.025068 246.208044 
L 173.552496 246.188656 
L 173.929231 246.210603 
L 174.155271 246.207398 
L 174.758046 246.20554 
L 175.662208 246.19217 
L 176.038943 246.205 
L 176.566371 246.196562 
L 176.867758 246.206396 
L 179.693265 246.192197 
L 179.881633 246.213635 
L 180.258367 246.197503 
L 181.426243 246.20621 
L 185.796361 246.21041 
L 187.303298 246.202954 
L 187.642359 246.201252 
L 195.704473 246.208001 
L 196.269574 246.206174 
L 196.721655 246.208029 
L 199.509489 246.21119 
L 200.865733 246.20561 
L 201.28014 246.21122 
L 202.108956 246.213488 
L 206.290707 246.2146 
L 207.383236 246.211092 
L 209.379928 246.21378 
L 210.924538 246.211554 
L 212.017068 246.214545 
L 220.644283 246.218041 
L 222.15122 246.215566 
L 223.884198 246.217221 
L 227.915255 246.218913 
L 279.678547 246.22391 
L 287.17556 246.224859 
L 303.11142 246.226154 
L 386.82178 246.229908 
L 498.109091 246.231318 
L 498.109091 246.231318 
" clip-path="url(#p510b934efd)" style="fill: none; stroke: #1f77b4; stroke-width: 1.5; stroke-linecap: square"/>
   </g>
   <g id="patch_3">
    <path d="M 72 256.32 
L 72 34.56 
" style="fill: none; stroke: #000000; stroke-width: 0.8; stroke-linejoin: miter; stroke-linecap: square"/>
   </g>
   <g id="patch_4">
    <path d="M 518.4 256.32 
L 518.4 34.56 
" style="fill: none; stroke: #000000; stroke-width: 0.8; stroke-linejoin: miter; stroke-linecap: square"/>
   </g>
   <g id="patch_5">
    <path d="M 72 256.32 
L 518.4 256.32 
" style="fill: none; stroke: #000000; stroke-width: 0.8; stroke-linejoin: miter; stroke-linecap: square"/>
   </g>
   <g id="patch_6">
    <path d="M 72 34.56 
L 518.4 34.56 
" style="fill: none; stroke: #000000; stroke-width: 0.8; stroke-linejoin: miter; stroke-linecap: square"/>
   </g>
   <g id="text_18">
    <!-- FFT Spectrum -->
    <g transform="translate(253.756875 28.56) scale(0.12 -0.12)">
     <defs>
      <path id="DejaVuSans-54" d="M -19 4666 
L 3928 4666 
L 3928 4134 
L 2272 4134 
L 2272 0 
L 1638 0 
L 1638 4134 
L -19 4134 
L -19 4666 
z
" transform="scale(0.015625)"/>
      <path id="DejaVuSans-53" d="M 3425 4513 
L 3425 3897 
Q 3066 4069 2747 4153 
Q 2428 4238 2131 4238 
Q 1616 4238 1336 4038 
Q 1056 3838 1056 3469 
Q 1056 3159 1242 3001 
Q 1428 2844 1947 2747 
L 2328 2669 
Q 3034 2534 3370 2195 
Q 3706 1856 3706 1288 
Q 3706 609 3251 259 
Q 2797 -91 1919 -91 
Q 1588 -91 1214 -16 
Q 841 59 441 206 
L 441 856 
Q 825 641 1194 531 
Q 1563 422 1919 422 
Q 2459 422 2753 634 
Q 3047 847 3047 1241 
Q 3047 1584 2836 1778 
Q 2625 1972 2144 2069 
L 1759 2144 
Q 1053 2284 737 2584 
Q 422 2884 422 3419 
Q 422 4038 858 4394 
Q 1294 4750 2059 4750 
Q 2388 4750 2728 4690 
Q 3069 4631 3425 4513 
z
" transform="scale(0.015625)"/>
     </defs>
     <use xlink:href="#DejaVuSans-46"/>
     <use xlink:href="#DejaVuSans-46" x="57.519531"/>
     <use xlink:href="#DejaVuSans-54" x="113.289062"/>
     <use xlink:href="#DejaVuSans-20" x="174.373047"/>
     <use xlink:href="#DejaVuSans-53" x="206.160156"/>
     <use xlink:href="#DejaVuSans-70" x="269.636719"/>
     <use xlink:href="#DejaVuSans-65" x="333.113281"/>
     <use xlink:href="#DejaVuSans-63" x="394.636719"/>
     <use xlink:href="#DejaVuSans-74" x="449.617188"/>
     <use xlink:href="#DejaVuSans-72" x="488.826172"/>
     <use xlink:href="#DejaVuSans-75" x="529.939453"/>
     <use xlink:href="#DejaVuSans-6d" x="593.318359"/>
    </g>
   </g>
  </g>
 </g>
 <defs>
  <clipPath id="p510b934efd">
   <rect x="72" y="34.56" width="446.4" height="221.76"/>
  </clipPath>
 </defs>
</svg>
