<?xml version="1.0" encoding="utf-8" standalone="no"?>
<!DOCTYPE svg PUBLIC "-//W3C//DTD SVG 1.1//EN"
  "http://www.w3.org/Graphics/SVG/1.1/DTD/svg11.dtd">
<svg xmlns:xlink="http://www.w3.org/1999/xlink" width="576pt" height="432pt" viewBox="0 0 576 432" xmlns="http://www.w3.org/2000/svg" version="1.1">
 <metadata>
  <rdf:RDF xmlns:dc="http://purl.org/dc/elements/1.1/" xmlns:cc="http://creativecommons.org/ns#" xmlns:rdf="http://www.w3.org/1999/02/22-rdf-syntax-ns#">
   <cc:Work>
    <dc:type rdf:resource="http://purl.org/dc/dcmitype/StillImage"/>
    <dc:date>2025-02-19T08:38:42.754403</dc:date>
    <dc:format>image/svg+xml</dc:format>
    <dc:creator>
     <cc:Agent>
      <dc:title>Matplotlib v3.8.4, https://matplotlib.org/</dc:title>
     </cc:Agent>
    </dc:creator>
   </cc:Work>
  </rdf:RDF>
 </metadata>
 <defs>
  <style type="text/css">*{stroke-linejoin: round; stroke-linecap: butt}</style>
 </defs>
 <g id="figure_1">
  <g id="patch_1">
   <path d="M 0 432 
L 576 432 
L 576 0 
L 0 0 
z
" style="fill: #ffffff"/>
  </g>
  <g id="axes_1">
   <g id="patch_2">
    <path d="M 72 149.675294 
L 518.4 149.675294 
L 518.4 51.84 
L 72 51.84 
z
" style="fill: #ffffff"/>
   </g>
   <g id="matplotlib.axis_1">
    <g id="xtick_1">
     <g id="line2d_1">
      <defs>
       <path id="m1fd7d6bf5e" d="M 0 0 
L 0 3.5 
" style="stroke: #000000; stroke-width: 0.8"/>
      </defs>
      <g>
       <use xlink:href="#m1fd7d6bf5e" x="72" y="149.675294" style="stroke: #000000; stroke-width: 0.8"/>
      </g>
     </g>
    </g>
    <g id="xtick_2">
     <g id="line2d_2">
      <g>
       <use xlink:href="#m1fd7d6bf5e" x="161.28" y="149.675294" style="stroke: #000000; stroke-width: 0.8"/>
      </g>
     </g>
    </g>
    <g id="xtick_3">
     <g id="line2d_3">
      <g>
       <use xlink:href="#m1fd7d6bf5e" x="250.56" y="149.675294" style="stroke: #000000; stroke-width: 0.8"/>
      </g>
     </g>
    </g>
    <g id="xtick_4">
     <g id="line2d_4">
      <g>
       <use xlink:href="#m1fd7d6bf5e" x="339.84" y="149.675294" style="stroke: #000000; stroke-width: 0.8"/>
      </g>
     </g>
    </g>
    <g id="xtick_5">
     <g id="line2d_5">
      <g>
       <use xlink:href="#m1fd7d6bf5e" x="429.12" y="149.675294" style="stroke: #000000; stroke-width: 0.8"/>
      </g>
     </g>
    </g>
    <g id="xtick_6">
     <g id="line2d_6">
      <g>
       <use xlink:href="#m1fd7d6bf5e" x="518.4" y="149.675294" style="stroke: #000000; stroke-width: 0.8"/>
      </g>
     </g>
    </g>
    <g id="text_1">
     <!-- Time-axis -->
     <g transform="translate(271.145312 164.773732) scale(0.1 -0.1)">
      <defs>
       <path id="DejaVuSans-54" d="M -19 4666 
L 3928 4666 
L 3928 4134 
L 2272 4134 
L 2272 0 
L 1638 0 
L 1638 4134 
L -19 4134 
L -19 4666 
z
" transform="scale(0.015625)"/>
       <path id="DejaVuSans-69" d="M 603 3500 
L 1178 3500 
L 1178 0 
L 603 0 
L 603 3500 
z
M 603 4863 
L 1178 4863 
L 1178 4134 
L 603 4134 
L 603 4863 
z
" transform="scale(0.015625)"/>
       <path id="DejaVuSans-6d" d="M 3328 2828 
Q 3544 3216 3844 3400 
Q 4144 3584 4550 3584 
Q 5097 3584 5394 3201 
Q 5691 2819 5691 2113 
L 5691 0 
L 5113 0 
L 5113 2094 
Q 5113 2597 4934 2840 
Q 4756 3084 4391 3084 
Q 3944 3084 3684 2787 
Q 3425 2491 3425 1978 
L 3425 0 
L 2847 0 
L 2847 2094 
Q 2847 2600 2669 2842 
Q 2491 3084 2119 3084 
Q 1678 3084 1418 2786 
Q 1159 2488 1159 1978 
L 1159 0 
L 581 0 
L 581 3500 
L 1159 3500 
L 1159 2956 
Q 1356 3278 1631 3431 
Q 1906 3584 2284 3584 
Q 2666 3584 2933 3390 
Q 3200 3197 3328 2828 
z
" transform="scale(0.015625)"/>
       <path id="DejaVuSans-65" d="M 3597 1894 
L 3597 1613 
L 953 1613 
Q 991 1019 1311 708 
Q 1631 397 2203 397 
Q 2534 397 2845 478 
Q 3156 559 3463 722 
L 3463 178 
Q 3153 47 2828 -22 
Q 2503 -91 2169 -91 
Q 1331 -91 842 396 
Q 353 884 353 1716 
Q 353 2575 817 3079 
Q 1281 3584 2069 3584 
Q 2775 3584 3186 3129 
Q 3597 2675 3597 1894 
z
M 3022 2063 
Q 3016 2534 2758 2815 
Q 2500 3097 2075 3097 
Q 1594 3097 1305 2825 
Q 1016 2553 972 2059 
L 3022 2063 
z
" transform="scale(0.015625)"/>
       <path id="DejaVuSans-2d" d="M 313 2009 
L 1997 2009 
L 1997 1497 
L 313 1497 
L 313 2009 
z
" transform="scale(0.015625)"/>
       <path id="DejaVuSans-61" d="M 2194 1759 
Q 1497 1759 1228 1600 
Q 959 1441 959 1056 
Q 959 750 1161 570 
Q 1363 391 1709 391 
Q 2188 391 2477 730 
Q 2766 1069 2766 1631 
L 2766 1759 
L 2194 1759 
z
M 3341 1997 
L 3341 0 
L 2766 0 
L 2766 531 
Q 2569 213 2275 61 
Q 1981 -91 1556 -91 
Q 1019 -91 701 211 
Q 384 513 384 1019 
Q 384 1609 779 1909 
Q 1175 2209 1959 2209 
L 2766 2209 
L 2766 2266 
Q 2766 2663 2505 2880 
Q 2244 3097 1772 3097 
Q 1472 3097 1187 3025 
Q 903 2953 641 2809 
L 641 3341 
Q 956 3463 1253 3523 
Q 1550 3584 1831 3584 
Q 2591 3584 2966 3190 
Q 3341 2797 3341 1997 
z
" transform="scale(0.015625)"/>
       <path id="DejaVuSans-78" d="M 3513 3500 
L 2247 1797 
L 3578 0 
L 2900 0 
L 1881 1375 
L 863 0 
L 184 0 
L 1544 1831 
L 300 3500 
L 978 3500 
L 1906 2253 
L 2834 3500 
L 3513 3500 
z
" transform="scale(0.015625)"/>
       <path id="DejaVuSans-73" d="M 2834 3397 
L 2834 2853 
Q 2591 2978 2328 3040 
Q 2066 3103 1784 3103 
Q 1356 3103 1142 2972 
Q 928 2841 928 2578 
Q 928 2378 1081 2264 
Q 1234 2150 1697 2047 
L 1894 2003 
Q 2506 1872 2764 1633 
Q 3022 1394 3022 966 
Q 3022 478 2636 193 
Q 2250 -91 1575 -91 
Q 1294 -91 989 -36 
Q 684 19 347 128 
L 347 722 
Q 666 556 975 473 
Q 1284 391 1588 391 
Q 1994 391 2212 530 
Q 2431 669 2431 922 
Q 2431 1156 2273 1281 
Q 2116 1406 1581 1522 
L 1381 1569 
Q 847 1681 609 1914 
Q 372 2147 372 2553 
Q 372 3047 722 3315 
Q 1072 3584 1716 3584 
Q 2034 3584 2315 3537 
Q 2597 3491 2834 3397 
z
" transform="scale(0.015625)"/>
      </defs>
      <use xlink:href="#DejaVuSans-54"/>
      <use xlink:href="#DejaVuSans-69" x="57.958984"/>
      <use xlink:href="#DejaVuSans-6d" x="85.742188"/>
      <use xlink:href="#DejaVuSans-65" x="183.154297"/>
      <use xlink:href="#DejaVuSans-2d" x="244.677734"/>
      <use xlink:href="#DejaVuSans-61" x="280.761719"/>
      <use xlink:href="#DejaVuSans-78" x="342.041016"/>
      <use xlink:href="#DejaVuSans-69" x="401.220703"/>
      <use xlink:href="#DejaVuSans-73" x="429.003906"/>
     </g>
    </g>
   </g>
   <g id="matplotlib.axis_2">
    <g id="ytick_1">
     <g id="line2d_7">
      <defs>
       <path id="m32214d7aeb" d="M 0 0 
L -3.5 0 
" style="stroke: #000000; stroke-width: 0.8"/>
      </defs>
      <g>
       <use xlink:href="#m32214d7aeb" x="72" y="138.05625" style="stroke: #000000; stroke-width: 0.8"/>
      </g>
     </g>
     <g id="text_2">
      <!-- −6 -->
      <g transform="translate(50.257812 141.855469) scale(0.1 -0.1)">
       <defs>
        <path id="DejaVuSans-2212" d="M 678 2272 
L 4684 2272 
L 4684 1741 
L 678 1741 
L 678 2272 
z
" transform="scale(0.015625)"/>
        <path id="DejaVuSans-36" d="M 2113 2584 
Q 1688 2584 1439 2293 
Q 1191 2003 1191 1497 
Q 1191 994 1439 701 
Q 1688 409 2113 409 
Q 2538 409 2786 701 
Q 3034 994 3034 1497 
Q 3034 2003 2786 2293 
Q 2538 2584 2113 2584 
z
M 3366 4563 
L 3366 3988 
Q 3128 4100 2886 4159 
Q 2644 4219 2406 4219 
Q 1781 4219 1451 3797 
Q 1122 3375 1075 2522 
Q 1259 2794 1537 2939 
Q 1816 3084 2150 3084 
Q 2853 3084 3261 2657 
Q 3669 2231 3669 1497 
Q 3669 778 3244 343 
Q 2819 -91 2113 -91 
Q 1303 -91 875 529 
Q 447 1150 447 2328 
Q 447 3434 972 4092 
Q 1497 4750 2381 4750 
Q 2619 4750 2861 4703 
Q 3103 4656 3366 4563 
z
" transform="scale(0.015625)"/>
       </defs>
       <use xlink:href="#DejaVuSans-2212"/>
       <use xlink:href="#DejaVuSans-36" x="83.789062"/>
      </g>
     </g>
    </g>
    <g id="ytick_2">
     <g id="line2d_8">
      <g>
       <use xlink:href="#m32214d7aeb" x="72" y="111.209695" style="stroke: #000000; stroke-width: 0.8"/>
      </g>
     </g>
     <g id="text_3">
      <!-- −4 -->
      <g transform="translate(50.257812 115.008914) scale(0.1 -0.1)">
       <defs>
        <path id="DejaVuSans-34" d="M 2419 4116 
L 825 1625 
L 2419 1625 
L 2419 4116 
z
M 2253 4666 
L 3047 4666 
L 3047 1625 
L 3713 1625 
L 3713 1100 
L 3047 1100 
L 3047 0 
L 2419 0 
L 2419 1100 
L 313 1100 
L 313 1709 
L 2253 4666 
z
" transform="scale(0.015625)"/>
       </defs>
       <use xlink:href="#DejaVuSans-2212"/>
       <use xlink:href="#DejaVuSans-34" x="83.789062"/>
      </g>
     </g>
    </g>
    <g id="ytick_3">
     <g id="line2d_9">
      <g>
       <use xlink:href="#m32214d7aeb" x="72" y="84.363139" style="stroke: #000000; stroke-width: 0.8"/>
      </g>
     </g>
     <g id="text_4">
      <!-- −2 -->
      <g transform="translate(50.257812 88.162358) scale(0.1 -0.1)">
       <defs>
        <path id="DejaVuSans-32" d="M 1228 531 
L 3431 531 
L 3431 0 
L 469 0 
L 469 531 
Q 828 903 1448 1529 
Q 2069 2156 2228 2338 
Q 2531 2678 2651 2914 
Q 2772 3150 2772 3378 
Q 2772 3750 2511 3984 
Q 2250 4219 1831 4219 
Q 1534 4219 1204 4116 
Q 875 4013 500 3803 
L 500 4441 
Q 881 4594 1212 4672 
Q 1544 4750 1819 4750 
Q 2544 4750 2975 4387 
Q 3406 4025 3406 3419 
Q 3406 3131 3298 2873 
Q 3191 2616 2906 2266 
Q 2828 2175 2409 1742 
Q 1991 1309 1228 531 
z
" transform="scale(0.015625)"/>
       </defs>
       <use xlink:href="#DejaVuSans-2212"/>
       <use xlink:href="#DejaVuSans-32" x="83.789062"/>
      </g>
     </g>
    </g>
    <g id="ytick_4">
     <g id="line2d_10">
      <g>
       <use xlink:href="#m32214d7aeb" x="72" y="57.516584" style="stroke: #000000; stroke-width: 0.8"/>
      </g>
     </g>
     <g id="text_5">
      <!-- 0 -->
      <g transform="translate(58.6375 61.315802) scale(0.1 -0.1)">
       <defs>
        <path id="DejaVuSans-30" d="M 2034 4250 
Q 1547 4250 1301 3770 
Q 1056 3291 1056 2328 
Q 1056 1369 1301 889 
Q 1547 409 2034 409 
Q 2525 409 2770 889 
Q 3016 1369 3016 2328 
Q 3016 3291 2770 3770 
Q 2525 4250 2034 4250 
z
M 2034 4750 
Q 2819 4750 3233 4129 
Q 3647 3509 3647 2328 
Q 3647 1150 3233 529 
Q 2819 -91 2034 -91 
Q 1250 -91 836 529 
Q 422 1150 422 2328 
Q 422 3509 836 4129 
Q 1250 4750 2034 4750 
z
" transform="scale(0.015625)"/>
       </defs>
       <use xlink:href="#DejaVuSans-30"/>
      </g>
     </g>
    </g>
    <g id="text_6">
     <!-- Cut File -->
     <g transform="translate(44.178125 119.334991) rotate(-90) scale(0.1 -0.1)">
      <defs>
       <path id="DejaVuSans-43" d="M 4122 4306 
L 4122 3641 
Q 3803 3938 3442 4084 
Q 3081 4231 2675 4231 
Q 1875 4231 1450 3742 
Q 1025 3253 1025 2328 
Q 1025 1406 1450 917 
Q 1875 428 2675 428 
Q 3081 428 3442 575 
Q 3803 722 4122 1019 
L 4122 359 
Q 3791 134 3420 21 
Q 3050 -91 2638 -91 
Q 1578 -91 968 557 
Q 359 1206 359 2328 
Q 359 3453 968 4101 
Q 1578 4750 2638 4750 
Q 3056 4750 3426 4639 
Q 3797 4528 4122 4306 
z
" transform="scale(0.015625)"/>
       <path id="DejaVuSans-75" d="M 544 1381 
L 544 3500 
L 1119 3500 
L 1119 1403 
Q 1119 906 1312 657 
Q 1506 409 1894 409 
Q 2359 409 2629 706 
Q 2900 1003 2900 1516 
L 2900 3500 
L 3475 3500 
L 3475 0 
L 2900 0 
L 2900 538 
Q 2691 219 2414 64 
Q 2138 -91 1772 -91 
Q 1169 -91 856 284 
Q 544 659 544 1381 
z
M 1991 3584 
L 1991 3584 
z
" transform="scale(0.015625)"/>
       <path id="DejaVuSans-74" d="M 1172 4494 
L 1172 3500 
L 2356 3500 
L 2356 3053 
L 1172 3053 
L 1172 1153 
Q 1172 725 1289 603 
Q 1406 481 1766 481 
L 2356 481 
L 2356 0 
L 1766 0 
Q 1100 0 847 248 
Q 594 497 594 1153 
L 594 3053 
L 172 3053 
L 172 3500 
L 594 3500 
L 594 4494 
L 1172 4494 
z
" transform="scale(0.015625)"/>
       <path id="DejaVuSans-20" transform="scale(0.015625)"/>
       <path id="DejaVuSans-46" d="M 628 4666 
L 3309 4666 
L 3309 4134 
L 1259 4134 
L 1259 2759 
L 3109 2759 
L 3109 2228 
L 1259 2228 
L 1259 0 
L 628 0 
L 628 4666 
z
" transform="scale(0.015625)"/>
       <path id="DejaVuSans-6c" d="M 603 4863 
L 1178 4863 
L 1178 0 
L 603 0 
L 603 4863 
z
" transform="scale(0.015625)"/>
      </defs>
      <use xlink:href="#DejaVuSans-43"/>
      <use xlink:href="#DejaVuSans-75" x="69.824219"/>
      <use xlink:href="#DejaVuSans-74" x="133.203125"/>
      <use xlink:href="#DejaVuSans-20" x="172.412109"/>
      <use xlink:href="#DejaVuSans-46" x="204.199219"/>
      <use xlink:href="#DejaVuSans-69" x="254.46875"/>
      <use xlink:href="#DejaVuSans-6c" x="282.251953"/>
      <use xlink:href="#DejaVuSans-65" x="310.035156"/>
     </g>
    </g>
   </g>
   <g id="line2d_11">
    <path d="M 328.166919 61.056641 
L 329.059487 57.418138 
L 329.952055 56.428772 
L 331.142145 56.688034 
L 332.629758 57.205389 
L 334.414893 57.305218 
L 339.175254 57.20735 
L 353.456336 57.315178 
L 354.051382 57.520916 
L 354.943949 65.551332 
L 356.134039 100.184021 
L 356.729085 120.098627 
L 357.621652 137.710676 
L 358.51422 145.228235 
L 359.406788 139.856945 
L 360.596878 115.226218 
L 362.084491 80.966074 
L 362.977058 67.409252 
L 363.869626 59.980029 
L 364.762194 56.953051 
L 365.654761 56.320487 
L 367.142374 56.869126 
L 368.034942 57.16544 
L 368.927509 57.296604 
L 370.1176 57.303206 
L 374.282915 57.210226 
L 383.506114 57.212185 
L 384.398682 57.712582 
L 385.29125 67.049372 
L 387.373908 124.754872 
L 387.968953 135.913572 
L 388.86152 141.298745 
L 389.754088 131.868657 
L 392.431791 73.998132 
L 393.324359 63.335419 
L 394.216926 58.147215 
L 395.109494 56.43872 
L 396.002062 56.375393 
L 397.787197 57.137819 
L 399.27481 57.317262 
L 401.059945 57.259115 
L 404.332693 57.210382 
L 413.853415 57.23167 
L 414.745983 61.182622 
L 415.63855 80.254619 
L 416.828641 116.44338 
L 417.423686 130.430499 
L 418.316253 141.577592 
L 419.208821 138.745025 
L 420.398911 115.48933 
L 421.886524 81.375399 
L 422.779092 67.620467 
L 423.671659 60.037667 
L 424.564227 56.936806 
L 425.456795 56.288347 
L 426.944407 56.857888 
L 427.836975 57.165758 
L 428.43202 57.276318 
L 429.919633 57.309223 
L 433.787426 57.210491 
L 443.308148 57.217461 
L 444.200716 58.25341 
L 445.093283 70.135668 
L 446.878419 122.74912 
L 447.770986 138.141662 
L 448.663554 141.610582 
L 449.556122 130.404148 
L 451.936302 77.940503 
L 452.233825 72.478938 
L 453.126392 62.498219 
L 454.01896 57.808863 
L 454.911528 56.372432 
L 455.804095 56.411994 
L 457.58923 57.168762 
L 459.076843 57.321562 
L 461.159501 57.242241 
L 465.919862 57.217262 
L 473.655448 57.311706 
L 474.548016 63.100343 
L 475.738106 94.480506 
L 476.630674 120.022331 
L 477.225719 132.873986 
L 478.118287 142.070249 
L 479.010854 136.760156 
L 480.200945 111.949478 
L 481.391035 84.883115 
L 481.98608 74.386255 
L 482.581125 65.94631 
L 483.473693 59.259981 
L 484.36626 56.704591 
L 485.258828 56.299968 
L 487.936531 57.27404 
L 489.721666 57.303709 
L 493.58946 57.208288 
L 503.110181 57.21589 
L 504.002749 59.1147 
L 504.895317 73.789514 
L 506.382929 118.155989 
L 506.680452 126.052313 
L 507.57302 139.962979 
L 508.465587 141.175947 
L 509.358155 128.056332 
L 511.440813 81.019455 
L 512.035858 70.674506 
L 512.928426 61.544418 
L 513.820993 57.445688 
L 514.713561 56.317198 
L 515.903651 56.608351 
L 517.391264 57.202294 
L 518.581354 57.322143 
L 518.581354 57.322143 
" clip-path="url(#p77fd3e13f5)" style="fill: none; stroke: #1f77b4; stroke-width: 1.5; stroke-linecap: square"/>
   </g>
   <g id="patch_3">
    <path d="M 72 149.675294 
L 72 51.84 
" style="fill: none; stroke: #000000; stroke-width: 0.8; stroke-linejoin: miter; stroke-linecap: square"/>
   </g>
   <g id="patch_4">
    <path d="M 518.4 149.675294 
L 518.4 51.84 
" style="fill: none; stroke: #000000; stroke-width: 0.8; stroke-linejoin: miter; stroke-linecap: square"/>
   </g>
   <g id="patch_5">
    <path d="M 72 149.675294 
L 518.4 149.675294 
" style="fill: none; stroke: #000000; stroke-width: 0.8; stroke-linejoin: miter; stroke-linecap: square"/>
   </g>
   <g id="patch_6">
    <path d="M 72 51.84 
L 518.4 51.84 
" style="fill: none; stroke: #000000; stroke-width: 0.8; stroke-linejoin: miter; stroke-linecap: square"/>
   </g>
  </g>
  <g id="axes_2">
   <g id="patch_7">
    <path d="M 72 267.077647 
L 518.4 267.077647 
L 518.4 169.242353 
L 72 169.242353 
z
" style="fill: #ffffff"/>
   </g>
   <g id="matplotlib.axis_3">
    <g id="xtick_7">
     <g id="line2d_12">
      <g>
       <use xlink:href="#m1fd7d6bf5e" x="72" y="267.077647" style="stroke: #000000; stroke-width: 0.8"/>
      </g>
     </g>
    </g>
    <g id="xtick_8">
     <g id="line2d_13">
      <g>
       <use xlink:href="#m1fd7d6bf5e" x="161.28" y="267.077647" style="stroke: #000000; stroke-width: 0.8"/>
      </g>
     </g>
    </g>
    <g id="xtick_9">
     <g id="line2d_14">
      <g>
       <use xlink:href="#m1fd7d6bf5e" x="250.56" y="267.077647" style="stroke: #000000; stroke-width: 0.8"/>
      </g>
     </g>
    </g>
    <g id="xtick_10">
     <g id="line2d_15">
      <g>
       <use xlink:href="#m1fd7d6bf5e" x="339.84" y="267.077647" style="stroke: #000000; stroke-width: 0.8"/>
      </g>
     </g>
    </g>
    <g id="xtick_11">
     <g id="line2d_16">
      <g>
       <use xlink:href="#m1fd7d6bf5e" x="429.12" y="267.077647" style="stroke: #000000; stroke-width: 0.8"/>
      </g>
     </g>
    </g>
    <g id="xtick_12">
     <g id="line2d_17">
      <g>
       <use xlink:href="#m1fd7d6bf5e" x="518.4" y="267.077647" style="stroke: #000000; stroke-width: 0.8"/>
      </g>
     </g>
    </g>
    <g id="text_7">
     <!-- Time-axis -->
     <g transform="translate(271.145312 282.176085) scale(0.1 -0.1)">
      <use xlink:href="#DejaVuSans-54"/>
      <use xlink:href="#DejaVuSans-69" x="57.958984"/>
      <use xlink:href="#DejaVuSans-6d" x="85.742188"/>
      <use xlink:href="#DejaVuSans-65" x="183.154297"/>
      <use xlink:href="#DejaVuSans-2d" x="244.677734"/>
      <use xlink:href="#DejaVuSans-61" x="280.761719"/>
      <use xlink:href="#DejaVuSans-78" x="342.041016"/>
      <use xlink:href="#DejaVuSans-69" x="401.220703"/>
      <use xlink:href="#DejaVuSans-73" x="429.003906"/>
     </g>
    </g>
   </g>
   <g id="matplotlib.axis_4">
    <g id="ytick_5">
     <g id="line2d_18">
      <g>
       <use xlink:href="#m32214d7aeb" x="72" y="246.659149" style="stroke: #000000; stroke-width: 0.8"/>
      </g>
     </g>
     <g id="text_8">
      <!-- −10 -->
      <g transform="translate(43.895313 250.458368) scale(0.1 -0.1)">
       <defs>
        <path id="DejaVuSans-31" d="M 794 531 
L 1825 531 
L 1825 4091 
L 703 3866 
L 703 4441 
L 1819 4666 
L 2450 4666 
L 2450 531 
L 3481 531 
L 3481 0 
L 794 0 
L 794 531 
z
" transform="scale(0.015625)"/>
       </defs>
       <use xlink:href="#DejaVuSans-2212"/>
       <use xlink:href="#DejaVuSans-31" x="83.789062"/>
       <use xlink:href="#DejaVuSans-30" x="147.412109"/>
      </g>
     </g>
    </g>
    <g id="ytick_6">
     <g id="line2d_19">
      <g>
       <use xlink:href="#m32214d7aeb" x="72" y="210.63458" style="stroke: #000000; stroke-width: 0.8"/>
      </g>
     </g>
     <g id="text_9">
      <!-- −5 -->
      <g transform="translate(50.257812 214.433799) scale(0.1 -0.1)">
       <defs>
        <path id="DejaVuSans-35" d="M 691 4666 
L 3169 4666 
L 3169 4134 
L 1269 4134 
L 1269 2991 
Q 1406 3038 1543 3061 
Q 1681 3084 1819 3084 
Q 2600 3084 3056 2656 
Q 3513 2228 3513 1497 
Q 3513 744 3044 326 
Q 2575 -91 1722 -91 
Q 1428 -91 1123 -41 
Q 819 9 494 109 
L 494 744 
Q 775 591 1075 516 
Q 1375 441 1709 441 
Q 2250 441 2565 725 
Q 2881 1009 2881 1497 
Q 2881 1984 2565 2268 
Q 2250 2553 1709 2553 
Q 1456 2553 1204 2497 
Q 953 2441 691 2322 
L 691 4666 
z
" transform="scale(0.015625)"/>
       </defs>
       <use xlink:href="#DejaVuSans-2212"/>
       <use xlink:href="#DejaVuSans-35" x="83.789062"/>
      </g>
     </g>
    </g>
    <g id="ytick_7">
     <g id="line2d_20">
      <g>
       <use xlink:href="#m32214d7aeb" x="72" y="174.610011" style="stroke: #000000; stroke-width: 0.8"/>
      </g>
     </g>
     <g id="text_10">
      <!-- 0 -->
      <g transform="translate(58.6375 178.40923) scale(0.1 -0.1)">
       <use xlink:href="#DejaVuSans-30"/>
      </g>
     </g>
    </g>
    <g id="text_11">
     <!-- Original File -->
     <g transform="translate(37.815625 247.682656) rotate(-90) scale(0.1 -0.1)">
      <defs>
       <path id="DejaVuSans-4f" d="M 2522 4238 
Q 1834 4238 1429 3725 
Q 1025 3213 1025 2328 
Q 1025 1447 1429 934 
Q 1834 422 2522 422 
Q 3209 422 3611 934 
Q 4013 1447 4013 2328 
Q 4013 3213 3611 3725 
Q 3209 4238 2522 4238 
z
M 2522 4750 
Q 3503 4750 4090 4092 
Q 4678 3434 4678 2328 
Q 4678 1225 4090 567 
Q 3503 -91 2522 -91 
Q 1538 -91 948 565 
Q 359 1222 359 2328 
Q 359 3434 948 4092 
Q 1538 4750 2522 4750 
z
" transform="scale(0.015625)"/>
       <path id="DejaVuSans-72" d="M 2631 2963 
Q 2534 3019 2420 3045 
Q 2306 3072 2169 3072 
Q 1681 3072 1420 2755 
Q 1159 2438 1159 1844 
L 1159 0 
L 581 0 
L 581 3500 
L 1159 3500 
L 1159 2956 
Q 1341 3275 1631 3429 
Q 1922 3584 2338 3584 
Q 2397 3584 2469 3576 
Q 2541 3569 2628 3553 
L 2631 2963 
z
" transform="scale(0.015625)"/>
       <path id="DejaVuSans-67" d="M 2906 1791 
Q 2906 2416 2648 2759 
Q 2391 3103 1925 3103 
Q 1463 3103 1205 2759 
Q 947 2416 947 1791 
Q 947 1169 1205 825 
Q 1463 481 1925 481 
Q 2391 481 2648 825 
Q 2906 1169 2906 1791 
z
M 3481 434 
Q 3481 -459 3084 -895 
Q 2688 -1331 1869 -1331 
Q 1566 -1331 1297 -1286 
Q 1028 -1241 775 -1147 
L 775 -588 
Q 1028 -725 1275 -790 
Q 1522 -856 1778 -856 
Q 2344 -856 2625 -561 
Q 2906 -266 2906 331 
L 2906 616 
Q 2728 306 2450 153 
Q 2172 0 1784 0 
Q 1141 0 747 490 
Q 353 981 353 1791 
Q 353 2603 747 3093 
Q 1141 3584 1784 3584 
Q 2172 3584 2450 3431 
Q 2728 3278 2906 2969 
L 2906 3500 
L 3481 3500 
L 3481 434 
z
" transform="scale(0.015625)"/>
       <path id="DejaVuSans-6e" d="M 3513 2113 
L 3513 0 
L 2938 0 
L 2938 2094 
Q 2938 2591 2744 2837 
Q 2550 3084 2163 3084 
Q 1697 3084 1428 2787 
Q 1159 2491 1159 1978 
L 1159 0 
L 581 0 
L 581 3500 
L 1159 3500 
L 1159 2956 
Q 1366 3272 1645 3428 
Q 1925 3584 2291 3584 
Q 2894 3584 3203 3211 
Q 3513 2838 3513 2113 
z
" transform="scale(0.015625)"/>
      </defs>
      <use xlink:href="#DejaVuSans-4f"/>
      <use xlink:href="#DejaVuSans-72" x="78.710938"/>
      <use xlink:href="#DejaVuSans-69" x="119.824219"/>
      <use xlink:href="#DejaVuSans-67" x="147.607422"/>
      <use xlink:href="#DejaVuSans-69" x="211.083984"/>
      <use xlink:href="#DejaVuSans-6e" x="238.867188"/>
      <use xlink:href="#DejaVuSans-61" x="302.246094"/>
      <use xlink:href="#DejaVuSans-6c" x="363.525391"/>
      <use xlink:href="#DejaVuSans-20" x="391.308594"/>
      <use xlink:href="#DejaVuSans-46" x="423.095703"/>
      <use xlink:href="#DejaVuSans-69" x="473.365234"/>
      <use xlink:href="#DejaVuSans-6c" x="501.148438"/>
      <use xlink:href="#DejaVuSans-65" x="528.931641"/>
     </g>
    </g>
   </g>
   <g id="line2d_21">
    <path d="M 72 174.440697 
L 263.902048 174.438034 
L 264.794615 174.57616 
L 265.687183 178.651996 
L 266.579751 191.71764 
L 268.364886 231.192922 
L 269.257454 245.384841 
L 270.150021 246.425125 
L 271.042589 234.080612 
L 271.935157 219.222301 
L 272.827724 214.272733 
L 273.720292 217.025401 
L 274.61286 216.70902 
L 275.505427 209.631627 
L 277.290563 188.128332 
L 278.18313 180.449481 
L 279.075698 176.095372 
L 279.968266 174.267907 
L 280.860833 173.868244 
L 284.431104 174.506669 
L 310.315566 174.444498 
L 316.56354 174.444828 
L 317.456107 174.766831 
L 318.348675 180.078821 
L 319.241243 194.497463 
L 320.13381 213.490505 
L 321.026378 225.003319 
L 321.918946 226.169963 
L 322.811513 224.732929 
L 323.704081 220.066328 
L 324.596649 210.764411 
L 326.381784 188.557094 
L 327.274352 180.918013 
L 328.166919 176.510129 
L 329.059487 174.557171 
L 329.952055 174.026131 
L 330.844622 174.097887 
L 332.629758 174.442978 
L 334.414893 174.496562 
L 340.662867 174.447094 
L 353.158814 174.446692 
L 354.051382 174.612337 
L 354.943949 178.922644 
L 355.836517 192.167102 
L 356.729085 208.200781 
L 357.621652 217.654008 
L 358.51422 221.689041 
L 359.406788 218.806013 
L 360.299355 209.524874 
L 362.084491 187.196472 
L 362.977058 179.919879 
L 363.869626 175.93226 
L 364.762194 174.307536 
L 365.654761 173.968009 
L 369.225032 174.505344 
L 383.506114 174.446626 
L 384.398682 174.715213 
L 385.29125 179.726714 
L 387.076385 207.705306 
L 387.968953 216.689416 
L 388.86152 219.579896 
L 389.754088 214.518318 
L 392.431791 183.456445 
L 393.324359 177.733258 
L 394.216926 174.948502 
L 395.109494 174.031471 
L 396.002062 173.99748 
L 397.787197 174.40671 
L 399.572332 174.507201 
L 406.712874 174.449207 
L 413.853415 174.457085 
L 414.745983 176.577749 
L 415.63855 186.8146 
L 416.531118 202.485058 
L 417.423686 213.74639 
L 418.316253 219.729567 
L 419.208821 218.209193 
L 420.101389 209.603267 
L 421.886524 187.416177 
L 422.779092 180.033248 
L 423.671659 175.963197 
L 424.564227 174.298817 
L 425.456795 173.950758 
L 429.027065 174.509058 
L 443.308148 174.449458 
L 444.200716 175.005501 
L 445.093283 181.383276 
L 446.878419 209.623427 
L 447.770986 217.885339 
L 448.663554 219.747274 
L 449.556122 213.732246 
L 451.341257 191.43547 
L 452.233825 182.641021 
L 453.126392 177.283893 
L 454.01896 174.766892 
L 454.911528 173.995891 
L 455.804095 174.017126 
L 457.58923 174.423319 
L 459.374366 174.507515 
L 465.622339 174.449035 
L 473.655448 174.500044 
L 474.548016 177.607082 
L 475.440584 189.320079 
L 476.333151 204.710781 
L 477.225719 215.057926 
L 478.118287 219.993999 
L 479.010854 217.143819 
L 479.903422 207.721543 
L 480.79599 196.037145 
L 481.688557 185.92983 
L 482.581125 179.134648 
L 483.473693 175.545776 
L 484.36626 174.174176 
L 485.258828 173.956996 
L 487.936531 174.479827 
L 490.614234 174.471125 
L 496.862208 174.448778 
L 503.110181 174.448615 
L 504.002749 175.467797 
L 504.895317 183.34447 
L 505.787884 198.681407 
L 506.680452 211.396408 
L 507.57302 218.862927 
L 508.465587 219.513985 
L 509.358155 212.472061 
L 511.14329 190.001438 
L 512.035858 181.672496 
L 512.928426 176.771942 
L 513.820993 174.571958 
L 514.713561 173.966244 
L 515.606129 174.045583 
L 517.391264 174.441317 
L 519.176399 174.505293 
L 519.176399 174.505293 
" clip-path="url(#ped22872fb5)" style="fill: none; stroke: #1f77b4; stroke-width: 1.5; stroke-linecap: square"/>
   </g>
   <g id="patch_8">
    <path d="M 72 267.077647 
L 72 169.242353 
" style="fill: none; stroke: #000000; stroke-width: 0.8; stroke-linejoin: miter; stroke-linecap: square"/>
   </g>
   <g id="patch_9">
    <path d="M 518.4 267.077647 
L 518.4 169.242353 
" style="fill: none; stroke: #000000; stroke-width: 0.8; stroke-linejoin: miter; stroke-linecap: square"/>
   </g>
   <g id="patch_10">
    <path d="M 72 267.077647 
L 518.4 267.077647 
" style="fill: none; stroke: #000000; stroke-width: 0.8; stroke-linejoin: miter; stroke-linecap: square"/>
   </g>
   <g id="patch_11">
    <path d="M 72 169.242353 
L 518.4 169.242353 
" style="fill: none; stroke: #000000; stroke-width: 0.8; stroke-linejoin: miter; stroke-linecap: square"/>
   </g>
  </g>
  <g id="axes_3">
   <g id="patch_12">
    <path d="M 72 384.48 
L 518.4 384.48 
L 518.4 286.644706 
L 72 286.644706 
z
" style="fill: #ffffff"/>
   </g>
   <g id="matplotlib.axis_5">
    <g id="xtick_13">
     <g id="line2d_22">
      <g>
       <use xlink:href="#m1fd7d6bf5e" x="72" y="384.48" style="stroke: #000000; stroke-width: 0.8"/>
      </g>
     </g>
     <g id="text_12">
      <!-- 0 -->
      <g transform="translate(68.81875 399.078438) scale(0.1 -0.1)">
       <use xlink:href="#DejaVuSans-30"/>
      </g>
     </g>
    </g>
    <g id="xtick_14">
     <g id="line2d_23">
      <g>
       <use xlink:href="#m1fd7d6bf5e" x="161.28" y="384.48" style="stroke: #000000; stroke-width: 0.8"/>
      </g>
     </g>
     <g id="text_13">
      <!-- 1 -->
      <g transform="translate(158.09875 399.078438) scale(0.1 -0.1)">
       <use xlink:href="#DejaVuSans-31"/>
      </g>
     </g>
    </g>
    <g id="xtick_15">
     <g id="line2d_24">
      <g>
       <use xlink:href="#m1fd7d6bf5e" x="250.56" y="384.48" style="stroke: #000000; stroke-width: 0.8"/>
      </g>
     </g>
     <g id="text_14">
      <!-- 2 -->
      <g transform="translate(247.37875 399.078438) scale(0.1 -0.1)">
       <use xlink:href="#DejaVuSans-32"/>
      </g>
     </g>
    </g>
    <g id="xtick_16">
     <g id="line2d_25">
      <g>
       <use xlink:href="#m1fd7d6bf5e" x="339.84" y="384.48" style="stroke: #000000; stroke-width: 0.8"/>
      </g>
     </g>
     <g id="text_15">
      <!-- 3 -->
      <g transform="translate(336.65875 399.078438) scale(0.1 -0.1)">
       <defs>
        <path id="DejaVuSans-33" d="M 2597 2516 
Q 3050 2419 3304 2112 
Q 3559 1806 3559 1356 
Q 3559 666 3084 287 
Q 2609 -91 1734 -91 
Q 1441 -91 1130 -33 
Q 819 25 488 141 
L 488 750 
Q 750 597 1062 519 
Q 1375 441 1716 441 
Q 2309 441 2620 675 
Q 2931 909 2931 1356 
Q 2931 1769 2642 2001 
Q 2353 2234 1838 2234 
L 1294 2234 
L 1294 2753 
L 1863 2753 
Q 2328 2753 2575 2939 
Q 2822 3125 2822 3475 
Q 2822 3834 2567 4026 
Q 2313 4219 1838 4219 
Q 1578 4219 1281 4162 
Q 984 4106 628 3988 
L 628 4550 
Q 988 4650 1302 4700 
Q 1616 4750 1894 4750 
Q 2613 4750 3031 4423 
Q 3450 4097 3450 3541 
Q 3450 3153 3228 2886 
Q 3006 2619 2597 2516 
z
" transform="scale(0.015625)"/>
       </defs>
       <use xlink:href="#DejaVuSans-33"/>
      </g>
     </g>
    </g>
    <g id="xtick_17">
     <g id="line2d_26">
      <g>
       <use xlink:href="#m1fd7d6bf5e" x="429.12" y="384.48" style="stroke: #000000; stroke-width: 0.8"/>
      </g>
     </g>
     <g id="text_16">
      <!-- 4 -->
      <g transform="translate(425.93875 399.078438) scale(0.1 -0.1)">
       <use xlink:href="#DejaVuSans-34"/>
      </g>
     </g>
    </g>
    <g id="xtick_18">
     <g id="line2d_27">
      <g>
       <use xlink:href="#m1fd7d6bf5e" x="518.4" y="384.48" style="stroke: #000000; stroke-width: 0.8"/>
      </g>
     </g>
     <g id="text_17">
      <!-- 5 -->
      <g transform="translate(515.21875 399.078438) scale(0.1 -0.1)">
       <use xlink:href="#DejaVuSans-35"/>
      </g>
     </g>
    </g>
    <g id="text_18">
     <!-- Time-axis -->
     <g transform="translate(271.145312 412.756563) scale(0.1 -0.1)">
      <use xlink:href="#DejaVuSans-54"/>
      <use xlink:href="#DejaVuSans-69" x="57.958984"/>
      <use xlink:href="#DejaVuSans-6d" x="85.742188"/>
      <use xlink:href="#DejaVuSans-65" x="183.154297"/>
      <use xlink:href="#DejaVuSans-2d" x="244.677734"/>
      <use xlink:href="#DejaVuSans-61" x="280.761719"/>
      <use xlink:href="#DejaVuSans-78" x="342.041016"/>
      <use xlink:href="#DejaVuSans-69" x="401.220703"/>
      <use xlink:href="#DejaVuSans-73" x="429.003906"/>
     </g>
    </g>
   </g>
   <g id="matplotlib.axis_6">
    <g id="ytick_8">
     <g id="line2d_28">
      <g>
       <use xlink:href="#m32214d7aeb" x="72" y="358.102978" style="stroke: #000000; stroke-width: 0.8"/>
      </g>
     </g>
     <g id="text_19">
      <!-- 54.0 -->
      <g transform="translate(42.734375 361.902197) scale(0.1 -0.1)">
       <defs>
        <path id="DejaVuSans-2e" d="M 684 794 
L 1344 794 
L 1344 0 
L 684 0 
L 684 794 
z
" transform="scale(0.015625)"/>
       </defs>
       <use xlink:href="#DejaVuSans-35"/>
       <use xlink:href="#DejaVuSans-34" x="63.623047"/>
       <use xlink:href="#DejaVuSans-2e" x="127.246094"/>
       <use xlink:href="#DejaVuSans-30" x="159.033203"/>
      </g>
     </g>
    </g>
    <g id="ytick_9">
     <g id="line2d_29">
      <g>
       <use xlink:href="#m32214d7aeb" x="72" y="329.03953" style="stroke: #000000; stroke-width: 0.8"/>
      </g>
     </g>
     <g id="text_20">
      <!-- 54.5 -->
      <g transform="translate(42.734375 332.838749) scale(0.1 -0.1)">
       <use xlink:href="#DejaVuSans-35"/>
       <use xlink:href="#DejaVuSans-34" x="63.623047"/>
       <use xlink:href="#DejaVuSans-2e" x="127.246094"/>
       <use xlink:href="#DejaVuSans-35" x="159.033203"/>
      </g>
     </g>
    </g>
    <g id="ytick_10">
     <g id="line2d_30">
      <g>
       <use xlink:href="#m32214d7aeb" x="72" y="299.976082" style="stroke: #000000; stroke-width: 0.8"/>
      </g>
     </g>
     <g id="text_21">
      <!-- 55.0 -->
      <g transform="translate(42.734375 303.7753) scale(0.1 -0.1)">
       <use xlink:href="#DejaVuSans-35"/>
       <use xlink:href="#DejaVuSans-35" x="63.623047"/>
       <use xlink:href="#DejaVuSans-2e" x="127.246094"/>
       <use xlink:href="#DejaVuSans-30" x="159.033203"/>
      </g>
     </g>
    </g>
    <g id="text_22">
     <!-- Ultrasonic Sensor -->
     <g transform="translate(36.654687 379.389697) rotate(-90) scale(0.1 -0.1)">
      <defs>
       <path id="DejaVuSans-55" d="M 556 4666 
L 1191 4666 
L 1191 1831 
Q 1191 1081 1462 751 
Q 1734 422 2344 422 
Q 2950 422 3222 751 
Q 3494 1081 3494 1831 
L 3494 4666 
L 4128 4666 
L 4128 1753 
Q 4128 841 3676 375 
Q 3225 -91 2344 -91 
Q 1459 -91 1007 375 
Q 556 841 556 1753 
L 556 4666 
z
" transform="scale(0.015625)"/>
       <path id="DejaVuSans-6f" d="M 1959 3097 
Q 1497 3097 1228 2736 
Q 959 2375 959 1747 
Q 959 1119 1226 758 
Q 1494 397 1959 397 
Q 2419 397 2687 759 
Q 2956 1122 2956 1747 
Q 2956 2369 2687 2733 
Q 2419 3097 1959 3097 
z
M 1959 3584 
Q 2709 3584 3137 3096 
Q 3566 2609 3566 1747 
Q 3566 888 3137 398 
Q 2709 -91 1959 -91 
Q 1206 -91 779 398 
Q 353 888 353 1747 
Q 353 2609 779 3096 
Q 1206 3584 1959 3584 
z
" transform="scale(0.015625)"/>
       <path id="DejaVuSans-63" d="M 3122 3366 
L 3122 2828 
Q 2878 2963 2633 3030 
Q 2388 3097 2138 3097 
Q 1578 3097 1268 2742 
Q 959 2388 959 1747 
Q 959 1106 1268 751 
Q 1578 397 2138 397 
Q 2388 397 2633 464 
Q 2878 531 3122 666 
L 3122 134 
Q 2881 22 2623 -34 
Q 2366 -91 2075 -91 
Q 1284 -91 818 406 
Q 353 903 353 1747 
Q 353 2603 823 3093 
Q 1294 3584 2113 3584 
Q 2378 3584 2631 3529 
Q 2884 3475 3122 3366 
z
" transform="scale(0.015625)"/>
       <path id="DejaVuSans-53" d="M 3425 4513 
L 3425 3897 
Q 3066 4069 2747 4153 
Q 2428 4238 2131 4238 
Q 1616 4238 1336 4038 
Q 1056 3838 1056 3469 
Q 1056 3159 1242 3001 
Q 1428 2844 1947 2747 
L 2328 2669 
Q 3034 2534 3370 2195 
Q 3706 1856 3706 1288 
Q 3706 609 3251 259 
Q 2797 -91 1919 -91 
Q 1588 -91 1214 -16 
Q 841 59 441 206 
L 441 856 
Q 825 641 1194 531 
Q 1563 422 1919 422 
Q 2459 422 2753 634 
Q 3047 847 3047 1241 
Q 3047 1584 2836 1778 
Q 2625 1972 2144 2069 
L 1759 2144 
Q 1053 2284 737 2584 
Q 422 2884 422 3419 
Q 422 4038 858 4394 
Q 1294 4750 2059 4750 
Q 2388 4750 2728 4690 
Q 3069 4631 3425 4513 
z
" transform="scale(0.015625)"/>
      </defs>
      <use xlink:href="#DejaVuSans-55"/>
      <use xlink:href="#DejaVuSans-6c" x="73.193359"/>
      <use xlink:href="#DejaVuSans-74" x="100.976562"/>
      <use xlink:href="#DejaVuSans-72" x="140.185547"/>
      <use xlink:href="#DejaVuSans-61" x="181.298828"/>
      <use xlink:href="#DejaVuSans-73" x="242.578125"/>
      <use xlink:href="#DejaVuSans-6f" x="294.677734"/>
      <use xlink:href="#DejaVuSans-6e" x="355.859375"/>
      <use xlink:href="#DejaVuSans-69" x="419.238281"/>
      <use xlink:href="#DejaVuSans-63" x="447.021484"/>
      <use xlink:href="#DejaVuSans-20" x="502.001953"/>
      <use xlink:href="#DejaVuSans-53" x="533.789062"/>
      <use xlink:href="#DejaVuSans-65" x="597.265625"/>
      <use xlink:href="#DejaVuSans-6e" x="658.789062"/>
      <use xlink:href="#DejaVuSans-73" x="722.167969"/>
      <use xlink:href="#DejaVuSans-6f" x="774.267578"/>
      <use xlink:href="#DejaVuSans-72" x="835.449219"/>
     </g>
    </g>
   </g>
   <g id="line2d_31">
    <path d="M 327.571874 349.866354 
L 328.464442 349.853936 
L 329.654532 349.762803 
L 330.249577 349.91824 
L 330.844622 350.318253 
L 331.439667 350.93468 
L 332.034713 351.810983 
L 332.629758 353.033195 
L 333.819848 356.225757 
L 339.770299 373.245586 
L 340.662867 374.698626 
L 343.043047 377.921344 
L 344.233137 379.224268 
L 345.125705 379.873956 
L 345.72075 380.032941 
L 346.315795 379.866417 
L 346.91084 379.403653 
L 348.398453 377.717347 
L 350.481111 375.419713 
L 351.373679 373.648703 
L 352.563769 370.582974 
L 358.51422 354.606415 
L 359.406788 352.866449 
L 360.001833 352.08128 
L 360.596878 351.720736 
L 361.191923 351.78504 
L 361.786968 352.166648 
L 364.464671 354.495769 
L 365.952284 355.096896 
L 366.547329 355.711993 
L 367.142374 356.736416 
L 368.034942 358.956664 
L 369.225032 362.511987 
L 370.415122 366.80281 
L 371.902735 372.142669 
L 373.092825 375.483573 
L 373.68787 376.705341 
L 374.282915 377.498493 
L 374.87796 377.86591 
L 375.473005 377.890966 
L 376.365573 377.543062 
L 378.448231 376.511987 
L 379.043276 376.253442 
L 379.638321 375.730809 
L 380.233366 374.811046 
L 381.125934 372.822957 
L 382.316024 369.487596 
L 383.506114 365.457313 
L 385.886295 356.742181 
L 386.778863 354.09376 
L 387.67143 352.044471 
L 388.86152 349.868793 
L 390.051611 348.112861 
L 390.646656 347.510182 
L 391.241701 347.232124 
L 391.836746 347.294432 
L 392.431791 347.634132 
L 393.919404 348.967434 
L 394.811972 349.647056 
L 396.597107 350.7635 
L 397.489675 351.744462 
L 398.08472 352.728529 
L 398.977287 354.819947 
L 400.762423 359.549144 
L 401.65499 361.221037 
L 402.250035 361.966515 
L 402.84508 362.456775 
L 403.737648 362.839714 
L 404.927738 362.980516 
L 406.117829 362.980295 
L 406.712874 362.697802 
L 407.307919 362.025054 
L 408.200486 360.391964 
L 409.985622 356.814689 
L 413.853415 349.778768 
L 414.745983 348.172508 
L 415.63855 347.047861 
L 416.828641 345.779971 
L 417.721208 344.205421 
L 419.803866 339.916815 
L 420.398911 339.133198 
L 420.696434 338.932083 
L 420.993956 338.887957 
L 421.291479 339.004147 
L 421.886524 339.6596 
L 422.779092 341.308211 
L 423.969182 343.607175 
L 424.86175 344.81697 
L 425.456795 345.316764 
L 426.05184 345.609456 
L 426.944407 345.75558 
L 427.836975 345.807023 
L 428.43202 346.036299 
L 429.027065 346.49108 
L 429.919633 347.525925 
L 430.812201 348.947921 
L 432.597336 351.943803 
L 433.489904 352.9598 
L 434.382471 353.581549 
L 435.275039 353.924575 
L 436.167607 354.026131 
L 436.762652 353.84985 
L 437.357697 353.426555 
L 438.547787 352.132279 
L 440.0354 350.603628 
L 441.22549 349.282743 
L 443.903193 345.845827 
L 444.795761 344.040005 
L 445.985851 340.982702 
L 448.366031 333.961637 
L 449.556122 330.263294 
L 450.151167 329.071682 
L 450.746212 328.520666 
L 451.043734 328.469224 
L 451.638779 328.721116 
L 452.531347 329.617154 
L 453.721437 331.119862 
L 454.614005 332.514363 
L 455.20905 333.734579 
L 456.101618 336.173015 
L 458.184276 342.517119 
L 459.076843 344.308306 
L 459.969411 345.422089 
L 463.242159 348.76011 
L 463.837204 349.119767 
L 464.432249 349.259904 
L 465.027294 349.121097 
L 465.622339 348.737715 
L 468.597565 346.339413 
L 469.490133 345.995056 
L 470.680223 345.654912 
L 471.275268 345.123631 
L 471.870313 344.17349 
L 472.465358 342.798946 
L 473.655448 339.271118 
L 475.143061 334.210869 
L 477.225719 326.933255 
L 478.118287 324.427854 
L 478.713332 323.222494 
L 479.308377 322.506507 
L 479.903422 322.255501 
L 480.498467 322.347965 
L 481.688557 322.960623 
L 482.878648 323.676832 
L 483.473693 324.35579 
L 484.068738 325.372451 
L 484.961306 327.390032 
L 486.746441 332.364912 
L 487.936531 336.002056 
L 489.721666 341.769867 
L 490.911757 344.802779 
L 492.101847 347.148308 
L 492.994414 348.402006 
L 493.886982 349.224205 
L 494.77955 349.679652 
L 495.96964 349.91957 
L 496.862208 349.958153 
L 497.457253 349.830654 
L 498.052298 349.512906 
L 498.944866 348.729732 
L 500.432478 347.279576 
L 501.325046 346.681774 
L 503.110181 345.707685 
L 503.705226 344.88216 
L 504.597794 343.010261 
L 505.787884 339.750512 
L 510.250723 326.684466 
L 511.14329 325.103485 
L 511.738335 324.407454 
L 512.333381 323.945355 
L 512.928426 323.667963 
L 513.523471 323.650002 
L 514.118516 324.050458 
L 514.713561 324.900153 
L 515.606129 326.8113 
L 517.093741 330.920521 
L 517.986309 333.161612 
L 518.581354 334.321072 
L 518.581354 334.321072 
" clip-path="url(#p37967fbeff)" style="fill: none; stroke: #1f77b4; stroke-width: 1.5; stroke-linecap: square"/>
   </g>
   <g id="patch_13">
    <path d="M 72 384.48 
L 72 286.644706 
" style="fill: none; stroke: #000000; stroke-width: 0.8; stroke-linejoin: miter; stroke-linecap: square"/>
   </g>
   <g id="patch_14">
    <path d="M 518.4 384.48 
L 518.4 286.644706 
" style="fill: none; stroke: #000000; stroke-width: 0.8; stroke-linejoin: miter; stroke-linecap: square"/>
   </g>
   <g id="patch_15">
    <path d="M 72 384.48 
L 518.4 384.48 
" style="fill: none; stroke: #000000; stroke-width: 0.8; stroke-linejoin: miter; stroke-linecap: square"/>
   </g>
   <g id="patch_16">
    <path d="M 72 286.644706 
L 518.4 286.644706 
" style="fill: none; stroke: #000000; stroke-width: 0.8; stroke-linejoin: miter; stroke-linecap: square"/>
   </g>
  </g>
  <g id="text_23">
   <!-- Cutting measures regarding startup behaviour -->
   <g transform="translate(101.9 20.7975) scale(0.16 -0.16)">
    <defs>
     <path id="DejaVuSans-64" d="M 2906 2969 
L 2906 4863 
L 3481 4863 
L 3481 0 
L 2906 0 
L 2906 525 
Q 2725 213 2448 61 
Q 2172 -91 1784 -91 
Q 1150 -91 751 415 
Q 353 922 353 1747 
Q 353 2572 751 3078 
Q 1150 3584 1784 3584 
Q 2172 3584 2448 3432 
Q 2725 3281 2906 2969 
z
M 947 1747 
Q 947 1113 1208 752 
Q 1469 391 1925 391 
Q 2381 391 2643 752 
Q 2906 1113 2906 1747 
Q 2906 2381 2643 2742 
Q 2381 3103 1925 3103 
Q 1469 3103 1208 2742 
Q 947 2381 947 1747 
z
" transform="scale(0.015625)"/>
     <path id="DejaVuSans-70" d="M 1159 525 
L 1159 -1331 
L 581 -1331 
L 581 3500 
L 1159 3500 
L 1159 2969 
Q 1341 3281 1617 3432 
Q 1894 3584 2278 3584 
Q 2916 3584 3314 3078 
Q 3713 2572 3713 1747 
Q 3713 922 3314 415 
Q 2916 -91 2278 -91 
Q 1894 -91 1617 61 
Q 1341 213 1159 525 
z
M 3116 1747 
Q 3116 2381 2855 2742 
Q 2594 3103 2138 3103 
Q 1681 3103 1420 2742 
Q 1159 2381 1159 1747 
Q 1159 1113 1420 752 
Q 1681 391 2138 391 
Q 2594 391 2855 752 
Q 3116 1113 3116 1747 
z
" transform="scale(0.015625)"/>
     <path id="DejaVuSans-62" d="M 3116 1747 
Q 3116 2381 2855 2742 
Q 2594 3103 2138 3103 
Q 1681 3103 1420 2742 
Q 1159 2381 1159 1747 
Q 1159 1113 1420 752 
Q 1681 391 2138 391 
Q 2594 391 2855 752 
Q 3116 1113 3116 1747 
z
M 1159 2969 
Q 1341 3281 1617 3432 
Q 1894 3584 2278 3584 
Q 2916 3584 3314 3078 
Q 3713 2572 3713 1747 
Q 3713 922 3314 415 
Q 2916 -91 2278 -91 
Q 1894 -91 1617 61 
Q 1341 213 1159 525 
L 1159 0 
L 581 0 
L 581 4863 
L 1159 4863 
L 1159 2969 
z
" transform="scale(0.015625)"/>
     <path id="DejaVuSans-68" d="M 3513 2113 
L 3513 0 
L 2938 0 
L 2938 2094 
Q 2938 2591 2744 2837 
Q 2550 3084 2163 3084 
Q 1697 3084 1428 2787 
Q 1159 2491 1159 1978 
L 1159 0 
L 581 0 
L 581 4863 
L 1159 4863 
L 1159 2956 
Q 1366 3272 1645 3428 
Q 1925 3584 2291 3584 
Q 2894 3584 3203 3211 
Q 3513 2838 3513 2113 
z
" transform="scale(0.015625)"/>
     <path id="DejaVuSans-76" d="M 191 3500 
L 800 3500 
L 1894 563 
L 2988 3500 
L 3597 3500 
L 2284 0 
L 1503 0 
L 191 3500 
z
" transform="scale(0.015625)"/>
    </defs>
    <use xlink:href="#DejaVuSans-43"/>
    <use xlink:href="#DejaVuSans-75" x="69.824219"/>
    <use xlink:href="#DejaVuSans-74" x="133.203125"/>
    <use xlink:href="#DejaVuSans-74" x="172.412109"/>
    <use xlink:href="#DejaVuSans-69" x="211.621094"/>
    <use xlink:href="#DejaVuSans-6e" x="239.404297"/>
    <use xlink:href="#DejaVuSans-67" x="302.783203"/>
    <use xlink:href="#DejaVuSans-20" x="366.259766"/>
    <use xlink:href="#DejaVuSans-6d" x="398.046875"/>
    <use xlink:href="#DejaVuSans-65" x="495.458984"/>
    <use xlink:href="#DejaVuSans-61" x="556.982422"/>
    <use xlink:href="#DejaVuSans-73" x="618.261719"/>
    <use xlink:href="#DejaVuSans-75" x="670.361328"/>
    <use xlink:href="#DejaVuSans-72" x="733.740234"/>
    <use xlink:href="#DejaVuSans-65" x="772.603516"/>
    <use xlink:href="#DejaVuSans-73" x="834.126953"/>
    <use xlink:href="#DejaVuSans-20" x="886.226562"/>
    <use xlink:href="#DejaVuSans-72" x="918.013672"/>
    <use xlink:href="#DejaVuSans-65" x="956.876953"/>
    <use xlink:href="#DejaVuSans-67" x="1018.400391"/>
    <use xlink:href="#DejaVuSans-61" x="1081.876953"/>
    <use xlink:href="#DejaVuSans-72" x="1143.15625"/>
    <use xlink:href="#DejaVuSans-64" x="1182.519531"/>
    <use xlink:href="#DejaVuSans-69" x="1245.996094"/>
    <use xlink:href="#DejaVuSans-6e" x="1273.779297"/>
    <use xlink:href="#DejaVuSans-67" x="1337.158203"/>
    <use xlink:href="#DejaVuSans-20" x="1400.634766"/>
    <use xlink:href="#DejaVuSans-73" x="1432.421875"/>
    <use xlink:href="#DejaVuSans-74" x="1484.521484"/>
    <use xlink:href="#DejaVuSans-61" x="1523.730469"/>
    <use xlink:href="#DejaVuSans-72" x="1585.009766"/>
    <use xlink:href="#DejaVuSans-74" x="1626.123047"/>
    <use xlink:href="#DejaVuSans-75" x="1665.332031"/>
    <use xlink:href="#DejaVuSans-70" x="1728.710938"/>
    <use xlink:href="#DejaVuSans-20" x="1792.1875"/>
    <use xlink:href="#DejaVuSans-62" x="1823.974609"/>
    <use xlink:href="#DejaVuSans-65" x="1887.451172"/>
    <use xlink:href="#DejaVuSans-68" x="1948.974609"/>
    <use xlink:href="#DejaVuSans-61" x="2012.353516"/>
    <use xlink:href="#DejaVuSans-76" x="2073.632812"/>
    <use xlink:href="#DejaVuSans-69" x="2132.8125"/>
    <use xlink:href="#DejaVuSans-6f" x="2160.595703"/>
    <use xlink:href="#DejaVuSans-75" x="2221.777344"/>
    <use xlink:href="#DejaVuSans-72" x="2285.15625"/>
   </g>
  </g>
 </g>
 <defs>
  <clipPath id="p77fd3e13f5">
   <rect x="72" y="51.84" width="446.4" height="97.835294"/>
  </clipPath>
  <clipPath id="ped22872fb5">
   <rect x="72" y="169.242353" width="446.4" height="97.835294"/>
  </clipPath>
  <clipPath id="p37967fbeff">
   <rect x="72" y="286.644706" width="446.4" height="97.835294"/>
  </clipPath>
 </defs>
</svg>
