<?xml version="1.0" encoding="utf-8" standalone="no"?>
<!DOCTYPE svg PUBLIC "-//W3C//DTD SVG 1.1//EN"
  "http://www.w3.org/Graphics/SVG/1.1/DTD/svg11.dtd">
<svg xmlns:xlink="http://www.w3.org/1999/xlink" width="720pt" height="360pt" viewBox="0 0 720 360" xmlns="http://www.w3.org/2000/svg" version="1.1">
 <metadata>
  <rdf:RDF xmlns:dc="http://purl.org/dc/elements/1.1/" xmlns:cc="http://creativecommons.org/ns#" xmlns:rdf="http://www.w3.org/1999/02/22-rdf-syntax-ns#">
   <cc:Work>
    <dc:type rdf:resource="http://purl.org/dc/dcmitype/StillImage"/>
    <dc:date>2025-02-19T08:39:58.980233</dc:date>
    <dc:format>image/svg+xml</dc:format>
    <dc:creator>
     <cc:Agent>
      <dc:title>Matplotlib v3.8.4, https://matplotlib.org/</dc:title>
     </cc:Agent>
    </dc:creator>
   </cc:Work>
  </rdf:RDF>
 </metadata>
 <defs>
  <style type="text/css">*{stroke-linejoin: round; stroke-linecap: butt}</style>
 </defs>
 <g id="figure_1">
  <g id="patch_1">
   <path d="M 0 360 
L 720 360 
L 720 0 
L 0 0 
z
" style="fill: #ffffff"/>
  </g>
  <g id="axes_1">
   <g id="patch_2">
    <path d="M 90 320.4 
L 648 320.4 
L 648 43.2 
L 90 43.2 
z
" style="fill: #ffffff"/>
   </g>
   <g id="matplotlib.axis_1">
    <g id="xtick_1">
     <g id="line2d_1">
      <defs>
       <path id="m9ad343fe36" d="M 0 0 
L 0 3.5 
" style="stroke: #000000; stroke-width: 0.8"/>
      </defs>
      <g>
       <use xlink:href="#m9ad343fe36" x="90" y="320.4" style="stroke: #000000; stroke-width: 0.8"/>
      </g>
     </g>
     <g id="text_1">
      <!-- 10 -->
      <g transform="translate(83.6375 334.998438) scale(0.1 -0.1)">
       <defs>
        <path id="DejaVuSans-31" d="M 794 531 
L 1825 531 
L 1825 4091 
L 703 3866 
L 703 4441 
L 1819 4666 
L 2450 4666 
L 2450 531 
L 3481 531 
L 3481 0 
L 794 0 
L 794 531 
z
" transform="scale(0.015625)"/>
        <path id="DejaVuSans-30" d="M 2034 4250 
Q 1547 4250 1301 3770 
Q 1056 3291 1056 2328 
Q 1056 1369 1301 889 
Q 1547 409 2034 409 
Q 2525 409 2770 889 
Q 3016 1369 3016 2328 
Q 3016 3291 2770 3770 
Q 2525 4250 2034 4250 
z
M 2034 4750 
Q 2819 4750 3233 4129 
Q 3647 3509 3647 2328 
Q 3647 1150 3233 529 
Q 2819 -91 2034 -91 
Q 1250 -91 836 529 
Q 422 1150 422 2328 
Q 422 3509 836 4129 
Q 1250 4750 2034 4750 
z
" transform="scale(0.015625)"/>
       </defs>
       <use xlink:href="#DejaVuSans-31"/>
       <use xlink:href="#DejaVuSans-30" x="63.623047"/>
      </g>
     </g>
    </g>
    <g id="xtick_2">
     <g id="line2d_2">
      <g>
       <use xlink:href="#m9ad343fe36" x="175.846154" y="320.4" style="stroke: #000000; stroke-width: 0.8"/>
      </g>
     </g>
     <g id="text_2">
      <!-- 12 -->
      <g transform="translate(169.483654 334.998438) scale(0.1 -0.1)">
       <defs>
        <path id="DejaVuSans-32" d="M 1228 531 
L 3431 531 
L 3431 0 
L 469 0 
L 469 531 
Q 828 903 1448 1529 
Q 2069 2156 2228 2338 
Q 2531 2678 2651 2914 
Q 2772 3150 2772 3378 
Q 2772 3750 2511 3984 
Q 2250 4219 1831 4219 
Q 1534 4219 1204 4116 
Q 875 4013 500 3803 
L 500 4441 
Q 881 4594 1212 4672 
Q 1544 4750 1819 4750 
Q 2544 4750 2975 4387 
Q 3406 4025 3406 3419 
Q 3406 3131 3298 2873 
Q 3191 2616 2906 2266 
Q 2828 2175 2409 1742 
Q 1991 1309 1228 531 
z
" transform="scale(0.015625)"/>
       </defs>
       <use xlink:href="#DejaVuSans-31"/>
       <use xlink:href="#DejaVuSans-32" x="63.623047"/>
      </g>
     </g>
    </g>
    <g id="xtick_3">
     <g id="line2d_3">
      <g>
       <use xlink:href="#m9ad343fe36" x="261.692308" y="320.4" style="stroke: #000000; stroke-width: 0.8"/>
      </g>
     </g>
     <g id="text_3">
      <!-- 14 -->
      <g transform="translate(255.329808 334.998438) scale(0.1 -0.1)">
       <defs>
        <path id="DejaVuSans-34" d="M 2419 4116 
L 825 1625 
L 2419 1625 
L 2419 4116 
z
M 2253 4666 
L 3047 4666 
L 3047 1625 
L 3713 1625 
L 3713 1100 
L 3047 1100 
L 3047 0 
L 2419 0 
L 2419 1100 
L 313 1100 
L 313 1709 
L 2253 4666 
z
" transform="scale(0.015625)"/>
       </defs>
       <use xlink:href="#DejaVuSans-31"/>
       <use xlink:href="#DejaVuSans-34" x="63.623047"/>
      </g>
     </g>
    </g>
    <g id="xtick_4">
     <g id="line2d_4">
      <g>
       <use xlink:href="#m9ad343fe36" x="347.538462" y="320.4" style="stroke: #000000; stroke-width: 0.8"/>
      </g>
     </g>
     <g id="text_4">
      <!-- 16 -->
      <g transform="translate(341.175962 334.998438) scale(0.1 -0.1)">
       <defs>
        <path id="DejaVuSans-36" d="M 2113 2584 
Q 1688 2584 1439 2293 
Q 1191 2003 1191 1497 
Q 1191 994 1439 701 
Q 1688 409 2113 409 
Q 2538 409 2786 701 
Q 3034 994 3034 1497 
Q 3034 2003 2786 2293 
Q 2538 2584 2113 2584 
z
M 3366 4563 
L 3366 3988 
Q 3128 4100 2886 4159 
Q 2644 4219 2406 4219 
Q 1781 4219 1451 3797 
Q 1122 3375 1075 2522 
Q 1259 2794 1537 2939 
Q 1816 3084 2150 3084 
Q 2853 3084 3261 2657 
Q 3669 2231 3669 1497 
Q 3669 778 3244 343 
Q 2819 -91 2113 -91 
Q 1303 -91 875 529 
Q 447 1150 447 2328 
Q 447 3434 972 4092 
Q 1497 4750 2381 4750 
Q 2619 4750 2861 4703 
Q 3103 4656 3366 4563 
z
" transform="scale(0.015625)"/>
       </defs>
       <use xlink:href="#DejaVuSans-31"/>
       <use xlink:href="#DejaVuSans-36" x="63.623047"/>
      </g>
     </g>
    </g>
    <g id="xtick_5">
     <g id="line2d_5">
      <g>
       <use xlink:href="#m9ad343fe36" x="433.384615" y="320.4" style="stroke: #000000; stroke-width: 0.8"/>
      </g>
     </g>
     <g id="text_5">
      <!-- 18 -->
      <g transform="translate(427.022115 334.998438) scale(0.1 -0.1)">
       <defs>
        <path id="DejaVuSans-38" d="M 2034 2216 
Q 1584 2216 1326 1975 
Q 1069 1734 1069 1313 
Q 1069 891 1326 650 
Q 1584 409 2034 409 
Q 2484 409 2743 651 
Q 3003 894 3003 1313 
Q 3003 1734 2745 1975 
Q 2488 2216 2034 2216 
z
M 1403 2484 
Q 997 2584 770 2862 
Q 544 3141 544 3541 
Q 544 4100 942 4425 
Q 1341 4750 2034 4750 
Q 2731 4750 3128 4425 
Q 3525 4100 3525 3541 
Q 3525 3141 3298 2862 
Q 3072 2584 2669 2484 
Q 3125 2378 3379 2068 
Q 3634 1759 3634 1313 
Q 3634 634 3220 271 
Q 2806 -91 2034 -91 
Q 1263 -91 848 271 
Q 434 634 434 1313 
Q 434 1759 690 2068 
Q 947 2378 1403 2484 
z
M 1172 3481 
Q 1172 3119 1398 2916 
Q 1625 2713 2034 2713 
Q 2441 2713 2670 2916 
Q 2900 3119 2900 3481 
Q 2900 3844 2670 4047 
Q 2441 4250 2034 4250 
Q 1625 4250 1398 4047 
Q 1172 3844 1172 3481 
z
" transform="scale(0.015625)"/>
       </defs>
       <use xlink:href="#DejaVuSans-31"/>
       <use xlink:href="#DejaVuSans-38" x="63.623047"/>
      </g>
     </g>
    </g>
    <g id="xtick_6">
     <g id="line2d_6">
      <g>
       <use xlink:href="#m9ad343fe36" x="519.230769" y="320.4" style="stroke: #000000; stroke-width: 0.8"/>
      </g>
     </g>
     <g id="text_6">
      <!-- 20 -->
      <g transform="translate(512.868269 334.998438) scale(0.1 -0.1)">
       <use xlink:href="#DejaVuSans-32"/>
       <use xlink:href="#DejaVuSans-30" x="63.623047"/>
      </g>
     </g>
    </g>
    <g id="xtick_7">
     <g id="line2d_7">
      <g>
       <use xlink:href="#m9ad343fe36" x="605.076923" y="320.4" style="stroke: #000000; stroke-width: 0.8"/>
      </g>
     </g>
     <g id="text_7">
      <!-- 22 -->
      <g transform="translate(598.714423 334.998438) scale(0.1 -0.1)">
       <use xlink:href="#DejaVuSans-32"/>
       <use xlink:href="#DejaVuSans-32" x="63.623047"/>
      </g>
     </g>
    </g>
   </g>
   <g id="matplotlib.axis_2">
    <g id="ytick_1">
     <g id="line2d_8">
      <defs>
       <path id="m1eaadced4f" d="M 0 0 
L -3.5 0 
" style="stroke: #000000; stroke-width: 0.8"/>
      </defs>
      <g>
       <use xlink:href="#m1eaadced4f" x="90" y="311.542255" style="stroke: #000000; stroke-width: 0.8"/>
      </g>
     </g>
     <g id="text_8">
      <!-- 53.6 -->
      <g transform="translate(60.734375 315.341473) scale(0.1 -0.1)">
       <defs>
        <path id="DejaVuSans-35" d="M 691 4666 
L 3169 4666 
L 3169 4134 
L 1269 4134 
L 1269 2991 
Q 1406 3038 1543 3061 
Q 1681 3084 1819 3084 
Q 2600 3084 3056 2656 
Q 3513 2228 3513 1497 
Q 3513 744 3044 326 
Q 2575 -91 1722 -91 
Q 1428 -91 1123 -41 
Q 819 9 494 109 
L 494 744 
Q 775 591 1075 516 
Q 1375 441 1709 441 
Q 2250 441 2565 725 
Q 2881 1009 2881 1497 
Q 2881 1984 2565 2268 
Q 2250 2553 1709 2553 
Q 1456 2553 1204 2497 
Q 953 2441 691 2322 
L 691 4666 
z
" transform="scale(0.015625)"/>
        <path id="DejaVuSans-33" d="M 2597 2516 
Q 3050 2419 3304 2112 
Q 3559 1806 3559 1356 
Q 3559 666 3084 287 
Q 2609 -91 1734 -91 
Q 1441 -91 1130 -33 
Q 819 25 488 141 
L 488 750 
Q 750 597 1062 519 
Q 1375 441 1716 441 
Q 2309 441 2620 675 
Q 2931 909 2931 1356 
Q 2931 1769 2642 2001 
Q 2353 2234 1838 2234 
L 1294 2234 
L 1294 2753 
L 1863 2753 
Q 2328 2753 2575 2939 
Q 2822 3125 2822 3475 
Q 2822 3834 2567 4026 
Q 2313 4219 1838 4219 
Q 1578 4219 1281 4162 
Q 984 4106 628 3988 
L 628 4550 
Q 988 4650 1302 4700 
Q 1616 4750 1894 4750 
Q 2613 4750 3031 4423 
Q 3450 4097 3450 3541 
Q 3450 3153 3228 2886 
Q 3006 2619 2597 2516 
z
" transform="scale(0.015625)"/>
        <path id="DejaVuSans-2e" d="M 684 794 
L 1344 794 
L 1344 0 
L 684 0 
L 684 794 
z
" transform="scale(0.015625)"/>
       </defs>
       <use xlink:href="#DejaVuSans-35"/>
       <use xlink:href="#DejaVuSans-33" x="63.623047"/>
       <use xlink:href="#DejaVuSans-2e" x="127.246094"/>
       <use xlink:href="#DejaVuSans-36" x="159.033203"/>
      </g>
     </g>
    </g>
    <g id="ytick_2">
     <g id="line2d_9">
      <g>
       <use xlink:href="#m1eaadced4f" x="90" y="278.60368" style="stroke: #000000; stroke-width: 0.8"/>
      </g>
     </g>
     <g id="text_9">
      <!-- 53.8 -->
      <g transform="translate(60.734375 282.402899) scale(0.1 -0.1)">
       <use xlink:href="#DejaVuSans-35"/>
       <use xlink:href="#DejaVuSans-33" x="63.623047"/>
       <use xlink:href="#DejaVuSans-2e" x="127.246094"/>
       <use xlink:href="#DejaVuSans-38" x="159.033203"/>
      </g>
     </g>
    </g>
    <g id="ytick_3">
     <g id="line2d_10">
      <g>
       <use xlink:href="#m1eaadced4f" x="90" y="245.665105" style="stroke: #000000; stroke-width: 0.8"/>
      </g>
     </g>
     <g id="text_10">
      <!-- 54.0 -->
      <g transform="translate(60.734375 249.464324) scale(0.1 -0.1)">
       <use xlink:href="#DejaVuSans-35"/>
       <use xlink:href="#DejaVuSans-34" x="63.623047"/>
       <use xlink:href="#DejaVuSans-2e" x="127.246094"/>
       <use xlink:href="#DejaVuSans-30" x="159.033203"/>
      </g>
     </g>
    </g>
    <g id="ytick_4">
     <g id="line2d_11">
      <g>
       <use xlink:href="#m1eaadced4f" x="90" y="212.72653" style="stroke: #000000; stroke-width: 0.8"/>
      </g>
     </g>
     <g id="text_11">
      <!-- 54.2 -->
      <g transform="translate(60.734375 216.525749) scale(0.1 -0.1)">
       <use xlink:href="#DejaVuSans-35"/>
       <use xlink:href="#DejaVuSans-34" x="63.623047"/>
       <use xlink:href="#DejaVuSans-2e" x="127.246094"/>
       <use xlink:href="#DejaVuSans-32" x="159.033203"/>
      </g>
     </g>
    </g>
    <g id="ytick_5">
     <g id="line2d_12">
      <g>
       <use xlink:href="#m1eaadced4f" x="90" y="179.787955" style="stroke: #000000; stroke-width: 0.8"/>
      </g>
     </g>
     <g id="text_12">
      <!-- 54.4 -->
      <g transform="translate(60.734375 183.587174) scale(0.1 -0.1)">
       <use xlink:href="#DejaVuSans-35"/>
       <use xlink:href="#DejaVuSans-34" x="63.623047"/>
       <use xlink:href="#DejaVuSans-2e" x="127.246094"/>
       <use xlink:href="#DejaVuSans-34" x="159.033203"/>
      </g>
     </g>
    </g>
    <g id="ytick_6">
     <g id="line2d_13">
      <g>
       <use xlink:href="#m1eaadced4f" x="90" y="146.849381" style="stroke: #000000; stroke-width: 0.8"/>
      </g>
     </g>
     <g id="text_13">
      <!-- 54.6 -->
      <g transform="translate(60.734375 150.648599) scale(0.1 -0.1)">
       <use xlink:href="#DejaVuSans-35"/>
       <use xlink:href="#DejaVuSans-34" x="63.623047"/>
       <use xlink:href="#DejaVuSans-2e" x="127.246094"/>
       <use xlink:href="#DejaVuSans-36" x="159.033203"/>
      </g>
     </g>
    </g>
    <g id="ytick_7">
     <g id="line2d_14">
      <g>
       <use xlink:href="#m1eaadced4f" x="90" y="113.910806" style="stroke: #000000; stroke-width: 0.8"/>
      </g>
     </g>
     <g id="text_14">
      <!-- 54.8 -->
      <g transform="translate(60.734375 117.710025) scale(0.1 -0.1)">
       <use xlink:href="#DejaVuSans-35"/>
       <use xlink:href="#DejaVuSans-34" x="63.623047"/>
       <use xlink:href="#DejaVuSans-2e" x="127.246094"/>
       <use xlink:href="#DejaVuSans-38" x="159.033203"/>
      </g>
     </g>
    </g>
    <g id="ytick_8">
     <g id="line2d_15">
      <g>
       <use xlink:href="#m1eaadced4f" x="90" y="80.972231" style="stroke: #000000; stroke-width: 0.8"/>
      </g>
     </g>
     <g id="text_15">
      <!-- 55.0 -->
      <g transform="translate(60.734375 84.77145) scale(0.1 -0.1)">
       <use xlink:href="#DejaVuSans-35"/>
       <use xlink:href="#DejaVuSans-35" x="63.623047"/>
       <use xlink:href="#DejaVuSans-2e" x="127.246094"/>
       <use xlink:href="#DejaVuSans-30" x="159.033203"/>
      </g>
     </g>
    </g>
    <g id="ytick_9">
     <g id="line2d_16">
      <g>
       <use xlink:href="#m1eaadced4f" x="90" y="48.033656" style="stroke: #000000; stroke-width: 0.8"/>
      </g>
     </g>
     <g id="text_16">
      <!-- 55.2 -->
      <g transform="translate(60.734375 51.832875) scale(0.1 -0.1)">
       <use xlink:href="#DejaVuSans-35"/>
       <use xlink:href="#DejaVuSans-35" x="63.623047"/>
       <use xlink:href="#DejaVuSans-2e" x="127.246094"/>
       <use xlink:href="#DejaVuSans-32" x="159.033203"/>
      </g>
     </g>
    </g>
   </g>
   <g id="line2d_17">
    <path d="M 89.8883 211.787794 
L 90.317419 214.54834 
L 90.889577 219.933728 
L 92.463014 238.345952 
L 93.178212 247.299192 
L 93.464292 248.489733 
L 93.607332 248.448896 
L 93.893411 247.306731 
L 94.32253 243.952486 
L 95.609887 233.336887 
L 96.754205 223.164208 
L 98.470681 206.179375 
L 100.330197 181.208185 
L 100.759316 178.371621 
L 100.902356 178.124089 
L 101.045395 178.213929 
L 101.331475 179.226046 
L 102.618832 186.837336 
L 103.047951 190.800359 
L 104.621388 208.974475 
L 106.051785 217.267421 
L 107.625221 228.074637 
L 107.911301 228.846132 
L 108.05434 228.920266 
L 108.19738 228.816604 
L 108.483459 228.21725 
L 109.055618 226.1993 
L 109.484737 223.707018 
L 110.915134 213.844696 
L 111.344253 211.402046 
L 111.773372 207.187722 
L 112.345531 198.977078 
L 113.775928 176.850619 
L 114.348087 171.030479 
L 114.634166 169.612511 
L 114.920245 169.129384 
L 115.063285 169.155771 
L 115.349364 169.553455 
L 116.493682 171.849094 
L 116.922801 172.286986 
L 117.20888 173.02644 
L 117.49496 174.471423 
L 118.067118 178.999246 
L 118.639277 185.37916 
L 120.355753 209.093843 
L 120.784873 211.391366 
L 121.213992 212.505259 
L 121.643111 212.967654 
L 122.501349 213.33958 
L 123.359587 213.539993 
L 124.360865 213.539993 
L 124.503904 213.349004 
L 124.789984 212.245162 
L 125.076063 209.91874 
L 125.505182 203.827823 
L 128.795095 145.65972 
L 129.224214 141.490002 
L 129.510294 140.111614 
L 129.653333 139.901777 
L 129.796373 139.990361 
L 130.082452 140.88625 
L 130.654611 144.130551 
L 131.22677 148.369377 
L 131.798929 155.463615 
L 132.657167 169.750099 
L 133.515405 188.230174 
L 134.230603 202.41865 
L 134.659722 207.87189 
L 135.088842 211.075355 
L 136.948357 221.319027 
L 137.234437 221.665195 
L 137.377477 221.516299 
L 137.663556 220.681978 
L 138.235715 217.853581 
L 138.950913 214.520068 
L 139.952191 210.590971 
L 140.38131 206.281152 
L 141.096508 195.745342 
L 141.811707 181.678119 
L 142.956024 157.840298 
L 143.671223 148.013157 
L 144.100342 144.351696 
L 144.386421 143.315078 
L 144.529461 143.249111 
L 144.672501 143.448896 
L 144.95858 144.47609 
L 145.673779 148.645809 
L 146.102898 152.191671 
L 146.675056 159.46559 
L 148.391533 185.416855 
L 149.39281 203.659451 
L 149.964969 209.846491 
L 150.823207 215.135128 
L 151.395366 218.025094 
L 151.681446 218.555968 
L 151.824485 218.557225 
L 152.110565 218.131897 
L 152.396644 216.994759 
L 152.682723 214.658912 
L 153.111842 208.316065 
L 153.684001 194.944319 
L 154.542239 166.562969 
L 155.972636 120.07347 
L 156.544795 107.017106 
L 157.975192 83.369018 
L 158.404311 78.489374 
L 158.547351 77.824681 
L 158.69039 77.690863 
L 158.83343 78.050853 
L 159.119509 79.941896 
L 161.408144 102.226046 
L 162.266383 118.081906 
L 163.696779 143.782499 
L 165.413256 170.632795 
L 165.699335 171.896213 
L 165.842375 171.771818 
L 166.128454 170.135846 
L 166.557573 165.354838 
L 167.558851 153.818848 
L 169.418367 135.693735 
L 170.133565 123.045109 
L 170.848764 111.442524 
L 171.277883 107.333118 
L 171.707002 105.33967 
L 171.993081 104.821361 
L 172.422201 104.607126 
L 172.85132 104.631 
L 172.994359 104.846491 
L 173.280439 106.023838 
L 173.709558 109.880686 
L 174.567796 121.310501 
L 175.712113 135.968282 
L 176.856431 150.41874 
L 177.571629 163.923048 
L 178.429867 179.829797 
L 178.858987 184.737085 
L 179.145066 186.558392 
L 179.288106 186.969269 
L 179.431145 187.04089 
L 179.574185 186.7965 
L 179.860264 185.567008 
L 181.147622 178.214558 
L 181.576741 177.079932 
L 182.291939 175.703428 
L 182.578018 173.992694 
L 183.007138 169.315976 
L 184.008415 156.754048 
L 184.437534 153.692569 
L 184.866654 152.068533 
L 185.295773 151.318399 
L 185.724892 151.085945 
L 186.154011 151.146886 
L 186.58313 151.468551 
L 187.584408 152.431664 
L 187.870487 152.408419 
L 188.442646 152.035236 
L 189.157844 151.514414 
L 189.300884 151.508131 
L 189.443924 151.656399 
L 189.730003 152.693646 
L 190.016082 154.971693 
L 190.445201 160.911829 
L 191.01736 172.580381 
L 192.447757 204.795961 
L 192.876876 209.978424 
L 193.305995 212.934985 
L 193.735114 214.258087 
L 194.021194 214.577239 
L 194.450313 214.675247 
L 195.88071 214.560905 
L 196.023749 214.359864 
L 196.309829 213.225866 
L 196.595908 210.877455 
L 197.025027 204.905906 
L 197.597186 192.956525 
L 199.027583 159.706839 
L 199.742781 149.340657 
L 200.31494 144.302693 
L 200.744059 142.133333 
L 201.173178 140.841644 
L 201.602297 140.03371 
L 201.888377 139.870364 
L 202.031416 140.012978 
L 202.317496 140.824053 
L 202.746615 143.032364 
L 203.604853 148.653348 
L 204.033972 153.074367 
L 205.607409 172.078406 
L 206.751726 182.238521 
L 207.323885 185.572034 
L 207.896044 187.694902 
L 208.468202 188.834554 
L 209.183401 189.636205 
L 209.61252 189.834105 
L 209.75556 189.7317 
L 210.041639 189.060097 
L 210.470758 186.844875 
L 210.899877 183.020696 
L 211.328996 176.921612 
L 212.187234 159.978873 
L 213.045472 144.485514 
L 215.477147 109.633154 
L 215.763226 107.94755 
L 215.906266 107.563687 
L 216.049306 107.558033 
L 216.192346 107.951948 
L 216.478425 109.876288 
L 216.907544 114.848286 
L 218.337941 133.005439 
L 219.196179 142.662951 
L 219.768338 152.466846 
L 221.055695 175.188889 
L 221.770893 183.98695 
L 222.200013 187.174708 
L 222.629132 188.970885 
L 223.058251 189.9007 
L 223.34433 190.179645 
L 223.48737 190.13818 
L 223.773449 189.5049 
L 224.059528 188.075624 
L 224.774727 182.550135 
L 225.489925 176.339221 
L 226.062084 168.226584 
L 227.349441 147.264279 
L 228.207679 138.202351 
L 228.779838 134.069072 
L 229.208957 132.110178 
L 229.638076 131.099318 
L 229.781116 131.049686 
L 229.924156 131.169682 
L 230.210235 131.875211 
L 230.782394 134.47618 
L 231.497592 137.744355 
L 232.069751 139.976539 
L 232.64191 143.634859 
L 233.071029 148.143206 
L 233.643188 157.471513 
L 236.360942 209.223263 
L 236.790061 212.076162 
L 237.07614 212.926817 
L 237.36222 213.242201 
L 237.648299 213.23152 
L 238.077418 212.901059 
L 239.078696 211.840567 
L 239.364775 211.0986 
L 239.650855 209.395405 
L 240.079974 204.593035 
L 240.795172 191.965769 
L 242.511648 161.839131 
L 243.083807 154.724789 
L 243.512926 151.784563 
L 243.799006 150.752971 
L 243.942045 150.518004 
L 244.085085 150.550045 
L 244.228125 150.910034 
L 244.514204 152.72443 
L 244.943323 157.767421 
L 245.944601 170.942524 
L 247.374998 184.969539 
L 248.090196 196.478514 
L 248.805395 207.093484 
L 249.377554 211.995118 
L 251.09403 222.437947 
L 251.666189 224.923945 
L 252.095308 226.087471 
L 252.524427 226.718866 
L 252.810506 226.892264 
L 252.953546 226.858338 
L 253.239625 226.338144 
L 253.525705 225.083522 
L 254.240903 220.060635 
L 254.813062 216.851517 
L 255.242181 215.677939 
L 255.81434 214.686555 
L 256.100419 213.169323 
L 256.529538 208.774062 
L 257.673856 194.790397 
L 258.102975 192.290576 
L 258.246014 192.100844 
L 258.389054 192.318848 
L 258.675133 193.977437 
L 259.104252 198.791115 
L 259.962491 209.317501 
L 260.39161 212.375211 
L 260.820729 213.8359 
L 261.678967 215.21366 
L 261.965046 216.624089 
L 262.394165 220.524915 
L 263.538483 235.462269 
L 265.111919 258.17049 
L 265.541038 261.115742 
L 265.970158 262.543762 
L 266.399277 263.095997 
L 266.542316 263.131808 
L 266.685356 263.023748 
L 266.971435 262.088907 
L 267.257515 259.970436 
L 267.829673 253.083522 
L 270.261348 221.4007 
L 270.833507 216.733405 
L 271.262626 214.747496 
L 271.691745 213.773703 
L 272.120864 213.417483 
L 272.836063 213.278011 
L 273.551261 213.37916 
L 274.26646 213.827733 
L 274.552539 214.075893 
L 274.838618 214.631897 
L 275.124698 215.716891 
L 275.696856 219.225058 
L 276.412055 224.768767 
L 277.270293 233.456884 
L 277.985491 244.590792 
L 278.986769 259.844785 
L 279.558928 266.3359 
L 279.845007 268.180452 
L 280.131087 268.902316 
L 280.274126 268.88284 
L 280.560206 268.254586 
L 281.132365 265.805026 
L 282.133642 260.801616 
L 282.562762 256.418291 
L 283.27796 246.052737 
L 284.565317 226.559289 
L 285.280516 218.185299 
L 285.852674 213.889302 
L 286.281793 212.10569 
L 286.567873 211.528954 
L 286.853952 211.359325 
L 287.140032 211.466128 
L 288.713468 212.59133 
L 288.999548 213.320104 
L 289.428667 215.393969 
L 290.000825 219.647873 
L 290.572984 226.029043 
L 291.145143 235.666451 
L 292.28946 255.615383 
L 293.004659 264.646527 
L 293.433778 268.085586 
L 293.862897 270.017465 
L 294.292016 270.987489 
L 294.578095 271.260779 
L 294.721135 271.214288 
L 295.007215 270.650117 
L 295.436334 268.687453 
L 296.294572 264.054712 
L 296.86673 261.613947 
L 297.29585 257.889661 
L 297.868008 250.327374 
L 299.298405 229.748932 
L 300.299683 219.647245 
L 300.871842 215.851966 
L 301.300961 214.236726 
L 301.73008 213.4979 
L 302.016159 213.340836 
L 302.302239 213.397379 
L 302.588318 213.850978 
L 302.874397 214.932202 
L 303.303517 217.619243 
L 303.875675 222.736995 
L 304.733913 232.746329 
L 305.449112 244.452576 
L 306.593429 262.536852 
L 307.594707 277.379339 
L 308.023826 282.963256 
L 308.309906 284.611165 
L 308.452945 284.768857 
L 308.595985 284.538916 
L 308.882064 283.197595 
L 311.313739 266.419458 
L 311.742858 260.385083 
L 312.458057 246.034518 
L 313.316295 229.902226 
L 315.175811 202.554353 
L 315.60493 199.494759 
L 315.74797 199.140424 
L 315.891009 199.151732 
L 316.034049 199.512978 
L 316.320128 201.093035 
L 317.178366 208.353761 
L 318.322684 219.081188 
L 319.037882 227.604703 
L 319.610041 237.787435 
L 321.040438 265.013427 
L 323.186033 292.329259 
L 323.472113 293.138449 
L 323.615152 292.835003 
L 323.901232 291.002387 
L 324.473391 284.54834 
L 325.617708 271.711237 
L 326.189867 265.429959 
L 326.762026 256.277562 
L 328.764581 219.750906 
L 329.1937 216.641052 
L 329.622819 215.179734 
L 329.908899 214.787704 
L 330.194978 214.685927 
L 331.339296 214.644462 
L 331.625375 214.614306 
L 331.911454 214.938485 
L 332.197534 215.828092 
L 332.626653 218.14886 
L 333.198812 223.023479 
L 333.91401 231.328361 
L 334.629209 243.17785 
L 335.916566 264.711865 
L 336.488725 270.516927 
L 336.917844 272.842721 
L 337.346963 273.863005 
L 337.633042 274.101113 
L 338.062161 274.161425 
L 338.49128 273.984886 
L 338.77736 273.690863 
L 339.063439 273.039993 
L 339.492558 271.079214 
L 339.921677 267.929779 
L 340.350796 262.845324 
L 340.922955 252.862377 
L 342.210312 228.781422 
L 342.925511 219.52662 
L 343.640709 210.555161 
L 344.498947 198.434267 
L 344.785027 196.746778 
L 344.928066 196.654425 
L 345.071106 197.03389 
L 345.357185 198.945665 
L 346.787582 212.138359 
L 348.074939 218.346132 
L 348.647098 223.24588 
L 349.362297 231.487938 
L 350.077495 243.304757 
L 351.078773 259.308885 
L 351.650932 265.277293 
L 351.937011 266.547622 
L 352.080051 266.766882 
L 352.22309 266.756202 
L 352.50917 266.23161 
L 353.224368 263.829169 
L 353.510448 262.318848 
L 353.939567 258.349542 
L 354.511725 250.513337 
L 356.80036 212.703787 
L 357.944678 193.523838 
L 358.659876 185.482822 
L 359.232035 181.200646 
L 359.661154 179.477975 
L 359.804194 179.364261 
L 359.947234 179.503105 
L 360.233313 180.475642 
L 360.805472 184.120768 
L 361.52067 189.957871 
L 362.092829 197.265087 
L 364.095385 225.31095 
L 364.953623 233.615204 
L 365.382742 236.314181 
L 365.811861 237.798743 
L 366.09794 238.093394 
L 366.24098 237.971513 
L 366.527059 237.190594 
L 366.956178 235.010555 
L 369.101774 221.603626 
L 369.530893 216.671208 
L 370.103052 206.825848 
L 370.96129 187.099318 
L 371.819528 167.17426 
L 372.391687 158.989374 
L 372.820806 155.782768 
L 373.249925 154.324592 
L 373.679044 153.81068 
L 374.108163 153.708903 
L 374.251203 153.861569 
L 374.537282 154.905098 
L 374.823361 157.186914 
L 375.39552 164.373506 
L 376.253758 174.385981 
L 376.825917 181.015311 
L 377.398076 191.191761 
L 378.542393 212.673631 
L 379.257592 222.108113 
L 379.686711 225.523299 
L 380.11583 227.298743 
L 380.401909 227.805744 
L 380.544949 227.8359 
L 380.687989 227.697056 
L 380.974068 226.915509 
L 381.403187 224.741124 
L 382.404465 219.293538 
L 382.833584 216.638539 
L 383.262703 212.029672 
L 383.977901 201.037749 
L 385.980457 164.800718 
L 386.838695 150.594651 
L 387.410854 144.74247 
L 387.839973 142.55552 
L 388.126052 142.119512 
L 388.269092 142.252701 
L 388.555172 143.176862 
L 388.984291 145.680452 
L 390.557727 156.646616 
L 391.272926 166.142667 
L 392.846362 187.316065 
L 393.84764 197.277652 
L 394.419799 203.773793 
L 394.705878 205.299192 
L 394.848918 205.468192 
L 394.991958 205.270921 
L 395.278037 203.99431 
L 396.994513 192.114665 
L 397.566672 187.141411 
L 397.995791 181.849004 
L 398.854029 167.333836 
L 399.855307 151.155681 
L 400.856585 138.948088 
L 401.428744 134.233046 
L 401.857863 132.188709 
L 402.143942 131.776575 
L 402.286982 131.873954 
L 402.573061 132.619063 
L 403.14522 135.424215 
L 404.718656 143.754227 
L 405.147776 147.903841 
L 405.576895 154.242919 
L 406.578172 174.651732 
L 407.150331 183.770203 
L 408.294649 199.810142 
L 409.009847 208.806103 
L 409.438966 212.091869 
L 409.868085 213.739149 
L 410.154165 214.118614 
L 410.440244 214.131179 
L 410.726323 213.920086 
L 411.012403 213.41874 
L 411.298482 212.158463 
L 411.727601 208.387058 
L 412.29976 200.85053 
L 413.014958 188.713301 
L 413.873197 169.322886 
L 414.731435 151.171388 
L 415.446633 141.177132 
L 416.018792 135.860223 
L 416.447911 133.445216 
L 416.73399 132.812565 
L 416.87703 132.849632 
L 417.163109 133.593484 
L 417.592229 135.9331 
L 418.307427 141.133154 
L 419.737824 152.108742 
L 420.166943 156.106318 
L 420.596062 162.084778 
L 421.4543 178.340208 
L 422.884697 205.752163 
L 423.313816 210.212763 
L 423.742935 212.461282 
L 423.885975 212.573739 
L 424.029015 212.248932 
L 424.315094 210.038736 
L 424.601173 205.367672 
L 425.030292 194.095548 
L 428.177166 96.954371 
L 428.892364 81.471693 
L 429.607562 70.601651 
L 430.179721 64.981296 
L 430.465801 63.846042 
L 430.60884 63.855466 
L 430.75188 64.33608 
L 431.037959 66.771818 
L 431.467078 73.36471 
L 432.468356 90.075624 
L 433.040515 95.51944 
L 433.612674 100.93687 
L 434.184833 109.67399 
L 436.187388 143.571405 
L 437.760825 161.303231 
L 437.903864 161.69212 
L 438.046904 161.732956 
L 438.189944 161.472859 
L 438.476023 160.293628 
L 440.04946 151.092228 
L 440.907698 144.248034 
L 441.765936 135.480129 
L 442.338095 127.113678 
L 443.196333 114.14527 
L 443.625452 110.022043 
L 444.054571 107.782319 
L 444.48369 106.860671 
L 444.76977 106.658374 
L 445.198889 106.669682 
L 445.484968 106.814181 
L 445.771047 107.309244 
L 446.057127 108.704595 
L 446.486246 112.822168 
L 447.201444 123.197146 
L 448.202722 137.503105 
L 448.917921 147.901957 
L 451.063516 185.41497 
L 451.492635 188.44378 
L 451.778714 189.21025 
L 451.921754 189.167528 
L 452.207833 188.32504 
L 452.636952 185.791922 
L 453.495191 180.437318 
L 453.92431 178.824592 
L 454.353429 178.043673 
L 454.639508 177.902316 
L 455.068627 178.04116 
L 455.211667 178.081368 
L 455.354707 177.993412 
L 455.497746 177.682427 
L 455.783826 176.151373 
L 456.212945 171.636744 
L 457.214223 159.556686 
L 457.643342 156.797397 
L 458.072461 155.568533 
L 458.35854 155.33608 
L 458.644619 155.413983 
L 459.502858 155.941088 
L 459.788937 155.852504 
L 460.504135 155.439742 
L 460.647175 155.691671 
L 460.933254 157.115922 
L 461.362374 161.505529 
L 462.649731 179.551481 
L 463.507969 192.849094 
L 464.509247 209.061174 
L 465.081405 214.347299 
L 466.511802 223.816963 
L 466.797882 224.562071 
L 466.940921 224.602908 
L 467.083961 224.44019 
L 467.370041 223.636026 
L 468.371318 219.373954 
L 468.657398 217.659451 
L 469.086517 213.311937 
L 469.658676 203.703428 
L 471.232112 174.603357 
L 472.519469 153.834554 
L 473.091628 147.604793 
L 473.520747 144.657027 
L 473.806827 143.713391 
L 473.949866 143.597792 
L 474.092906 143.711506 
L 474.378985 144.526979 
L 474.951144 147.469718 
L 475.666343 150.882391 
L 476.095462 152.625794 
L 476.381541 154.594112 
L 476.81066 159.265177 
L 479.099295 188.193107 
L 479.671454 194.166541 
L 480.386652 202.688171 
L 480.672732 204.035146 
L 480.815771 204.040801 
L 480.958811 203.630551 
L 481.24489 201.833118 
L 483.533525 181.722097 
L 484.248724 169.891456 
L 486.394319 127.837426 
L 487.109518 114.313642 
L 487.538637 109.225417 
L 487.967756 106.631359 
L 488.253835 106.017555 
L 488.396875 106.101113 
L 488.539915 106.503195 
L 488.825994 108.323245 
L 489.255113 113.206031 
L 491.257669 140.51935 
L 491.829827 147.607934 
L 492.688066 162.683504 
L 493.689343 180.441088 
L 494.261502 186.753778 
L 494.690621 189.278101 
L 495.11974 190.447281 
L 495.548859 190.904649 
L 495.834939 190.938575 
L 495.977978 190.8035 
L 496.264058 190.048968 
L 496.693177 187.677311 
L 497.694455 179.952935 
L 498.123574 175.359146 
L 498.981812 162.696697 
L 500.126129 145.601292 
L 500.841328 137.704146 
L 501.413487 133.981116 
L 501.842606 132.399803 
L 502.271725 131.63459 
L 502.557804 131.517106 
L 502.986923 131.699928 
L 503.273003 132.115204 
L 503.559082 132.994759 
L 503.988201 135.155322 
L 504.56036 139.362736 
L 505.275558 146.216981 
L 505.847717 154.1669 
L 506.705955 171.027966 
L 508.565471 206.570777 
L 508.99459 210.959756 
L 509.423709 213.240944 
L 509.709789 213.856633 
L 510.138908 214.13809 
L 510.854106 214.506875 
L 511.569305 214.921522 
L 511.712344 214.798384 
L 511.998424 213.789409 
L 512.284503 211.517017 
L 512.713622 206.134769 
L 513.7149 189.318309 
L 515.574416 158.072123 
L 516.003535 154.898815 
L 516.432654 153.383468 
L 516.718733 152.941178 
L 517.004813 152.777203 
L 517.433932 152.851966 
L 517.720011 153.049865 
L 518.006091 153.745342 
L 518.29217 155.435344 
L 518.721289 159.889032 
L 519.436488 170.547981 
L 522.011202 210.748663 
L 523.298559 222.246329 
L 523.870718 225.696069 
L 524.299837 227.134769 
L 524.728956 227.733495 
L 525.015035 227.776844 
L 525.301115 227.395495 
L 525.587194 226.475731 
L 526.016313 224.24229 
L 527.017591 218.611255 
L 527.44671 217.263023 
L 527.875829 216.365249 
L 528.161909 215.077957 
L 528.591028 211.195979 
L 530.021425 195.020337 
L 530.450544 193.053276 
L 530.736623 192.466487 
L 531.022702 192.269844 
L 531.451821 192.3289 
L 532.31006 192.578316 
L 532.596139 193.527607 
L 532.882218 195.624089 
L 533.454377 202.248393 
L 534.312615 211.660258 
L 535.743012 225.945486 
L 536.458211 235.538288 
L 537.888607 258.518542 
L 538.174687 260.718058 
L 538.317727 261.222545 
L 538.460766 261.275319 
L 538.603806 260.876378 
L 538.889885 258.864082 
L 539.462044 252.090253 
L 540.177243 244.431843 
L 540.749401 240.993412 
L 541.32156 237.449435 
L 541.893719 231.863633 
L 542.894997 221.512529 
L 543.324116 218.920984 
L 543.753235 217.493592 
L 544.039314 217.070149 
L 544.325394 216.923766 
L 545.612751 216.713301 
L 547.186187 215.785999 
L 547.472267 215.993951 
L 547.758346 216.671208 
L 548.187465 218.660887 
L 548.616584 221.664567 
L 549.188743 227.381673 
L 549.760902 234.730982 
L 551.763457 264.664118 
L 552.192576 267.299641 
L 552.478656 267.84685 
L 552.621696 267.826746 
L 552.907775 267.368121 
L 553.622973 265.266613 
L 554.195132 263.831682 
L 554.624251 262.991707 
L 554.910331 261.755304 
L 555.19641 259.438306 
L 555.625529 253.723712 
L 557.342005 226.595728 
L 558.057204 219.500862 
L 558.629362 216.051122 
L 559.058482 214.770113 
L 559.487601 214.24615 
L 559.91672 214.125525 
L 560.917998 214.160707 
L 561.204077 214.775767 
L 561.633196 216.866595 
L 562.205355 221.384365 
L 563.635752 236.062251 
L 564.35095 247.221917 
L 565.495268 265.820732 
L 566.067426 271.556686 
L 566.496545 274.048968 
L 566.925664 275.384635 
L 567.354784 275.94378 
L 567.640863 275.934356 
L 567.926942 275.441806 
L 568.213022 274.328541 
L 568.78518 270.734303 
L 569.786458 263.319027 
L 570.358617 255.827733 
L 571.932054 233.786089 
L 573.076371 222.502028 
L 573.64853 218.278909 
L 573.934609 217.465949 
L 574.077649 217.445845 
L 574.363728 218.067815 
L 574.935887 220.715904 
L 576.366284 228.203428 
L 576.795403 232.187812 
L 577.367562 240.333118 
L 578.940998 265.690684 
L 579.656197 275.26778 
L 580.657475 290.445755 
L 580.943554 291.736187 
L 581.086594 291.558392 
L 581.372673 289.847029 
L 584.090427 263.86121 
L 584.662586 253.181529 
L 585.663864 234.460833 
L 586.522102 224.046904 
L 587.094261 219.172285 
L 587.52338 217.07329 
L 587.952499 216.113319 
L 588.238578 215.885891 
L 588.667697 215.845055 
L 589.382896 215.99081 
L 589.668975 216.391007 
L 589.955055 217.25674 
L 590.384174 219.423586 
L 590.956332 224.120409 
L 591.671531 232.224251 
L 592.24369 241.830874 
L 594.532325 285.177221 
L 595.104483 293.766074 
L 595.390563 295.978155 
L 595.533602 296.285999 
L 595.676642 296.042237 
L 595.962721 294.103446 
L 596.53488 286.992246 
L 597.107039 280.308885 
L 597.536158 277.14877 
L 598.394396 271.826207 
L 598.823515 266.315796 
L 599.395674 254.791115 
L 600.539992 230.059289 
L 601.11215 221.509388 
L 601.541269 217.433908 
L 601.970388 215.157745 
L 602.399507 214.114216 
L 602.828627 213.6958 
L 603.114706 213.688889 
L 603.400785 214.134949 
L 603.686865 215.107485 
L 604.259023 218.129384 
L 604.831182 222.203608 
L 605.9755 232.826117 
L 606.547658 240.521594 
L 608.264135 266.611075 
L 609.265413 277.330336 
L 609.694532 281.709891 
L 609.980611 282.965141 
L 610.123651 283.056866 
L 610.26669 282.847658 
L 610.55277 281.752612 
L 612.412286 271.169682 
L 612.841405 265.962089 
L 613.413564 255.166182 
L 614.557881 231.917035 
L 615.27308 222.116281 
L 615.845238 217.551391 
L 616.274357 215.794166 
L 616.703476 215.046545 
L 617.132596 214.84299 
L 617.990834 214.562789 
L 619.278191 213.970346 
L 619.421231 214.079034 
L 619.70731 214.779537 
L 619.993389 216.313732 
L 620.422508 220.352773 
L 621.566826 234.917573 
L 623.855461 267.133782 
L 624.28458 269.996105 
L 624.570659 270.597972 
L 624.713699 270.524466 
L 624.999778 269.801346 
L 625.571937 267.237444 
L 626.001056 264.46182 
L 626.430175 259.770023 
L 627.145374 248.848465 
L 628.575771 226.531018 
L 629.290969 218.694812 
L 629.863128 215.156489 
L 630.292247 212.300449 
L 630.721366 207.64886 
L 631.579604 197.8613 
L 631.722644 197.330425 
L 631.865684 197.275767 
L 632.008723 197.674708 
L 632.294803 199.599677 
L 633.868239 213.665644 
L 634.297358 214.745611 
L 634.726477 215.649668 
L 635.155596 217.203339 
L 635.584715 219.590074 
L 636.156874 224.517465 
L 637.158152 235.596715 
L 638.15943 249.316514 
L 638.445509 250.485066 
L 638.588549 250.397738 
L 638.874628 249.159451 
L 640.161986 239.381314 
L 640.734144 234.472141 
L 641.592382 223.626602 
L 642.7367 209.000233 
L 644.596216 180.071046 
L 645.025335 177.164118 
L 645.454454 175.851696 
L 645.740533 175.597254 
L 646.026613 175.683953 
L 646.312692 176.059648 
L 646.598772 176.929779 
L 647.027891 179.416406 
L 648.029168 186.844875 
L 648.029168 186.844875 
" clip-path="url(#p0d275638a9)" style="fill: none; stroke: #1f77b4; stroke-opacity: 0.5; stroke-width: 1.5; stroke-linecap: square"/>
   </g>
   <g id="line2d_18">
    <path d="M 89.8883 214.868455 
L 92.319974 247.630839 
L 93.035173 253.658562 
L 93.464292 255.833223 
L 93.750371 256.617697 
L 94.036451 256.848155 
L 94.17949 256.752493 
L 94.46557 256.137937 
L 94.894689 254.17023 
L 95.323808 250.996367 
L 95.895967 245.056119 
L 96.754205 233.193503 
L 99.901078 185.027321 
L 100.473237 179.925984 
L 100.902356 177.452416 
L 101.331475 176.2178 
L 101.617554 176.096981 
L 101.903634 176.534877 
L 102.189713 177.518956 
L 102.618832 179.970713 
L 103.190991 184.886412 
L 103.906189 193.162499 
L 105.336586 213.239521 
L 106.480904 227.978332 
L 107.196102 234.584662 
L 107.768261 237.790589 
L 108.05434 238.607597 
L 108.34042 238.873015 
L 108.483459 238.795419 
L 108.769539 238.217506 
L 109.055618 237.079607 
L 109.484737 234.351494 
L 110.056896 228.937665 
L 110.772094 219.747239 
L 111.916412 201.437601 
L 113.632888 173.971798 
L 114.348087 165.449304 
L 114.920245 160.698955 
L 115.349364 158.517031 
L 115.635444 157.755793 
L 115.921523 157.557691 
L 116.207603 157.92002 
L 116.493682 158.831286 
L 116.922801 161.181171 
L 117.49496 165.979636 
L 118.210158 174.148031 
L 119.497515 192.123624 
L 120.784873 209.025051 
L 121.500071 215.766055 
L 122.07223 219.104852 
L 122.501349 220.233825 
L 122.644389 220.334451 
L 122.787428 220.294932 
L 123.073508 219.793799 
L 123.359587 218.732637 
L 123.788706 216.117287 
L 124.360865 210.844262 
L 125.076063 201.804602 
L 126.220381 183.653622 
L 127.936857 156.205858 
L 128.652055 147.623569 
L 129.224214 142.807214 
L 129.653333 140.569993 
L 129.939413 139.771019 
L 130.225492 139.535699 
L 130.368532 139.629238 
L 130.654611 140.233545 
L 131.08373 142.151274 
L 131.512849 145.203402 
L 132.085008 150.815567 
L 132.943246 161.705582 
L 135.374921 194.341912 
L 135.94708 199.297183 
L 136.376199 201.774978 
L 136.805318 203.071813 
L 137.091397 203.247689 
L 137.377477 202.862396 
L 137.663556 201.91709 
L 138.092675 199.473282 
L 138.664834 194.419587 
L 139.380032 185.62898 
L 140.38131 170.167127 
L 142.383866 138.692287 
L 143.099064 130.664334 
L 143.671223 126.362596 
L 144.100342 124.537268 
L 144.386421 124.01915 
L 144.529461 123.971978 
L 144.672501 124.06578 
L 144.95858 124.672135 
L 145.387699 126.598661 
L 145.816818 129.669373 
L 146.388977 135.326691 
L 147.247215 146.339671 
L 149.67889 179.746714 
L 150.394088 185.985047 
L 150.823207 188.292276 
L 151.109287 189.168106 
L 151.395366 189.492539 
L 151.538406 189.444912 
L 151.824485 188.928652 
L 152.110565 187.855738 
L 152.539684 185.234057 
L 153.111842 179.985005 
L 153.827041 171.049025 
L 154.971358 153.286859 
L 156.544795 128.877295 
L 157.259993 120.445165 
L 157.832152 115.709587 
L 158.261271 113.519459 
L 158.547351 112.749197 
L 158.83343 112.542865 
L 158.97647 112.651657 
L 159.262549 113.289289 
L 159.691668 115.267888 
L 160.120787 118.399794 
L 160.692946 124.158081 
L 161.551184 135.375779 
L 164.125899 171.315251 
L 164.841097 177.388493 
L 165.270216 179.558099 
L 165.556295 180.332462 
L 165.842375 180.551462 
L 165.985414 180.450678 
L 166.271494 179.829324 
L 166.700613 177.866702 
L 167.129732 174.72661 
L 167.701891 168.894758 
L 168.560129 157.374695 
L 171.420923 115.544874 
L 171.993081 110.44133 
L 172.422201 107.927058 
L 172.85132 106.636714 
L 173.137399 106.479015 
L 173.423478 106.886363 
L 173.709558 107.851418 
L 174.138677 110.307251 
L 174.710836 115.31392 
L 175.426034 123.886953 
L 176.570352 140.86846 
L 178.143788 163.745937 
L 178.858987 171.33407 
L 179.431145 175.354864 
L 179.860264 176.998747 
L 180.146344 177.40511 
L 180.289383 177.39819 
L 180.575463 176.964273 
L 180.861542 175.976855 
L 181.290661 173.494253 
L 181.86282 168.462029 
L 182.578018 159.868623 
L 183.722336 142.87014 
L 185.295773 119.9909 
L 186.010971 112.415632 
L 186.58313 108.416295 
L 187.012249 106.797413 
L 187.298328 106.412901 
L 187.441368 106.432495 
L 187.727447 106.895588 
L 188.013527 107.917717 
L 188.442646 110.463875 
L 189.014805 115.6048 
L 189.730003 124.377314 
L 190.87432 141.77341 
L 192.447757 165.432254 
L 193.162956 173.445527 
L 193.735114 177.827824 
L 194.164233 179.750485 
L 194.450313 180.344446 
L 194.593352 180.431456 
L 194.736392 180.378158 
L 195.022471 179.852976 
L 195.308551 178.779059 
L 195.73767 176.182753 
L 196.309829 171.044852 
L 197.025027 162.42303 
L 198.312384 143.516796 
L 199.599742 125.524781 
L 200.31494 118.122538 
L 200.887099 114.238478 
L 201.316218 112.697307 
L 201.602297 112.36231 
L 201.745337 112.406363 
L 202.031416 112.918429 
L 202.317496 113.990475 
L 202.746615 116.615509 
L 203.318773 121.874126 
L 204.033972 130.823433 
L 205.178289 148.593707 
L 206.751726 172.971693 
L 207.466924 181.379879 
L 208.039083 186.098806 
L 208.468202 188.281228 
L 208.754282 189.049948 
L 209.040361 189.258466 
L 209.183401 189.152397 
L 209.46948 188.523929 
L 209.898599 186.569726 
L 210.327718 183.477066 
L 210.899877 177.797873 
L 211.758115 166.764464 
L 214.18979 133.36114 
L 214.904988 127.145099 
L 215.334107 124.858256 
L 215.620187 123.999514 
L 215.906266 123.695314 
L 216.049306 123.754331 
L 216.335385 124.296115 
L 216.621465 125.398464 
L 217.050584 128.072293 
L 217.622742 133.407297 
L 218.337941 142.479952 
L 219.482258 160.535187 
L 221.198735 187.442518 
L 221.913933 195.680057 
L 222.486092 200.189945 
L 222.915211 202.188661 
L 223.20129 202.828129 
L 223.34433 202.937194 
L 223.48737 202.905871 
L 223.773449 202.425548 
L 224.059528 201.399603 
L 224.488648 198.885907 
L 225.060806 193.888802 
L 225.776005 185.512074 
L 227.206402 165.234888 
L 228.350719 150.33656 
L 229.065918 143.631835 
L 229.638076 140.348758 
L 229.924156 139.493928 
L 230.210235 139.191312 
L 230.353275 139.250574 
L 230.639354 139.792403 
L 230.925434 140.895081 
L 231.354553 143.572185 
L 231.926711 148.921875 
L 232.64191 158.039245 
L 233.786227 176.250647 
L 235.502704 203.614815 
L 236.217902 212.110207 
L 236.790061 216.844407 
L 237.21918 219.017015 
L 237.505259 219.773204 
L 237.791339 219.967079 
L 238.077418 219.601249 
L 238.363497 218.687117 
L 238.792617 216.333925 
L 239.364775 211.532468 
L 240.079974 203.361801 
L 241.367331 185.383954 
L 242.654688 168.481765 
L 243.369887 161.74194 
L 243.942045 158.405752 
L 244.371164 157.280138 
L 244.514204 157.18096 
L 244.657244 157.222109 
L 244.943323 157.727097 
L 245.229403 158.792987 
L 245.658522 161.417267 
L 246.23068 166.706094 
L 246.945879 175.772654 
L 248.090196 193.985357 
L 249.806673 221.571451 
L 250.521871 230.226616 
L 251.09403 235.106788 
L 251.523149 237.394653 
L 251.809228 238.228544 
L 252.095308 238.499591 
L 252.238347 238.42419 
L 252.524427 237.856649 
L 252.810506 236.746625 
L 253.239625 234.117482 
L 253.811784 228.996962 
L 254.670022 218.638162 
L 257.387776 183.00981 
L 257.959935 178.583833 
L 258.389054 176.551292 
L 258.675133 175.863334 
L 258.961213 175.729484 
L 259.247292 176.157506 
L 259.533371 177.146338 
L 259.962491 179.657127 
L 260.534649 184.803744 
L 261.249848 193.717188 
L 262.251126 209.365158 
L 264.253681 241.265029 
L 264.96888 249.460636 
L 265.541038 253.901436 
L 265.970158 255.833485 
L 266.256237 256.423729 
L 266.399277 256.507221 
L 266.542316 256.449894 
L 266.828396 255.916906 
L 267.114475 254.838451 
L 267.543594 252.248902 
L 268.115753 247.161916 
L 268.830951 238.701579 
L 270.404388 216.359072 
L 271.405666 203.595659 
L 272.120864 197.003552 
L 272.693023 193.825372 
L 272.979102 193.024875 
L 273.265182 192.776234 
L 273.408221 192.861957 
L 273.694301 193.454866 
L 273.98038 194.605114 
L 274.409499 197.344276 
L 274.981658 202.75317 
L 275.696856 211.89493 
L 276.841174 230.002126 
L 278.414611 254.919539 
L 279.272849 265.010619 
L 279.845007 269.443722 
L 280.274126 271.375411 
L 280.560206 271.966093 
L 280.703246 272.049614 
L 280.846285 271.992018 
L 281.132365 271.457066 
L 281.418444 270.373893 
L 281.847563 267.769936 
L 282.419722 262.645237 
L 283.13492 254.099226 
L 284.565317 233.457192 
L 285.709635 218.243292 
L 286.424833 211.328522 
L 286.996992 207.868474 
L 287.426111 206.653563 
L 287.71219 206.535445 
L 287.99827 206.978436 
L 288.284349 207.979161 
L 288.713468 210.49704 
L 289.285627 215.621653 
L 290.000825 224.435184 
L 291.145143 242.103751 
L 292.861619 268.517798 
L 293.576818 276.571732 
L 294.148976 280.935717 
L 294.578095 282.821751 
L 294.864175 283.383049 
L 295.007215 283.451806 
L 295.150254 283.379219 
L 295.436334 282.813093 
L 295.722413 281.696296 
L 296.151532 279.03513 
L 296.723691 273.816668 
L 297.438889 265.11645 
L 298.869286 244.012406 
L 300.013604 228.274902 
L 300.728802 220.974202 
L 301.300961 217.18213 
L 301.73008 215.709479 
L 302.016159 215.417284 
L 302.159199 215.481325 
L 302.445278 216.029614 
L 302.731358 217.131651 
L 303.160477 219.786833 
L 303.732636 225.050808 
L 304.447834 233.937341 
L 305.592152 251.414591 
L 307.165588 274.973021 
L 307.880787 282.863835 
L 308.452945 287.117701 
L 308.882064 288.928241 
L 309.168144 289.440709 
L 309.311183 289.48511 
L 309.454223 289.388034 
L 309.740303 288.772004 
L 310.169422 286.817202 
L 310.598541 283.692574 
L 311.170699 277.907281 
L 312.028938 266.545222 
L 314.746692 227.713903 
L 315.31885 222.607067 
L 315.74797 220.061016 
L 316.177089 218.719527 
L 316.463168 218.519692 
L 316.749247 218.880416 
L 317.035327 219.796021 
L 317.464446 222.175928 
L 318.036605 227.086133 
L 318.751803 235.56139 
L 319.896121 252.475013 
L 321.469557 275.469774 
L 322.184756 283.175124 
L 322.756914 287.302621 
L 323.186033 289.026471 
L 323.472113 289.483125 
L 323.615152 289.499824 
L 323.901232 289.109048 
L 324.187311 288.157925 
L 324.61643 285.713372 
L 325.188589 280.693228 
L 325.903787 272.037601 
L 327.048105 254.724763 
L 328.621542 230.948193 
L 329.33674 222.803514 
L 329.908899 218.291757 
L 330.338018 216.262992 
L 330.624097 215.596051 
L 330.910177 215.488888 
L 331.196256 215.941295 
L 331.482335 216.944247 
L 331.911454 219.439912 
L 332.483613 224.459864 
L 333.198812 232.970404 
L 334.486169 251.806448 
L 335.773526 269.908472 
L 336.488725 277.439012 
L 337.060883 281.450301 
L 337.490002 283.096074 
L 337.776082 283.503137 
L 337.919121 283.495391 
L 338.205201 283.055772 
L 338.49128 282.054997 
L 338.920399 279.532215 
L 339.492558 274.395668 
L 340.207756 265.565438 
L 341.352074 247.882768 
L 343.06855 221.496039 
L 343.783749 213.462736 
L 344.355907 209.111758 
L 344.785027 207.230029 
L 345.071106 206.667671 
L 345.214146 206.596931 
L 345.357185 206.66644 
L 345.643265 207.222765 
L 345.929344 208.324292 
L 346.358463 210.950763 
L 346.930622 216.097535 
L 347.64582 224.660987 
L 349.076217 245.312937 
L 350.220535 260.512707 
L 350.935733 267.405499 
L 351.507892 270.837978 
L 351.937011 272.024966 
L 352.22309 272.120461 
L 352.50917 271.651283 
L 352.795249 270.620499 
L 353.224368 268.04961 
L 353.796527 262.838025 
L 354.511725 253.886718 
L 355.656043 235.923583 
L 357.372519 208.888685 
L 358.087718 200.516079 
L 358.659876 195.874904 
L 359.088995 193.769451 
L 359.375075 193.056952 
L 359.661154 192.906011 
L 359.947234 193.314111 
L 360.233313 194.269941 
L 360.662432 196.684797 
L 361.234591 201.567257 
L 361.949789 209.838012 
L 363.237146 227.994949 
L 364.524504 245.075602 
L 365.239702 251.913294 
L 365.811861 255.326251 
L 366.24098 256.508113 
L 366.527059 256.602837 
L 366.813139 256.133789 
L 367.099218 255.102988 
L 367.528337 252.52954 
L 368.100496 247.304656 
L 368.815694 238.310958 
L 369.960012 220.196258 
L 371.676488 192.711448 
L 372.391687 184.083173 
L 372.963845 179.218937 
L 373.392964 176.940198 
L 373.679044 176.111213 
L 373.965123 175.844239 
L 374.108163 175.921394 
L 374.394242 176.491934 
L 374.823361 178.356866 
L 375.25248 181.354147 
L 375.824639 186.890929 
L 376.682877 197.665131 
L 379.114552 229.966918 
L 379.686711 234.840435 
L 380.11583 237.254972 
L 380.544949 238.486261 
L 380.831028 238.616873 
L 381.117108 238.184846 
L 381.403187 237.191148 
L 381.832306 234.671246 
L 382.404465 229.508622 
L 383.119663 220.568078 
L 384.120941 204.867213 
L 386.123497 172.805648 
L 386.838695 164.535341 
L 387.410854 160.029397 
L 387.839973 158.045795 
L 388.126052 157.420075 
L 388.269092 157.318548 
L 388.412132 157.357657 
L 388.698211 157.853713 
L 388.984291 158.894649 
L 389.41341 161.427018 
L 389.985568 166.436523 
L 390.700767 174.798816 
L 392.274203 196.924241 
L 393.275481 209.548951 
L 393.99068 216.040793 
L 394.562838 219.137261 
L 394.848918 219.896181 
L 395.134997 220.102645 
L 395.278037 219.99558 
L 395.564116 219.359422 
L 395.993235 217.362378 
L 396.422354 214.162934 
L 396.994513 208.194569 
L 397.852751 196.302962 
L 400.999625 148.16953 
L 401.571783 143.09725 
L 402.000902 140.64991 
L 402.430021 139.445226 
L 402.716101 139.346372 
L 403.00218 139.807812 
L 403.28826 140.816985 
L 403.717379 143.309231 
L 404.289537 148.284103 
L 405.004736 156.642252 
L 406.435133 176.909533 
L 407.57945 191.825359 
L 408.294649 198.553738 
L 408.866807 201.863835 
L 409.152887 202.735163 
L 409.438966 203.056421 
L 409.582006 203.007322 
L 409.868085 202.487575 
L 410.154165 201.409422 
L 410.583284 198.773945 
L 411.155442 193.489375 
L 411.870641 184.469977 
L 413.014958 166.456328 
L 414.731435 139.486379 
L 415.446633 131.188427 
L 416.018792 126.624981 
L 416.447911 124.587331 
L 416.73399 123.92417 
L 417.02007 123.825625 
L 417.306149 124.288961 
L 417.592229 125.302652 
L 418.021348 127.808768 
L 418.593506 132.820233 
L 419.308705 141.26214 
L 420.596062 159.749514 
L 421.883419 177.187109 
L 422.598618 184.236621 
L 423.170776 187.827861 
L 423.599895 189.149549 
L 423.885975 189.34078 
L 424.172054 188.971115 
L 424.458134 188.042784 
L 424.887253 185.629282 
L 425.459411 180.630345 
L 426.17461 171.941447 
L 427.318927 154.370923 
L 429.035404 127.838201 
L 429.750602 119.652335 
L 430.322761 115.159168 
L 430.75188 113.167708 
L 431.037959 112.534118 
L 431.180999 112.42904 
L 431.324039 112.465379 
L 431.610118 112.959803 
L 431.896197 114.006898 
L 432.325317 116.569654 
L 432.897475 121.673719 
L 433.612674 130.267849 
L 434.900031 149.156813 
L 436.187388 167.169933 
L 436.902587 174.603718 
L 437.474745 178.526153 
L 437.903864 180.105289 
L 438.189944 180.470568 
L 438.332984 180.443272 
L 438.619063 179.96816 
L 438.905142 178.937934 
L 439.334261 176.385465 
L 439.90642 171.243577 
L 440.621619 162.475335 
L 441.765936 145.083254 
L 443.339373 121.40975 
L 444.054571 113.389007 
L 444.62673 109.007063 
L 445.055849 107.091589 
L 445.341928 106.50699 
L 445.484968 106.426295 
L 445.628008 106.487117 
L 445.914087 107.031332 
L 446.200166 108.130177 
L 446.629286 110.776427 
L 447.201444 116.007695 
L 447.916643 124.79547 
L 449.204 144.156034 
L 450.491357 162.809958 
L 451.206556 170.662703 
L 451.778714 174.943417 
L 452.207833 176.799963 
L 452.493913 177.352439 
L 452.636952 177.419027 
L 452.779992 177.345313 
L 453.066072 176.778703 
L 453.352151 175.661546 
L 453.78127 172.994381 
L 454.353429 167.744985 
L 455.068627 158.945615 
L 456.355984 139.581838 
L 457.643342 120.941279 
L 458.35854 113.107912 
L 458.930699 108.85337 
L 459.359818 107.025028 
L 459.645897 106.496369 
L 459.788937 106.443389 
L 459.931977 106.531928 
L 460.218056 107.132109 
L 460.647175 109.070251 
L 461.076294 112.193013 
L 461.648453 118.010037 
L 462.506691 129.518964 
L 465.367485 171.352674 
L 465.939644 176.470926 
L 466.368763 179.00342 
L 466.797882 180.320063 
L 467.083961 180.500681 
L 467.370041 180.121201 
L 467.65612 179.189511 
L 468.085239 176.795197 
L 468.657398 171.894586 
L 469.372596 163.497665 
L 470.516914 146.910016 
L 471.947311 126.529882 
L 472.662509 118.873138 
L 473.234668 114.735768 
L 473.663787 112.985894 
L 473.949866 112.506919 
L 474.092906 112.478378 
L 474.378985 112.845482 
L 474.665065 113.774768 
L 475.094184 116.194706 
L 475.666343 121.207925 
L 476.381541 129.916873 
L 477.525858 147.50748 
L 479.242335 174.021856 
L 479.957533 182.190332 
L 480.529692 186.672729 
L 480.958811 188.661326 
L 481.24489 189.296817 
L 481.38793 189.404265 
L 481.53097 189.371364 
L 481.817049 188.887391 
L 482.103129 187.856122 
L 482.532248 185.328726 
L 483.104406 180.29695 
L 483.819605 171.839963 
L 485.250002 151.243122 
L 486.394319 135.92808 
L 487.109518 128.902797 
L 487.681676 125.340775 
L 488.110795 124.048149 
L 488.396875 123.880251 
L 488.682954 124.276772 
L 488.969034 125.235791 
L 489.398153 127.703171 
L 489.970311 132.790109 
L 490.68551 141.617893 
L 491.686788 157.109648 
L 493.689343 188.537629 
L 494.404542 196.523297 
L 494.976701 200.789902 
L 495.40582 202.591714 
L 495.691899 203.096898 
L 495.834939 203.138712 
L 495.977978 203.040421 
L 496.264058 202.428069 
L 496.693177 200.501406 
L 497.122296 197.443319 
L 497.694455 191.826454 
L 498.552693 180.93324 
L 500.984368 148.296317 
L 501.556526 143.345331 
L 501.985645 140.873658 
L 502.414764 139.586377 
L 502.700844 139.419229 
L 502.986923 139.815462 
L 503.273003 140.774204 
L 503.702122 143.243451 
L 504.27428 148.342331 
L 504.989479 157.210211 
L 505.990757 172.82421 
L 507.993312 204.76793 
L 508.708511 213.013193 
L 509.28067 217.50455 
L 509.709789 219.479952 
L 509.995868 220.101342 
L 510.138908 220.201008 
L 510.281947 220.160227 
L 510.568027 219.661343 
L 510.854106 218.618191 
L 511.283225 216.083453 
L 511.855384 211.07214 
L 512.570582 202.708969 
L 514.144019 180.583867 
L 515.145297 167.960638 
L 515.860495 161.471436 
L 516.289614 158.959145 
L 516.718733 157.62265 
L 517.004813 157.419588 
L 517.147852 157.528631 
L 517.433932 158.169357 
L 517.863051 160.17496 
L 518.29217 163.385284 
L 518.864329 169.372265 
L 519.722567 181.301786 
L 522.86944 229.689183 
L 523.441599 234.825688 
L 523.870718 237.324036 
L 524.299837 238.581822 
L 524.585916 238.717082 
L 524.871996 238.292739 
L 525.158075 237.321262 
L 525.587194 234.886482 
L 526.159353 229.989507 
L 526.874551 221.729965 
L 528.304948 201.661209 
L 529.449266 186.904763 
L 530.164464 180.277166 
L 530.736623 177.049146 
L 531.022702 176.219561 
L 531.308782 175.940633 
L 531.451821 176.011146 
L 531.737901 176.574275 
L 532.02398 177.696628 
L 532.453099 180.400134 
L 533.025258 185.779088 
L 533.740456 194.923239 
L 534.884774 213.154215 
L 536.60125 240.493288 
L 537.316449 248.959222 
L 537.888607 253.662078 
L 538.317727 255.806769 
L 538.603806 256.542296 
L 538.889885 256.713902 
L 539.175965 256.324221 
L 539.462044 255.384685 
L 539.891163 252.990533 
L 540.463322 248.129264 
L 541.17852 239.875725 
L 542.465878 221.726722 
L 543.753235 204.625487 
L 544.468433 197.762822 
L 545.040592 194.321848 
L 545.469711 193.113733 
L 545.75579 192.998797 
L 546.04187 193.445326 
L 546.327949 194.45118 
L 546.757068 196.982399 
L 547.329227 202.14141 
L 548.044425 211.036265 
L 549.188743 228.951927 
L 550.905219 256.040607 
L 551.620418 264.470571 
L 552.192576 269.163302 
L 552.621696 271.306485 
L 552.907775 272.042021 
L 553.193854 272.213232 
L 553.479934 271.821706 
L 553.766013 270.877836 
L 554.195132 268.470328 
L 554.767291 263.573558 
L 555.482489 255.238155 
L 556.769847 236.811264 
L 558.057204 219.254222 
L 558.772402 212.071988 
L 559.344561 208.350626 
L 559.77368 206.9226 
L 560.059759 206.658368 
L 560.202799 206.736312 
L 560.488878 207.313028 
L 560.774958 208.44534 
L 561.204077 211.152035 
L 561.776236 216.502038 
L 562.491434 225.535221 
L 563.635752 243.364181 
L 565.209188 267.665939 
L 565.924387 275.981703 
L 566.496545 280.602963 
L 566.925664 282.699394 
L 567.211744 283.405156 
L 567.497823 283.546492 
L 567.783903 283.123946 
L 568.069982 282.146875 
L 568.499101 279.683273 
L 569.07126 274.695039 
L 569.786458 266.209371 
L 571.073815 247.38525 
L 572.361173 229.256838 
L 573.076371 221.692019 
L 573.64853 217.640324 
L 574.077649 215.955169 
L 574.363728 215.516933 
L 574.506768 215.507493 
L 574.792847 215.909334 
L 575.078927 216.867508 
L 575.508046 219.316634 
L 576.080205 224.335136 
L 576.795403 232.982844 
L 577.939721 250.285267 
L 579.513157 274.067722 
L 580.228356 282.216327 
L 580.800514 286.725229 
L 581.229633 288.745157 
L 581.515713 289.40175 
L 581.801792 289.49418 
L 582.087872 289.02194 
L 582.373951 287.993351 
L 582.80307 285.446844 
L 583.375229 280.332607 
L 584.090427 271.655342 
L 585.377784 252.364171 
L 586.808181 231.814248 
L 587.52338 224.334644 
L 588.095539 220.42071 
L 588.524658 218.864134 
L 588.810737 218.517614 
L 588.953777 218.55458 
L 589.239856 219.048226 
L 589.525935 220.09407 
L 589.955055 222.659784 
L 590.527213 227.789665 
L 591.242412 236.475145 
L 592.529769 255.763006 
L 593.960166 276.289484 
L 594.675364 283.743952 
L 595.247523 287.626406 
L 595.676642 289.150326 
L 595.962721 289.469824 
L 596.105761 289.417576 
L 596.391841 288.8895 
L 596.67792 287.803634 
L 597.107039 285.166301 
L 597.679198 279.916802 
L 598.394396 271.03835 
L 599.538714 253.562599 
L 601.11215 229.993657 
L 601.827349 222.087597 
L 602.399507 217.811561 
L 602.828627 215.976059 
L 603.114706 215.441994 
L 603.257746 215.385102 
L 603.400785 215.468468 
L 603.686865 216.053146 
L 604.115984 217.950073 
L 604.545103 221.002256 
L 605.117262 226.665512 
L 605.9755 237.783633 
L 608.550214 273.853359 
L 609.265413 280.054082 
L 609.694532 282.305709 
L 609.980611 283.133938 
L 610.26669 283.404288 
L 610.40973 283.327724 
L 610.695809 282.750875 
L 610.981889 281.615183 
L 611.411008 278.89891 
L 611.983167 273.531291 
L 612.698365 264.475056 
L 613.842683 246.622919 
L 615.416119 222.332 
L 616.131318 214.030364 
L 616.703476 209.417614 
L 617.132596 207.322586 
L 617.418675 206.614068 
L 617.704754 206.466165 
L 617.990834 206.877598 
L 618.276913 207.838276 
L 618.706032 210.265838 
L 619.278191 215.181163 
L 619.993389 223.529295 
L 621.280747 241.957472 
L 622.568104 259.491263 
L 623.283302 266.64701 
L 623.855461 270.337493 
L 624.28458 271.73531 
L 624.570659 271.975495 
L 624.713699 271.88424 
L 624.999778 271.278138 
L 625.428898 269.323868 
L 625.858017 266.166926 
L 626.430175 260.259352 
L 627.288413 248.478543 
L 630.435287 201.065719 
L 631.007445 196.165197 
L 631.436564 193.8476 
L 631.722644 192.989378 
L 632.008723 192.691932 
L 632.151763 192.753775 
L 632.437842 193.294311 
L 632.723922 194.378562 
L 633.153041 196.974104 
L 633.7252 202.065334 
L 634.440398 210.52731 
L 636.013835 232.868563 
L 637.015112 245.628708 
L 637.730311 252.214387 
L 638.30247 255.382562 
L 638.588549 256.175754 
L 638.874628 256.415194 
L 639.017668 256.324072 
L 639.303747 255.718592 
L 639.589827 254.553174 
L 640.018946 251.785783 
L 640.591105 246.327656 
L 641.306303 237.103114 
L 642.450621 218.808109 
L 644.167097 191.547223 
L 644.882295 183.165383 
L 645.454454 178.542052 
L 645.883573 176.459743 
L 646.169653 175.765383 
L 646.455732 175.633499 
L 646.741811 176.060499 
L 647.027891 177.034011 
L 647.45701 179.470866 
L 648.029168 184.369221 
L 648.029168 184.369221 
" clip-path="url(#p0d275638a9)" style="fill: none; stroke-dasharray: 7.4,3.2; stroke-dashoffset: 0; stroke: #ff7f0e; stroke-width: 2"/>
   </g>
   <g id="patch_3">
    <path d="M 90 320.4 
L 90 43.2 
" style="fill: none; stroke: #000000; stroke-width: 0.8; stroke-linejoin: miter; stroke-linecap: square"/>
   </g>
   <g id="patch_4">
    <path d="M 648 320.4 
L 648 43.2 
" style="fill: none; stroke: #000000; stroke-width: 0.8; stroke-linejoin: miter; stroke-linecap: square"/>
   </g>
   <g id="patch_5">
    <path d="M 90 320.4 
L 648 320.4 
" style="fill: none; stroke: #000000; stroke-width: 0.8; stroke-linejoin: miter; stroke-linecap: square"/>
   </g>
   <g id="patch_6">
    <path d="M 90 43.2 
L 648 43.2 
" style="fill: none; stroke: #000000; stroke-width: 0.8; stroke-linejoin: miter; stroke-linecap: square"/>
   </g>
   <g id="text_17">
    <!-- The original signal and two overlaid sines -->
    <g transform="translate(244.393125 37.2) scale(0.12 -0.12)">
     <defs>
      <path id="DejaVuSans-54" d="M -19 4666 
L 3928 4666 
L 3928 4134 
L 2272 4134 
L 2272 0 
L 1638 0 
L 1638 4134 
L -19 4134 
L -19 4666 
z
" transform="scale(0.015625)"/>
      <path id="DejaVuSans-68" d="M 3513 2113 
L 3513 0 
L 2938 0 
L 2938 2094 
Q 2938 2591 2744 2837 
Q 2550 3084 2163 3084 
Q 1697 3084 1428 2787 
Q 1159 2491 1159 1978 
L 1159 0 
L 581 0 
L 581 4863 
L 1159 4863 
L 1159 2956 
Q 1366 3272 1645 3428 
Q 1925 3584 2291 3584 
Q 2894 3584 3203 3211 
Q 3513 2838 3513 2113 
z
" transform="scale(0.015625)"/>
      <path id="DejaVuSans-65" d="M 3597 1894 
L 3597 1613 
L 953 1613 
Q 991 1019 1311 708 
Q 1631 397 2203 397 
Q 2534 397 2845 478 
Q 3156 559 3463 722 
L 3463 178 
Q 3153 47 2828 -22 
Q 2503 -91 2169 -91 
Q 1331 -91 842 396 
Q 353 884 353 1716 
Q 353 2575 817 3079 
Q 1281 3584 2069 3584 
Q 2775 3584 3186 3129 
Q 3597 2675 3597 1894 
z
M 3022 2063 
Q 3016 2534 2758 2815 
Q 2500 3097 2075 3097 
Q 1594 3097 1305 2825 
Q 1016 2553 972 2059 
L 3022 2063 
z
" transform="scale(0.015625)"/>
      <path id="DejaVuSans-20" transform="scale(0.015625)"/>
      <path id="DejaVuSans-6f" d="M 1959 3097 
Q 1497 3097 1228 2736 
Q 959 2375 959 1747 
Q 959 1119 1226 758 
Q 1494 397 1959 397 
Q 2419 397 2687 759 
Q 2956 1122 2956 1747 
Q 2956 2369 2687 2733 
Q 2419 3097 1959 3097 
z
M 1959 3584 
Q 2709 3584 3137 3096 
Q 3566 2609 3566 1747 
Q 3566 888 3137 398 
Q 2709 -91 1959 -91 
Q 1206 -91 779 398 
Q 353 888 353 1747 
Q 353 2609 779 3096 
Q 1206 3584 1959 3584 
z
" transform="scale(0.015625)"/>
      <path id="DejaVuSans-72" d="M 2631 2963 
Q 2534 3019 2420 3045 
Q 2306 3072 2169 3072 
Q 1681 3072 1420 2755 
Q 1159 2438 1159 1844 
L 1159 0 
L 581 0 
L 581 3500 
L 1159 3500 
L 1159 2956 
Q 1341 3275 1631 3429 
Q 1922 3584 2338 3584 
Q 2397 3584 2469 3576 
Q 2541 3569 2628 3553 
L 2631 2963 
z
" transform="scale(0.015625)"/>
      <path id="DejaVuSans-69" d="M 603 3500 
L 1178 3500 
L 1178 0 
L 603 0 
L 603 3500 
z
M 603 4863 
L 1178 4863 
L 1178 4134 
L 603 4134 
L 603 4863 
z
" transform="scale(0.015625)"/>
      <path id="DejaVuSans-67" d="M 2906 1791 
Q 2906 2416 2648 2759 
Q 2391 3103 1925 3103 
Q 1463 3103 1205 2759 
Q 947 2416 947 1791 
Q 947 1169 1205 825 
Q 1463 481 1925 481 
Q 2391 481 2648 825 
Q 2906 1169 2906 1791 
z
M 3481 434 
Q 3481 -459 3084 -895 
Q 2688 -1331 1869 -1331 
Q 1566 -1331 1297 -1286 
Q 1028 -1241 775 -1147 
L 775 -588 
Q 1028 -725 1275 -790 
Q 1522 -856 1778 -856 
Q 2344 -856 2625 -561 
Q 2906 -266 2906 331 
L 2906 616 
Q 2728 306 2450 153 
Q 2172 0 1784 0 
Q 1141 0 747 490 
Q 353 981 353 1791 
Q 353 2603 747 3093 
Q 1141 3584 1784 3584 
Q 2172 3584 2450 3431 
Q 2728 3278 2906 2969 
L 2906 3500 
L 3481 3500 
L 3481 434 
z
" transform="scale(0.015625)"/>
      <path id="DejaVuSans-6e" d="M 3513 2113 
L 3513 0 
L 2938 0 
L 2938 2094 
Q 2938 2591 2744 2837 
Q 2550 3084 2163 3084 
Q 1697 3084 1428 2787 
Q 1159 2491 1159 1978 
L 1159 0 
L 581 0 
L 581 3500 
L 1159 3500 
L 1159 2956 
Q 1366 3272 1645 3428 
Q 1925 3584 2291 3584 
Q 2894 3584 3203 3211 
Q 3513 2838 3513 2113 
z
" transform="scale(0.015625)"/>
      <path id="DejaVuSans-61" d="M 2194 1759 
Q 1497 1759 1228 1600 
Q 959 1441 959 1056 
Q 959 750 1161 570 
Q 1363 391 1709 391 
Q 2188 391 2477 730 
Q 2766 1069 2766 1631 
L 2766 1759 
L 2194 1759 
z
M 3341 1997 
L 3341 0 
L 2766 0 
L 2766 531 
Q 2569 213 2275 61 
Q 1981 -91 1556 -91 
Q 1019 -91 701 211 
Q 384 513 384 1019 
Q 384 1609 779 1909 
Q 1175 2209 1959 2209 
L 2766 2209 
L 2766 2266 
Q 2766 2663 2505 2880 
Q 2244 3097 1772 3097 
Q 1472 3097 1187 3025 
Q 903 2953 641 2809 
L 641 3341 
Q 956 3463 1253 3523 
Q 1550 3584 1831 3584 
Q 2591 3584 2966 3190 
Q 3341 2797 3341 1997 
z
" transform="scale(0.015625)"/>
      <path id="DejaVuSans-6c" d="M 603 4863 
L 1178 4863 
L 1178 0 
L 603 0 
L 603 4863 
z
" transform="scale(0.015625)"/>
      <path id="DejaVuSans-73" d="M 2834 3397 
L 2834 2853 
Q 2591 2978 2328 3040 
Q 2066 3103 1784 3103 
Q 1356 3103 1142 2972 
Q 928 2841 928 2578 
Q 928 2378 1081 2264 
Q 1234 2150 1697 2047 
L 1894 2003 
Q 2506 1872 2764 1633 
Q 3022 1394 3022 966 
Q 3022 478 2636 193 
Q 2250 -91 1575 -91 
Q 1294 -91 989 -36 
Q 684 19 347 128 
L 347 722 
Q 666 556 975 473 
Q 1284 391 1588 391 
Q 1994 391 2212 530 
Q 2431 669 2431 922 
Q 2431 1156 2273 1281 
Q 2116 1406 1581 1522 
L 1381 1569 
Q 847 1681 609 1914 
Q 372 2147 372 2553 
Q 372 3047 722 3315 
Q 1072 3584 1716 3584 
Q 2034 3584 2315 3537 
Q 2597 3491 2834 3397 
z
" transform="scale(0.015625)"/>
      <path id="DejaVuSans-64" d="M 2906 2969 
L 2906 4863 
L 3481 4863 
L 3481 0 
L 2906 0 
L 2906 525 
Q 2725 213 2448 61 
Q 2172 -91 1784 -91 
Q 1150 -91 751 415 
Q 353 922 353 1747 
Q 353 2572 751 3078 
Q 1150 3584 1784 3584 
Q 2172 3584 2448 3432 
Q 2725 3281 2906 2969 
z
M 947 1747 
Q 947 1113 1208 752 
Q 1469 391 1925 391 
Q 2381 391 2643 752 
Q 2906 1113 2906 1747 
Q 2906 2381 2643 2742 
Q 2381 3103 1925 3103 
Q 1469 3103 1208 2742 
Q 947 2381 947 1747 
z
" transform="scale(0.015625)"/>
      <path id="DejaVuSans-74" d="M 1172 4494 
L 1172 3500 
L 2356 3500 
L 2356 3053 
L 1172 3053 
L 1172 1153 
Q 1172 725 1289 603 
Q 1406 481 1766 481 
L 2356 481 
L 2356 0 
L 1766 0 
Q 1100 0 847 248 
Q 594 497 594 1153 
L 594 3053 
L 172 3053 
L 172 3500 
L 594 3500 
L 594 4494 
L 1172 4494 
z
" transform="scale(0.015625)"/>
      <path id="DejaVuSans-77" d="M 269 3500 
L 844 3500 
L 1563 769 
L 2278 3500 
L 2956 3500 
L 3675 769 
L 4391 3500 
L 4966 3500 
L 4050 0 
L 3372 0 
L 2619 2869 
L 1863 0 
L 1184 0 
L 269 3500 
z
" transform="scale(0.015625)"/>
      <path id="DejaVuSans-76" d="M 191 3500 
L 800 3500 
L 1894 563 
L 2988 3500 
L 3597 3500 
L 2284 0 
L 1503 0 
L 191 3500 
z
" transform="scale(0.015625)"/>
     </defs>
     <use xlink:href="#DejaVuSans-54"/>
     <use xlink:href="#DejaVuSans-68" x="61.083984"/>
     <use xlink:href="#DejaVuSans-65" x="124.462891"/>
     <use xlink:href="#DejaVuSans-20" x="185.986328"/>
     <use xlink:href="#DejaVuSans-6f" x="217.773438"/>
     <use xlink:href="#DejaVuSans-72" x="278.955078"/>
     <use xlink:href="#DejaVuSans-69" x="320.068359"/>
     <use xlink:href="#DejaVuSans-67" x="347.851562"/>
     <use xlink:href="#DejaVuSans-69" x="411.328125"/>
     <use xlink:href="#DejaVuSans-6e" x="439.111328"/>
     <use xlink:href="#DejaVuSans-61" x="502.490234"/>
     <use xlink:href="#DejaVuSans-6c" x="563.769531"/>
     <use xlink:href="#DejaVuSans-20" x="591.552734"/>
     <use xlink:href="#DejaVuSans-73" x="623.339844"/>
     <use xlink:href="#DejaVuSans-69" x="675.439453"/>
     <use xlink:href="#DejaVuSans-67" x="703.222656"/>
     <use xlink:href="#DejaVuSans-6e" x="766.699219"/>
     <use xlink:href="#DejaVuSans-61" x="830.078125"/>
     <use xlink:href="#DejaVuSans-6c" x="891.357422"/>
     <use xlink:href="#DejaVuSans-20" x="919.140625"/>
     <use xlink:href="#DejaVuSans-61" x="950.927734"/>
     <use xlink:href="#DejaVuSans-6e" x="1012.207031"/>
     <use xlink:href="#DejaVuSans-64" x="1075.585938"/>
     <use xlink:href="#DejaVuSans-20" x="1139.0625"/>
     <use xlink:href="#DejaVuSans-74" x="1170.849609"/>
     <use xlink:href="#DejaVuSans-77" x="1210.058594"/>
     <use xlink:href="#DejaVuSans-6f" x="1291.845703"/>
     <use xlink:href="#DejaVuSans-20" x="1353.027344"/>
     <use xlink:href="#DejaVuSans-6f" x="1384.814453"/>
     <use xlink:href="#DejaVuSans-76" x="1445.996094"/>
     <use xlink:href="#DejaVuSans-65" x="1505.175781"/>
     <use xlink:href="#DejaVuSans-72" x="1566.699219"/>
     <use xlink:href="#DejaVuSans-6c" x="1607.8125"/>
     <use xlink:href="#DejaVuSans-61" x="1635.595703"/>
     <use xlink:href="#DejaVuSans-69" x="1696.875"/>
     <use xlink:href="#DejaVuSans-64" x="1724.658203"/>
     <use xlink:href="#DejaVuSans-20" x="1788.134766"/>
     <use xlink:href="#DejaVuSans-73" x="1819.921875"/>
     <use xlink:href="#DejaVuSans-69" x="1872.021484"/>
     <use xlink:href="#DejaVuSans-6e" x="1899.804688"/>
     <use xlink:href="#DejaVuSans-65" x="1963.183594"/>
     <use xlink:href="#DejaVuSans-73" x="2024.707031"/>
    </g>
   </g>
   <g id="legend_1">
    <g id="patch_7">
     <path d="M 535.971875 80.55625 
L 641 80.55625 
Q 643 80.55625 643 78.55625 
L 643 50.2 
Q 643 48.2 641 48.2 
L 535.971875 48.2 
Q 533.971875 48.2 533.971875 50.2 
L 533.971875 78.55625 
Q 533.971875 80.55625 535.971875 80.55625 
z
" style="fill: #ffffff; opacity: 0.8; stroke: #cccccc; stroke-linejoin: miter"/>
    </g>
    <g id="line2d_19">
     <path d="M 537.971875 56.298437 
L 547.971875 56.298437 
L 557.971875 56.298437 
" style="fill: none; stroke: #1f77b4; stroke-opacity: 0.5; stroke-width: 1.5; stroke-linecap: square"/>
    </g>
    <g id="text_18">
     <!-- Original Signal -->
     <g transform="translate(565.971875 59.798437) scale(0.1 -0.1)">
      <defs>
       <path id="DejaVuSans-4f" d="M 2522 4238 
Q 1834 4238 1429 3725 
Q 1025 3213 1025 2328 
Q 1025 1447 1429 934 
Q 1834 422 2522 422 
Q 3209 422 3611 934 
Q 4013 1447 4013 2328 
Q 4013 3213 3611 3725 
Q 3209 4238 2522 4238 
z
M 2522 4750 
Q 3503 4750 4090 4092 
Q 4678 3434 4678 2328 
Q 4678 1225 4090 567 
Q 3503 -91 2522 -91 
Q 1538 -91 948 565 
Q 359 1222 359 2328 
Q 359 3434 948 4092 
Q 1538 4750 2522 4750 
z
" transform="scale(0.015625)"/>
       <path id="DejaVuSans-53" d="M 3425 4513 
L 3425 3897 
Q 3066 4069 2747 4153 
Q 2428 4238 2131 4238 
Q 1616 4238 1336 4038 
Q 1056 3838 1056 3469 
Q 1056 3159 1242 3001 
Q 1428 2844 1947 2747 
L 2328 2669 
Q 3034 2534 3370 2195 
Q 3706 1856 3706 1288 
Q 3706 609 3251 259 
Q 2797 -91 1919 -91 
Q 1588 -91 1214 -16 
Q 841 59 441 206 
L 441 856 
Q 825 641 1194 531 
Q 1563 422 1919 422 
Q 2459 422 2753 634 
Q 3047 847 3047 1241 
Q 3047 1584 2836 1778 
Q 2625 1972 2144 2069 
L 1759 2144 
Q 1053 2284 737 2584 
Q 422 2884 422 3419 
Q 422 4038 858 4394 
Q 1294 4750 2059 4750 
Q 2388 4750 2728 4690 
Q 3069 4631 3425 4513 
z
" transform="scale(0.015625)"/>
      </defs>
      <use xlink:href="#DejaVuSans-4f"/>
      <use xlink:href="#DejaVuSans-72" x="78.710938"/>
      <use xlink:href="#DejaVuSans-69" x="119.824219"/>
      <use xlink:href="#DejaVuSans-67" x="147.607422"/>
      <use xlink:href="#DejaVuSans-69" x="211.083984"/>
      <use xlink:href="#DejaVuSans-6e" x="238.867188"/>
      <use xlink:href="#DejaVuSans-61" x="302.246094"/>
      <use xlink:href="#DejaVuSans-6c" x="363.525391"/>
      <use xlink:href="#DejaVuSans-20" x="391.308594"/>
      <use xlink:href="#DejaVuSans-53" x="423.095703"/>
      <use xlink:href="#DejaVuSans-69" x="486.572266"/>
      <use xlink:href="#DejaVuSans-67" x="514.355469"/>
      <use xlink:href="#DejaVuSans-6e" x="577.832031"/>
      <use xlink:href="#DejaVuSans-61" x="641.210938"/>
      <use xlink:href="#DejaVuSans-6c" x="702.490234"/>
     </g>
    </g>
    <g id="line2d_20">
     <path d="M 537.971875 70.976562 
L 547.971875 70.976562 
L 557.971875 70.976562 
" style="fill: none; stroke-dasharray: 7.4,3.2; stroke-dashoffset: 0; stroke: #ff7f0e; stroke-width: 2"/>
    </g>
    <g id="text_19">
     <!-- Fitted Signal -->
     <g transform="translate(565.971875 74.476562) scale(0.1 -0.1)">
      <defs>
       <path id="DejaVuSans-46" d="M 628 4666 
L 3309 4666 
L 3309 4134 
L 1259 4134 
L 1259 2759 
L 3109 2759 
L 3109 2228 
L 1259 2228 
L 1259 0 
L 628 0 
L 628 4666 
z
" transform="scale(0.015625)"/>
      </defs>
      <use xlink:href="#DejaVuSans-46"/>
      <use xlink:href="#DejaVuSans-69" x="50.269531"/>
      <use xlink:href="#DejaVuSans-74" x="78.052734"/>
      <use xlink:href="#DejaVuSans-74" x="117.261719"/>
      <use xlink:href="#DejaVuSans-65" x="156.470703"/>
      <use xlink:href="#DejaVuSans-64" x="217.994141"/>
      <use xlink:href="#DejaVuSans-20" x="281.470703"/>
      <use xlink:href="#DejaVuSans-53" x="313.257812"/>
      <use xlink:href="#DejaVuSans-69" x="376.734375"/>
      <use xlink:href="#DejaVuSans-67" x="404.517578"/>
      <use xlink:href="#DejaVuSans-6e" x="467.994141"/>
      <use xlink:href="#DejaVuSans-61" x="531.373047"/>
      <use xlink:href="#DejaVuSans-6c" x="592.652344"/>
     </g>
    </g>
   </g>
  </g>
 </g>
 <defs>
  <clipPath id="p0d275638a9">
   <rect x="90" y="43.2" width="558" height="277.2"/>
  </clipPath>
 </defs>
</svg>
