<?xml version="1.0" encoding="utf-8" standalone="no"?>
<!DOCTYPE svg PUBLIC "-//W3C//DTD SVG 1.1//EN"
  "http://www.w3.org/Graphics/SVG/1.1/DTD/svg11.dtd">
<svg xmlns:xlink="http://www.w3.org/1999/xlink" width="576pt" height="432pt" viewBox="0 0 576 432" xmlns="http://www.w3.org/2000/svg" version="1.1">
 <metadata>
  <rdf:RDF xmlns:dc="http://purl.org/dc/elements/1.1/" xmlns:cc="http://creativecommons.org/ns#" xmlns:rdf="http://www.w3.org/1999/02/22-rdf-syntax-ns#">
   <cc:Work>
    <dc:type rdf:resource="http://purl.org/dc/dcmitype/StillImage"/>
    <dc:date>2025-02-19T10:34:02.206780</dc:date>
    <dc:format>image/svg+xml</dc:format>
    <dc:creator>
     <cc:Agent>
      <dc:title>Matplotlib v3.8.4, https://matplotlib.org/</dc:title>
     </cc:Agent>
    </dc:creator>
   </cc:Work>
  </rdf:RDF>
 </metadata>
 <defs>
  <style type="text/css">*{stroke-linejoin: round; stroke-linecap: butt}</style>
 </defs>
 <g id="figure_1">
  <g id="patch_1">
   <path d="M 0 432 
L 576 432 
L 576 0 
L 0 0 
z
" style="fill: #ffffff"/>
  </g>
  <g id="axes_1">
   <g id="patch_2">
    <path d="M 72 203.04 
L 518.4 203.04 
L 518.4 51.84 
L 72 51.84 
z
" style="fill: #ffffff"/>
   </g>
   <g id="PolyCollection_1">
    <defs>
     <path id="mcd52db2f54" d="M 92.290909 -369.450211 
L 92.290909 -369.443312 
L 96.390083 -369.611535 
L 100.489256 -369.766575 
L 104.58843 -369.893019 
L 108.687603 -369.981807 
L 112.786777 -370.022833 
L 116.88595 -370.010081 
L 120.985124 -369.937191 
L 125.084298 -369.800502 
L 129.183471 -369.596373 
L 133.282645 -369.322994 
L 137.381818 -368.978757 
L 141.480992 -368.563334 
L 145.580165 -368.076675 
L 149.679339 -367.519658 
L 153.778512 -366.893466 
L 157.877686 -366.19997 
L 161.97686 -365.441343 
L 166.076033 -364.620286 
L 170.175207 -363.739781 
L 174.27438 -362.803223 
L 178.373554 -361.81426 
L 182.472727 -360.776865 
L 186.571901 -359.695234 
L 190.671074 -358.573818 
L 194.770248 -357.417251 
L 198.869421 -356.230366 
L 202.968595 -355.018144 
L 207.067769 -353.785709 
L 211.166942 -352.538292 
L 215.266116 -351.281222 
L 219.365289 -350.019891 
L 223.464463 -348.759742 
L 227.563636 -347.506238 
L 231.66281 -346.264849 
L 235.761983 -345.041021 
L 239.861157 -343.840159 
L 243.960331 -342.667602 
L 248.059504 -341.528603 
L 252.158678 -340.428301 
L 256.257851 -339.371704 
L 260.357025 -338.363665 
L 264.456198 -337.408856 
L 268.555372 -336.51175 
L 272.654545 -335.676596 
L 276.753719 -334.907398 
L 280.852893 -334.207894 
L 284.952066 -333.58153 
L 289.05124 -333.031446 
L 293.150413 -332.560452 
L 297.249587 -332.171007 
L 301.34876 -331.865206 
L 305.447934 -331.644756 
L 309.547107 -331.510963 
L 313.646281 -331.464719 
L 317.745455 -331.506483 
L 321.844628 -331.636272 
L 325.943802 -331.853653 
L 330.042975 -332.157732 
L 334.142149 -332.547146 
L 338.241322 -333.020067 
L 342.340496 -333.574197 
L 346.439669 -334.206774 
L 350.538843 -334.914587 
L 354.638017 -335.693991 
L 358.73719 -336.540942 
L 362.836364 -337.451037 
L 366.935537 -338.419557 
L 371.034711 -339.44152 
L 375.133884 -340.51173 
L 379.233058 -341.624826 
L 383.332231 -342.775337 
L 387.431405 -343.957729 
L 391.530579 -345.166469 
L 395.629752 -346.396083 
L 399.728926 -347.641215 
L 403.828099 -348.8967 
L 407.927273 -350.157623 
L 412.026446 -351.419391 
L 416.12562 -352.677787 
L 420.224793 -353.929024 
L 424.323967 -355.169779 
L 428.42314 -356.39721 
L 432.522314 -357.608937 
L 436.621488 -358.802992 
L 440.720661 -359.977725 
L 444.819835 -361.131667 
L 448.919008 -362.263402 
L 453.018182 -363.371427 
L 457.117355 -364.45405 
L 461.216529 -365.50928 
L 465.315702 -366.53476 
L 469.414876 -367.52772 
L 473.51405 -368.484983 
L 477.613223 -369.403023 
L 481.712397 -370.278071 
L 485.81157 -371.106273 
L 489.910744 -371.883879 
L 494.009917 -372.607444 
L 498.109091 -373.274002 
L 498.109091 -373.287273 
L 498.109091 -373.287273 
L 494.009917 -372.619175 
L 489.910744 -371.89447 
L 485.81157 -371.116039 
L 481.712397 -370.287275 
L 477.613223 -369.411879 
L 473.51405 -368.493665 
L 469.414876 -367.536376 
L 465.315702 -366.543525 
L 461.216529 -365.518288 
L 457.117355 -364.463443 
L 453.018182 -363.38137 
L 448.919008 -362.274085 
L 444.819835 -361.143322 
L 440.720661 -359.990635 
L 436.621488 -358.817526 
L 432.522314 -357.625554 
L 428.42314 -356.416431 
L 424.323967 -355.192097 
L 420.224793 -353.954791 
L 416.12562 -352.707117 
L 412.026446 -351.452105 
L 407.927273 -350.193245 
L 403.828099 -348.934497 
L 399.728926 -347.680276 
L 395.629752 -346.435412 
L 391.530579 -345.205087 
L 387.431405 -343.994762 
L 383.332231 -342.810089 
L 379.233058 -341.65682 
L 375.133884 -340.540718 
L 371.034711 -339.467474 
L 366.935537 -338.442626 
L 362.836364 -337.471494 
L 358.73719 -336.55912 
L 354.638017 -335.710223 
L 350.538843 -334.929166 
L 346.439669 -334.219931 
L 342.340496 -333.586101 
L 338.241322 -333.030839 
L 334.142149 -332.556878 
L 330.042975 -332.1665 
L 325.943802 -331.861532 
L 321.844628 -331.643335 
L 317.745455 -331.512807 
L 313.646281 -331.470382 
L 309.547107 -331.516041 
L 305.447934 -331.649321 
L 301.34876 -331.869325 
L 297.249587 -332.174741 
L 293.150413 -332.563853 
L 289.05124 -333.034562 
L 284.952066 -333.584399 
L 280.852893 -334.210551 
L 276.753719 -334.909872 
L 272.654545 -335.678911 
L 268.555372 -336.513927 
L 264.456198 -337.410915 
L 260.357025 -338.365621 
L 256.257851 -339.373573 
L 252.158678 -340.430095 
L 248.059504 -341.530334 
L 243.960331 -342.669282 
L 239.861157 -343.841795 
L 235.761983 -345.042623 
L 231.66281 -346.266425 
L 227.563636 -347.507795 
L 223.464463 -348.761287 
L 219.365289 -350.021432 
L 215.266116 -351.282765 
L 211.166942 -352.539844 
L 207.067769 -353.787276 
L 202.968595 -355.019734 
L 198.869421 -356.231987 
L 194.770248 -357.418908 
L 190.671074 -358.575521 
L 186.571901 -359.696991 
L 182.472727 -360.778683 
L 178.373554 -361.816147 
L 174.27438 -362.805189 
L 170.175207 -363.741834 
L 166.076033 -364.622434 
L 161.97686 -365.443597 
L 157.877686 -366.202337 
L 153.778512 -366.895959 
L 149.679339 -367.522283 
L 145.580165 -368.079449 
L 141.480992 -368.566261 
L 137.381818 -368.98186 
L 133.282645 -369.326274 
L 129.183471 -369.599861 
L 125.084298 -369.804191 
L 120.985124 -369.941136 
L 116.88595 -370.014258 
L 112.786777 -370.027341 
L 108.687603 -369.986594 
L 104.58843 -369.898281 
L 100.489256 -369.772199 
L 96.390083 -369.617915 
L 92.290909 -369.450211 
z
" style="stroke: #f4a460; stroke-opacity: 0.5"/>
    </defs>
    <g clip-path="url(#pe01b4dc0e4)">
     <use xlink:href="#mcd52db2f54" x="0" y="432" style="fill: #f4a460; fill-opacity: 0.5; stroke: #f4a460; stroke-opacity: 0.5"/>
    </g>
   </g>
   <g id="matplotlib.axis_1">
    <g id="xtick_1">
     <g id="line2d_1">
      <defs>
       <path id="m5246bf0173" d="M 0 0 
L 0 3.5 
" style="stroke: #000000; stroke-width: 0.8"/>
      </defs>
      <g>
       <use xlink:href="#m5246bf0173" x="92.290909" y="203.04" style="stroke: #000000; stroke-width: 0.8"/>
      </g>
     </g>
     <g id="text_1">
      <!-- 0.00 -->
      <g transform="translate(81.158097 217.638437) scale(0.1 -0.1)">
       <defs>
        <path id="DejaVuSans-30" d="M 2034 4250 
Q 1547 4250 1301 3770 
Q 1056 3291 1056 2328 
Q 1056 1369 1301 889 
Q 1547 409 2034 409 
Q 2525 409 2770 889 
Q 3016 1369 3016 2328 
Q 3016 3291 2770 3770 
Q 2525 4250 2034 4250 
z
M 2034 4750 
Q 2819 4750 3233 4129 
Q 3647 3509 3647 2328 
Q 3647 1150 3233 529 
Q 2819 -91 2034 -91 
Q 1250 -91 836 529 
Q 422 1150 422 2328 
Q 422 3509 836 4129 
Q 1250 4750 2034 4750 
z
" transform="scale(0.015625)"/>
        <path id="DejaVuSans-2e" d="M 684 794 
L 1344 794 
L 1344 0 
L 684 0 
L 684 794 
z
" transform="scale(0.015625)"/>
       </defs>
       <use xlink:href="#DejaVuSans-30"/>
       <use xlink:href="#DejaVuSans-2e" x="63.623047"/>
       <use xlink:href="#DejaVuSans-30" x="95.410156"/>
       <use xlink:href="#DejaVuSans-30" x="159.033203"/>
      </g>
     </g>
    </g>
    <g id="xtick_2">
     <g id="line2d_2">
      <g>
       <use xlink:href="#m5246bf0173" x="153.794518" y="203.04" style="stroke: #000000; stroke-width: 0.8"/>
      </g>
     </g>
     <g id="text_2">
      <!-- 0.05 -->
      <g transform="translate(142.661705 217.638437) scale(0.1 -0.1)">
       <defs>
        <path id="DejaVuSans-35" d="M 691 4666 
L 3169 4666 
L 3169 4134 
L 1269 4134 
L 1269 2991 
Q 1406 3038 1543 3061 
Q 1681 3084 1819 3084 
Q 2600 3084 3056 2656 
Q 3513 2228 3513 1497 
Q 3513 744 3044 326 
Q 2575 -91 1722 -91 
Q 1428 -91 1123 -41 
Q 819 9 494 109 
L 494 744 
Q 775 591 1075 516 
Q 1375 441 1709 441 
Q 2250 441 2565 725 
Q 2881 1009 2881 1497 
Q 2881 1984 2565 2268 
Q 2250 2553 1709 2553 
Q 1456 2553 1204 2497 
Q 953 2441 691 2322 
L 691 4666 
z
" transform="scale(0.015625)"/>
       </defs>
       <use xlink:href="#DejaVuSans-30"/>
       <use xlink:href="#DejaVuSans-2e" x="63.623047"/>
       <use xlink:href="#DejaVuSans-30" x="95.410156"/>
       <use xlink:href="#DejaVuSans-35" x="159.033203"/>
      </g>
     </g>
    </g>
    <g id="xtick_3">
     <g id="line2d_3">
      <g>
       <use xlink:href="#m5246bf0173" x="215.298126" y="203.04" style="stroke: #000000; stroke-width: 0.8"/>
      </g>
     </g>
     <g id="text_3">
      <!-- 0.10 -->
      <g transform="translate(204.165314 217.638437) scale(0.1 -0.1)">
       <defs>
        <path id="DejaVuSans-31" d="M 794 531 
L 1825 531 
L 1825 4091 
L 703 3866 
L 703 4441 
L 1819 4666 
L 2450 4666 
L 2450 531 
L 3481 531 
L 3481 0 
L 794 0 
L 794 531 
z
" transform="scale(0.015625)"/>
       </defs>
       <use xlink:href="#DejaVuSans-30"/>
       <use xlink:href="#DejaVuSans-2e" x="63.623047"/>
       <use xlink:href="#DejaVuSans-31" x="95.410156"/>
       <use xlink:href="#DejaVuSans-30" x="159.033203"/>
      </g>
     </g>
    </g>
    <g id="xtick_4">
     <g id="line2d_4">
      <g>
       <use xlink:href="#m5246bf0173" x="276.801735" y="203.04" style="stroke: #000000; stroke-width: 0.8"/>
      </g>
     </g>
     <g id="text_4">
      <!-- 0.15 -->
      <g transform="translate(265.668922 217.638437) scale(0.1 -0.1)">
       <use xlink:href="#DejaVuSans-30"/>
       <use xlink:href="#DejaVuSans-2e" x="63.623047"/>
       <use xlink:href="#DejaVuSans-31" x="95.410156"/>
       <use xlink:href="#DejaVuSans-35" x="159.033203"/>
      </g>
     </g>
    </g>
    <g id="xtick_5">
     <g id="line2d_5">
      <g>
       <use xlink:href="#m5246bf0173" x="338.305344" y="203.04" style="stroke: #000000; stroke-width: 0.8"/>
      </g>
     </g>
     <g id="text_5">
      <!-- 0.20 -->
      <g transform="translate(327.172531 217.638437) scale(0.1 -0.1)">
       <defs>
        <path id="DejaVuSans-32" d="M 1228 531 
L 3431 531 
L 3431 0 
L 469 0 
L 469 531 
Q 828 903 1448 1529 
Q 2069 2156 2228 2338 
Q 2531 2678 2651 2914 
Q 2772 3150 2772 3378 
Q 2772 3750 2511 3984 
Q 2250 4219 1831 4219 
Q 1534 4219 1204 4116 
Q 875 4013 500 3803 
L 500 4441 
Q 881 4594 1212 4672 
Q 1544 4750 1819 4750 
Q 2544 4750 2975 4387 
Q 3406 4025 3406 3419 
Q 3406 3131 3298 2873 
Q 3191 2616 2906 2266 
Q 2828 2175 2409 1742 
Q 1991 1309 1228 531 
z
" transform="scale(0.015625)"/>
       </defs>
       <use xlink:href="#DejaVuSans-30"/>
       <use xlink:href="#DejaVuSans-2e" x="63.623047"/>
       <use xlink:href="#DejaVuSans-32" x="95.410156"/>
       <use xlink:href="#DejaVuSans-30" x="159.033203"/>
      </g>
     </g>
    </g>
    <g id="xtick_6">
     <g id="line2d_6">
      <g>
       <use xlink:href="#m5246bf0173" x="399.808952" y="203.04" style="stroke: #000000; stroke-width: 0.8"/>
      </g>
     </g>
     <g id="text_6">
      <!-- 0.25 -->
      <g transform="translate(388.67614 217.638437) scale(0.1 -0.1)">
       <use xlink:href="#DejaVuSans-30"/>
       <use xlink:href="#DejaVuSans-2e" x="63.623047"/>
       <use xlink:href="#DejaVuSans-32" x="95.410156"/>
       <use xlink:href="#DejaVuSans-35" x="159.033203"/>
      </g>
     </g>
    </g>
    <g id="xtick_7">
     <g id="line2d_7">
      <g>
       <use xlink:href="#m5246bf0173" x="461.312561" y="203.04" style="stroke: #000000; stroke-width: 0.8"/>
      </g>
     </g>
     <g id="text_7">
      <!-- 0.30 -->
      <g transform="translate(450.179748 217.638437) scale(0.1 -0.1)">
       <defs>
        <path id="DejaVuSans-33" d="M 2597 2516 
Q 3050 2419 3304 2112 
Q 3559 1806 3559 1356 
Q 3559 666 3084 287 
Q 2609 -91 1734 -91 
Q 1441 -91 1130 -33 
Q 819 25 488 141 
L 488 750 
Q 750 597 1062 519 
Q 1375 441 1716 441 
Q 2309 441 2620 675 
Q 2931 909 2931 1356 
Q 2931 1769 2642 2001 
Q 2353 2234 1838 2234 
L 1294 2234 
L 1294 2753 
L 1863 2753 
Q 2328 2753 2575 2939 
Q 2822 3125 2822 3475 
Q 2822 3834 2567 4026 
Q 2313 4219 1838 4219 
Q 1578 4219 1281 4162 
Q 984 4106 628 3988 
L 628 4550 
Q 988 4650 1302 4700 
Q 1616 4750 1894 4750 
Q 2613 4750 3031 4423 
Q 3450 4097 3450 3541 
Q 3450 3153 3228 2886 
Q 3006 2619 2597 2516 
z
" transform="scale(0.015625)"/>
       </defs>
       <use xlink:href="#DejaVuSans-30"/>
       <use xlink:href="#DejaVuSans-2e" x="63.623047"/>
       <use xlink:href="#DejaVuSans-33" x="95.410156"/>
       <use xlink:href="#DejaVuSans-30" x="159.033203"/>
      </g>
     </g>
    </g>
    <g id="text_8">
     <!-- Time axis relative [s] -->
     <g transform="translate(242.817969 231.316562) scale(0.1 -0.1)">
      <defs>
       <path id="DejaVuSans-54" d="M -19 4666 
L 3928 4666 
L 3928 4134 
L 2272 4134 
L 2272 0 
L 1638 0 
L 1638 4134 
L -19 4134 
L -19 4666 
z
" transform="scale(0.015625)"/>
       <path id="DejaVuSans-69" d="M 603 3500 
L 1178 3500 
L 1178 0 
L 603 0 
L 603 3500 
z
M 603 4863 
L 1178 4863 
L 1178 4134 
L 603 4134 
L 603 4863 
z
" transform="scale(0.015625)"/>
       <path id="DejaVuSans-6d" d="M 3328 2828 
Q 3544 3216 3844 3400 
Q 4144 3584 4550 3584 
Q 5097 3584 5394 3201 
Q 5691 2819 5691 2113 
L 5691 0 
L 5113 0 
L 5113 2094 
Q 5113 2597 4934 2840 
Q 4756 3084 4391 3084 
Q 3944 3084 3684 2787 
Q 3425 2491 3425 1978 
L 3425 0 
L 2847 0 
L 2847 2094 
Q 2847 2600 2669 2842 
Q 2491 3084 2119 3084 
Q 1678 3084 1418 2786 
Q 1159 2488 1159 1978 
L 1159 0 
L 581 0 
L 581 3500 
L 1159 3500 
L 1159 2956 
Q 1356 3278 1631 3431 
Q 1906 3584 2284 3584 
Q 2666 3584 2933 3390 
Q 3200 3197 3328 2828 
z
" transform="scale(0.015625)"/>
       <path id="DejaVuSans-65" d="M 3597 1894 
L 3597 1613 
L 953 1613 
Q 991 1019 1311 708 
Q 1631 397 2203 397 
Q 2534 397 2845 478 
Q 3156 559 3463 722 
L 3463 178 
Q 3153 47 2828 -22 
Q 2503 -91 2169 -91 
Q 1331 -91 842 396 
Q 353 884 353 1716 
Q 353 2575 817 3079 
Q 1281 3584 2069 3584 
Q 2775 3584 3186 3129 
Q 3597 2675 3597 1894 
z
M 3022 2063 
Q 3016 2534 2758 2815 
Q 2500 3097 2075 3097 
Q 1594 3097 1305 2825 
Q 1016 2553 972 2059 
L 3022 2063 
z
" transform="scale(0.015625)"/>
       <path id="DejaVuSans-20" transform="scale(0.015625)"/>
       <path id="DejaVuSans-61" d="M 2194 1759 
Q 1497 1759 1228 1600 
Q 959 1441 959 1056 
Q 959 750 1161 570 
Q 1363 391 1709 391 
Q 2188 391 2477 730 
Q 2766 1069 2766 1631 
L 2766 1759 
L 2194 1759 
z
M 3341 1997 
L 3341 0 
L 2766 0 
L 2766 531 
Q 2569 213 2275 61 
Q 1981 -91 1556 -91 
Q 1019 -91 701 211 
Q 384 513 384 1019 
Q 384 1609 779 1909 
Q 1175 2209 1959 2209 
L 2766 2209 
L 2766 2266 
Q 2766 2663 2505 2880 
Q 2244 3097 1772 3097 
Q 1472 3097 1187 3025 
Q 903 2953 641 2809 
L 641 3341 
Q 956 3463 1253 3523 
Q 1550 3584 1831 3584 
Q 2591 3584 2966 3190 
Q 3341 2797 3341 1997 
z
" transform="scale(0.015625)"/>
       <path id="DejaVuSans-78" d="M 3513 3500 
L 2247 1797 
L 3578 0 
L 2900 0 
L 1881 1375 
L 863 0 
L 184 0 
L 1544 1831 
L 300 3500 
L 978 3500 
L 1906 2253 
L 2834 3500 
L 3513 3500 
z
" transform="scale(0.015625)"/>
       <path id="DejaVuSans-73" d="M 2834 3397 
L 2834 2853 
Q 2591 2978 2328 3040 
Q 2066 3103 1784 3103 
Q 1356 3103 1142 2972 
Q 928 2841 928 2578 
Q 928 2378 1081 2264 
Q 1234 2150 1697 2047 
L 1894 2003 
Q 2506 1872 2764 1633 
Q 3022 1394 3022 966 
Q 3022 478 2636 193 
Q 2250 -91 1575 -91 
Q 1294 -91 989 -36 
Q 684 19 347 128 
L 347 722 
Q 666 556 975 473 
Q 1284 391 1588 391 
Q 1994 391 2212 530 
Q 2431 669 2431 922 
Q 2431 1156 2273 1281 
Q 2116 1406 1581 1522 
L 1381 1569 
Q 847 1681 609 1914 
Q 372 2147 372 2553 
Q 372 3047 722 3315 
Q 1072 3584 1716 3584 
Q 2034 3584 2315 3537 
Q 2597 3491 2834 3397 
z
" transform="scale(0.015625)"/>
       <path id="DejaVuSans-72" d="M 2631 2963 
Q 2534 3019 2420 3045 
Q 2306 3072 2169 3072 
Q 1681 3072 1420 2755 
Q 1159 2438 1159 1844 
L 1159 0 
L 581 0 
L 581 3500 
L 1159 3500 
L 1159 2956 
Q 1341 3275 1631 3429 
Q 1922 3584 2338 3584 
Q 2397 3584 2469 3576 
Q 2541 3569 2628 3553 
L 2631 2963 
z
" transform="scale(0.015625)"/>
       <path id="DejaVuSans-6c" d="M 603 4863 
L 1178 4863 
L 1178 0 
L 603 0 
L 603 4863 
z
" transform="scale(0.015625)"/>
       <path id="DejaVuSans-74" d="M 1172 4494 
L 1172 3500 
L 2356 3500 
L 2356 3053 
L 1172 3053 
L 1172 1153 
Q 1172 725 1289 603 
Q 1406 481 1766 481 
L 2356 481 
L 2356 0 
L 1766 0 
Q 1100 0 847 248 
Q 594 497 594 1153 
L 594 3053 
L 172 3053 
L 172 3500 
L 594 3500 
L 594 4494 
L 1172 4494 
z
" transform="scale(0.015625)"/>
       <path id="DejaVuSans-76" d="M 191 3500 
L 800 3500 
L 1894 563 
L 2988 3500 
L 3597 3500 
L 2284 0 
L 1503 0 
L 191 3500 
z
" transform="scale(0.015625)"/>
       <path id="DejaVuSans-5b" d="M 550 4863 
L 1875 4863 
L 1875 4416 
L 1125 4416 
L 1125 -397 
L 1875 -397 
L 1875 -844 
L 550 -844 
L 550 4863 
z
" transform="scale(0.015625)"/>
       <path id="DejaVuSans-5d" d="M 1947 4863 
L 1947 -844 
L 622 -844 
L 622 -397 
L 1369 -397 
L 1369 4416 
L 622 4416 
L 622 4863 
L 1947 4863 
z
" transform="scale(0.015625)"/>
      </defs>
      <use xlink:href="#DejaVuSans-54"/>
      <use xlink:href="#DejaVuSans-69" x="57.958984"/>
      <use xlink:href="#DejaVuSans-6d" x="85.742188"/>
      <use xlink:href="#DejaVuSans-65" x="183.154297"/>
      <use xlink:href="#DejaVuSans-20" x="244.677734"/>
      <use xlink:href="#DejaVuSans-61" x="276.464844"/>
      <use xlink:href="#DejaVuSans-78" x="337.744141"/>
      <use xlink:href="#DejaVuSans-69" x="396.923828"/>
      <use xlink:href="#DejaVuSans-73" x="424.707031"/>
      <use xlink:href="#DejaVuSans-20" x="476.806641"/>
      <use xlink:href="#DejaVuSans-72" x="508.59375"/>
      <use xlink:href="#DejaVuSans-65" x="547.457031"/>
      <use xlink:href="#DejaVuSans-6c" x="608.980469"/>
      <use xlink:href="#DejaVuSans-61" x="636.763672"/>
      <use xlink:href="#DejaVuSans-74" x="698.042969"/>
      <use xlink:href="#DejaVuSans-69" x="737.251953"/>
      <use xlink:href="#DejaVuSans-76" x="765.035156"/>
      <use xlink:href="#DejaVuSans-65" x="824.214844"/>
      <use xlink:href="#DejaVuSans-20" x="885.738281"/>
      <use xlink:href="#DejaVuSans-5b" x="917.525391"/>
      <use xlink:href="#DejaVuSans-73" x="956.539062"/>
      <use xlink:href="#DejaVuSans-5d" x="1008.638672"/>
     </g>
    </g>
   </g>
   <g id="matplotlib.axis_2">
    <g id="ytick_1">
     <g id="line2d_8">
      <defs>
       <path id="m36ba4edcbe" d="M 0 0 
L -3.5 0 
" style="stroke: #000000; stroke-width: 0.8"/>
      </defs>
      <g>
       <use xlink:href="#m36ba4edcbe" x="72" y="202.001259" style="stroke: #000000; stroke-width: 0.8"/>
      </g>
     </g>
     <g id="text_9">
      <!-- 53.6 -->
      <g transform="translate(42.734375 205.800478) scale(0.1 -0.1)">
       <defs>
        <path id="DejaVuSans-36" d="M 2113 2584 
Q 1688 2584 1439 2293 
Q 1191 2003 1191 1497 
Q 1191 994 1439 701 
Q 1688 409 2113 409 
Q 2538 409 2786 701 
Q 3034 994 3034 1497 
Q 3034 2003 2786 2293 
Q 2538 2584 2113 2584 
z
M 3366 4563 
L 3366 3988 
Q 3128 4100 2886 4159 
Q 2644 4219 2406 4219 
Q 1781 4219 1451 3797 
Q 1122 3375 1075 2522 
Q 1259 2794 1537 2939 
Q 1816 3084 2150 3084 
Q 2853 3084 3261 2657 
Q 3669 2231 3669 1497 
Q 3669 778 3244 343 
Q 2819 -91 2113 -91 
Q 1303 -91 875 529 
Q 447 1150 447 2328 
Q 447 3434 972 4092 
Q 1497 4750 2381 4750 
Q 2619 4750 2861 4703 
Q 3103 4656 3366 4563 
z
" transform="scale(0.015625)"/>
       </defs>
       <use xlink:href="#DejaVuSans-35"/>
       <use xlink:href="#DejaVuSans-33" x="63.623047"/>
       <use xlink:href="#DejaVuSans-2e" x="127.246094"/>
       <use xlink:href="#DejaVuSans-36" x="159.033203"/>
      </g>
     </g>
    </g>
    <g id="ytick_2">
     <g id="line2d_9">
      <g>
       <use xlink:href="#m36ba4edcbe" x="72" y="176.326471" style="stroke: #000000; stroke-width: 0.8"/>
      </g>
     </g>
     <g id="text_10">
      <!-- 53.7 -->
      <g transform="translate(42.734375 180.125689) scale(0.1 -0.1)">
       <defs>
        <path id="DejaVuSans-37" d="M 525 4666 
L 3525 4666 
L 3525 4397 
L 1831 0 
L 1172 0 
L 2766 4134 
L 525 4134 
L 525 4666 
z
" transform="scale(0.015625)"/>
       </defs>
       <use xlink:href="#DejaVuSans-35"/>
       <use xlink:href="#DejaVuSans-33" x="63.623047"/>
       <use xlink:href="#DejaVuSans-2e" x="127.246094"/>
       <use xlink:href="#DejaVuSans-37" x="159.033203"/>
      </g>
     </g>
    </g>
    <g id="ytick_3">
     <g id="line2d_10">
      <g>
       <use xlink:href="#m36ba4edcbe" x="72" y="150.651682" style="stroke: #000000; stroke-width: 0.8"/>
      </g>
     </g>
     <g id="text_11">
      <!-- 53.8 -->
      <g transform="translate(42.734375 154.450901) scale(0.1 -0.1)">
       <defs>
        <path id="DejaVuSans-38" d="M 2034 2216 
Q 1584 2216 1326 1975 
Q 1069 1734 1069 1313 
Q 1069 891 1326 650 
Q 1584 409 2034 409 
Q 2484 409 2743 651 
Q 3003 894 3003 1313 
Q 3003 1734 2745 1975 
Q 2488 2216 2034 2216 
z
M 1403 2484 
Q 997 2584 770 2862 
Q 544 3141 544 3541 
Q 544 4100 942 4425 
Q 1341 4750 2034 4750 
Q 2731 4750 3128 4425 
Q 3525 4100 3525 3541 
Q 3525 3141 3298 2862 
Q 3072 2584 2669 2484 
Q 3125 2378 3379 2068 
Q 3634 1759 3634 1313 
Q 3634 634 3220 271 
Q 2806 -91 2034 -91 
Q 1263 -91 848 271 
Q 434 634 434 1313 
Q 434 1759 690 2068 
Q 947 2378 1403 2484 
z
M 1172 3481 
Q 1172 3119 1398 2916 
Q 1625 2713 2034 2713 
Q 2441 2713 2670 2916 
Q 2900 3119 2900 3481 
Q 2900 3844 2670 4047 
Q 2441 4250 2034 4250 
Q 1625 4250 1398 4047 
Q 1172 3844 1172 3481 
z
" transform="scale(0.015625)"/>
       </defs>
       <use xlink:href="#DejaVuSans-35"/>
       <use xlink:href="#DejaVuSans-33" x="63.623047"/>
       <use xlink:href="#DejaVuSans-2e" x="127.246094"/>
       <use xlink:href="#DejaVuSans-38" x="159.033203"/>
      </g>
     </g>
    </g>
    <g id="ytick_4">
     <g id="line2d_11">
      <g>
       <use xlink:href="#m36ba4edcbe" x="72" y="124.976894" style="stroke: #000000; stroke-width: 0.8"/>
      </g>
     </g>
     <g id="text_12">
      <!-- 53.9 -->
      <g transform="translate(42.734375 128.776113) scale(0.1 -0.1)">
       <defs>
        <path id="DejaVuSans-39" d="M 703 97 
L 703 672 
Q 941 559 1184 500 
Q 1428 441 1663 441 
Q 2288 441 2617 861 
Q 2947 1281 2994 2138 
Q 2813 1869 2534 1725 
Q 2256 1581 1919 1581 
Q 1219 1581 811 2004 
Q 403 2428 403 3163 
Q 403 3881 828 4315 
Q 1253 4750 1959 4750 
Q 2769 4750 3195 4129 
Q 3622 3509 3622 2328 
Q 3622 1225 3098 567 
Q 2575 -91 1691 -91 
Q 1453 -91 1209 -44 
Q 966 3 703 97 
z
M 1959 2075 
Q 2384 2075 2632 2365 
Q 2881 2656 2881 3163 
Q 2881 3666 2632 3958 
Q 2384 4250 1959 4250 
Q 1534 4250 1286 3958 
Q 1038 3666 1038 3163 
Q 1038 2656 1286 2365 
Q 1534 2075 1959 2075 
z
" transform="scale(0.015625)"/>
       </defs>
       <use xlink:href="#DejaVuSans-35"/>
       <use xlink:href="#DejaVuSans-33" x="63.623047"/>
       <use xlink:href="#DejaVuSans-2e" x="127.246094"/>
       <use xlink:href="#DejaVuSans-39" x="159.033203"/>
      </g>
     </g>
    </g>
    <g id="ytick_5">
     <g id="line2d_12">
      <g>
       <use xlink:href="#m36ba4edcbe" x="72" y="99.302106" style="stroke: #000000; stroke-width: 0.8"/>
      </g>
     </g>
     <g id="text_13">
      <!-- 54.0 -->
      <g transform="translate(42.734375 103.101324) scale(0.1 -0.1)">
       <defs>
        <path id="DejaVuSans-34" d="M 2419 4116 
L 825 1625 
L 2419 1625 
L 2419 4116 
z
M 2253 4666 
L 3047 4666 
L 3047 1625 
L 3713 1625 
L 3713 1100 
L 3047 1100 
L 3047 0 
L 2419 0 
L 2419 1100 
L 313 1100 
L 313 1709 
L 2253 4666 
z
" transform="scale(0.015625)"/>
       </defs>
       <use xlink:href="#DejaVuSans-35"/>
       <use xlink:href="#DejaVuSans-34" x="63.623047"/>
       <use xlink:href="#DejaVuSans-2e" x="127.246094"/>
       <use xlink:href="#DejaVuSans-30" x="159.033203"/>
      </g>
     </g>
    </g>
    <g id="ytick_6">
     <g id="line2d_13">
      <g>
       <use xlink:href="#m36ba4edcbe" x="72" y="73.627317" style="stroke: #000000; stroke-width: 0.8"/>
      </g>
     </g>
     <g id="text_14">
      <!-- 54.1 -->
      <g transform="translate(42.734375 77.426536) scale(0.1 -0.1)">
       <use xlink:href="#DejaVuSans-35"/>
       <use xlink:href="#DejaVuSans-34" x="63.623047"/>
       <use xlink:href="#DejaVuSans-2e" x="127.246094"/>
       <use xlink:href="#DejaVuSans-31" x="159.033203"/>
      </g>
     </g>
    </g>
    <g id="text_15">
     <!-- US Sensor horizontal [mm] -->
     <g transform="translate(36.654687 194.760312) rotate(-90) scale(0.1 -0.1)">
      <defs>
       <path id="DejaVuSans-55" d="M 556 4666 
L 1191 4666 
L 1191 1831 
Q 1191 1081 1462 751 
Q 1734 422 2344 422 
Q 2950 422 3222 751 
Q 3494 1081 3494 1831 
L 3494 4666 
L 4128 4666 
L 4128 1753 
Q 4128 841 3676 375 
Q 3225 -91 2344 -91 
Q 1459 -91 1007 375 
Q 556 841 556 1753 
L 556 4666 
z
" transform="scale(0.015625)"/>
       <path id="DejaVuSans-53" d="M 3425 4513 
L 3425 3897 
Q 3066 4069 2747 4153 
Q 2428 4238 2131 4238 
Q 1616 4238 1336 4038 
Q 1056 3838 1056 3469 
Q 1056 3159 1242 3001 
Q 1428 2844 1947 2747 
L 2328 2669 
Q 3034 2534 3370 2195 
Q 3706 1856 3706 1288 
Q 3706 609 3251 259 
Q 2797 -91 1919 -91 
Q 1588 -91 1214 -16 
Q 841 59 441 206 
L 441 856 
Q 825 641 1194 531 
Q 1563 422 1919 422 
Q 2459 422 2753 634 
Q 3047 847 3047 1241 
Q 3047 1584 2836 1778 
Q 2625 1972 2144 2069 
L 1759 2144 
Q 1053 2284 737 2584 
Q 422 2884 422 3419 
Q 422 4038 858 4394 
Q 1294 4750 2059 4750 
Q 2388 4750 2728 4690 
Q 3069 4631 3425 4513 
z
" transform="scale(0.015625)"/>
       <path id="DejaVuSans-6e" d="M 3513 2113 
L 3513 0 
L 2938 0 
L 2938 2094 
Q 2938 2591 2744 2837 
Q 2550 3084 2163 3084 
Q 1697 3084 1428 2787 
Q 1159 2491 1159 1978 
L 1159 0 
L 581 0 
L 581 3500 
L 1159 3500 
L 1159 2956 
Q 1366 3272 1645 3428 
Q 1925 3584 2291 3584 
Q 2894 3584 3203 3211 
Q 3513 2838 3513 2113 
z
" transform="scale(0.015625)"/>
       <path id="DejaVuSans-6f" d="M 1959 3097 
Q 1497 3097 1228 2736 
Q 959 2375 959 1747 
Q 959 1119 1226 758 
Q 1494 397 1959 397 
Q 2419 397 2687 759 
Q 2956 1122 2956 1747 
Q 2956 2369 2687 2733 
Q 2419 3097 1959 3097 
z
M 1959 3584 
Q 2709 3584 3137 3096 
Q 3566 2609 3566 1747 
Q 3566 888 3137 398 
Q 2709 -91 1959 -91 
Q 1206 -91 779 398 
Q 353 888 353 1747 
Q 353 2609 779 3096 
Q 1206 3584 1959 3584 
z
" transform="scale(0.015625)"/>
       <path id="DejaVuSans-68" d="M 3513 2113 
L 3513 0 
L 2938 0 
L 2938 2094 
Q 2938 2591 2744 2837 
Q 2550 3084 2163 3084 
Q 1697 3084 1428 2787 
Q 1159 2491 1159 1978 
L 1159 0 
L 581 0 
L 581 4863 
L 1159 4863 
L 1159 2956 
Q 1366 3272 1645 3428 
Q 1925 3584 2291 3584 
Q 2894 3584 3203 3211 
Q 3513 2838 3513 2113 
z
" transform="scale(0.015625)"/>
       <path id="DejaVuSans-7a" d="M 353 3500 
L 3084 3500 
L 3084 2975 
L 922 459 
L 3084 459 
L 3084 0 
L 275 0 
L 275 525 
L 2438 3041 
L 353 3041 
L 353 3500 
z
" transform="scale(0.015625)"/>
      </defs>
      <use xlink:href="#DejaVuSans-55"/>
      <use xlink:href="#DejaVuSans-53" x="73.193359"/>
      <use xlink:href="#DejaVuSans-20" x="136.669922"/>
      <use xlink:href="#DejaVuSans-53" x="168.457031"/>
      <use xlink:href="#DejaVuSans-65" x="231.933594"/>
      <use xlink:href="#DejaVuSans-6e" x="293.457031"/>
      <use xlink:href="#DejaVuSans-73" x="356.835938"/>
      <use xlink:href="#DejaVuSans-6f" x="408.935547"/>
      <use xlink:href="#DejaVuSans-72" x="470.117188"/>
      <use xlink:href="#DejaVuSans-20" x="511.230469"/>
      <use xlink:href="#DejaVuSans-68" x="543.017578"/>
      <use xlink:href="#DejaVuSans-6f" x="606.396484"/>
      <use xlink:href="#DejaVuSans-72" x="667.578125"/>
      <use xlink:href="#DejaVuSans-69" x="708.691406"/>
      <use xlink:href="#DejaVuSans-7a" x="736.474609"/>
      <use xlink:href="#DejaVuSans-6f" x="788.964844"/>
      <use xlink:href="#DejaVuSans-6e" x="850.146484"/>
      <use xlink:href="#DejaVuSans-74" x="913.525391"/>
      <use xlink:href="#DejaVuSans-61" x="952.734375"/>
      <use xlink:href="#DejaVuSans-6c" x="1014.013672"/>
      <use xlink:href="#DejaVuSans-20" x="1041.796875"/>
      <use xlink:href="#DejaVuSans-5b" x="1073.583984"/>
      <use xlink:href="#DejaVuSans-6d" x="1112.597656"/>
      <use xlink:href="#DejaVuSans-6d" x="1210.009766"/>
      <use xlink:href="#DejaVuSans-5d" x="1307.421875"/>
     </g>
    </g>
   </g>
   <g id="line2d_14">
    <path d="M 92.290909 62.553238 
L 96.390083 62.385275 
L 100.489256 62.230613 
L 104.58843 62.10435 
L 108.687603 62.0158 
L 112.786777 61.974913 
L 116.88595 61.987831 
L 120.985124 62.060836 
L 125.084298 62.197653 
L 129.183471 62.401883 
L 133.282645 62.675366 
L 137.381818 63.019691 
L 141.480992 63.435203 
L 145.580165 63.921938 
L 149.679339 64.479029 
L 153.778512 65.105287 
L 157.877686 65.798846 
L 161.97686 66.55753 
L 166.076033 67.37864 
L 170.175207 68.259192 
L 174.27438 69.195794 
L 178.373554 70.184797 
L 182.472727 71.222226 
L 186.571901 72.303887 
L 190.671074 73.425331 
L 194.770248 74.58192 
L 198.869421 75.768824 
L 202.968595 76.981061 
L 207.067769 78.213508 
L 211.166942 79.460932 
L 215.266116 80.718007 
L 219.365289 81.979339 
L 223.464463 83.239486 
L 227.563636 84.492983 
L 231.66281 85.734363 
L 235.761983 86.958178 
L 239.861157 88.159023 
L 243.960331 89.331558 
L 248.059504 90.470532 
L 252.158678 91.570802 
L 256.257851 92.627361 
L 260.357025 93.635357 
L 264.456198 94.590115 
L 268.555372 95.487161 
L 272.654545 96.322246 
L 276.753719 97.091365 
L 280.852893 97.790778 
L 284.952066 98.417035 
L 289.05124 98.966996 
L 293.150413 99.437847 
L 297.249587 99.827126 
L 301.34876 100.132734 
L 305.447934 100.352962 
L 309.547107 100.486498 
L 313.646281 100.53245 
L 317.745455 100.490355 
L 321.844628 100.360196 
L 325.943802 100.142407 
L 330.042975 99.837884 
L 334.142149 99.447988 
L 338.241322 98.974547 
L 342.340496 98.419851 
L 346.439669 97.786647 
L 350.538843 97.078124 
L 354.638017 96.297893 
L 358.73719 95.449969 
L 362.836364 94.538735 
L 366.935537 93.568909 
L 371.034711 92.545503 
L 375.133884 91.473776 
L 379.233058 90.359177 
L 383.332231 89.207287 
L 387.431405 88.023754 
L 391.530579 86.814222 
L 395.629752 85.584253 
L 399.728926 84.339254 
L 403.828099 83.084402 
L 407.927273 81.824566 
L 412.026446 80.564252 
L 416.12562 79.307548 
L 420.224793 78.058092 
L 424.323967 76.819062 
L 428.42314 75.593179 
L 432.522314 74.382755 
L 436.621488 73.189741 
L 440.720661 72.01582 
L 444.819835 70.862505 
L 448.919008 69.731256 
L 453.018182 68.623601 
L 457.117355 67.541254 
L 461.216529 66.486216 
L 465.315702 65.460857 
L 469.414876 64.467952 
L 473.51405 63.510676 
L 477.613223 62.592549 
L 481.712397 61.717327 
L 485.81157 60.888844 
L 489.910744 60.110826 
L 494.009917 59.38669 
L 498.109091 58.719362 
" clip-path="url(#pe01b4dc0e4)" style="fill: none; stroke: #1f77b4; stroke-opacity: 0.5; stroke-width: 1.5; stroke-linecap: square"/>
   </g>
   <g id="line2d_15">
    <path d="M 92.290909 62.4516 
L 96.390083 62.463353 
L 100.489256 62.677845 
L 104.58843 63.149923 
L 108.687603 63.900155 
L 112.786777 64.916788 
L 116.88595 66.165543 
L 120.985124 67.639563 
L 125.084298 69.397614 
L 129.183471 71.510213 
L 133.282645 74.015558 
L 137.381818 76.908751 
L 141.480992 80.135925 
L 145.580165 83.614809 
L 149.679339 87.257255 
L 153.778512 91.010375 
L 157.877686 94.843807 
L 161.97686 98.722292 
L 166.076033 102.610571 
L 170.175207 106.46555 
L 174.27438 110.232382 
L 178.373554 113.870911 
L 182.472727 117.430106 
L 186.571901 121.020643 
L 190.671074 124.741443 
L 194.770248 128.648331 
L 198.869421 132.742287 
L 202.968595 136.9763 
L 207.067769 141.270058 
L 211.166942 145.532474 
L 215.266116 149.669524 
L 219.365289 153.591104 
L 223.464463 157.229632 
L 227.563636 160.549851 
L 231.66281 163.535109 
L 235.761983 166.187366 
L 239.861157 168.535025 
L 243.960331 170.648603 
L 248.059504 172.605475 
L 252.158678 174.469303 
L 256.257851 176.286119 
L 260.357025 178.079428 
L 264.456198 179.864903 
L 268.555372 181.644501 
L 272.654545 183.412345 
L 276.753719 185.153746 
L 280.852893 186.840299 
L 284.952066 188.445561 
L 289.05124 189.948964 
L 293.150413 191.336796 
L 297.249587 192.595345 
L 301.34876 193.713837 
L 305.447934 194.684438 
L 309.547107 195.465032 
L 313.646281 195.981184 
L 317.745455 196.167273 
L 321.844628 195.984122 
L 325.943802 195.431732 
L 330.042975 194.54634 
L 334.142149 193.387692 
L 338.241322 192.032181 
L 342.340496 190.549346 
L 346.439669 189.006766 
L 350.538843 187.456352 
L 354.638017 185.939237 
L 358.73719 184.492641 
L 362.836364 183.157697 
L 366.935537 181.92951 
L 371.034711 180.703282 
L 375.133884 179.344833 
L 379.233058 177.732715 
L 383.332231 175.790534 
L 387.431405 173.496743 
L 391.530579 170.87191 
L 395.629752 167.967943 
L 399.728926 164.825978 
L 403.828099 161.485192 
L 407.927273 157.997494 
L 412.026446 154.426545 
L 416.12562 150.843844 
L 420.224793 147.317948 
L 424.323967 143.900767 
L 428.42314 140.571734 
L 432.522314 137.252495 
L 436.621488 133.856862 
L 440.720661 130.321172 
L 444.819835 126.6229 
L 448.919008 122.78457 
L 453.018182 118.858094 
L 457.117355 114.91105 
L 461.216529 111.013956 
L 465.315702 107.224597 
L 469.414876 103.560604 
L 473.51405 100.012182 
L 477.613223 96.565619 
L 481.712397 93.21308 
L 485.81157 89.963379 
L 489.910744 86.836106 
L 494.009917 83.857704 
L 498.109091 81.059514 
" clip-path="url(#pe01b4dc0e4)" style="fill: none; stroke: #ff7f0e; stroke-opacity: 0.5; stroke-width: 1.5; stroke-linecap: square"/>
   </g>
   <g id="patch_3">
    <path d="M 72 203.04 
L 72 51.84 
" style="fill: none; stroke: #000000; stroke-width: 0.8; stroke-linejoin: miter; stroke-linecap: square"/>
   </g>
   <g id="patch_4">
    <path d="M 518.4 203.04 
L 518.4 51.84 
" style="fill: none; stroke: #000000; stroke-width: 0.8; stroke-linejoin: miter; stroke-linecap: square"/>
   </g>
   <g id="patch_5">
    <path d="M 72 203.04 
L 518.4 203.04 
" style="fill: none; stroke: #000000; stroke-width: 0.8; stroke-linejoin: miter; stroke-linecap: square"/>
   </g>
   <g id="patch_6">
    <path d="M 72 51.84 
L 518.4 51.84 
" style="fill: none; stroke: #000000; stroke-width: 0.8; stroke-linejoin: miter; stroke-linecap: square"/>
   </g>
   <g id="legend_1">
    <g id="line2d_16">
     <path d="M 323.3625 158.547812 
L 333.3625 158.547812 
L 343.3625 158.547812 
" style="fill: none; stroke: #1f77b4; stroke-opacity: 0.5; stroke-width: 1.5; stroke-linecap: square"/>
    </g>
    <g id="text_16">
     <!-- predicted_values, US horizontal -->
     <g transform="translate(351.3625 162.047812) scale(0.1 -0.1)">
      <defs>
       <path id="DejaVuSans-70" d="M 1159 525 
L 1159 -1331 
L 581 -1331 
L 581 3500 
L 1159 3500 
L 1159 2969 
Q 1341 3281 1617 3432 
Q 1894 3584 2278 3584 
Q 2916 3584 3314 3078 
Q 3713 2572 3713 1747 
Q 3713 922 3314 415 
Q 2916 -91 2278 -91 
Q 1894 -91 1617 61 
Q 1341 213 1159 525 
z
M 3116 1747 
Q 3116 2381 2855 2742 
Q 2594 3103 2138 3103 
Q 1681 3103 1420 2742 
Q 1159 2381 1159 1747 
Q 1159 1113 1420 752 
Q 1681 391 2138 391 
Q 2594 391 2855 752 
Q 3116 1113 3116 1747 
z
" transform="scale(0.015625)"/>
       <path id="DejaVuSans-64" d="M 2906 2969 
L 2906 4863 
L 3481 4863 
L 3481 0 
L 2906 0 
L 2906 525 
Q 2725 213 2448 61 
Q 2172 -91 1784 -91 
Q 1150 -91 751 415 
Q 353 922 353 1747 
Q 353 2572 751 3078 
Q 1150 3584 1784 3584 
Q 2172 3584 2448 3432 
Q 2725 3281 2906 2969 
z
M 947 1747 
Q 947 1113 1208 752 
Q 1469 391 1925 391 
Q 2381 391 2643 752 
Q 2906 1113 2906 1747 
Q 2906 2381 2643 2742 
Q 2381 3103 1925 3103 
Q 1469 3103 1208 2742 
Q 947 2381 947 1747 
z
" transform="scale(0.015625)"/>
       <path id="DejaVuSans-63" d="M 3122 3366 
L 3122 2828 
Q 2878 2963 2633 3030 
Q 2388 3097 2138 3097 
Q 1578 3097 1268 2742 
Q 959 2388 959 1747 
Q 959 1106 1268 751 
Q 1578 397 2138 397 
Q 2388 397 2633 464 
Q 2878 531 3122 666 
L 3122 134 
Q 2881 22 2623 -34 
Q 2366 -91 2075 -91 
Q 1284 -91 818 406 
Q 353 903 353 1747 
Q 353 2603 823 3093 
Q 1294 3584 2113 3584 
Q 2378 3584 2631 3529 
Q 2884 3475 3122 3366 
z
" transform="scale(0.015625)"/>
       <path id="DejaVuSans-5f" d="M 3263 -1063 
L 3263 -1509 
L -63 -1509 
L -63 -1063 
L 3263 -1063 
z
" transform="scale(0.015625)"/>
       <path id="DejaVuSans-75" d="M 544 1381 
L 544 3500 
L 1119 3500 
L 1119 1403 
Q 1119 906 1312 657 
Q 1506 409 1894 409 
Q 2359 409 2629 706 
Q 2900 1003 2900 1516 
L 2900 3500 
L 3475 3500 
L 3475 0 
L 2900 0 
L 2900 538 
Q 2691 219 2414 64 
Q 2138 -91 1772 -91 
Q 1169 -91 856 284 
Q 544 659 544 1381 
z
M 1991 3584 
L 1991 3584 
z
" transform="scale(0.015625)"/>
       <path id="DejaVuSans-2c" d="M 750 794 
L 1409 794 
L 1409 256 
L 897 -744 
L 494 -744 
L 750 256 
L 750 794 
z
" transform="scale(0.015625)"/>
      </defs>
      <use xlink:href="#DejaVuSans-70"/>
      <use xlink:href="#DejaVuSans-72" x="63.476562"/>
      <use xlink:href="#DejaVuSans-65" x="102.339844"/>
      <use xlink:href="#DejaVuSans-64" x="163.863281"/>
      <use xlink:href="#DejaVuSans-69" x="227.339844"/>
      <use xlink:href="#DejaVuSans-63" x="255.123047"/>
      <use xlink:href="#DejaVuSans-74" x="310.103516"/>
      <use xlink:href="#DejaVuSans-65" x="349.3125"/>
      <use xlink:href="#DejaVuSans-64" x="410.835938"/>
      <use xlink:href="#DejaVuSans-5f" x="474.3125"/>
      <use xlink:href="#DejaVuSans-76" x="524.3125"/>
      <use xlink:href="#DejaVuSans-61" x="583.492188"/>
      <use xlink:href="#DejaVuSans-6c" x="644.771484"/>
      <use xlink:href="#DejaVuSans-75" x="672.554688"/>
      <use xlink:href="#DejaVuSans-65" x="735.933594"/>
      <use xlink:href="#DejaVuSans-73" x="797.457031"/>
      <use xlink:href="#DejaVuSans-2c" x="849.556641"/>
      <use xlink:href="#DejaVuSans-20" x="881.34375"/>
      <use xlink:href="#DejaVuSans-55" x="913.130859"/>
      <use xlink:href="#DejaVuSans-53" x="986.324219"/>
      <use xlink:href="#DejaVuSans-20" x="1049.800781"/>
      <use xlink:href="#DejaVuSans-68" x="1081.587891"/>
      <use xlink:href="#DejaVuSans-6f" x="1144.966797"/>
      <use xlink:href="#DejaVuSans-72" x="1206.148438"/>
      <use xlink:href="#DejaVuSans-69" x="1247.261719"/>
      <use xlink:href="#DejaVuSans-7a" x="1275.044922"/>
      <use xlink:href="#DejaVuSans-6f" x="1327.535156"/>
      <use xlink:href="#DejaVuSans-6e" x="1388.716797"/>
      <use xlink:href="#DejaVuSans-74" x="1452.095703"/>
      <use xlink:href="#DejaVuSans-61" x="1491.304688"/>
      <use xlink:href="#DejaVuSans-6c" x="1552.583984"/>
     </g>
    </g>
    <g id="line2d_17">
     <path d="M 323.3625 173.504062 
L 333.3625 173.504062 
L 343.3625 173.504062 
" style="fill: none; stroke: #ff7f0e; stroke-opacity: 0.5; stroke-width: 1.5; stroke-linecap: square"/>
    </g>
    <g id="text_17">
     <!-- real_values, US horizontal -->
     <g transform="translate(351.3625 177.004062) scale(0.1 -0.1)">
      <use xlink:href="#DejaVuSans-72"/>
      <use xlink:href="#DejaVuSans-65" x="38.863281"/>
      <use xlink:href="#DejaVuSans-61" x="100.386719"/>
      <use xlink:href="#DejaVuSans-6c" x="161.666016"/>
      <use xlink:href="#DejaVuSans-5f" x="189.449219"/>
      <use xlink:href="#DejaVuSans-76" x="239.449219"/>
      <use xlink:href="#DejaVuSans-61" x="298.628906"/>
      <use xlink:href="#DejaVuSans-6c" x="359.908203"/>
      <use xlink:href="#DejaVuSans-75" x="387.691406"/>
      <use xlink:href="#DejaVuSans-65" x="451.070312"/>
      <use xlink:href="#DejaVuSans-73" x="512.59375"/>
      <use xlink:href="#DejaVuSans-2c" x="564.693359"/>
      <use xlink:href="#DejaVuSans-20" x="596.480469"/>
      <use xlink:href="#DejaVuSans-55" x="628.267578"/>
      <use xlink:href="#DejaVuSans-53" x="701.460938"/>
      <use xlink:href="#DejaVuSans-20" x="764.9375"/>
      <use xlink:href="#DejaVuSans-68" x="796.724609"/>
      <use xlink:href="#DejaVuSans-6f" x="860.103516"/>
      <use xlink:href="#DejaVuSans-72" x="921.285156"/>
      <use xlink:href="#DejaVuSans-69" x="962.398438"/>
      <use xlink:href="#DejaVuSans-7a" x="990.181641"/>
      <use xlink:href="#DejaVuSans-6f" x="1042.671875"/>
      <use xlink:href="#DejaVuSans-6e" x="1103.853516"/>
      <use xlink:href="#DejaVuSans-74" x="1167.232422"/>
      <use xlink:href="#DejaVuSans-61" x="1206.441406"/>
      <use xlink:href="#DejaVuSans-6c" x="1267.720703"/>
     </g>
    </g>
    <g id="patch_7">
     <path d="M 323.3625 191.960312 
L 343.3625 191.960312 
L 343.3625 184.960312 
L 323.3625 184.960312 
z
" style="fill: #f4a460; fill-opacity: 0.5; stroke: #f4a460; stroke-opacity: 0.5; stroke-linejoin: miter"/>
    </g>
    <g id="text_18">
     <!-- 95% confidence interval -->
     <g transform="translate(351.3625 191.960312) scale(0.1 -0.1)">
      <defs>
       <path id="DejaVuSans-25" d="M 4653 2053 
Q 4381 2053 4226 1822 
Q 4072 1591 4072 1178 
Q 4072 772 4226 539 
Q 4381 306 4653 306 
Q 4919 306 5073 539 
Q 5228 772 5228 1178 
Q 5228 1588 5073 1820 
Q 4919 2053 4653 2053 
z
M 4653 2450 
Q 5147 2450 5437 2106 
Q 5728 1763 5728 1178 
Q 5728 594 5436 251 
Q 5144 -91 4653 -91 
Q 4153 -91 3862 251 
Q 3572 594 3572 1178 
Q 3572 1766 3864 2108 
Q 4156 2450 4653 2450 
z
M 1428 4353 
Q 1159 4353 1004 4120 
Q 850 3888 850 3481 
Q 850 3069 1003 2837 
Q 1156 2606 1428 2606 
Q 1700 2606 1854 2837 
Q 2009 3069 2009 3481 
Q 2009 3884 1853 4118 
Q 1697 4353 1428 4353 
z
M 4250 4750 
L 4750 4750 
L 1831 -91 
L 1331 -91 
L 4250 4750 
z
M 1428 4750 
Q 1922 4750 2215 4408 
Q 2509 4066 2509 3481 
Q 2509 2891 2217 2550 
Q 1925 2209 1428 2209 
Q 931 2209 642 2551 
Q 353 2894 353 3481 
Q 353 4063 643 4406 
Q 934 4750 1428 4750 
z
" transform="scale(0.015625)"/>
       <path id="DejaVuSans-66" d="M 2375 4863 
L 2375 4384 
L 1825 4384 
Q 1516 4384 1395 4259 
Q 1275 4134 1275 3809 
L 1275 3500 
L 2222 3500 
L 2222 3053 
L 1275 3053 
L 1275 0 
L 697 0 
L 697 3053 
L 147 3053 
L 147 3500 
L 697 3500 
L 697 3744 
Q 697 4328 969 4595 
Q 1241 4863 1831 4863 
L 2375 4863 
z
" transform="scale(0.015625)"/>
      </defs>
      <use xlink:href="#DejaVuSans-39"/>
      <use xlink:href="#DejaVuSans-35" x="63.623047"/>
      <use xlink:href="#DejaVuSans-25" x="127.246094"/>
      <use xlink:href="#DejaVuSans-20" x="222.265625"/>
      <use xlink:href="#DejaVuSans-63" x="254.052734"/>
      <use xlink:href="#DejaVuSans-6f" x="309.033203"/>
      <use xlink:href="#DejaVuSans-6e" x="370.214844"/>
      <use xlink:href="#DejaVuSans-66" x="433.59375"/>
      <use xlink:href="#DejaVuSans-69" x="468.798828"/>
      <use xlink:href="#DejaVuSans-64" x="496.582031"/>
      <use xlink:href="#DejaVuSans-65" x="560.058594"/>
      <use xlink:href="#DejaVuSans-6e" x="621.582031"/>
      <use xlink:href="#DejaVuSans-63" x="684.960938"/>
      <use xlink:href="#DejaVuSans-65" x="739.941406"/>
      <use xlink:href="#DejaVuSans-20" x="801.464844"/>
      <use xlink:href="#DejaVuSans-69" x="833.251953"/>
      <use xlink:href="#DejaVuSans-6e" x="861.035156"/>
      <use xlink:href="#DejaVuSans-74" x="924.414062"/>
      <use xlink:href="#DejaVuSans-65" x="963.623047"/>
      <use xlink:href="#DejaVuSans-72" x="1025.146484"/>
      <use xlink:href="#DejaVuSans-76" x="1066.259766"/>
      <use xlink:href="#DejaVuSans-61" x="1125.439453"/>
      <use xlink:href="#DejaVuSans-6c" x="1186.71875"/>
     </g>
    </g>
   </g>
  </g>
  <g id="axes_2">
   <g id="patch_8">
    <path d="M 72 384.48 
L 518.4 384.48 
L 518.4 233.28 
L 72 233.28 
z
" style="fill: #ffffff"/>
   </g>
   <g id="PolyCollection_2">
    <defs>
     <path id="m33eb367cb8" d="M 92.290909 -177.163464 
L 92.290909 -177.162559 
L 96.390083 -175.77429 
L 100.489256 -174.363566 
L 104.58843 -172.939534 
L 108.687603 -171.512328 
L 112.786777 -170.089944 
L 116.88595 -168.680652 
L 120.985124 -167.291009 
L 125.084298 -165.927386 
L 129.183471 -164.594702 
L 133.282645 -163.297394 
L 137.381818 -162.038614 
L 141.480992 -160.820851 
L 145.580165 -159.645426 
L 149.679339 -158.512903 
L 153.778512 -157.422773 
L 157.877686 -156.373737 
L 161.97686 -155.363522 
L 166.076033 -154.389081 
L 170.175207 -153.446499 
L 174.27438 -152.531147 
L 178.373554 -151.637651 
L 182.472727 -150.760018 
L 186.571901 -149.891646 
L 190.671074 -149.025442 
L 194.770248 -148.153859 
L 198.869421 -147.269008 
L 202.968595 -146.362715 
L 207.067769 -145.426631 
L 211.166942 -144.452304 
L 215.266116 -143.431287 
L 219.365289 -142.355218 
L 223.464463 -141.215924 
L 227.563636 -140.005511 
L 231.66281 -138.71646 
L 235.761983 -137.341721 
L 239.861157 -135.874806 
L 243.960331 -134.309875 
L 248.059504 -132.641832 
L 252.158678 -130.866402 
L 256.257851 -128.980221 
L 260.357025 -126.980909 
L 264.456198 -124.867148 
L 268.555372 -122.638752 
L 272.654545 -120.296733 
L 276.753719 -117.843362 
L 280.852893 -115.28222 
L 284.952066 -112.618251 
L 289.05124 -109.857797 
L 293.150413 -107.008633 
L 297.249587 -104.079989 
L 301.34876 -101.08256 
L 305.447934 -98.02851 
L 309.547107 -94.93146 
L 313.646281 -91.806459 
L 317.745455 -88.669954 
L 321.844628 -85.539729 
L 325.943802 -82.434842 
L 330.042975 -79.375545 
L 334.142149 -76.383183 
L 338.241322 -73.480092 
L 342.340496 -70.689474 
L 346.439669 -68.035271 
L 350.538843 -65.542013 
L 354.638017 -63.234676 
L 358.73719 -61.138503 
L 362.836364 -59.278829 
L 366.935537 -57.680874 
L 371.034711 -56.369508 
L 375.133884 -55.368996 
L 379.233058 -54.702695 
L 383.332231 -54.392727 
L 387.431405 -54.459619 
L 391.530579 -54.921916 
L 395.629752 -55.7958 
L 399.728926 -57.094706 
L 403.828099 -58.828982 
L 407.927273 -61.005598 
L 412.026446 -63.627923 
L 416.12562 -66.695594 
L 420.224793 -70.204467 
L 424.323967 -74.146656 
L 428.42314 -78.510635 
L 432.522314 -83.281403 
L 436.621488 -88.440661 
L 440.720661 -93.967005 
L 444.819835 -99.836106 
L 448.919008 -106.020861 
L 453.018182 -112.491541 
L 457.117355 -119.215911 
L 461.216529 -126.159361 
L 465.315702 -133.285041 
L 469.414876 -140.554026 
L 473.51405 -147.92552 
L 477.613223 -155.357073 
L 481.712397 -162.804837 
L 485.81157 -170.223814 
L 489.910744 -177.56809 
L 494.009917 -184.791048 
L 498.109091 -191.845533 
L 498.109091 -191.847273 
L 498.109091 -191.847273 
L 494.009917 -184.792586 
L 489.910744 -177.569479 
L 485.81157 -170.225095 
L 481.712397 -162.806044 
L 477.613223 -155.358234 
L 473.51405 -147.926658 
L 469.414876 -140.555161 
L 465.315702 -133.28619 
L 461.216529 -126.160542 
L 457.117355 -119.217143 
L 453.018182 -112.492845 
L 448.919008 -106.022262 
L 444.819835 -99.837634 
L 440.720661 -93.968698 
L 436.621488 -88.442566 
L 432.522314 -83.283582 
L 428.42314 -78.513156 
L 424.323967 -74.149582 
L 420.224793 -70.207846 
L 416.12562 -66.699439 
L 412.026446 -63.632212 
L 407.927273 -61.010269 
L 403.828099 -58.833938 
L 399.728926 -57.099827 
L 395.629752 -55.800956 
L 391.530579 -54.926979 
L 387.431405 -54.464474 
L 383.332231 -54.397284 
L 379.233058 -54.70689 
L 375.133884 -55.372797 
L 371.034711 -56.372911 
L 366.935537 -57.683899 
L 362.836364 -59.281512 
L 358.73719 -61.140886 
L 354.638017 -63.236804 
L 350.538843 -65.543925 
L 346.439669 -68.036996 
L 342.340496 -70.691035 
L 338.241322 -73.481504 
L 334.142149 -76.384459 
L 330.042975 -79.376694 
L 325.943802 -82.435875 
L 321.844628 -85.540655 
L 317.745455 -88.670783 
L 313.646281 -91.807202 
L 309.547107 -94.932125 
L 305.447934 -98.029109 
L 301.34876 -101.0831 
L 297.249587 -104.080478 
L 293.150413 -107.009079 
L 289.05124 -109.858205 
L 284.952066 -112.618627 
L 280.852893 -115.282569 
L 276.753719 -117.843686 
L 272.654545 -120.297037 
L 268.555372 -122.639038 
L 264.456198 -124.867418 
L 260.357025 -126.981166 
L 256.257851 -128.980466 
L 252.158678 -130.866638 
L 248.059504 -132.642059 
L 243.960331 -134.310095 
L 239.861157 -135.87502 
L 235.761983 -137.341931 
L 231.66281 -138.716666 
L 227.563636 -140.005715 
L 223.464463 -141.216127 
L 219.365289 -142.35542 
L 215.266116 -143.43149 
L 211.166942 -144.452508 
L 207.067769 -145.426836 
L 202.968595 -146.362923 
L 198.869421 -147.26922 
L 194.770248 -148.154077 
L 190.671074 -149.025665 
L 186.571901 -149.891876 
L 182.472727 -150.760256 
L 178.373554 -151.637899 
L 174.27438 -152.531405 
L 170.175207 -153.446768 
L 166.076033 -154.389363 
L 161.97686 -155.363818 
L 157.877686 -156.374047 
L 153.778512 -157.4231 
L 149.679339 -158.513247 
L 145.580165 -159.64579 
L 141.480992 -160.821234 
L 137.381818 -162.039021 
L 133.282645 -163.297824 
L 129.183471 -164.59516 
L 125.084298 -165.92787 
L 120.985124 -167.291527 
L 116.88595 -168.6812 
L 112.786777 -170.090536 
L 108.687603 -171.512956 
L 104.58843 -172.940224 
L 100.489256 -174.364304 
L 96.390083 -175.775126 
L 92.290909 -177.163464 
z
" style="stroke: #fa8072; stroke-opacity: 0.5"/>
    </defs>
    <g clip-path="url(#pe80d9687a3)">
     <use xlink:href="#m33eb367cb8" x="0" y="432" style="fill: #fa8072; fill-opacity: 0.5; stroke: #fa8072; stroke-opacity: 0.5"/>
    </g>
   </g>
   <g id="matplotlib.axis_3">
    <g id="xtick_8">
     <g id="line2d_18">
      <g>
       <use xlink:href="#m5246bf0173" x="113.715086" y="384.48" style="stroke: #000000; stroke-width: 0.8"/>
      </g>
     </g>
     <g id="text_19">
      <!-- 2.90 -->
      <g transform="translate(102.582273 399.078438) scale(0.1 -0.1)">
       <use xlink:href="#DejaVuSans-32"/>
       <use xlink:href="#DejaVuSans-2e" x="63.623047"/>
       <use xlink:href="#DejaVuSans-39" x="95.410156"/>
       <use xlink:href="#DejaVuSans-30" x="159.033203"/>
      </g>
     </g>
    </g>
    <g id="xtick_9">
     <g id="line2d_19">
      <g>
       <use xlink:href="#m5246bf0173" x="175.218694" y="384.48" style="stroke: #000000; stroke-width: 0.8"/>
      </g>
     </g>
     <g id="text_20">
      <!-- 2.95 -->
      <g transform="translate(164.085882 399.078438) scale(0.1 -0.1)">
       <use xlink:href="#DejaVuSans-32"/>
       <use xlink:href="#DejaVuSans-2e" x="63.623047"/>
       <use xlink:href="#DejaVuSans-39" x="95.410156"/>
       <use xlink:href="#DejaVuSans-35" x="159.033203"/>
      </g>
     </g>
    </g>
    <g id="xtick_10">
     <g id="line2d_20">
      <g>
       <use xlink:href="#m5246bf0173" x="236.722303" y="384.48" style="stroke: #000000; stroke-width: 0.8"/>
      </g>
     </g>
     <g id="text_21">
      <!-- 3.00 -->
      <g transform="translate(225.58949 399.078438) scale(0.1 -0.1)">
       <use xlink:href="#DejaVuSans-33"/>
       <use xlink:href="#DejaVuSans-2e" x="63.623047"/>
       <use xlink:href="#DejaVuSans-30" x="95.410156"/>
       <use xlink:href="#DejaVuSans-30" x="159.033203"/>
      </g>
     </g>
    </g>
    <g id="xtick_11">
     <g id="line2d_21">
      <g>
       <use xlink:href="#m5246bf0173" x="298.225911" y="384.48" style="stroke: #000000; stroke-width: 0.8"/>
      </g>
     </g>
     <g id="text_22">
      <!-- 3.05 -->
      <g transform="translate(287.093099 399.078438) scale(0.1 -0.1)">
       <use xlink:href="#DejaVuSans-33"/>
       <use xlink:href="#DejaVuSans-2e" x="63.623047"/>
       <use xlink:href="#DejaVuSans-30" x="95.410156"/>
       <use xlink:href="#DejaVuSans-35" x="159.033203"/>
      </g>
     </g>
    </g>
    <g id="xtick_12">
     <g id="line2d_22">
      <g>
       <use xlink:href="#m5246bf0173" x="359.72952" y="384.48" style="stroke: #000000; stroke-width: 0.8"/>
      </g>
     </g>
     <g id="text_23">
      <!-- 3.10 -->
      <g transform="translate(348.596708 399.078438) scale(0.1 -0.1)">
       <use xlink:href="#DejaVuSans-33"/>
       <use xlink:href="#DejaVuSans-2e" x="63.623047"/>
       <use xlink:href="#DejaVuSans-31" x="95.410156"/>
       <use xlink:href="#DejaVuSans-30" x="159.033203"/>
      </g>
     </g>
    </g>
    <g id="xtick_13">
     <g id="line2d_23">
      <g>
       <use xlink:href="#m5246bf0173" x="421.233129" y="384.48" style="stroke: #000000; stroke-width: 0.8"/>
      </g>
     </g>
     <g id="text_24">
      <!-- 3.15 -->
      <g transform="translate(410.100316 399.078438) scale(0.1 -0.1)">
       <use xlink:href="#DejaVuSans-33"/>
       <use xlink:href="#DejaVuSans-2e" x="63.623047"/>
       <use xlink:href="#DejaVuSans-31" x="95.410156"/>
       <use xlink:href="#DejaVuSans-35" x="159.033203"/>
      </g>
     </g>
    </g>
    <g id="xtick_14">
     <g id="line2d_24">
      <g>
       <use xlink:href="#m5246bf0173" x="482.736737" y="384.48" style="stroke: #000000; stroke-width: 0.8"/>
      </g>
     </g>
     <g id="text_25">
      <!-- 3.20 -->
      <g transform="translate(471.603925 399.078438) scale(0.1 -0.1)">
       <use xlink:href="#DejaVuSans-33"/>
       <use xlink:href="#DejaVuSans-2e" x="63.623047"/>
       <use xlink:href="#DejaVuSans-32" x="95.410156"/>
       <use xlink:href="#DejaVuSans-30" x="159.033203"/>
      </g>
     </g>
    </g>
    <g id="text_26">
     <!-- Time axis absolute [s] -->
     <g transform="translate(240.178906 412.756563) scale(0.1 -0.1)">
      <defs>
       <path id="DejaVuSans-62" d="M 3116 1747 
Q 3116 2381 2855 2742 
Q 2594 3103 2138 3103 
Q 1681 3103 1420 2742 
Q 1159 2381 1159 1747 
Q 1159 1113 1420 752 
Q 1681 391 2138 391 
Q 2594 391 2855 752 
Q 3116 1113 3116 1747 
z
M 1159 2969 
Q 1341 3281 1617 3432 
Q 1894 3584 2278 3584 
Q 2916 3584 3314 3078 
Q 3713 2572 3713 1747 
Q 3713 922 3314 415 
Q 2916 -91 2278 -91 
Q 1894 -91 1617 61 
Q 1341 213 1159 525 
L 1159 0 
L 581 0 
L 581 4863 
L 1159 4863 
L 1159 2969 
z
" transform="scale(0.015625)"/>
      </defs>
      <use xlink:href="#DejaVuSans-54"/>
      <use xlink:href="#DejaVuSans-69" x="57.958984"/>
      <use xlink:href="#DejaVuSans-6d" x="85.742188"/>
      <use xlink:href="#DejaVuSans-65" x="183.154297"/>
      <use xlink:href="#DejaVuSans-20" x="244.677734"/>
      <use xlink:href="#DejaVuSans-61" x="276.464844"/>
      <use xlink:href="#DejaVuSans-78" x="337.744141"/>
      <use xlink:href="#DejaVuSans-69" x="396.923828"/>
      <use xlink:href="#DejaVuSans-73" x="424.707031"/>
      <use xlink:href="#DejaVuSans-20" x="476.806641"/>
      <use xlink:href="#DejaVuSans-61" x="508.59375"/>
      <use xlink:href="#DejaVuSans-62" x="569.873047"/>
      <use xlink:href="#DejaVuSans-73" x="633.349609"/>
      <use xlink:href="#DejaVuSans-6f" x="685.449219"/>
      <use xlink:href="#DejaVuSans-6c" x="746.630859"/>
      <use xlink:href="#DejaVuSans-75" x="774.414062"/>
      <use xlink:href="#DejaVuSans-74" x="837.792969"/>
      <use xlink:href="#DejaVuSans-65" x="877.001953"/>
      <use xlink:href="#DejaVuSans-20" x="938.525391"/>
      <use xlink:href="#DejaVuSans-5b" x="970.3125"/>
      <use xlink:href="#DejaVuSans-73" x="1009.326172"/>
      <use xlink:href="#DejaVuSans-5d" x="1061.425781"/>
     </g>
    </g>
   </g>
   <g id="matplotlib.axis_4">
    <g id="ytick_7">
     <g id="line2d_25">
      <g>
       <use xlink:href="#m36ba4edcbe" x="72" y="366.750821" style="stroke: #000000; stroke-width: 0.8"/>
      </g>
     </g>
     <g id="text_27">
      <!-- 54 -->
      <g transform="translate(52.275 370.55004) scale(0.1 -0.1)">
       <use xlink:href="#DejaVuSans-35"/>
       <use xlink:href="#DejaVuSans-34" x="63.623047"/>
      </g>
     </g>
    </g>
    <g id="ytick_8">
     <g id="line2d_26">
      <g>
       <use xlink:href="#m36ba4edcbe" x="72" y="333.08575" style="stroke: #000000; stroke-width: 0.8"/>
      </g>
     </g>
     <g id="text_28">
      <!-- 55 -->
      <g transform="translate(52.275 336.884969) scale(0.1 -0.1)">
       <use xlink:href="#DejaVuSans-35"/>
       <use xlink:href="#DejaVuSans-35" x="63.623047"/>
      </g>
     </g>
    </g>
    <g id="ytick_9">
     <g id="line2d_27">
      <g>
       <use xlink:href="#m36ba4edcbe" x="72" y="299.42068" style="stroke: #000000; stroke-width: 0.8"/>
      </g>
     </g>
     <g id="text_29">
      <!-- 56 -->
      <g transform="translate(52.275 303.219899) scale(0.1 -0.1)">
       <use xlink:href="#DejaVuSans-35"/>
       <use xlink:href="#DejaVuSans-36" x="63.623047"/>
      </g>
     </g>
    </g>
    <g id="ytick_10">
     <g id="line2d_28">
      <g>
       <use xlink:href="#m36ba4edcbe" x="72" y="265.755609" style="stroke: #000000; stroke-width: 0.8"/>
      </g>
     </g>
     <g id="text_30">
      <!-- 57 -->
      <g transform="translate(52.275 269.554828) scale(0.1 -0.1)">
       <use xlink:href="#DejaVuSans-35"/>
       <use xlink:href="#DejaVuSans-37" x="63.623047"/>
      </g>
     </g>
    </g>
    <g id="text_31">
     <!-- US Sensor vertical [mm] -->
     <g transform="translate(46.195312 369.905) rotate(-90) scale(0.1 -0.1)">
      <use xlink:href="#DejaVuSans-55"/>
      <use xlink:href="#DejaVuSans-53" x="73.193359"/>
      <use xlink:href="#DejaVuSans-20" x="136.669922"/>
      <use xlink:href="#DejaVuSans-53" x="168.457031"/>
      <use xlink:href="#DejaVuSans-65" x="231.933594"/>
      <use xlink:href="#DejaVuSans-6e" x="293.457031"/>
      <use xlink:href="#DejaVuSans-73" x="356.835938"/>
      <use xlink:href="#DejaVuSans-6f" x="408.935547"/>
      <use xlink:href="#DejaVuSans-72" x="470.117188"/>
      <use xlink:href="#DejaVuSans-20" x="511.230469"/>
      <use xlink:href="#DejaVuSans-76" x="543.017578"/>
      <use xlink:href="#DejaVuSans-65" x="602.197266"/>
      <use xlink:href="#DejaVuSans-72" x="663.720703"/>
      <use xlink:href="#DejaVuSans-74" x="704.833984"/>
      <use xlink:href="#DejaVuSans-69" x="744.042969"/>
      <use xlink:href="#DejaVuSans-63" x="771.826172"/>
      <use xlink:href="#DejaVuSans-61" x="826.806641"/>
      <use xlink:href="#DejaVuSans-6c" x="888.085938"/>
      <use xlink:href="#DejaVuSans-20" x="915.869141"/>
      <use xlink:href="#DejaVuSans-5b" x="947.65625"/>
      <use xlink:href="#DejaVuSans-6d" x="986.669922"/>
      <use xlink:href="#DejaVuSans-6d" x="1084.082031"/>
      <use xlink:href="#DejaVuSans-5d" x="1181.494141"/>
     </g>
    </g>
   </g>
   <g id="line2d_29">
    <path d="M 92.290909 254.836989 
L 96.390083 256.225292 
L 100.489256 257.636065 
L 104.58843 259.060121 
L 108.687603 260.487358 
L 112.786777 261.90976 
L 116.88595 263.319074 
L 120.985124 264.708732 
L 125.084298 266.072372 
L 129.183471 267.405069 
L 133.282645 268.702391 
L 137.381818 269.961183 
L 141.480992 271.178958 
L 145.580165 272.354392 
L 149.679339 273.486925 
L 153.778512 274.577064 
L 157.877686 275.626108 
L 161.97686 276.63633 
L 166.076033 277.610778 
L 170.175207 278.553366 
L 174.27438 279.468724 
L 178.373554 280.362225 
L 182.472727 281.239863 
L 186.571901 282.108239 
L 190.671074 282.974447 
L 194.770248 283.846032 
L 198.869421 284.730886 
L 202.968595 285.637181 
L 207.067769 286.573266 
L 211.166942 287.547594 
L 215.266116 288.568611 
L 219.365289 289.644681 
L 223.464463 290.783974 
L 227.563636 291.994387 
L 231.66281 293.283437 
L 235.761983 294.658174 
L 239.861157 296.125087 
L 243.960331 297.690015 
L 248.059504 299.358055 
L 252.158678 301.13348 
L 256.257851 303.019656 
L 260.357025 305.018963 
L 264.456198 307.132717 
L 268.555372 309.361105 
L 272.654545 311.703115 
L 276.753719 314.156476 
L 280.852893 316.717606 
L 284.952066 319.381561 
L 289.05124 322.141999 
L 293.150413 324.991144 
L 297.249587 327.919766 
L 301.34876 330.91717 
L 305.447934 333.97119 
L 309.547107 337.068208 
L 313.646281 340.19317 
L 317.745455 343.329631 
L 321.844628 346.459808 
L 325.943802 349.564641 
L 330.042975 352.62388 
L 334.142149 355.616179 
L 338.241322 358.519202 
L 342.340496 361.309745 
L 346.439669 363.963867 
L 350.538843 366.457031 
L 354.638017 368.76426 
L 358.73719 370.860305 
L 362.836364 372.719829 
L 366.935537 374.317614 
L 371.034711 375.62879 
L 375.133884 376.629104 
L 379.233058 377.295208 
L 383.332231 377.604994 
L 387.431405 377.537954 
L 391.530579 377.075552 
L 395.629752 376.201622 
L 399.728926 374.902733 
L 403.828099 373.16854 
L 407.927273 370.992067 
L 412.026446 368.369933 
L 416.12562 365.302483 
L 420.224793 361.793844 
L 424.323967 357.851881 
L 428.42314 353.488105 
L 432.522314 348.717508 
L 436.621488 343.558386 
L 440.720661 338.032148 
L 444.819835 332.16313 
L 448.919008 325.978439 
L 453.018182 319.507807 
L 457.117355 312.783473 
L 461.216529 305.840048 
L 465.315702 298.714385 
L 469.414876 291.445406 
L 473.51405 284.073911 
L 477.613223 276.642347 
L 481.712397 269.194559 
L 485.81157 261.775546 
L 489.910744 254.431215 
L 494.009917 247.208183 
L 498.109091 240.153597 
" clip-path="url(#pe80d9687a3)" style="fill: none; stroke: #1f77b4; stroke-opacity: 0.5; stroke-width: 1.5; stroke-linecap: square"/>
   </g>
   <g id="line2d_30">
    <path d="M 92.290909 256.23671 
L 96.390083 257.661296 
L 100.489256 259.111823 
L 104.58843 260.595355 
L 108.687603 262.118055 
L 112.786777 263.682749 
L 116.88595 265.286612 
L 120.985124 266.927717 
L 125.084298 268.603882 
L 129.183471 270.309841 
L 133.282645 272.038145 
L 137.381818 273.777236 
L 141.480992 275.519923 
L 145.580165 277.260684 
L 149.679339 278.994254 
L 153.778512 280.715366 
L 157.877686 282.416701 
L 161.97686 284.091582 
L 166.076033 285.731917 
L 170.175207 287.325763 
L 174.27438 288.858223 
L 178.373554 290.319152 
L 182.472727 291.708936 
L 186.571901 293.031554 
L 190.671074 294.289834 
L 194.770248 295.484159 
L 198.869421 296.612989 
L 202.968595 297.672984 
L 207.067769 298.65567 
L 211.166942 299.540112 
L 215.266116 300.302169 
L 219.365289 300.923218 
L 223.464463 301.393499 
L 227.563636 301.707363 
L 231.66281 301.857232 
L 235.761983 301.837198 
L 239.861157 301.639685 
L 243.960331 301.261225 
L 248.059504 300.704515 
L 252.158678 299.978802 
L 256.257851 299.096671 
L 260.357025 298.063387 
L 264.456198 296.885757 
L 268.555372 295.57521 
L 272.654545 294.148569 
L 276.753719 292.625227 
L 280.852893 291.020593 
L 284.952066 289.351107 
L 289.05124 287.634361 
L 293.150413 285.889747 
L 297.249587 284.140639 
L 301.34876 282.413748 
L 305.447934 280.737454 
L 309.547107 279.139114 
L 313.646281 277.642997 
L 317.745455 276.269138 
L 321.844628 275.031663 
L 325.943802 273.932884 
L 330.042975 272.958931 
L 334.142149 272.089257 
L 338.241322 271.303185 
L 342.340496 270.582481 
L 346.439669 269.909549 
L 350.538843 269.26654 
L 354.638017 268.639969 
L 358.73719 268.022002 
L 362.836364 267.410841 
L 366.935537 266.809698 
L 371.034711 266.224864 
L 375.133884 265.667255 
L 379.233058 265.152796 
L 383.332231 264.700365 
L 387.431405 264.334748 
L 391.530579 264.081756 
L 395.629752 263.962709 
L 399.728926 263.992118 
L 403.828099 264.173707 
L 407.927273 264.499642 
L 412.026446 264.953357 
L 416.12562 265.520212 
L 420.224793 266.18852 
L 424.323967 266.94544 
L 428.42314 267.77312 
L 432.522314 268.649857 
L 436.621488 269.551894 
L 440.720661 270.454958 
L 444.819835 271.340042 
L 448.919008 272.19559 
L 453.018182 273.014923 
L 457.117355 273.793289 
L 461.216529 274.527349 
L 465.315702 275.218132 
L 469.414876 275.87013 
L 473.51405 276.487583 
L 477.613223 277.072674 
L 481.712397 277.629384 
L 485.81157 278.169912 
L 489.910744 278.712496 
L 494.009917 279.282946 
L 498.109091 279.914783 
" clip-path="url(#pe80d9687a3)" style="fill: none; stroke: #ff7f0e; stroke-opacity: 0.5; stroke-width: 1.5; stroke-linecap: square"/>
   </g>
   <g id="patch_9">
    <path d="M 72 384.48 
L 72 233.28 
" style="fill: none; stroke: #000000; stroke-width: 0.8; stroke-linejoin: miter; stroke-linecap: square"/>
   </g>
   <g id="patch_10">
    <path d="M 518.4 384.48 
L 518.4 233.28 
" style="fill: none; stroke: #000000; stroke-width: 0.8; stroke-linejoin: miter; stroke-linecap: square"/>
   </g>
   <g id="patch_11">
    <path d="M 72 384.48 
L 518.4 384.48 
" style="fill: none; stroke: #000000; stroke-width: 0.8; stroke-linejoin: miter; stroke-linecap: square"/>
   </g>
   <g id="patch_12">
    <path d="M 72 233.28 
L 518.4 233.28 
" style="fill: none; stroke: #000000; stroke-width: 0.8; stroke-linejoin: miter; stroke-linecap: square"/>
   </g>
   <g id="legend_2">
    <g id="line2d_31">
     <path d="M 335.953125 339.987813 
L 345.953125 339.987813 
L 355.953125 339.987813 
" style="fill: none; stroke: #1f77b4; stroke-opacity: 0.5; stroke-width: 1.5; stroke-linecap: square"/>
    </g>
    <g id="text_32">
     <!-- predicted_values, US vertical -->
     <g transform="translate(363.953125 343.487813) scale(0.1 -0.1)">
      <use xlink:href="#DejaVuSans-70"/>
      <use xlink:href="#DejaVuSans-72" x="63.476562"/>
      <use xlink:href="#DejaVuSans-65" x="102.339844"/>
      <use xlink:href="#DejaVuSans-64" x="163.863281"/>
      <use xlink:href="#DejaVuSans-69" x="227.339844"/>
      <use xlink:href="#DejaVuSans-63" x="255.123047"/>
      <use xlink:href="#DejaVuSans-74" x="310.103516"/>
      <use xlink:href="#DejaVuSans-65" x="349.3125"/>
      <use xlink:href="#DejaVuSans-64" x="410.835938"/>
      <use xlink:href="#DejaVuSans-5f" x="474.3125"/>
      <use xlink:href="#DejaVuSans-76" x="524.3125"/>
      <use xlink:href="#DejaVuSans-61" x="583.492188"/>
      <use xlink:href="#DejaVuSans-6c" x="644.771484"/>
      <use xlink:href="#DejaVuSans-75" x="672.554688"/>
      <use xlink:href="#DejaVuSans-65" x="735.933594"/>
      <use xlink:href="#DejaVuSans-73" x="797.457031"/>
      <use xlink:href="#DejaVuSans-2c" x="849.556641"/>
      <use xlink:href="#DejaVuSans-20" x="881.34375"/>
      <use xlink:href="#DejaVuSans-55" x="913.130859"/>
      <use xlink:href="#DejaVuSans-53" x="986.324219"/>
      <use xlink:href="#DejaVuSans-20" x="1049.800781"/>
      <use xlink:href="#DejaVuSans-76" x="1081.587891"/>
      <use xlink:href="#DejaVuSans-65" x="1140.767578"/>
      <use xlink:href="#DejaVuSans-72" x="1202.291016"/>
      <use xlink:href="#DejaVuSans-74" x="1243.404297"/>
      <use xlink:href="#DejaVuSans-69" x="1282.613281"/>
      <use xlink:href="#DejaVuSans-63" x="1310.396484"/>
      <use xlink:href="#DejaVuSans-61" x="1365.376953"/>
      <use xlink:href="#DejaVuSans-6c" x="1426.65625"/>
     </g>
    </g>
    <g id="line2d_32">
     <path d="M 335.953125 354.944062 
L 345.953125 354.944062 
L 355.953125 354.944062 
" style="fill: none; stroke: #ff7f0e; stroke-opacity: 0.5; stroke-width: 1.5; stroke-linecap: square"/>
    </g>
    <g id="text_33">
     <!-- real_values, US vertical -->
     <g transform="translate(363.953125 358.444062) scale(0.1 -0.1)">
      <use xlink:href="#DejaVuSans-72"/>
      <use xlink:href="#DejaVuSans-65" x="38.863281"/>
      <use xlink:href="#DejaVuSans-61" x="100.386719"/>
      <use xlink:href="#DejaVuSans-6c" x="161.666016"/>
      <use xlink:href="#DejaVuSans-5f" x="189.449219"/>
      <use xlink:href="#DejaVuSans-76" x="239.449219"/>
      <use xlink:href="#DejaVuSans-61" x="298.628906"/>
      <use xlink:href="#DejaVuSans-6c" x="359.908203"/>
      <use xlink:href="#DejaVuSans-75" x="387.691406"/>
      <use xlink:href="#DejaVuSans-65" x="451.070312"/>
      <use xlink:href="#DejaVuSans-73" x="512.59375"/>
      <use xlink:href="#DejaVuSans-2c" x="564.693359"/>
      <use xlink:href="#DejaVuSans-20" x="596.480469"/>
      <use xlink:href="#DejaVuSans-55" x="628.267578"/>
      <use xlink:href="#DejaVuSans-53" x="701.460938"/>
      <use xlink:href="#DejaVuSans-20" x="764.9375"/>
      <use xlink:href="#DejaVuSans-76" x="796.724609"/>
      <use xlink:href="#DejaVuSans-65" x="855.904297"/>
      <use xlink:href="#DejaVuSans-72" x="917.427734"/>
      <use xlink:href="#DejaVuSans-74" x="958.541016"/>
      <use xlink:href="#DejaVuSans-69" x="997.75"/>
      <use xlink:href="#DejaVuSans-63" x="1025.533203"/>
      <use xlink:href="#DejaVuSans-61" x="1080.513672"/>
      <use xlink:href="#DejaVuSans-6c" x="1141.792969"/>
     </g>
    </g>
    <g id="patch_13">
     <path d="M 335.953125 373.400312 
L 355.953125 373.400312 
L 355.953125 366.400312 
L 335.953125 366.400312 
z
" style="fill: #fa8072; fill-opacity: 0.5; stroke: #fa8072; stroke-opacity: 0.5; stroke-linejoin: miter"/>
    </g>
    <g id="text_34">
     <!-- 95% confidence interval -->
     <g transform="translate(363.953125 373.400312) scale(0.1 -0.1)">
      <use xlink:href="#DejaVuSans-39"/>
      <use xlink:href="#DejaVuSans-35" x="63.623047"/>
      <use xlink:href="#DejaVuSans-25" x="127.246094"/>
      <use xlink:href="#DejaVuSans-20" x="222.265625"/>
      <use xlink:href="#DejaVuSans-63" x="254.052734"/>
      <use xlink:href="#DejaVuSans-6f" x="309.033203"/>
      <use xlink:href="#DejaVuSans-6e" x="370.214844"/>
      <use xlink:href="#DejaVuSans-66" x="433.59375"/>
      <use xlink:href="#DejaVuSans-69" x="468.798828"/>
      <use xlink:href="#DejaVuSans-64" x="496.582031"/>
      <use xlink:href="#DejaVuSans-65" x="560.058594"/>
      <use xlink:href="#DejaVuSans-6e" x="621.582031"/>
      <use xlink:href="#DejaVuSans-63" x="684.960938"/>
      <use xlink:href="#DejaVuSans-65" x="739.941406"/>
      <use xlink:href="#DejaVuSans-20" x="801.464844"/>
      <use xlink:href="#DejaVuSans-69" x="833.251953"/>
      <use xlink:href="#DejaVuSans-6e" x="861.035156"/>
      <use xlink:href="#DejaVuSans-74" x="924.414062"/>
      <use xlink:href="#DejaVuSans-65" x="963.623047"/>
      <use xlink:href="#DejaVuSans-72" x="1025.146484"/>
      <use xlink:href="#DejaVuSans-76" x="1066.259766"/>
      <use xlink:href="#DejaVuSans-61" x="1125.439453"/>
      <use xlink:href="#DejaVuSans-6c" x="1186.71875"/>
     </g>
    </g>
   </g>
  </g>
  <g id="text_35">
   <!-- US Sensor predict vs real -->
   <g transform="translate(187.46875 20.7975) scale(0.16 -0.16)">
    <use xlink:href="#DejaVuSans-55"/>
    <use xlink:href="#DejaVuSans-53" x="73.193359"/>
    <use xlink:href="#DejaVuSans-20" x="136.669922"/>
    <use xlink:href="#DejaVuSans-53" x="168.457031"/>
    <use xlink:href="#DejaVuSans-65" x="231.933594"/>
    <use xlink:href="#DejaVuSans-6e" x="293.457031"/>
    <use xlink:href="#DejaVuSans-73" x="356.835938"/>
    <use xlink:href="#DejaVuSans-6f" x="408.935547"/>
    <use xlink:href="#DejaVuSans-72" x="470.117188"/>
    <use xlink:href="#DejaVuSans-20" x="511.230469"/>
    <use xlink:href="#DejaVuSans-70" x="543.017578"/>
    <use xlink:href="#DejaVuSans-72" x="606.494141"/>
    <use xlink:href="#DejaVuSans-65" x="645.357422"/>
    <use xlink:href="#DejaVuSans-64" x="706.880859"/>
    <use xlink:href="#DejaVuSans-69" x="770.357422"/>
    <use xlink:href="#DejaVuSans-63" x="798.140625"/>
    <use xlink:href="#DejaVuSans-74" x="853.121094"/>
    <use xlink:href="#DejaVuSans-20" x="892.330078"/>
    <use xlink:href="#DejaVuSans-76" x="924.117188"/>
    <use xlink:href="#DejaVuSans-73" x="983.296875"/>
    <use xlink:href="#DejaVuSans-20" x="1035.396484"/>
    <use xlink:href="#DejaVuSans-72" x="1067.183594"/>
    <use xlink:href="#DejaVuSans-65" x="1106.046875"/>
    <use xlink:href="#DejaVuSans-61" x="1167.570312"/>
    <use xlink:href="#DejaVuSans-6c" x="1228.849609"/>
   </g>
  </g>
 </g>
 <defs>
  <clipPath id="pe01b4dc0e4">
   <rect x="72" y="51.84" width="446.4" height="151.2"/>
  </clipPath>
  <clipPath id="pe80d9687a3">
   <rect x="72" y="233.28" width="446.4" height="151.2"/>
  </clipPath>
 </defs>
</svg>
