<?xml version="1.0" encoding="utf-8" standalone="no"?>
<!DOCTYPE svg PUBLIC "-//W3C//DTD SVG 1.1//EN"
  "http://www.w3.org/Graphics/SVG/1.1/DTD/svg11.dtd">
<svg xmlns:xlink="http://www.w3.org/1999/xlink" width="720pt" height="360pt" viewBox="0 0 720 360" xmlns="http://www.w3.org/2000/svg" version="1.1">
 <metadata>
  <rdf:RDF xmlns:dc="http://purl.org/dc/elements/1.1/" xmlns:cc="http://creativecommons.org/ns#" xmlns:rdf="http://www.w3.org/1999/02/22-rdf-syntax-ns#">
   <cc:Work>
    <dc:type rdf:resource="http://purl.org/dc/dcmitype/StillImage"/>
    <dc:date>2025-02-19T08:40:00.263958</dc:date>
    <dc:format>image/svg+xml</dc:format>
    <dc:creator>
     <cc:Agent>
      <dc:title>Matplotlib v3.8.4, https://matplotlib.org/</dc:title>
     </cc:Agent>
    </dc:creator>
   </cc:Work>
  </rdf:RDF>
 </metadata>
 <defs>
  <style type="text/css">*{stroke-linejoin: round; stroke-linecap: butt}</style>
 </defs>
 <g id="figure_1">
  <g id="patch_1">
   <path d="M 0 360 
L 720 360 
L 720 0 
L 0 0 
z
" style="fill: #ffffff"/>
  </g>
  <g id="axes_1">
   <g id="patch_2">
    <path d="M 90 320.4 
L 648 320.4 
L 648 43.2 
L 90 43.2 
z
" style="fill: #ffffff"/>
   </g>
   <g id="matplotlib.axis_1">
    <g id="xtick_1">
     <g id="line2d_1">
      <defs>
       <path id="mf317b0c660" d="M 0 0 
L 0 3.5 
" style="stroke: #000000; stroke-width: 0.8"/>
      </defs>
      <g>
       <use xlink:href="#mf317b0c660" x="90" y="320.4" style="stroke: #000000; stroke-width: 0.8"/>
      </g>
     </g>
     <g id="text_1">
      <!-- 4.00 -->
      <g transform="translate(78.867188 334.998438) scale(0.1 -0.1)">
       <defs>
        <path id="DejaVuSans-34" d="M 2419 4116 
L 825 1625 
L 2419 1625 
L 2419 4116 
z
M 2253 4666 
L 3047 4666 
L 3047 1625 
L 3713 1625 
L 3713 1100 
L 3047 1100 
L 3047 0 
L 2419 0 
L 2419 1100 
L 313 1100 
L 313 1709 
L 2253 4666 
z
" transform="scale(0.015625)"/>
        <path id="DejaVuSans-2e" d="M 684 794 
L 1344 794 
L 1344 0 
L 684 0 
L 684 794 
z
" transform="scale(0.015625)"/>
        <path id="DejaVuSans-30" d="M 2034 4250 
Q 1547 4250 1301 3770 
Q 1056 3291 1056 2328 
Q 1056 1369 1301 889 
Q 1547 409 2034 409 
Q 2525 409 2770 889 
Q 3016 1369 3016 2328 
Q 3016 3291 2770 3770 
Q 2525 4250 2034 4250 
z
M 2034 4750 
Q 2819 4750 3233 4129 
Q 3647 3509 3647 2328 
Q 3647 1150 3233 529 
Q 2819 -91 2034 -91 
Q 1250 -91 836 529 
Q 422 1150 422 2328 
Q 422 3509 836 4129 
Q 1250 4750 2034 4750 
z
" transform="scale(0.015625)"/>
       </defs>
       <use xlink:href="#DejaVuSans-34"/>
       <use xlink:href="#DejaVuSans-2e" x="63.623047"/>
       <use xlink:href="#DejaVuSans-30" x="95.410156"/>
       <use xlink:href="#DejaVuSans-30" x="159.033203"/>
      </g>
     </g>
    </g>
    <g id="xtick_2">
     <g id="line2d_2">
      <g>
       <use xlink:href="#mf317b0c660" x="159.75" y="320.4" style="stroke: #000000; stroke-width: 0.8"/>
      </g>
     </g>
     <g id="text_2">
      <!-- 4.25 -->
      <g transform="translate(148.617188 334.998438) scale(0.1 -0.1)">
       <defs>
        <path id="DejaVuSans-32" d="M 1228 531 
L 3431 531 
L 3431 0 
L 469 0 
L 469 531 
Q 828 903 1448 1529 
Q 2069 2156 2228 2338 
Q 2531 2678 2651 2914 
Q 2772 3150 2772 3378 
Q 2772 3750 2511 3984 
Q 2250 4219 1831 4219 
Q 1534 4219 1204 4116 
Q 875 4013 500 3803 
L 500 4441 
Q 881 4594 1212 4672 
Q 1544 4750 1819 4750 
Q 2544 4750 2975 4387 
Q 3406 4025 3406 3419 
Q 3406 3131 3298 2873 
Q 3191 2616 2906 2266 
Q 2828 2175 2409 1742 
Q 1991 1309 1228 531 
z
" transform="scale(0.015625)"/>
        <path id="DejaVuSans-35" d="M 691 4666 
L 3169 4666 
L 3169 4134 
L 1269 4134 
L 1269 2991 
Q 1406 3038 1543 3061 
Q 1681 3084 1819 3084 
Q 2600 3084 3056 2656 
Q 3513 2228 3513 1497 
Q 3513 744 3044 326 
Q 2575 -91 1722 -91 
Q 1428 -91 1123 -41 
Q 819 9 494 109 
L 494 744 
Q 775 591 1075 516 
Q 1375 441 1709 441 
Q 2250 441 2565 725 
Q 2881 1009 2881 1497 
Q 2881 1984 2565 2268 
Q 2250 2553 1709 2553 
Q 1456 2553 1204 2497 
Q 953 2441 691 2322 
L 691 4666 
z
" transform="scale(0.015625)"/>
       </defs>
       <use xlink:href="#DejaVuSans-34"/>
       <use xlink:href="#DejaVuSans-2e" x="63.623047"/>
       <use xlink:href="#DejaVuSans-32" x="95.410156"/>
       <use xlink:href="#DejaVuSans-35" x="159.033203"/>
      </g>
     </g>
    </g>
    <g id="xtick_3">
     <g id="line2d_3">
      <g>
       <use xlink:href="#mf317b0c660" x="229.5" y="320.4" style="stroke: #000000; stroke-width: 0.8"/>
      </g>
     </g>
     <g id="text_3">
      <!-- 4.50 -->
      <g transform="translate(218.367188 334.998438) scale(0.1 -0.1)">
       <use xlink:href="#DejaVuSans-34"/>
       <use xlink:href="#DejaVuSans-2e" x="63.623047"/>
       <use xlink:href="#DejaVuSans-35" x="95.410156"/>
       <use xlink:href="#DejaVuSans-30" x="159.033203"/>
      </g>
     </g>
    </g>
    <g id="xtick_4">
     <g id="line2d_4">
      <g>
       <use xlink:href="#mf317b0c660" x="299.25" y="320.4" style="stroke: #000000; stroke-width: 0.8"/>
      </g>
     </g>
     <g id="text_4">
      <!-- 4.75 -->
      <g transform="translate(288.117188 334.998438) scale(0.1 -0.1)">
       <defs>
        <path id="DejaVuSans-37" d="M 525 4666 
L 3525 4666 
L 3525 4397 
L 1831 0 
L 1172 0 
L 2766 4134 
L 525 4134 
L 525 4666 
z
" transform="scale(0.015625)"/>
       </defs>
       <use xlink:href="#DejaVuSans-34"/>
       <use xlink:href="#DejaVuSans-2e" x="63.623047"/>
       <use xlink:href="#DejaVuSans-37" x="95.410156"/>
       <use xlink:href="#DejaVuSans-35" x="159.033203"/>
      </g>
     </g>
    </g>
    <g id="xtick_5">
     <g id="line2d_5">
      <g>
       <use xlink:href="#mf317b0c660" x="369" y="320.4" style="stroke: #000000; stroke-width: 0.8"/>
      </g>
     </g>
     <g id="text_5">
      <!-- 5.00 -->
      <g transform="translate(357.867188 334.998438) scale(0.1 -0.1)">
       <use xlink:href="#DejaVuSans-35"/>
       <use xlink:href="#DejaVuSans-2e" x="63.623047"/>
       <use xlink:href="#DejaVuSans-30" x="95.410156"/>
       <use xlink:href="#DejaVuSans-30" x="159.033203"/>
      </g>
     </g>
    </g>
    <g id="xtick_6">
     <g id="line2d_6">
      <g>
       <use xlink:href="#mf317b0c660" x="438.75" y="320.4" style="stroke: #000000; stroke-width: 0.8"/>
      </g>
     </g>
     <g id="text_6">
      <!-- 5.25 -->
      <g transform="translate(427.617188 334.998438) scale(0.1 -0.1)">
       <use xlink:href="#DejaVuSans-35"/>
       <use xlink:href="#DejaVuSans-2e" x="63.623047"/>
       <use xlink:href="#DejaVuSans-32" x="95.410156"/>
       <use xlink:href="#DejaVuSans-35" x="159.033203"/>
      </g>
     </g>
    </g>
    <g id="xtick_7">
     <g id="line2d_7">
      <g>
       <use xlink:href="#mf317b0c660" x="508.5" y="320.4" style="stroke: #000000; stroke-width: 0.8"/>
      </g>
     </g>
     <g id="text_7">
      <!-- 5.50 -->
      <g transform="translate(497.367188 334.998438) scale(0.1 -0.1)">
       <use xlink:href="#DejaVuSans-35"/>
       <use xlink:href="#DejaVuSans-2e" x="63.623047"/>
       <use xlink:href="#DejaVuSans-35" x="95.410156"/>
       <use xlink:href="#DejaVuSans-30" x="159.033203"/>
      </g>
     </g>
    </g>
    <g id="xtick_8">
     <g id="line2d_8">
      <g>
       <use xlink:href="#mf317b0c660" x="578.25" y="320.4" style="stroke: #000000; stroke-width: 0.8"/>
      </g>
     </g>
     <g id="text_8">
      <!-- 5.75 -->
      <g transform="translate(567.117188 334.998438) scale(0.1 -0.1)">
       <use xlink:href="#DejaVuSans-35"/>
       <use xlink:href="#DejaVuSans-2e" x="63.623047"/>
       <use xlink:href="#DejaVuSans-37" x="95.410156"/>
       <use xlink:href="#DejaVuSans-35" x="159.033203"/>
      </g>
     </g>
    </g>
    <g id="xtick_9">
     <g id="line2d_9">
      <g>
       <use xlink:href="#mf317b0c660" x="648" y="320.4" style="stroke: #000000; stroke-width: 0.8"/>
      </g>
     </g>
     <g id="text_9">
      <!-- 6.00 -->
      <g transform="translate(636.867188 334.998438) scale(0.1 -0.1)">
       <defs>
        <path id="DejaVuSans-36" d="M 2113 2584 
Q 1688 2584 1439 2293 
Q 1191 2003 1191 1497 
Q 1191 994 1439 701 
Q 1688 409 2113 409 
Q 2538 409 2786 701 
Q 3034 994 3034 1497 
Q 3034 2003 2786 2293 
Q 2538 2584 2113 2584 
z
M 3366 4563 
L 3366 3988 
Q 3128 4100 2886 4159 
Q 2644 4219 2406 4219 
Q 1781 4219 1451 3797 
Q 1122 3375 1075 2522 
Q 1259 2794 1537 2939 
Q 1816 3084 2150 3084 
Q 2853 3084 3261 2657 
Q 3669 2231 3669 1497 
Q 3669 778 3244 343 
Q 2819 -91 2113 -91 
Q 1303 -91 875 529 
Q 447 1150 447 2328 
Q 447 3434 972 4092 
Q 1497 4750 2381 4750 
Q 2619 4750 2861 4703 
Q 3103 4656 3366 4563 
z
" transform="scale(0.015625)"/>
       </defs>
       <use xlink:href="#DejaVuSans-36"/>
       <use xlink:href="#DejaVuSans-2e" x="63.623047"/>
       <use xlink:href="#DejaVuSans-30" x="95.410156"/>
       <use xlink:href="#DejaVuSans-30" x="159.033203"/>
      </g>
     </g>
    </g>
   </g>
   <g id="matplotlib.axis_2">
    <g id="ytick_1">
     <g id="line2d_10">
      <defs>
       <path id="m74f4d8fcb8" d="M 0 0 
L -3.5 0 
" style="stroke: #000000; stroke-width: 0.8"/>
      </defs>
      <g>
       <use xlink:href="#m74f4d8fcb8" x="90" y="273.254206" style="stroke: #000000; stroke-width: 0.8"/>
      </g>
     </g>
     <g id="text_10">
      <!-- −1.5 -->
      <g transform="translate(58.717187 277.053425) scale(0.1 -0.1)">
       <defs>
        <path id="DejaVuSans-2212" d="M 678 2272 
L 4684 2272 
L 4684 1741 
L 678 1741 
L 678 2272 
z
" transform="scale(0.015625)"/>
        <path id="DejaVuSans-31" d="M 794 531 
L 1825 531 
L 1825 4091 
L 703 3866 
L 703 4441 
L 1819 4666 
L 2450 4666 
L 2450 531 
L 3481 531 
L 3481 0 
L 794 0 
L 794 531 
z
" transform="scale(0.015625)"/>
       </defs>
       <use xlink:href="#DejaVuSans-2212"/>
       <use xlink:href="#DejaVuSans-31" x="83.789062"/>
       <use xlink:href="#DejaVuSans-2e" x="147.412109"/>
       <use xlink:href="#DejaVuSans-35" x="179.199219"/>
      </g>
     </g>
    </g>
    <g id="ytick_2">
     <g id="line2d_11">
      <g>
       <use xlink:href="#m74f4d8fcb8" x="90" y="217.228142" style="stroke: #000000; stroke-width: 0.8"/>
      </g>
     </g>
     <g id="text_11">
      <!-- −1.0 -->
      <g transform="translate(58.717187 221.027361) scale(0.1 -0.1)">
       <use xlink:href="#DejaVuSans-2212"/>
       <use xlink:href="#DejaVuSans-31" x="83.789062"/>
       <use xlink:href="#DejaVuSans-2e" x="147.412109"/>
       <use xlink:href="#DejaVuSans-30" x="179.199219"/>
      </g>
     </g>
    </g>
    <g id="ytick_3">
     <g id="line2d_12">
      <g>
       <use xlink:href="#m74f4d8fcb8" x="90" y="161.202077" style="stroke: #000000; stroke-width: 0.8"/>
      </g>
     </g>
     <g id="text_12">
      <!-- −0.5 -->
      <g transform="translate(58.717187 165.001296) scale(0.1 -0.1)">
       <use xlink:href="#DejaVuSans-2212"/>
       <use xlink:href="#DejaVuSans-30" x="83.789062"/>
       <use xlink:href="#DejaVuSans-2e" x="147.412109"/>
       <use xlink:href="#DejaVuSans-35" x="179.199219"/>
      </g>
     </g>
    </g>
    <g id="ytick_4">
     <g id="line2d_13">
      <g>
       <use xlink:href="#m74f4d8fcb8" x="90" y="105.176013" style="stroke: #000000; stroke-width: 0.8"/>
      </g>
     </g>
     <g id="text_13">
      <!-- 0.0 -->
      <g transform="translate(67.096875 108.975232) scale(0.1 -0.1)">
       <use xlink:href="#DejaVuSans-30"/>
       <use xlink:href="#DejaVuSans-2e" x="63.623047"/>
       <use xlink:href="#DejaVuSans-30" x="95.410156"/>
      </g>
     </g>
    </g>
    <g id="ytick_5">
     <g id="line2d_14">
      <g>
       <use xlink:href="#m74f4d8fcb8" x="90" y="49.149948" style="stroke: #000000; stroke-width: 0.8"/>
      </g>
     </g>
     <g id="text_14">
      <!-- 0.5 -->
      <g transform="translate(67.096875 52.949167) scale(0.1 -0.1)">
       <use xlink:href="#DejaVuSans-30"/>
       <use xlink:href="#DejaVuSans-2e" x="63.623047"/>
       <use xlink:href="#DejaVuSans-35" x="95.410156"/>
      </g>
     </g>
    </g>
   </g>
   <g id="line2d_15">
    <path d="M 89.709579 150.642691 
L 90.639337 145.479577 
L 91.569095 142.711761 
L 92.498853 142.407103 
L 93.428611 144.219629 
L 94.358369 147.614147 
L 95.288127 152.173081 
L 97.147643 163.779798 
L 99.007159 175.328879 
L 99.936917 179.385632 
L 100.866675 181.538165 
L 101.796433 181.879794 
L 102.726191 181.008567 
L 103.655949 179.381051 
L 104.585707 177.153996 
L 105.515465 174.18519 
L 106.445223 170.203006 
L 108.304739 160.678537 
L 109.234497 156.619777 
L 110.164255 153.630655 
L 111.094013 151.788347 
L 112.023771 151.078151 
L 112.953529 151.553169 
L 113.883287 153.204556 
L 114.813045 155.952776 
L 117.602318 166.777669 
L 118.532076 169.31348 
L 119.461834 170.363565 
L 120.391592 170.043188 
L 121.32135 168.944034 
L 122.251108 167.568222 
L 123.180866 165.970226 
L 124.110624 163.813138 
L 125.97014 158.041643 
L 126.899898 155.859109 
L 127.829656 154.937498 
L 128.759414 155.182333 
L 129.689172 156.229497 
L 130.61893 157.818887 
L 131.548688 159.923342 
L 132.478446 162.572239 
L 134.337962 168.538255 
L 135.26772 170.837695 
L 136.197478 171.769599 
L 137.127236 170.753094 
L 138.056994 167.562725 
L 138.986752 162.572706 
L 141.776026 145.436645 
L 142.705784 140.836065 
L 143.635542 137.355248 
L 144.5653 135.557775 
L 145.495058 136.033808 
L 146.424816 138.76247 
L 147.354574 143.019073 
L 149.21409 152.207594 
L 150.143848 155.555633 
L 151.073606 157.521506 
L 152.003364 157.987748 
L 152.933122 156.915362 
L 153.86288 154.228437 
L 154.792638 149.928447 
L 156.652154 138.168191 
L 157.581912 132.329415 
L 158.51167 127.693088 
L 159.441428 124.767662 
L 160.371186 123.91278 
L 161.300944 125.543155 
L 162.230702 130.026572 
L 163.16046 137.452999 
L 164.090218 147.430502 
L 165.949734 170.484766 
L 166.879492 180.480072 
L 167.80925 187.732463 
L 168.739008 191.421794 
L 169.668765 191.169735 
L 170.598523 187.169218 
L 171.528281 180.076023 
L 175.247313 144.457499 
L 176.177071 140.654812 
L 177.106829 140.770175 
L 178.036587 144.6759 
L 178.966345 151.576581 
L 180.825861 170.110878 
L 181.755619 179.5658 
L 182.685377 187.737419 
L 183.615135 193.431493 
L 184.544893 195.59908 
L 185.474651 193.96214 
L 186.404409 188.976642 
L 187.334167 181.297273 
L 189.193683 161.114985 
L 190.123441 150.802075 
L 191.053199 141.974972 
L 191.982957 135.770756 
L 192.912715 133.098363 
L 193.842473 134.426605 
L 194.772231 139.753531 
L 195.701989 148.493471 
L 198.491263 180.727322 
L 199.421021 188.478041 
L 200.350779 192.705879 
L 201.280537 192.687078 
L 202.210295 188.235933 
L 203.140053 179.97403 
L 205.929327 147.667213 
L 206.859085 139.63972 
L 207.788843 134.864355 
L 208.718601 133.95313 
L 209.648359 137.009495 
L 210.578117 143.730896 
L 211.507875 153.376606 
L 214.297149 186.560556 
L 215.226907 193.931544 
L 216.156665 197.597819 
L 217.086423 197.359131 
L 218.016181 193.597195 
L 218.945939 186.997625 
L 221.735213 161.118081 
L 222.66497 155.352911 
L 223.594728 153.444369 
L 224.524486 155.949163 
L 225.454244 162.66814 
L 226.384002 172.840255 
L 230.103034 221.224445 
L 231.032792 227.381709 
L 231.96255 228.48982 
L 232.892308 224.320429 
L 233.822066 215.41086 
L 234.751824 202.938884 
L 236.61134 174.526011 
L 237.541098 162.125071 
L 238.470856 152.954033 
L 239.400614 148.005463 
L 240.330372 147.688138 
L 241.26013 151.996716 
L 242.189888 160.397302 
L 244.049404 184.049277 
L 244.979162 195.641858 
L 245.90892 204.981176 
L 246.838678 211.151872 
L 247.768436 213.815067 
L 248.698194 212.904483 
L 249.627952 208.468332 
L 250.55771 200.935891 
L 253.346984 171.425959 
L 254.276742 164.290367 
L 255.2065 160.534475 
L 256.136258 160.460597 
L 257.066016 163.790016 
L 257.995774 169.889615 
L 259.85529 186.464595 
L 260.785048 194.712893 
L 261.714806 201.393384 
L 262.644564 205.511388 
L 263.574322 206.572787 
L 264.50408 204.568064 
L 265.433838 200.031851 
L 268.223112 181.138297 
L 269.15287 176.346819 
L 270.082628 173.414327 
L 271.012386 172.809672 
L 271.942144 174.834379 
L 272.871902 179.314964 
L 275.661175 198.080899 
L 276.590933 203.00437 
L 277.520691 206.559263 
L 278.450449 208.437129 
L 279.380207 208.330361 
L 280.309965 206.151707 
L 281.239723 202.172355 
L 284.028997 187.478975 
L 284.958755 184.200092 
L 285.888513 182.683557 
L 286.818271 183.128728 
L 287.748029 185.458022 
L 288.677787 189.445649 
L 289.607545 194.653158 
L 291.467061 206.430388 
L 292.396819 211.428689 
L 293.326577 214.644925 
L 294.256335 215.720918 
L 295.186093 214.837576 
L 296.115851 212.441386 
L 297.045609 208.911927 
L 298.905125 200.009257 
L 299.834883 195.482855 
L 300.764641 191.533751 
L 301.694399 188.556003 
L 302.624157 186.56972 
L 303.553915 185.482153 
L 304.483673 185.039754 
L 305.413431 184.754388 
L 307.272947 183.92467 
L 308.202705 183.817989 
L 309.132463 184.132963 
L 311.921737 185.84508 
L 313.781253 186.80999 
L 314.711011 187.377577 
L 315.640769 187.735776 
L 316.570527 187.632662 
L 317.500285 186.915763 
L 318.430043 185.55377 
L 321.219317 180.251916 
L 322.149075 178.903895 
L 323.078833 177.896247 
L 324.008591 177.212195 
L 324.938349 177.032221 
L 325.868107 177.779454 
L 326.797865 179.690855 
L 327.727623 182.565475 
L 330.516896 192.737784 
L 331.446654 195.45427 
L 332.376412 197.657268 
L 333.30617 198.96911 
L 334.235928 198.817113 
L 335.165686 196.752113 
L 336.095444 192.78863 
L 337.95496 181.577176 
L 338.884718 176.091394 
L 339.814476 171.736238 
L 340.744234 169.141153 
L 341.673992 168.709781 
L 342.60375 170.515168 
L 343.533508 174.545433 
L 344.463266 180.670518 
L 347.25254 203.845629 
L 348.182298 209.541019 
L 349.112056 212.736003 
L 350.041814 213.178375 
L 350.971572 210.914453 
L 351.90133 206.096347 
L 352.831088 199.062152 
L 355.620362 173.911291 
L 356.55012 168.235263 
L 357.479878 165.431264 
L 358.409636 165.705263 
L 359.339394 168.805007 
L 360.269152 174.108457 
L 362.128668 188.297165 
L 363.058426 195.414163 
L 363.988184 201.156158 
L 364.917942 204.506572 
L 365.8477 204.739823 
L 366.777458 201.765401 
L 367.707216 196.263797 
L 370.49649 175.754434 
L 371.426248 170.814172 
L 372.356006 168.406261 
L 373.285764 169.255067 
L 374.215522 173.504177 
L 375.14528 180.641045 
L 377.934554 208.336172 
L 378.864312 215.226644 
L 379.79407 219.019817 
L 380.723828 219.058501 
L 381.653585 215.254421 
L 382.583343 207.889492 
L 383.513101 197.55052 
L 386.302375 161.555107 
L 387.232133 153.428991 
L 388.161891 149.530389 
L 389.091649 150.237674 
L 390.021407 155.326553 
L 390.951165 164.199128 
L 391.880923 176.0616 
L 393.740439 203.090941 
L 394.670197 214.435591 
L 395.599955 221.908143 
L 396.529713 224.448288 
L 397.459471 222.007952 
L 398.389229 215.157585 
L 399.318987 204.751645 
L 402.108261 165.774837 
L 403.038019 155.585882 
L 403.967777 149.206219 
L 404.897535 147.24424 
L 405.827293 149.588605 
L 406.757051 155.675164 
L 407.686809 164.426816 
L 409.546325 184.244639 
L 410.476083 192.589808 
L 411.405841 198.018779 
L 412.335599 199.448669 
L 413.265357 196.377918 
L 414.195115 189.038782 
L 415.124873 178.404987 
L 417.914147 142.232197 
L 418.843905 133.560001 
L 419.773663 128.477208 
L 420.703421 127.584115 
L 421.633179 131.133494 
L 422.562937 138.926028 
L 423.492695 149.982048 
L 425.352211 175.780662 
L 426.281969 186.968272 
L 427.211727 194.902906 
L 428.141485 198.757651 
L 429.071243 198.247349 
L 430.001001 193.39685 
L 430.930759 184.574306 
L 432.790275 159.915351 
L 433.720033 147.83574 
L 434.64979 138.179044 
L 435.579548 131.822288 
L 436.509306 129.196332 
L 437.439064 130.42167 
L 438.368822 135.037344 
L 439.29858 142.062996 
L 442.087854 166.861021 
L 443.017612 172.415328 
L 443.94737 174.629192 
L 444.877128 172.85599 
L 445.806886 167.182961 
L 446.736644 158.496755 
L 449.525918 126.852484 
L 450.455676 118.264102 
L 451.385434 112.493712 
L 452.315192 110.418989 
L 453.24495 112.294724 
L 454.174708 117.682287 
L 455.104466 125.63933 
L 456.963982 144.048007 
L 457.89374 152.073276 
L 458.823498 158.086879 
L 459.753256 161.437119 
L 460.683014 161.649031 
L 461.612772 158.626494 
L 462.54253 152.837354 
L 465.331804 129.864939 
L 466.261562 124.151273 
L 467.19132 120.470977 
L 468.121078 119.040697 
L 469.050836 120.005494 
L 469.980594 123.299776 
L 470.910352 128.425846 
L 473.699626 146.692722 
L 474.629384 151.365661 
L 475.559142 154.82545 
L 476.4889 157.05536 
L 477.418658 158.178409 
L 478.348416 158.194438 
L 479.278174 156.96915 
L 480.207932 154.660203 
L 482.067448 149.019492 
L 482.997206 146.99349 
L 483.926964 146.240793 
L 484.856722 147.068921 
L 485.78648 149.387943 
L 486.716238 152.848825 
L 488.575753 161.773985 
L 489.505511 166.287584 
L 490.435269 169.991247 
L 491.365027 172.198212 
L 492.294785 172.519157 
L 493.224543 171.023834 
L 494.154301 168.116227 
L 495.084059 164.201358 
L 496.943575 154.461047 
L 498.803091 145.07884 
L 499.732849 141.63687 
L 500.662607 139.327455 
L 501.592365 138.089488 
L 502.522123 137.745959 
L 503.451881 138.012481 
L 507.170913 139.877099 
L 509.030429 140.721594 
L 509.960187 140.912802 
L 510.889945 140.652631 
L 511.819703 139.796446 
L 515.538735 134.747954 
L 516.468493 132.895322 
L 518.328009 128.120269 
L 519.257767 126.169745 
L 520.187525 124.768102 
L 521.117283 123.768704 
L 522.047041 123.031447 
L 522.976799 122.620966 
L 523.906557 122.805653 
L 524.836315 123.818547 
L 525.766073 125.608586 
L 526.695831 127.952157 
L 529.485105 135.729745 
L 530.414863 137.56703 
L 531.344621 138.641887 
L 532.274379 138.715451 
L 533.204137 137.765755 
L 534.133895 135.927161 
L 536.923169 128.557118 
L 537.852927 127.469628 
L 538.782685 127.775326 
L 539.712443 129.420507 
L 540.6422 132.295735 
L 541.571958 136.170798 
L 544.361232 149.888588 
L 545.29099 153.252353 
L 546.220748 154.990598 
L 547.150506 154.628655 
L 548.080264 152.085825 
L 549.010022 147.766674 
L 552.729054 126.574456 
L 553.658812 123.528277 
L 554.58857 122.51591 
L 555.518328 123.869296 
L 556.448086 127.540771 
L 557.377844 133.030909 
L 560.167118 152.103798 
L 561.096876 156.352598 
L 562.026634 158.528169 
L 562.956392 158.354666 
L 563.88615 155.672322 
L 564.815908 150.670839 
L 566.675424 136.529026 
L 567.605182 129.375062 
L 568.53494 123.8231 
L 569.464698 120.791687 
L 570.394456 120.70732 
L 571.324214 123.450585 
L 572.253972 128.411364 
L 573.18373 134.998333 
L 575.973004 157.300129 
L 576.902762 161.762371 
L 577.83252 163.271712 
L 578.762278 161.846471 
L 579.692036 157.804925 
L 580.621794 151.693104 
L 583.411068 129.429002 
L 584.340826 124.251706 
L 585.270584 121.702075 
L 586.200342 122.236984 
L 587.1301 126.037534 
L 588.059858 132.799167 
L 589.919374 151.462691 
L 590.849132 161.051687 
L 591.77889 169.326971 
L 592.708648 175.284739 
L 593.638406 178.039154 
L 594.568163 176.956863 
L 595.497921 172.054464 
L 596.427679 163.984477 
L 598.287195 142.534675 
L 599.216953 131.718105 
L 600.146711 122.489771 
L 601.076469 115.913401 
L 602.006227 112.604825 
L 602.935985 112.637064 
L 603.865743 115.631373 
L 604.795501 120.946202 
L 607.584775 142.192422 
L 608.514533 147.193748 
L 609.444291 150.061516 
L 610.374049 150.841971 
L 611.303807 149.823159 
L 612.233565 147.295256 
L 615.022839 136.1171 
L 615.952597 133.468791 
L 616.882355 131.780858 
L 617.812113 131.158768 
L 618.741871 131.873493 
L 619.671629 133.958256 
L 622.460903 142.744156 
L 623.390661 144.150878 
L 624.320419 144.207848 
L 625.250177 142.648776 
L 626.179935 139.455508 
L 628.039451 131.060556 
L 628.969209 127.996788 
L 629.898967 126.687664 
L 630.828725 127.384902 
L 631.758483 130.138309 
L 632.688241 134.922969 
L 633.617999 141.587617 
L 636.407273 164.404468 
L 637.337031 169.092965 
L 638.266789 171.043022 
L 639.196547 170.147358 
L 640.126305 166.534273 
L 641.056063 160.465633 
L 641.985821 152.268101 
L 643.845337 131.692542 
L 645.704853 110.756646 
L 646.634611 101.999621 
L 647.564368 94.932328 
L 648.494126 89.848834 
L 648.494126 89.848834 
" clip-path="url(#p142f284681)" style="fill: none; stroke: #1f77b4; stroke-opacity: 0.5; stroke-width: 1.5; stroke-linecap: square"/>
   </g>
   <g id="line2d_16">
    <path d="M 89.709579 168.357158 
L 94.358369 167.00211 
L 99.936917 165.626253 
L 109.234497 163.638096 
L 117.602318 161.785189 
L 124.110624 160.128865 
L 139.91651 155.93273 
L 143.635542 155.252037 
L 147.354574 154.833824 
L 150.143848 154.723427 
L 152.933122 154.800945 
L 155.722396 155.067815 
L 158.51167 155.514307 
L 162.230702 156.352486 
L 166.879492 157.687874 
L 184.544893 163.159819 
L 200.350779 167.512693 
L 204.999569 169.157352 
L 209.648359 171.065764 
L 215.226907 173.632709 
L 226.384002 178.882959 
L 231.032792 180.779531 
L 235.681582 182.392718 
L 240.330372 183.725974 
L 245.90892 185.040848 
L 278.450449 191.907478 
L 282.169481 192.431745 
L 285.888513 192.750383 
L 289.607545 192.832516 
L 293.326577 192.669214 
L 297.045609 192.275084 
L 301.694399 191.516882 
L 308.202705 190.173328 
L 315.640769 188.667196 
L 320.289559 187.934441 
L 324.938349 187.435199 
L 329.587138 187.172685 
L 335.165686 187.116108 
L 342.60375 187.306434 
L 356.55012 187.705211 
L 363.058426 187.669776 
L 368.636974 187.43039 
L 373.285764 187.025865 
L 377.934554 186.374726 
L 381.653585 185.637608 
L 385.372617 184.681228 
L 389.091649 183.487443 
L 392.810681 182.048556 
L 396.529713 180.370627 
L 400.248745 178.472934 
L 404.897535 175.837542 
L 410.476083 172.384637 
L 417.914147 167.493942 
L 436.509306 155.14313 
L 441.158096 152.347362 
L 444.877128 150.332768 
L 448.59616 148.58802 
L 451.385434 147.49384 
L 454.174708 146.606969 
L 456.963982 145.941053 
L 459.753256 145.499991 
L 462.54253 145.276102 
L 465.331804 145.249655 
L 469.050836 145.466799 
L 473.699626 146.000616 
L 481.13769 146.890814 
L 484.856722 147.089272 
L 487.645995 147.049772 
L 490.435269 146.821795 
L 493.224543 146.395777 
L 496.013817 145.776606 
L 499.732849 144.685793 
L 504.381639 143.013856 
L 514.608977 139.142855 
L 518.328009 138.005822 
L 522.047041 137.137565 
L 524.836315 136.683991 
L 527.625589 136.402408 
L 531.344621 136.280266 
L 535.063653 136.412429 
L 539.712443 136.855321 
L 545.29099 137.645047 
L 567.605182 141.090573 
L 574.113488 141.798273 
L 579.692036 142.183018 
L 584.340826 142.301564 
L 588.989616 142.214783 
L 593.638406 141.927119 
L 599.216953 141.360556 
L 606.655017 140.357612 
L 614.093081 139.152545 
L 619.671629 138.026623 
L 623.390661 137.084183 
L 627.109693 135.923277 
L 630.828725 134.495736 
L 634.547757 132.77352 
L 638.266789 130.756999 
L 641.985821 128.477506 
L 646.634611 125.351353 
L 648.494126 124.047402 
L 648.494126 124.047402 
" clip-path="url(#p142f284681)" style="fill: none; stroke-dasharray: 7.4,3.2; stroke-dashoffset: 0; stroke: #ff7f0e; stroke-width: 2"/>
   </g>
   <g id="patch_3">
    <path d="M 90 320.4 
L 90 43.2 
" style="fill: none; stroke: #000000; stroke-width: 0.8; stroke-linejoin: miter; stroke-linecap: square"/>
   </g>
   <g id="patch_4">
    <path d="M 648 320.4 
L 648 43.2 
" style="fill: none; stroke: #000000; stroke-width: 0.8; stroke-linejoin: miter; stroke-linecap: square"/>
   </g>
   <g id="patch_5">
    <path d="M 90 320.4 
L 648 320.4 
" style="fill: none; stroke: #000000; stroke-width: 0.8; stroke-linejoin: miter; stroke-linecap: square"/>
   </g>
   <g id="patch_6">
    <path d="M 90 43.2 
L 648 43.2 
" style="fill: none; stroke: #000000; stroke-width: 0.8; stroke-linejoin: miter; stroke-linecap: square"/>
   </g>
   <g id="text_15">
    <!-- The original signal and the Gaussian Filtered signal -->
    <g transform="translate(215.683125 37.2) scale(0.12 -0.12)">
     <defs>
      <path id="DejaVuSans-54" d="M -19 4666 
L 3928 4666 
L 3928 4134 
L 2272 4134 
L 2272 0 
L 1638 0 
L 1638 4134 
L -19 4134 
L -19 4666 
z
" transform="scale(0.015625)"/>
      <path id="DejaVuSans-68" d="M 3513 2113 
L 3513 0 
L 2938 0 
L 2938 2094 
Q 2938 2591 2744 2837 
Q 2550 3084 2163 3084 
Q 1697 3084 1428 2787 
Q 1159 2491 1159 1978 
L 1159 0 
L 581 0 
L 581 4863 
L 1159 4863 
L 1159 2956 
Q 1366 3272 1645 3428 
Q 1925 3584 2291 3584 
Q 2894 3584 3203 3211 
Q 3513 2838 3513 2113 
z
" transform="scale(0.015625)"/>
      <path id="DejaVuSans-65" d="M 3597 1894 
L 3597 1613 
L 953 1613 
Q 991 1019 1311 708 
Q 1631 397 2203 397 
Q 2534 397 2845 478 
Q 3156 559 3463 722 
L 3463 178 
Q 3153 47 2828 -22 
Q 2503 -91 2169 -91 
Q 1331 -91 842 396 
Q 353 884 353 1716 
Q 353 2575 817 3079 
Q 1281 3584 2069 3584 
Q 2775 3584 3186 3129 
Q 3597 2675 3597 1894 
z
M 3022 2063 
Q 3016 2534 2758 2815 
Q 2500 3097 2075 3097 
Q 1594 3097 1305 2825 
Q 1016 2553 972 2059 
L 3022 2063 
z
" transform="scale(0.015625)"/>
      <path id="DejaVuSans-20" transform="scale(0.015625)"/>
      <path id="DejaVuSans-6f" d="M 1959 3097 
Q 1497 3097 1228 2736 
Q 959 2375 959 1747 
Q 959 1119 1226 758 
Q 1494 397 1959 397 
Q 2419 397 2687 759 
Q 2956 1122 2956 1747 
Q 2956 2369 2687 2733 
Q 2419 3097 1959 3097 
z
M 1959 3584 
Q 2709 3584 3137 3096 
Q 3566 2609 3566 1747 
Q 3566 888 3137 398 
Q 2709 -91 1959 -91 
Q 1206 -91 779 398 
Q 353 888 353 1747 
Q 353 2609 779 3096 
Q 1206 3584 1959 3584 
z
" transform="scale(0.015625)"/>
      <path id="DejaVuSans-72" d="M 2631 2963 
Q 2534 3019 2420 3045 
Q 2306 3072 2169 3072 
Q 1681 3072 1420 2755 
Q 1159 2438 1159 1844 
L 1159 0 
L 581 0 
L 581 3500 
L 1159 3500 
L 1159 2956 
Q 1341 3275 1631 3429 
Q 1922 3584 2338 3584 
Q 2397 3584 2469 3576 
Q 2541 3569 2628 3553 
L 2631 2963 
z
" transform="scale(0.015625)"/>
      <path id="DejaVuSans-69" d="M 603 3500 
L 1178 3500 
L 1178 0 
L 603 0 
L 603 3500 
z
M 603 4863 
L 1178 4863 
L 1178 4134 
L 603 4134 
L 603 4863 
z
" transform="scale(0.015625)"/>
      <path id="DejaVuSans-67" d="M 2906 1791 
Q 2906 2416 2648 2759 
Q 2391 3103 1925 3103 
Q 1463 3103 1205 2759 
Q 947 2416 947 1791 
Q 947 1169 1205 825 
Q 1463 481 1925 481 
Q 2391 481 2648 825 
Q 2906 1169 2906 1791 
z
M 3481 434 
Q 3481 -459 3084 -895 
Q 2688 -1331 1869 -1331 
Q 1566 -1331 1297 -1286 
Q 1028 -1241 775 -1147 
L 775 -588 
Q 1028 -725 1275 -790 
Q 1522 -856 1778 -856 
Q 2344 -856 2625 -561 
Q 2906 -266 2906 331 
L 2906 616 
Q 2728 306 2450 153 
Q 2172 0 1784 0 
Q 1141 0 747 490 
Q 353 981 353 1791 
Q 353 2603 747 3093 
Q 1141 3584 1784 3584 
Q 2172 3584 2450 3431 
Q 2728 3278 2906 2969 
L 2906 3500 
L 3481 3500 
L 3481 434 
z
" transform="scale(0.015625)"/>
      <path id="DejaVuSans-6e" d="M 3513 2113 
L 3513 0 
L 2938 0 
L 2938 2094 
Q 2938 2591 2744 2837 
Q 2550 3084 2163 3084 
Q 1697 3084 1428 2787 
Q 1159 2491 1159 1978 
L 1159 0 
L 581 0 
L 581 3500 
L 1159 3500 
L 1159 2956 
Q 1366 3272 1645 3428 
Q 1925 3584 2291 3584 
Q 2894 3584 3203 3211 
Q 3513 2838 3513 2113 
z
" transform="scale(0.015625)"/>
      <path id="DejaVuSans-61" d="M 2194 1759 
Q 1497 1759 1228 1600 
Q 959 1441 959 1056 
Q 959 750 1161 570 
Q 1363 391 1709 391 
Q 2188 391 2477 730 
Q 2766 1069 2766 1631 
L 2766 1759 
L 2194 1759 
z
M 3341 1997 
L 3341 0 
L 2766 0 
L 2766 531 
Q 2569 213 2275 61 
Q 1981 -91 1556 -91 
Q 1019 -91 701 211 
Q 384 513 384 1019 
Q 384 1609 779 1909 
Q 1175 2209 1959 2209 
L 2766 2209 
L 2766 2266 
Q 2766 2663 2505 2880 
Q 2244 3097 1772 3097 
Q 1472 3097 1187 3025 
Q 903 2953 641 2809 
L 641 3341 
Q 956 3463 1253 3523 
Q 1550 3584 1831 3584 
Q 2591 3584 2966 3190 
Q 3341 2797 3341 1997 
z
" transform="scale(0.015625)"/>
      <path id="DejaVuSans-6c" d="M 603 4863 
L 1178 4863 
L 1178 0 
L 603 0 
L 603 4863 
z
" transform="scale(0.015625)"/>
      <path id="DejaVuSans-73" d="M 2834 3397 
L 2834 2853 
Q 2591 2978 2328 3040 
Q 2066 3103 1784 3103 
Q 1356 3103 1142 2972 
Q 928 2841 928 2578 
Q 928 2378 1081 2264 
Q 1234 2150 1697 2047 
L 1894 2003 
Q 2506 1872 2764 1633 
Q 3022 1394 3022 966 
Q 3022 478 2636 193 
Q 2250 -91 1575 -91 
Q 1294 -91 989 -36 
Q 684 19 347 128 
L 347 722 
Q 666 556 975 473 
Q 1284 391 1588 391 
Q 1994 391 2212 530 
Q 2431 669 2431 922 
Q 2431 1156 2273 1281 
Q 2116 1406 1581 1522 
L 1381 1569 
Q 847 1681 609 1914 
Q 372 2147 372 2553 
Q 372 3047 722 3315 
Q 1072 3584 1716 3584 
Q 2034 3584 2315 3537 
Q 2597 3491 2834 3397 
z
" transform="scale(0.015625)"/>
      <path id="DejaVuSans-64" d="M 2906 2969 
L 2906 4863 
L 3481 4863 
L 3481 0 
L 2906 0 
L 2906 525 
Q 2725 213 2448 61 
Q 2172 -91 1784 -91 
Q 1150 -91 751 415 
Q 353 922 353 1747 
Q 353 2572 751 3078 
Q 1150 3584 1784 3584 
Q 2172 3584 2448 3432 
Q 2725 3281 2906 2969 
z
M 947 1747 
Q 947 1113 1208 752 
Q 1469 391 1925 391 
Q 2381 391 2643 752 
Q 2906 1113 2906 1747 
Q 2906 2381 2643 2742 
Q 2381 3103 1925 3103 
Q 1469 3103 1208 2742 
Q 947 2381 947 1747 
z
" transform="scale(0.015625)"/>
      <path id="DejaVuSans-74" d="M 1172 4494 
L 1172 3500 
L 2356 3500 
L 2356 3053 
L 1172 3053 
L 1172 1153 
Q 1172 725 1289 603 
Q 1406 481 1766 481 
L 2356 481 
L 2356 0 
L 1766 0 
Q 1100 0 847 248 
Q 594 497 594 1153 
L 594 3053 
L 172 3053 
L 172 3500 
L 594 3500 
L 594 4494 
L 1172 4494 
z
" transform="scale(0.015625)"/>
      <path id="DejaVuSans-47" d="M 3809 666 
L 3809 1919 
L 2778 1919 
L 2778 2438 
L 4434 2438 
L 4434 434 
Q 4069 175 3628 42 
Q 3188 -91 2688 -91 
Q 1594 -91 976 548 
Q 359 1188 359 2328 
Q 359 3472 976 4111 
Q 1594 4750 2688 4750 
Q 3144 4750 3555 4637 
Q 3966 4525 4313 4306 
L 4313 3634 
Q 3963 3931 3569 4081 
Q 3175 4231 2741 4231 
Q 1884 4231 1454 3753 
Q 1025 3275 1025 2328 
Q 1025 1384 1454 906 
Q 1884 428 2741 428 
Q 3075 428 3337 486 
Q 3600 544 3809 666 
z
" transform="scale(0.015625)"/>
      <path id="DejaVuSans-75" d="M 544 1381 
L 544 3500 
L 1119 3500 
L 1119 1403 
Q 1119 906 1312 657 
Q 1506 409 1894 409 
Q 2359 409 2629 706 
Q 2900 1003 2900 1516 
L 2900 3500 
L 3475 3500 
L 3475 0 
L 2900 0 
L 2900 538 
Q 2691 219 2414 64 
Q 2138 -91 1772 -91 
Q 1169 -91 856 284 
Q 544 659 544 1381 
z
M 1991 3584 
L 1991 3584 
z
" transform="scale(0.015625)"/>
      <path id="DejaVuSans-46" d="M 628 4666 
L 3309 4666 
L 3309 4134 
L 1259 4134 
L 1259 2759 
L 3109 2759 
L 3109 2228 
L 1259 2228 
L 1259 0 
L 628 0 
L 628 4666 
z
" transform="scale(0.015625)"/>
     </defs>
     <use xlink:href="#DejaVuSans-54"/>
     <use xlink:href="#DejaVuSans-68" x="61.083984"/>
     <use xlink:href="#DejaVuSans-65" x="124.462891"/>
     <use xlink:href="#DejaVuSans-20" x="185.986328"/>
     <use xlink:href="#DejaVuSans-6f" x="217.773438"/>
     <use xlink:href="#DejaVuSans-72" x="278.955078"/>
     <use xlink:href="#DejaVuSans-69" x="320.068359"/>
     <use xlink:href="#DejaVuSans-67" x="347.851562"/>
     <use xlink:href="#DejaVuSans-69" x="411.328125"/>
     <use xlink:href="#DejaVuSans-6e" x="439.111328"/>
     <use xlink:href="#DejaVuSans-61" x="502.490234"/>
     <use xlink:href="#DejaVuSans-6c" x="563.769531"/>
     <use xlink:href="#DejaVuSans-20" x="591.552734"/>
     <use xlink:href="#DejaVuSans-73" x="623.339844"/>
     <use xlink:href="#DejaVuSans-69" x="675.439453"/>
     <use xlink:href="#DejaVuSans-67" x="703.222656"/>
     <use xlink:href="#DejaVuSans-6e" x="766.699219"/>
     <use xlink:href="#DejaVuSans-61" x="830.078125"/>
     <use xlink:href="#DejaVuSans-6c" x="891.357422"/>
     <use xlink:href="#DejaVuSans-20" x="919.140625"/>
     <use xlink:href="#DejaVuSans-61" x="950.927734"/>
     <use xlink:href="#DejaVuSans-6e" x="1012.207031"/>
     <use xlink:href="#DejaVuSans-64" x="1075.585938"/>
     <use xlink:href="#DejaVuSans-20" x="1139.0625"/>
     <use xlink:href="#DejaVuSans-74" x="1170.849609"/>
     <use xlink:href="#DejaVuSans-68" x="1210.058594"/>
     <use xlink:href="#DejaVuSans-65" x="1273.4375"/>
     <use xlink:href="#DejaVuSans-20" x="1334.960938"/>
     <use xlink:href="#DejaVuSans-47" x="1366.748047"/>
     <use xlink:href="#DejaVuSans-61" x="1444.238281"/>
     <use xlink:href="#DejaVuSans-75" x="1505.517578"/>
     <use xlink:href="#DejaVuSans-73" x="1568.896484"/>
     <use xlink:href="#DejaVuSans-73" x="1620.996094"/>
     <use xlink:href="#DejaVuSans-69" x="1673.095703"/>
     <use xlink:href="#DejaVuSans-61" x="1700.878906"/>
     <use xlink:href="#DejaVuSans-6e" x="1762.158203"/>
     <use xlink:href="#DejaVuSans-20" x="1825.537109"/>
     <use xlink:href="#DejaVuSans-46" x="1857.324219"/>
     <use xlink:href="#DejaVuSans-69" x="1907.59375"/>
     <use xlink:href="#DejaVuSans-6c" x="1935.376953"/>
     <use xlink:href="#DejaVuSans-74" x="1963.160156"/>
     <use xlink:href="#DejaVuSans-65" x="2002.369141"/>
     <use xlink:href="#DejaVuSans-72" x="2063.892578"/>
     <use xlink:href="#DejaVuSans-65" x="2102.755859"/>
     <use xlink:href="#DejaVuSans-64" x="2164.279297"/>
     <use xlink:href="#DejaVuSans-20" x="2227.755859"/>
     <use xlink:href="#DejaVuSans-73" x="2259.542969"/>
     <use xlink:href="#DejaVuSans-69" x="2311.642578"/>
     <use xlink:href="#DejaVuSans-67" x="2339.425781"/>
     <use xlink:href="#DejaVuSans-6e" x="2402.902344"/>
     <use xlink:href="#DejaVuSans-61" x="2466.28125"/>
     <use xlink:href="#DejaVuSans-6c" x="2527.560547"/>
    </g>
   </g>
   <g id="legend_1">
    <g id="patch_7">
     <path d="M 489.004687 80.55625 
L 641 80.55625 
Q 643 80.55625 643 78.55625 
L 643 50.2 
Q 643 48.2 641 48.2 
L 489.004687 48.2 
Q 487.004687 48.2 487.004687 50.2 
L 487.004687 78.55625 
Q 487.004687 80.55625 489.004687 80.55625 
z
" style="fill: #ffffff; opacity: 0.8; stroke: #cccccc; stroke-linejoin: miter"/>
    </g>
    <g id="line2d_17">
     <path d="M 491.004687 56.298437 
L 501.004687 56.298437 
L 511.004687 56.298437 
" style="fill: none; stroke: #1f77b4; stroke-opacity: 0.5; stroke-width: 1.5; stroke-linecap: square"/>
    </g>
    <g id="text_16">
     <!-- Original Signal -->
     <g transform="translate(519.004688 59.798437) scale(0.1 -0.1)">
      <defs>
       <path id="DejaVuSans-4f" d="M 2522 4238 
Q 1834 4238 1429 3725 
Q 1025 3213 1025 2328 
Q 1025 1447 1429 934 
Q 1834 422 2522 422 
Q 3209 422 3611 934 
Q 4013 1447 4013 2328 
Q 4013 3213 3611 3725 
Q 3209 4238 2522 4238 
z
M 2522 4750 
Q 3503 4750 4090 4092 
Q 4678 3434 4678 2328 
Q 4678 1225 4090 567 
Q 3503 -91 2522 -91 
Q 1538 -91 948 565 
Q 359 1222 359 2328 
Q 359 3434 948 4092 
Q 1538 4750 2522 4750 
z
" transform="scale(0.015625)"/>
       <path id="DejaVuSans-53" d="M 3425 4513 
L 3425 3897 
Q 3066 4069 2747 4153 
Q 2428 4238 2131 4238 
Q 1616 4238 1336 4038 
Q 1056 3838 1056 3469 
Q 1056 3159 1242 3001 
Q 1428 2844 1947 2747 
L 2328 2669 
Q 3034 2534 3370 2195 
Q 3706 1856 3706 1288 
Q 3706 609 3251 259 
Q 2797 -91 1919 -91 
Q 1588 -91 1214 -16 
Q 841 59 441 206 
L 441 856 
Q 825 641 1194 531 
Q 1563 422 1919 422 
Q 2459 422 2753 634 
Q 3047 847 3047 1241 
Q 3047 1584 2836 1778 
Q 2625 1972 2144 2069 
L 1759 2144 
Q 1053 2284 737 2584 
Q 422 2884 422 3419 
Q 422 4038 858 4394 
Q 1294 4750 2059 4750 
Q 2388 4750 2728 4690 
Q 3069 4631 3425 4513 
z
" transform="scale(0.015625)"/>
      </defs>
      <use xlink:href="#DejaVuSans-4f"/>
      <use xlink:href="#DejaVuSans-72" x="78.710938"/>
      <use xlink:href="#DejaVuSans-69" x="119.824219"/>
      <use xlink:href="#DejaVuSans-67" x="147.607422"/>
      <use xlink:href="#DejaVuSans-69" x="211.083984"/>
      <use xlink:href="#DejaVuSans-6e" x="238.867188"/>
      <use xlink:href="#DejaVuSans-61" x="302.246094"/>
      <use xlink:href="#DejaVuSans-6c" x="363.525391"/>
      <use xlink:href="#DejaVuSans-20" x="391.308594"/>
      <use xlink:href="#DejaVuSans-53" x="423.095703"/>
      <use xlink:href="#DejaVuSans-69" x="486.572266"/>
      <use xlink:href="#DejaVuSans-67" x="514.355469"/>
      <use xlink:href="#DejaVuSans-6e" x="577.832031"/>
      <use xlink:href="#DejaVuSans-61" x="641.210938"/>
      <use xlink:href="#DejaVuSans-6c" x="702.490234"/>
     </g>
    </g>
    <g id="line2d_18">
     <path d="M 491.004687 70.976562 
L 501.004687 70.976562 
L 511.004687 70.976562 
" style="fill: none; stroke-dasharray: 7.4,3.2; stroke-dashoffset: 0; stroke: #ff7f0e; stroke-width: 2"/>
    </g>
    <g id="text_17">
     <!-- Gaussian Filtered Signal -->
     <g transform="translate(519.004688 74.476562) scale(0.1 -0.1)">
      <use xlink:href="#DejaVuSans-47"/>
      <use xlink:href="#DejaVuSans-61" x="77.490234"/>
      <use xlink:href="#DejaVuSans-75" x="138.769531"/>
      <use xlink:href="#DejaVuSans-73" x="202.148438"/>
      <use xlink:href="#DejaVuSans-73" x="254.248047"/>
      <use xlink:href="#DejaVuSans-69" x="306.347656"/>
      <use xlink:href="#DejaVuSans-61" x="334.130859"/>
      <use xlink:href="#DejaVuSans-6e" x="395.410156"/>
      <use xlink:href="#DejaVuSans-20" x="458.789062"/>
      <use xlink:href="#DejaVuSans-46" x="490.576172"/>
      <use xlink:href="#DejaVuSans-69" x="540.845703"/>
      <use xlink:href="#DejaVuSans-6c" x="568.628906"/>
      <use xlink:href="#DejaVuSans-74" x="596.412109"/>
      <use xlink:href="#DejaVuSans-65" x="635.621094"/>
      <use xlink:href="#DejaVuSans-72" x="697.144531"/>
      <use xlink:href="#DejaVuSans-65" x="736.007812"/>
      <use xlink:href="#DejaVuSans-64" x="797.53125"/>
      <use xlink:href="#DejaVuSans-20" x="861.007812"/>
      <use xlink:href="#DejaVuSans-53" x="892.794922"/>
      <use xlink:href="#DejaVuSans-69" x="956.271484"/>
      <use xlink:href="#DejaVuSans-67" x="984.054688"/>
      <use xlink:href="#DejaVuSans-6e" x="1047.53125"/>
      <use xlink:href="#DejaVuSans-61" x="1110.910156"/>
      <use xlink:href="#DejaVuSans-6c" x="1172.189453"/>
     </g>
    </g>
   </g>
  </g>
 </g>
 <defs>
  <clipPath id="p142f284681">
   <rect x="90" y="43.2" width="558" height="277.2"/>
  </clipPath>
 </defs>
</svg>
