<?xml version="1.0" encoding="utf-8" standalone="no"?>
<!DOCTYPE svg PUBLIC "-//W3C//DTD SVG 1.1//EN"
  "http://www.w3.org/Graphics/SVG/1.1/DTD/svg11.dtd">
<svg xmlns:xlink="http://www.w3.org/1999/xlink" width="576pt" height="432pt" viewBox="0 0 576 432" xmlns="http://www.w3.org/2000/svg" version="1.1">
 <metadata>
  <rdf:RDF xmlns:dc="http://purl.org/dc/elements/1.1/" xmlns:cc="http://creativecommons.org/ns#" xmlns:rdf="http://www.w3.org/1999/02/22-rdf-syntax-ns#">
   <cc:Work>
    <dc:type rdf:resource="http://purl.org/dc/dcmitype/StillImage"/>
    <dc:date>2025-02-19T08:39:58.369410</dc:date>
    <dc:format>image/svg+xml</dc:format>
    <dc:creator>
     <cc:Agent>
      <dc:title>Matplotlib v3.8.4, https://matplotlib.org/</dc:title>
     </cc:Agent>
    </dc:creator>
   </cc:Work>
  </rdf:RDF>
 </metadata>
 <defs>
  <style type="text/css">*{stroke-linejoin: round; stroke-linecap: butt}</style>
 </defs>
 <g id="figure_1">
  <g id="patch_1">
   <path d="M 0 432 
L 576 432 
L 576 0 
L 0 0 
z
" style="fill: #ffffff"/>
  </g>
  <g id="axes_1">
   <g id="patch_2">
    <path d="M 60.59 390.04 
L 565.2 390.04 
L 565.2 38.16 
L 60.59 38.16 
z
" style="fill: #ffffff"/>
   </g>
   <g id="matplotlib.axis_1">
    <g id="xtick_1">
     <g id="line2d_1">
      <defs>
       <path id="mf5b465f17c" d="M 0 0 
L 0 3.5 
" style="stroke: #000000; stroke-width: 0.8"/>
      </defs>
      <g>
       <use xlink:href="#mf5b465f17c" x="60.59" y="390.04" style="stroke: #000000; stroke-width: 0.8"/>
      </g>
     </g>
     <g id="text_1">
      <!-- 10 -->
      <g transform="translate(54.2275 404.638438) scale(0.1 -0.1)">
       <defs>
        <path id="DejaVuSans-31" d="M 794 531 
L 1825 531 
L 1825 4091 
L 703 3866 
L 703 4441 
L 1819 4666 
L 2450 4666 
L 2450 531 
L 3481 531 
L 3481 0 
L 794 0 
L 794 531 
z
" transform="scale(0.015625)"/>
        <path id="DejaVuSans-30" d="M 2034 4250 
Q 1547 4250 1301 3770 
Q 1056 3291 1056 2328 
Q 1056 1369 1301 889 
Q 1547 409 2034 409 
Q 2525 409 2770 889 
Q 3016 1369 3016 2328 
Q 3016 3291 2770 3770 
Q 2525 4250 2034 4250 
z
M 2034 4750 
Q 2819 4750 3233 4129 
Q 3647 3509 3647 2328 
Q 3647 1150 3233 529 
Q 2819 -91 2034 -91 
Q 1250 -91 836 529 
Q 422 1150 422 2328 
Q 422 3509 836 4129 
Q 1250 4750 2034 4750 
z
" transform="scale(0.015625)"/>
       </defs>
       <use xlink:href="#DejaVuSans-31"/>
       <use xlink:href="#DejaVuSans-30" x="63.623047"/>
      </g>
     </g>
    </g>
    <g id="xtick_2">
     <g id="line2d_2">
      <g>
       <use xlink:href="#mf5b465f17c" x="138.222308" y="390.04" style="stroke: #000000; stroke-width: 0.8"/>
      </g>
     </g>
     <g id="text_2">
      <!-- 12 -->
      <g transform="translate(131.859808 404.638438) scale(0.1 -0.1)">
       <defs>
        <path id="DejaVuSans-32" d="M 1228 531 
L 3431 531 
L 3431 0 
L 469 0 
L 469 531 
Q 828 903 1448 1529 
Q 2069 2156 2228 2338 
Q 2531 2678 2651 2914 
Q 2772 3150 2772 3378 
Q 2772 3750 2511 3984 
Q 2250 4219 1831 4219 
Q 1534 4219 1204 4116 
Q 875 4013 500 3803 
L 500 4441 
Q 881 4594 1212 4672 
Q 1544 4750 1819 4750 
Q 2544 4750 2975 4387 
Q 3406 4025 3406 3419 
Q 3406 3131 3298 2873 
Q 3191 2616 2906 2266 
Q 2828 2175 2409 1742 
Q 1991 1309 1228 531 
z
" transform="scale(0.015625)"/>
       </defs>
       <use xlink:href="#DejaVuSans-31"/>
       <use xlink:href="#DejaVuSans-32" x="63.623047"/>
      </g>
     </g>
    </g>
    <g id="xtick_3">
     <g id="line2d_3">
      <g>
       <use xlink:href="#mf5b465f17c" x="215.854615" y="390.04" style="stroke: #000000; stroke-width: 0.8"/>
      </g>
     </g>
     <g id="text_3">
      <!-- 14 -->
      <g transform="translate(209.492115 404.638438) scale(0.1 -0.1)">
       <defs>
        <path id="DejaVuSans-34" d="M 2419 4116 
L 825 1625 
L 2419 1625 
L 2419 4116 
z
M 2253 4666 
L 3047 4666 
L 3047 1625 
L 3713 1625 
L 3713 1100 
L 3047 1100 
L 3047 0 
L 2419 0 
L 2419 1100 
L 313 1100 
L 313 1709 
L 2253 4666 
z
" transform="scale(0.015625)"/>
       </defs>
       <use xlink:href="#DejaVuSans-31"/>
       <use xlink:href="#DejaVuSans-34" x="63.623047"/>
      </g>
     </g>
    </g>
    <g id="xtick_4">
     <g id="line2d_4">
      <g>
       <use xlink:href="#mf5b465f17c" x="293.486923" y="390.04" style="stroke: #000000; stroke-width: 0.8"/>
      </g>
     </g>
     <g id="text_4">
      <!-- 16 -->
      <g transform="translate(287.124423 404.638438) scale(0.1 -0.1)">
       <defs>
        <path id="DejaVuSans-36" d="M 2113 2584 
Q 1688 2584 1439 2293 
Q 1191 2003 1191 1497 
Q 1191 994 1439 701 
Q 1688 409 2113 409 
Q 2538 409 2786 701 
Q 3034 994 3034 1497 
Q 3034 2003 2786 2293 
Q 2538 2584 2113 2584 
z
M 3366 4563 
L 3366 3988 
Q 3128 4100 2886 4159 
Q 2644 4219 2406 4219 
Q 1781 4219 1451 3797 
Q 1122 3375 1075 2522 
Q 1259 2794 1537 2939 
Q 1816 3084 2150 3084 
Q 2853 3084 3261 2657 
Q 3669 2231 3669 1497 
Q 3669 778 3244 343 
Q 2819 -91 2113 -91 
Q 1303 -91 875 529 
Q 447 1150 447 2328 
Q 447 3434 972 4092 
Q 1497 4750 2381 4750 
Q 2619 4750 2861 4703 
Q 3103 4656 3366 4563 
z
" transform="scale(0.015625)"/>
       </defs>
       <use xlink:href="#DejaVuSans-31"/>
       <use xlink:href="#DejaVuSans-36" x="63.623047"/>
      </g>
     </g>
    </g>
    <g id="xtick_5">
     <g id="line2d_5">
      <g>
       <use xlink:href="#mf5b465f17c" x="371.119231" y="390.04" style="stroke: #000000; stroke-width: 0.8"/>
      </g>
     </g>
     <g id="text_5">
      <!-- 18 -->
      <g transform="translate(364.756731 404.638438) scale(0.1 -0.1)">
       <defs>
        <path id="DejaVuSans-38" d="M 2034 2216 
Q 1584 2216 1326 1975 
Q 1069 1734 1069 1313 
Q 1069 891 1326 650 
Q 1584 409 2034 409 
Q 2484 409 2743 651 
Q 3003 894 3003 1313 
Q 3003 1734 2745 1975 
Q 2488 2216 2034 2216 
z
M 1403 2484 
Q 997 2584 770 2862 
Q 544 3141 544 3541 
Q 544 4100 942 4425 
Q 1341 4750 2034 4750 
Q 2731 4750 3128 4425 
Q 3525 4100 3525 3541 
Q 3525 3141 3298 2862 
Q 3072 2584 2669 2484 
Q 3125 2378 3379 2068 
Q 3634 1759 3634 1313 
Q 3634 634 3220 271 
Q 2806 -91 2034 -91 
Q 1263 -91 848 271 
Q 434 634 434 1313 
Q 434 1759 690 2068 
Q 947 2378 1403 2484 
z
M 1172 3481 
Q 1172 3119 1398 2916 
Q 1625 2713 2034 2713 
Q 2441 2713 2670 2916 
Q 2900 3119 2900 3481 
Q 2900 3844 2670 4047 
Q 2441 4250 2034 4250 
Q 1625 4250 1398 4047 
Q 1172 3844 1172 3481 
z
" transform="scale(0.015625)"/>
       </defs>
       <use xlink:href="#DejaVuSans-31"/>
       <use xlink:href="#DejaVuSans-38" x="63.623047"/>
      </g>
     </g>
    </g>
    <g id="xtick_6">
     <g id="line2d_6">
      <g>
       <use xlink:href="#mf5b465f17c" x="448.751538" y="390.04" style="stroke: #000000; stroke-width: 0.8"/>
      </g>
     </g>
     <g id="text_6">
      <!-- 20 -->
      <g transform="translate(442.389038 404.638438) scale(0.1 -0.1)">
       <use xlink:href="#DejaVuSans-32"/>
       <use xlink:href="#DejaVuSans-30" x="63.623047"/>
      </g>
     </g>
    </g>
    <g id="xtick_7">
     <g id="line2d_7">
      <g>
       <use xlink:href="#mf5b465f17c" x="526.383846" y="390.04" style="stroke: #000000; stroke-width: 0.8"/>
      </g>
     </g>
     <g id="text_7">
      <!-- 22 -->
      <g transform="translate(520.021346 404.638438) scale(0.1 -0.1)">
       <use xlink:href="#DejaVuSans-32"/>
       <use xlink:href="#DejaVuSans-32" x="63.623047"/>
      </g>
     </g>
    </g>
    <g id="text_8">
     <!-- t [s] -->
     <g transform="translate(302.839531 418.316562) scale(0.1 -0.1)">
      <defs>
       <path id="DejaVuSans-74" d="M 1172 4494 
L 1172 3500 
L 2356 3500 
L 2356 3053 
L 1172 3053 
L 1172 1153 
Q 1172 725 1289 603 
Q 1406 481 1766 481 
L 2356 481 
L 2356 0 
L 1766 0 
Q 1100 0 847 248 
Q 594 497 594 1153 
L 594 3053 
L 172 3053 
L 172 3500 
L 594 3500 
L 594 4494 
L 1172 4494 
z
" transform="scale(0.015625)"/>
       <path id="DejaVuSans-20" transform="scale(0.015625)"/>
       <path id="DejaVuSans-5b" d="M 550 4863 
L 1875 4863 
L 1875 4416 
L 1125 4416 
L 1125 -397 
L 1875 -397 
L 1875 -844 
L 550 -844 
L 550 4863 
z
" transform="scale(0.015625)"/>
       <path id="DejaVuSans-73" d="M 2834 3397 
L 2834 2853 
Q 2591 2978 2328 3040 
Q 2066 3103 1784 3103 
Q 1356 3103 1142 2972 
Q 928 2841 928 2578 
Q 928 2378 1081 2264 
Q 1234 2150 1697 2047 
L 1894 2003 
Q 2506 1872 2764 1633 
Q 3022 1394 3022 966 
Q 3022 478 2636 193 
Q 2250 -91 1575 -91 
Q 1294 -91 989 -36 
Q 684 19 347 128 
L 347 722 
Q 666 556 975 473 
Q 1284 391 1588 391 
Q 1994 391 2212 530 
Q 2431 669 2431 922 
Q 2431 1156 2273 1281 
Q 2116 1406 1581 1522 
L 1381 1569 
Q 847 1681 609 1914 
Q 372 2147 372 2553 
Q 372 3047 722 3315 
Q 1072 3584 1716 3584 
Q 2034 3584 2315 3537 
Q 2597 3491 2834 3397 
z
" transform="scale(0.015625)"/>
       <path id="DejaVuSans-5d" d="M 1947 4863 
L 1947 -844 
L 622 -844 
L 622 -397 
L 1369 -397 
L 1369 4416 
L 622 4416 
L 622 4863 
L 1947 4863 
z
" transform="scale(0.015625)"/>
      </defs>
      <use xlink:href="#DejaVuSans-74"/>
      <use xlink:href="#DejaVuSans-20" x="39.208984"/>
      <use xlink:href="#DejaVuSans-5b" x="70.996094"/>
      <use xlink:href="#DejaVuSans-73" x="110.009766"/>
      <use xlink:href="#DejaVuSans-5d" x="162.109375"/>
     </g>
    </g>
   </g>
   <g id="matplotlib.axis_2">
    <g id="ytick_1">
     <g id="line2d_8">
      <defs>
       <path id="m62b68ec3e6" d="M 0 0 
L -3.5 0 
" style="stroke: #000000; stroke-width: 0.8"/>
      </defs>
      <g>
       <use xlink:href="#m62b68ec3e6" x="60.59" y="351.812669" style="stroke: #000000; stroke-width: 0.8"/>
      </g>
     </g>
     <g id="text_9">
      <!-- 53.75 -->
      <g transform="translate(24.961875 355.611887) scale(0.1 -0.1)">
       <defs>
        <path id="DejaVuSans-35" d="M 691 4666 
L 3169 4666 
L 3169 4134 
L 1269 4134 
L 1269 2991 
Q 1406 3038 1543 3061 
Q 1681 3084 1819 3084 
Q 2600 3084 3056 2656 
Q 3513 2228 3513 1497 
Q 3513 744 3044 326 
Q 2575 -91 1722 -91 
Q 1428 -91 1123 -41 
Q 819 9 494 109 
L 494 744 
Q 775 591 1075 516 
Q 1375 441 1709 441 
Q 2250 441 2565 725 
Q 2881 1009 2881 1497 
Q 2881 1984 2565 2268 
Q 2250 2553 1709 2553 
Q 1456 2553 1204 2497 
Q 953 2441 691 2322 
L 691 4666 
z
" transform="scale(0.015625)"/>
        <path id="DejaVuSans-33" d="M 2597 2516 
Q 3050 2419 3304 2112 
Q 3559 1806 3559 1356 
Q 3559 666 3084 287 
Q 2609 -91 1734 -91 
Q 1441 -91 1130 -33 
Q 819 25 488 141 
L 488 750 
Q 750 597 1062 519 
Q 1375 441 1716 441 
Q 2309 441 2620 675 
Q 2931 909 2931 1356 
Q 2931 1769 2642 2001 
Q 2353 2234 1838 2234 
L 1294 2234 
L 1294 2753 
L 1863 2753 
Q 2328 2753 2575 2939 
Q 2822 3125 2822 3475 
Q 2822 3834 2567 4026 
Q 2313 4219 1838 4219 
Q 1578 4219 1281 4162 
Q 984 4106 628 3988 
L 628 4550 
Q 988 4650 1302 4700 
Q 1616 4750 1894 4750 
Q 2613 4750 3031 4423 
Q 3450 4097 3450 3541 
Q 3450 3153 3228 2886 
Q 3006 2619 2597 2516 
z
" transform="scale(0.015625)"/>
        <path id="DejaVuSans-2e" d="M 684 794 
L 1344 794 
L 1344 0 
L 684 0 
L 684 794 
z
" transform="scale(0.015625)"/>
        <path id="DejaVuSans-37" d="M 525 4666 
L 3525 4666 
L 3525 4397 
L 1831 0 
L 1172 0 
L 2766 4134 
L 525 4134 
L 525 4666 
z
" transform="scale(0.015625)"/>
       </defs>
       <use xlink:href="#DejaVuSans-35"/>
       <use xlink:href="#DejaVuSans-33" x="63.623047"/>
       <use xlink:href="#DejaVuSans-2e" x="127.246094"/>
       <use xlink:href="#DejaVuSans-37" x="159.033203"/>
       <use xlink:href="#DejaVuSans-35" x="222.65625"/>
      </g>
     </g>
    </g>
    <g id="ytick_2">
     <g id="line2d_9">
      <g>
       <use xlink:href="#m62b68ec3e6" x="60.59" y="308.142719" style="stroke: #000000; stroke-width: 0.8"/>
      </g>
     </g>
     <g id="text_10">
      <!-- 54.00 -->
      <g transform="translate(24.961875 311.941938) scale(0.1 -0.1)">
       <use xlink:href="#DejaVuSans-35"/>
       <use xlink:href="#DejaVuSans-34" x="63.623047"/>
       <use xlink:href="#DejaVuSans-2e" x="127.246094"/>
       <use xlink:href="#DejaVuSans-30" x="159.033203"/>
       <use xlink:href="#DejaVuSans-30" x="222.65625"/>
      </g>
     </g>
    </g>
    <g id="ytick_3">
     <g id="line2d_10">
      <g>
       <use xlink:href="#m62b68ec3e6" x="60.59" y="264.47277" style="stroke: #000000; stroke-width: 0.8"/>
      </g>
     </g>
     <g id="text_11">
      <!-- 54.25 -->
      <g transform="translate(24.961875 268.271988) scale(0.1 -0.1)">
       <use xlink:href="#DejaVuSans-35"/>
       <use xlink:href="#DejaVuSans-34" x="63.623047"/>
       <use xlink:href="#DejaVuSans-2e" x="127.246094"/>
       <use xlink:href="#DejaVuSans-32" x="159.033203"/>
       <use xlink:href="#DejaVuSans-35" x="222.65625"/>
      </g>
     </g>
    </g>
    <g id="ytick_4">
     <g id="line2d_11">
      <g>
       <use xlink:href="#m62b68ec3e6" x="60.59" y="220.80282" style="stroke: #000000; stroke-width: 0.8"/>
      </g>
     </g>
     <g id="text_12">
      <!-- 54.50 -->
      <g transform="translate(24.961875 224.602039) scale(0.1 -0.1)">
       <use xlink:href="#DejaVuSans-35"/>
       <use xlink:href="#DejaVuSans-34" x="63.623047"/>
       <use xlink:href="#DejaVuSans-2e" x="127.246094"/>
       <use xlink:href="#DejaVuSans-35" x="159.033203"/>
       <use xlink:href="#DejaVuSans-30" x="222.65625"/>
      </g>
     </g>
    </g>
    <g id="ytick_5">
     <g id="line2d_12">
      <g>
       <use xlink:href="#m62b68ec3e6" x="60.59" y="177.132871" style="stroke: #000000; stroke-width: 0.8"/>
      </g>
     </g>
     <g id="text_13">
      <!-- 54.75 -->
      <g transform="translate(24.961875 180.932089) scale(0.1 -0.1)">
       <use xlink:href="#DejaVuSans-35"/>
       <use xlink:href="#DejaVuSans-34" x="63.623047"/>
       <use xlink:href="#DejaVuSans-2e" x="127.246094"/>
       <use xlink:href="#DejaVuSans-37" x="159.033203"/>
       <use xlink:href="#DejaVuSans-35" x="222.65625"/>
      </g>
     </g>
    </g>
    <g id="ytick_6">
     <g id="line2d_13">
      <g>
       <use xlink:href="#m62b68ec3e6" x="60.59" y="133.462921" style="stroke: #000000; stroke-width: 0.8"/>
      </g>
     </g>
     <g id="text_14">
      <!-- 55.00 -->
      <g transform="translate(24.961875 137.26214) scale(0.1 -0.1)">
       <use xlink:href="#DejaVuSans-35"/>
       <use xlink:href="#DejaVuSans-35" x="63.623047"/>
       <use xlink:href="#DejaVuSans-2e" x="127.246094"/>
       <use xlink:href="#DejaVuSans-30" x="159.033203"/>
       <use xlink:href="#DejaVuSans-30" x="222.65625"/>
      </g>
     </g>
    </g>
    <g id="ytick_7">
     <g id="line2d_14">
      <g>
       <use xlink:href="#m62b68ec3e6" x="60.59" y="89.792972" style="stroke: #000000; stroke-width: 0.8"/>
      </g>
     </g>
     <g id="text_15">
      <!-- 55.25 -->
      <g transform="translate(24.961875 93.592191) scale(0.1 -0.1)">
       <use xlink:href="#DejaVuSans-35"/>
       <use xlink:href="#DejaVuSans-35" x="63.623047"/>
       <use xlink:href="#DejaVuSans-2e" x="127.246094"/>
       <use xlink:href="#DejaVuSans-32" x="159.033203"/>
       <use xlink:href="#DejaVuSans-35" x="222.65625"/>
      </g>
     </g>
    </g>
    <g id="ytick_8">
     <g id="line2d_15">
      <g>
       <use xlink:href="#m62b68ec3e6" x="60.59" y="46.123022" style="stroke: #000000; stroke-width: 0.8"/>
      </g>
     </g>
     <g id="text_16">
      <!-- 55.50 -->
      <g transform="translate(24.961875 49.922241) scale(0.1 -0.1)">
       <use xlink:href="#DejaVuSans-35"/>
       <use xlink:href="#DejaVuSans-35" x="63.623047"/>
       <use xlink:href="#DejaVuSans-2e" x="127.246094"/>
       <use xlink:href="#DejaVuSans-35" x="159.033203"/>
       <use xlink:href="#DejaVuSans-30" x="222.65625"/>
      </g>
     </g>
    </g>
    <g id="text_17">
     <!-- US Horizontal [mm] -->
     <g transform="translate(18.882188 263.283594) rotate(-90) scale(0.1 -0.1)">
      <defs>
       <path id="DejaVuSans-55" d="M 556 4666 
L 1191 4666 
L 1191 1831 
Q 1191 1081 1462 751 
Q 1734 422 2344 422 
Q 2950 422 3222 751 
Q 3494 1081 3494 1831 
L 3494 4666 
L 4128 4666 
L 4128 1753 
Q 4128 841 3676 375 
Q 3225 -91 2344 -91 
Q 1459 -91 1007 375 
Q 556 841 556 1753 
L 556 4666 
z
" transform="scale(0.015625)"/>
       <path id="DejaVuSans-53" d="M 3425 4513 
L 3425 3897 
Q 3066 4069 2747 4153 
Q 2428 4238 2131 4238 
Q 1616 4238 1336 4038 
Q 1056 3838 1056 3469 
Q 1056 3159 1242 3001 
Q 1428 2844 1947 2747 
L 2328 2669 
Q 3034 2534 3370 2195 
Q 3706 1856 3706 1288 
Q 3706 609 3251 259 
Q 2797 -91 1919 -91 
Q 1588 -91 1214 -16 
Q 841 59 441 206 
L 441 856 
Q 825 641 1194 531 
Q 1563 422 1919 422 
Q 2459 422 2753 634 
Q 3047 847 3047 1241 
Q 3047 1584 2836 1778 
Q 2625 1972 2144 2069 
L 1759 2144 
Q 1053 2284 737 2584 
Q 422 2884 422 3419 
Q 422 4038 858 4394 
Q 1294 4750 2059 4750 
Q 2388 4750 2728 4690 
Q 3069 4631 3425 4513 
z
" transform="scale(0.015625)"/>
       <path id="DejaVuSans-48" d="M 628 4666 
L 1259 4666 
L 1259 2753 
L 3553 2753 
L 3553 4666 
L 4184 4666 
L 4184 0 
L 3553 0 
L 3553 2222 
L 1259 2222 
L 1259 0 
L 628 0 
L 628 4666 
z
" transform="scale(0.015625)"/>
       <path id="DejaVuSans-6f" d="M 1959 3097 
Q 1497 3097 1228 2736 
Q 959 2375 959 1747 
Q 959 1119 1226 758 
Q 1494 397 1959 397 
Q 2419 397 2687 759 
Q 2956 1122 2956 1747 
Q 2956 2369 2687 2733 
Q 2419 3097 1959 3097 
z
M 1959 3584 
Q 2709 3584 3137 3096 
Q 3566 2609 3566 1747 
Q 3566 888 3137 398 
Q 2709 -91 1959 -91 
Q 1206 -91 779 398 
Q 353 888 353 1747 
Q 353 2609 779 3096 
Q 1206 3584 1959 3584 
z
" transform="scale(0.015625)"/>
       <path id="DejaVuSans-72" d="M 2631 2963 
Q 2534 3019 2420 3045 
Q 2306 3072 2169 3072 
Q 1681 3072 1420 2755 
Q 1159 2438 1159 1844 
L 1159 0 
L 581 0 
L 581 3500 
L 1159 3500 
L 1159 2956 
Q 1341 3275 1631 3429 
Q 1922 3584 2338 3584 
Q 2397 3584 2469 3576 
Q 2541 3569 2628 3553 
L 2631 2963 
z
" transform="scale(0.015625)"/>
       <path id="DejaVuSans-69" d="M 603 3500 
L 1178 3500 
L 1178 0 
L 603 0 
L 603 3500 
z
M 603 4863 
L 1178 4863 
L 1178 4134 
L 603 4134 
L 603 4863 
z
" transform="scale(0.015625)"/>
       <path id="DejaVuSans-7a" d="M 353 3500 
L 3084 3500 
L 3084 2975 
L 922 459 
L 3084 459 
L 3084 0 
L 275 0 
L 275 525 
L 2438 3041 
L 353 3041 
L 353 3500 
z
" transform="scale(0.015625)"/>
       <path id="DejaVuSans-6e" d="M 3513 2113 
L 3513 0 
L 2938 0 
L 2938 2094 
Q 2938 2591 2744 2837 
Q 2550 3084 2163 3084 
Q 1697 3084 1428 2787 
Q 1159 2491 1159 1978 
L 1159 0 
L 581 0 
L 581 3500 
L 1159 3500 
L 1159 2956 
Q 1366 3272 1645 3428 
Q 1925 3584 2291 3584 
Q 2894 3584 3203 3211 
Q 3513 2838 3513 2113 
z
" transform="scale(0.015625)"/>
       <path id="DejaVuSans-61" d="M 2194 1759 
Q 1497 1759 1228 1600 
Q 959 1441 959 1056 
Q 959 750 1161 570 
Q 1363 391 1709 391 
Q 2188 391 2477 730 
Q 2766 1069 2766 1631 
L 2766 1759 
L 2194 1759 
z
M 3341 1997 
L 3341 0 
L 2766 0 
L 2766 531 
Q 2569 213 2275 61 
Q 1981 -91 1556 -91 
Q 1019 -91 701 211 
Q 384 513 384 1019 
Q 384 1609 779 1909 
Q 1175 2209 1959 2209 
L 2766 2209 
L 2766 2266 
Q 2766 2663 2505 2880 
Q 2244 3097 1772 3097 
Q 1472 3097 1187 3025 
Q 903 2953 641 2809 
L 641 3341 
Q 956 3463 1253 3523 
Q 1550 3584 1831 3584 
Q 2591 3584 2966 3190 
Q 3341 2797 3341 1997 
z
" transform="scale(0.015625)"/>
       <path id="DejaVuSans-6c" d="M 603 4863 
L 1178 4863 
L 1178 0 
L 603 0 
L 603 4863 
z
" transform="scale(0.015625)"/>
       <path id="DejaVuSans-6d" d="M 3328 2828 
Q 3544 3216 3844 3400 
Q 4144 3584 4550 3584 
Q 5097 3584 5394 3201 
Q 5691 2819 5691 2113 
L 5691 0 
L 5113 0 
L 5113 2094 
Q 5113 2597 4934 2840 
Q 4756 3084 4391 3084 
Q 3944 3084 3684 2787 
Q 3425 2491 3425 1978 
L 3425 0 
L 2847 0 
L 2847 2094 
Q 2847 2600 2669 2842 
Q 2491 3084 2119 3084 
Q 1678 3084 1418 2786 
Q 1159 2488 1159 1978 
L 1159 0 
L 581 0 
L 581 3500 
L 1159 3500 
L 1159 2956 
Q 1356 3278 1631 3431 
Q 1906 3584 2284 3584 
Q 2666 3584 2933 3390 
Q 3200 3197 3328 2828 
z
" transform="scale(0.015625)"/>
      </defs>
      <use xlink:href="#DejaVuSans-55"/>
      <use xlink:href="#DejaVuSans-53" x="73.193359"/>
      <use xlink:href="#DejaVuSans-20" x="136.669922"/>
      <use xlink:href="#DejaVuSans-48" x="168.457031"/>
      <use xlink:href="#DejaVuSans-6f" x="243.652344"/>
      <use xlink:href="#DejaVuSans-72" x="304.833984"/>
      <use xlink:href="#DejaVuSans-69" x="345.947266"/>
      <use xlink:href="#DejaVuSans-7a" x="373.730469"/>
      <use xlink:href="#DejaVuSans-6f" x="426.220703"/>
      <use xlink:href="#DejaVuSans-6e" x="487.402344"/>
      <use xlink:href="#DejaVuSans-74" x="550.78125"/>
      <use xlink:href="#DejaVuSans-61" x="589.990234"/>
      <use xlink:href="#DejaVuSans-6c" x="651.269531"/>
      <use xlink:href="#DejaVuSans-20" x="679.052734"/>
      <use xlink:href="#DejaVuSans-5b" x="710.839844"/>
      <use xlink:href="#DejaVuSans-6d" x="749.853516"/>
      <use xlink:href="#DejaVuSans-6d" x="847.265625"/>
      <use xlink:href="#DejaVuSans-5d" x="944.677734"/>
     </g>
    </g>
   </g>
   <g id="line2d_16">
    <path d="M 60.488987 272.211099 
L 60.877048 275.139043 
L 61.394462 280.851 
L 62.946704 302.61001 
L 63.464118 309.875897 
L 63.722825 311.138631 
L 63.852178 311.095318 
L 64.110885 309.883893 
L 64.628299 304.966226 
L 68.120844 268.361591 
L 70.061147 238.426459 
L 70.319854 236.768579 
L 70.449207 236.506037 
L 70.578561 236.601325 
L 70.837268 237.674816 
L 72.001449 245.747653 
L 72.38951 249.950992 
L 73.812399 269.227181 
L 75.235287 279.120487 
L 76.658176 290.009322 
L 76.916883 290.382478 
L 77.046236 290.27253 
L 77.304943 289.636832 
L 77.822357 287.496514 
L 78.210418 284.853101 
L 79.503953 274.39273 
L 79.892014 271.801959 
L 80.280074 267.33208 
L 80.797488 258.623545 
L 82.091023 235.155345 
L 82.608437 228.982273 
L 82.867144 227.47832 
L 83.125851 226.965896 
L 83.255205 226.993883 
L 83.513912 227.415683 
L 84.678093 229.99446 
L 84.9368 230.314974 
L 85.195507 231.099269 
L 85.583568 233.667384 
L 86.230335 240.422179 
L 86.747749 248.836854 
L 87.653224 265.139787 
L 88.170638 270.342652 
L 88.558699 272.293726 
L 88.946759 273.188635 
L 89.33482 273.549797 
L 90.369648 273.998917 
L 91.275122 274.108199 
L 91.663183 274.06955 
L 91.792536 273.86698 
L 92.051243 272.696202 
L 92.30995 270.228706 
L 92.698011 263.768437 
L 95.673142 202.073039 
L 96.061202 197.65047 
L 96.319909 196.188497 
L 96.449263 195.965936 
L 96.578616 196.059892 
L 96.837323 197.010108 
L 97.354737 200.451142 
L 97.872151 204.947009 
L 98.389565 212.471439 
L 99.165686 227.624251 
L 100.071161 250.619342 
L 100.717928 264.503422 
L 101.105989 269.406429 
L 101.752756 273.999583 
L 103.046292 282.320303 
L 103.304999 282.687462 
L 103.434352 282.529537 
L 103.693059 281.644623 
L 104.339827 277.848424 
L 104.986594 274.574644 
L 105.633362 271.953221 
L 106.021422 268.123038 
L 106.538836 260.05953 
L 107.185604 246.819811 
L 108.737846 210.311797 
L 109.25526 203.026587 
L 109.64332 199.972036 
L 109.902027 199.516252 
L 110.031381 199.728151 
L 110.290088 200.817635 
L 110.936856 205.240203 
L 111.324916 209.001086 
L 111.84233 216.716092 
L 113.394572 244.241034 
L 114.4294 265.612895 
L 114.946814 271.215571 
L 116.110996 278.826627 
L 116.369703 279.389693 
L 116.499056 279.391026 
L 116.757763 278.939906 
L 117.01647 277.733812 
L 117.275177 275.256321 
L 117.663238 268.528845 
L 118.180652 254.34624 
L 118.956773 224.243854 
L 120.250308 174.935247 
L 120.897076 158.413085 
L 122.319964 132.092238 
L 122.578671 130.124505 
L 122.708025 129.982572 
L 122.837378 130.364391 
L 123.096085 132.370106 
L 125.165741 156.00556 
L 126.071216 175.770184 
L 127.364751 202.602121 
L 128.658286 227.151142 
L 128.916993 229.49403 
L 129.046347 229.900504 
L 129.1757 229.768567 
L 129.434407 228.03339 
L 129.951821 221.022716 
L 130.727942 210.726934 
L 132.409538 191.50272 
L 133.185659 175.278417 
L 133.832427 164.042414 
L 134.220487 160.502094 
L 134.608548 158.971487 
L 134.867255 158.63298 
L 135.255315 158.506374 
L 135.514022 158.55635 
L 135.643376 158.784908 
L 135.902083 160.033649 
L 136.290143 164.124375 
L 137.195618 178.379613 
L 138.230446 193.570406 
L 139.13592 207.120644 
L 139.912041 224.572365 
L 140.558809 238.315179 
L 140.94687 243.520043 
L 141.205577 245.451793 
L 141.464284 245.96355 
L 141.593637 245.70434 
L 141.852344 244.400292 
L 143.016526 236.601992 
L 143.404586 235.398563 
L 144.051354 233.938588 
L 144.310061 232.124116 
L 144.698121 227.163802 
L 145.732949 212.550069 
L 146.12101 209.883334 
L 146.50907 208.524645 
L 146.897131 207.946919 
L 147.285191 207.81898 
L 147.673252 207.977571 
L 148.190666 208.58395 
L 148.70808 209.198992 
L 148.966787 209.265627 
L 149.354848 209.066388 
L 150.389676 208.276096 
L 150.519029 208.433355 
L 150.777736 209.5335 
L 151.036443 211.949687 
L 151.424504 218.250031 
L 151.941918 230.62616 
L 153.235453 264.795283 
L 153.752867 271.570069 
L 154.140927 274.053558 
L 154.528988 275.041089 
L 154.787695 275.239662 
L 155.305109 275.255654 
L 156.339937 275.15237 
L 156.469291 274.939138 
L 156.727998 273.736375 
L 156.986705 271.245557 
L 157.374765 264.911895 
L 157.892179 252.237907 
L 159.185714 216.971971 
L 159.832482 205.977187 
L 160.349896 200.633722 
L 160.86731 197.795735 
L 161.384724 196.345756 
L 161.643431 195.951943 
L 161.772784 195.932619 
L 161.902138 196.08388 
L 162.160845 196.944139 
L 162.678259 200.213921 
L 163.45438 206.594227 
L 163.971794 213.964064 
L 164.877269 227.127153 
L 166.170804 240.869967 
L 166.688218 244.405623 
L 167.205632 246.657221 
L 167.723046 247.865981 
L 168.369813 248.716245 
L 168.757874 248.926145 
L 168.887227 248.81753 
L 169.145934 248.105201 
L 169.533995 245.755649 
L 169.922055 241.699573 
L 170.439469 232.567905 
L 172.250419 194.363363 
L 173.02654 180.035494 
L 173.802661 166.660505 
L 174.190721 162.827657 
L 174.449428 161.666874 
L 174.578782 161.660877 
L 174.708135 162.078679 
L 174.966842 164.119711 
L 175.484256 171.446901 
L 176.648438 188.651406 
L 177.424559 198.894547 
L 178.071326 212.203566 
L 179.106155 233.392847 
L 179.752922 242.72442 
L 180.270336 246.879782 
L 180.658397 248.415054 
L 181.046457 249.192685 
L 181.175811 249.292638 
L 181.305164 249.248659 
L 181.563871 248.576977 
L 181.951932 246.036849 
L 182.98676 236.200182 
L 183.504174 228.495837 
L 185.056416 200.198595 
L 185.703184 192.90139 
L 186.220598 188.976585 
L 186.608658 187.218753 
L 186.867365 186.629699 
L 186.996719 186.577057 
L 187.126072 186.70433 
L 187.384779 187.452642 
L 187.902193 190.211333 
L 188.548961 193.677688 
L 189.066375 196.045232 
L 189.583789 199.925391 
L 189.971849 204.707123 
L 190.489263 214.601096 
L 192.94698 269.491056 
L 193.335041 272.516953 
L 193.593748 273.419192 
L 193.852455 273.7537 
L 194.111162 273.742372 
L 194.499222 273.391872 
L 195.53405 271.974544 
L 195.792757 270.723138 
L 196.051464 268.308283 
L 196.439525 262.247159 
L 199.026595 211.687811 
L 199.414655 208.56929 
L 199.673362 207.475143 
L 199.802716 207.225928 
L 199.932069 207.259912 
L 200.061423 207.64173 
L 200.32013 209.566151 
L 200.70819 214.914947 
L 201.613665 228.888984 
L 203.036554 245.924902 
L 204.459442 270.184727 
L 205.10621 275.272313 
L 206.529098 284.970379 
L 207.046512 287.0334 
L 207.434573 287.879665 
L 207.822633 288.231498 
L 207.951987 288.195515 
L 208.210694 287.643777 
L 208.469401 286.313075 
L 209.116169 280.985603 
L 209.633583 277.581884 
L 210.021643 276.337141 
L 210.539057 275.28564 
L 210.797764 273.676403 
L 211.185825 269.014615 
L 212.220653 254.182984 
L 212.608713 251.531576 
L 212.738067 251.330338 
L 212.86742 251.561561 
L 213.126127 253.320727 
L 213.514188 258.426305 
L 214.290309 269.591008 
L 214.678369 272.834136 
L 215.06643 274.383401 
L 215.842551 275.844708 
L 216.101258 277.340665 
L 216.489319 281.478036 
L 217.524147 297.321186 
L 219.076389 322.666496 
L 219.464449 325.175972 
L 219.85251 326.318763 
L 220.111217 326.630615 
L 220.24057 326.668597 
L 220.369924 326.553985 
L 220.628631 325.562455 
L 220.887338 323.315521 
L 221.404752 316.010986 
L 223.603762 282.406928 
L 224.121176 277.45661 
L 224.509236 275.350276 
L 224.897297 274.317433 
L 225.285357 273.939612 
L 225.932125 273.791682 
L 226.578892 273.898964 
L 227.22566 274.374739 
L 227.484367 274.637947 
L 227.743074 275.227667 
L 228.131134 277.169413 
L 228.777902 282.258332 
L 229.554023 290.202563 
L 230.071437 297.243223 
L 232.01174 330.066985 
L 232.3998 332.549141 
L 232.529154 332.789027 
L 232.658507 332.76837 
L 232.917214 332.102019 
L 233.434628 329.503919 
L 234.340103 324.197103 
L 234.728163 319.547975 
L 235.374931 308.553857 
L 236.668466 285.875283 
L 237.315233 277.628528 
L 237.832647 273.670406 
L 238.220708 272.182445 
L 238.479415 271.799294 
L 238.738122 271.787966 
L 239.38489 272.323712 
L 240.290364 273.063361 
L 240.549071 273.836328 
L 240.937132 276.035951 
L 241.454546 280.54781 
L 241.97196 287.315933 
L 242.618727 300.411054 
L 243.653555 320.902666 
L 244.300323 329.685832 
L 244.688383 332.761706 
L 245.076444 334.394932 
L 245.464504 335.19855 
L 245.593858 335.290507 
L 245.723211 335.241197 
L 245.981918 334.642814 
L 246.369979 332.561135 
L 247.1461 327.647466 
L 247.663514 325.058694 
L 248.051575 321.108568 
L 248.568989 313.087706 
L 249.862524 291.261394 
L 250.767998 280.547144 
L 251.285412 276.52172 
L 251.673473 274.808533 
L 252.061533 274.024905 
L 252.32024 273.858317 
L 252.578947 273.918289 
L 252.837654 274.399394 
L 253.096361 275.546183 
L 253.613775 279.568941 
L 254.260543 287.100035 
L 254.907311 296.652837 
L 257.753088 347.702618 
L 258.011795 349.450456 
L 258.141148 349.61771 
L 258.270502 349.373826 
L 258.529209 347.951167 
L 260.728218 330.155609 
L 261.116279 323.755312 
L 261.8924 305.363371 
L 262.668521 289.083094 
L 264.47947 259.925593 
L 264.738177 258.796796 
L 264.867531 258.80879 
L 265.126238 259.899606 
L 265.514298 263.297327 
L 267.195894 281.547336 
L 267.713308 288.98714 
L 268.230722 299.78735 
L 269.524257 328.664317 
L 271.46456 357.636572 
L 271.723267 358.494832 
L 271.85262 358.172985 
L 272.111327 356.22924 
L 272.628741 349.383821 
L 273.792923 334.276988 
L 274.310337 327.012434 
L 274.827751 316.48143 
L 276.379993 282.264996 
L 276.768054 278.226245 
L 277.156114 276.177883 
L 277.544175 275.392922 
L 277.802882 275.284974 
L 278.83771 275.240994 
L 279.096417 275.20901 
L 279.355124 275.552847 
L 279.613831 276.496399 
L 280.001891 278.957898 
L 280.519305 284.128112 
L 281.166073 292.9366 
L 281.942194 308.225347 
L 282.977022 328.344469 
L 283.494436 334.501548 
L 283.882496 336.968377 
L 284.270557 338.050531 
L 284.658618 338.353054 
L 285.046678 338.33373 
L 285.434739 338.053862 
L 285.693446 337.586084 
L 285.952153 336.625207 
L 286.340213 334.147049 
L 286.728274 330.218913 
L 287.245688 321.492386 
L 289.18599 282.097075 
L 289.962111 270.903719 
L 290.738232 258.047818 
L 290.996939 256.258 
L 291.126293 256.160047 
L 291.255646 256.562522 
L 291.514354 258.590227 
L 292.937242 273.286588 
L 293.713363 277.270032 
L 294.230777 281.510687 
L 294.877545 289.283666 
L 295.394959 297.67835 
L 296.947201 326.318763 
L 297.335261 329.775123 
L 297.593968 330.524101 
L 297.723322 330.512773 
L 297.982029 329.956371 
L 298.628796 327.408246 
L 298.887503 325.806339 
L 299.275564 321.596337 
L 299.922332 310.894747 
L 302.250695 264.918558 
L 303.026816 250.871889 
L 303.673583 242.993626 
L 304.190997 238.951544 
L 304.449704 237.942023 
L 304.579058 237.821413 
L 304.708411 237.968677 
L 304.967118 239.000187 
L 305.484532 242.866353 
L 306.1313 249.057416 
L 306.648714 256.807739 
L 308.459663 286.554294 
L 309.235784 295.362116 
L 309.753198 298.883778 
L 310.141259 300.044561 
L 310.270612 300.111862 
L 310.399966 299.98259 
L 310.658673 299.154317 
L 311.046733 296.84208 
L 312.987036 282.622159 
L 313.375096 277.390641 
L 313.89251 266.948262 
L 314.668632 246.025521 
L 315.574106 222.228144 
L 316.09152 214.820991 
L 316.479581 212.130268 
L 316.867641 211.008133 
L 317.255702 210.640974 
L 317.514409 210.610322 
L 317.643762 210.772245 
L 317.902469 211.879054 
L 318.161176 214.299239 
L 318.807944 223.946662 
L 319.584065 234.10451 
L 320.101479 241.898812 
L 320.8776 259.627735 
L 321.653721 275.476216 
L 322.300489 284.581896 
L 322.688549 287.573144 
L 323.07661 289.003132 
L 323.335317 289.232357 
L 323.46467 289.085093 
L 323.723377 288.256153 
L 324.111438 285.949914 
L 325.016912 280.171989 
L 325.404973 277.355991 
L 325.793033 272.467643 
L 326.439801 260.809174 
L 328.380103 219.571404 
L 329.156224 205.400127 
L 329.673639 200.125296 
L 330.061699 198.428101 
L 330.191053 198.318154 
L 330.320406 198.45942 
L 330.579113 199.439622 
L 331.096527 203.135868 
L 332.519416 215.490007 
L 333.554244 232.553912 
L 334.459718 246.255412 
L 335.494546 258.733492 
L 336.01196 264.730647 
L 336.270667 265.508278 
L 336.400021 265.299044 
L 336.658728 263.94502 
L 338.340324 250.153563 
L 338.857738 244.424947 
L 339.375152 235.659772 
L 341.056747 203.810881 
L 341.832868 193.49844 
L 342.350282 189.053882 
L 342.738343 187.458639 
L 342.867696 187.348025 
L 342.99705 187.451309 
L 343.255757 188.241601 
L 343.773171 191.216856 
L 345.325413 201.295408 
L 345.713474 206.42031 
L 346.230888 216.970638 
L 347.265716 240.425511 
L 349.206018 270.411286 
L 349.594079 273.296584 
L 349.982139 274.543325 
L 350.240846 274.727238 
L 350.499553 274.607295 
L 350.75826 274.273453 
L 351.016967 273.401867 
L 351.275674 271.526757 
L 351.663735 266.839647 
L 352.310503 255.882178 
L 352.95727 241.409044 
L 354.509512 203.185844 
L 355.15628 194.187447 
L 355.673694 189.79553 
L 355.932401 188.659402 
L 356.061754 188.446837 
L 356.191108 188.486151 
L 356.449815 189.27511 
L 356.837875 191.7566 
L 357.613996 198.533385 
L 358.648824 207.834972 
L 359.036885 211.542547 
L 359.424945 217.120567 
L 360.071713 230.680801 
L 361.753309 267.659258 
L 362.141369 271.609384 
L 362.400076 272.925426 
L 362.52943 273.044703 
L 362.658783 272.7002 
L 362.91749 270.355979 
L 363.176197 265.401662 
L 363.693611 248.598967 
L 365.763267 170.423387 
L 366.927449 136.818663 
L 367.574217 124.470521 
L 368.091631 117.59245 
L 368.350338 115.722671 
L 368.479691 115.298205 
L 368.609045 115.308201 
L 368.738398 115.817959 
L 368.997105 118.4014 
L 369.385166 125.394082 
L 370.29064 143.118341 
L 370.937408 150.12435 
L 371.325468 154.638209 
L 371.842882 163.905146 
L 373.653831 199.85809 
L 375.07672 218.665168 
L 375.335427 219.120951 
L 375.594134 218.313335 
L 376.111548 214.929606 
L 377.534437 204.448579 
L 378.310558 196.195161 
L 378.827972 189.31176 
L 380.380214 164.274304 
L 380.768274 161.898764 
L 381.156335 160.921228 
L 381.415042 160.706663 
L 381.803102 160.718658 
L 382.061809 160.871918 
L 382.320517 161.397003 
L 382.579224 162.876967 
L 382.967284 167.244229 
L 383.614052 178.248342 
L 384.519526 193.42181 
L 385.166294 204.451244 
L 387.106596 244.239035 
L 387.494657 247.451511 
L 387.753364 248.264459 
L 387.882717 248.219147 
L 388.141424 247.325571 
L 388.529485 244.638846 
L 389.305606 238.95954 
L 389.693667 237.249018 
L 390.081727 236.420744 
L 390.340434 236.270815 
L 390.728495 236.418079 
L 390.857848 236.460725 
L 390.987202 236.367436 
L 391.116555 236.037593 
L 391.375262 234.413696 
L 391.763323 229.625301 
L 392.668797 216.812713 
L 393.056858 213.886101 
L 393.444918 212.58272 
L 393.703625 212.33617 
L 393.962332 212.418798 
L 394.738453 212.977866 
L 394.99716 212.88391 
L 395.643928 212.446118 
L 395.773281 212.713325 
L 396.031988 214.223941 
L 396.420049 218.879732 
L 397.713584 240.136315 
L 398.489705 254.838007 
L 399.265826 269.319137 
L 399.78324 274.925811 
L 401.076775 284.969712 
L 401.335482 285.760004 
L 401.464836 285.803317 
L 401.723543 285.274901 
L 402.240957 282.863378 
L 403.017078 278.438811 
L 403.405138 273.827665 
L 403.922552 263.6365 
L 405.474795 230.099077 
L 406.509623 210.743592 
L 407.027037 204.13606 
L 407.415097 201.009544 
L 407.673804 200.008685 
L 407.803158 199.886076 
L 407.932511 200.006686 
L 408.191218 200.871609 
L 408.708632 203.992795 
L 409.3554 207.612411 
L 409.74346 209.461534 
L 410.131521 212.976533 
L 410.778288 222.65794 
L 412.201177 244.546223 
L 412.977298 253.521298 
L 413.624066 262.559677 
L 413.882773 263.988333 
L 414.012126 263.99433 
L 414.270833 262.749587 
L 414.788247 257.575375 
L 415.693722 249.137378 
L 416.340489 242.248646 
L 416.857903 233.210934 
L 418.410145 199.16975 
L 419.962388 164.910669 
L 420.350448 161.342362 
L 420.609155 160.231555 
L 420.738509 160.026986 
L 420.867862 160.11561 
L 421.126569 161.329035 
L 421.51463 165.683636 
L 422.161397 176.97228 
L 422.937518 190.078729 
L 424.1017 206.502937 
L 425.136528 228.844339 
L 425.783295 240.993908 
L 426.300709 246.754509 
L 426.68877 248.872171 
L 427.07683 249.796399 
L 427.464891 250.118912 
L 427.594245 250.097589 
L 427.852952 249.647803 
L 428.111659 248.474359 
L 428.629073 244.392296 
L 429.534547 235.393898 
L 430.181315 224.943522 
L 431.733557 198.248187 
L 432.250971 192.419619 
L 432.768385 189.025895 
L 433.156445 187.64655 
L 433.415152 187.197429 
L 433.673859 187.072822 
L 434.06192 187.26673 
L 434.320627 187.707188 
L 434.579334 188.640078 
L 434.967394 190.931658 
L 435.484809 195.394207 
L 436.26093 204.468569 
L 436.778344 213.747501 
L 438.071879 244.569545 
L 438.977353 264.596044 
L 439.494767 271.332848 
L 439.882828 273.752367 
L 440.141535 274.405391 
L 440.529595 274.703916 
L 441.047009 274.991779 
L 441.82313 275.534855 
L 441.952484 275.40425 
L 442.211191 274.334091 
L 442.469898 271.923901 
L 442.987312 263.899042 
L 444.280847 237.403611 
L 445.186322 218.747129 
L 445.703736 212.763301 
L 446.091796 210.654301 
L 446.479857 209.796042 
L 446.738564 209.622124 
L 447.126624 209.70142 
L 447.385331 209.91132 
L 447.644038 210.648971 
L 447.902745 212.441453 
L 448.290806 217.165213 
L 448.937573 228.470516 
L 451.265937 271.108955 
L 452.559472 284.382658 
L 453.076886 287.585138 
L 453.464946 288.783903 
L 453.723653 289.123742 
L 453.98236 289.16972 
L 454.241067 288.765245 
L 454.499774 287.789708 
L 455.017188 284.481944 
L 455.793309 279.448332 
L 456.18137 278.018344 
L 456.56943 277.066129 
L 456.828137 275.700776 
L 457.216198 271.583396 
L 458.509733 254.426869 
L 458.897794 252.340525 
L 459.156501 251.718154 
L 459.415208 251.509586 
L 459.803268 251.572223 
L 460.579389 251.836764 
L 460.838096 252.84362 
L 461.096803 255.067232 
L 461.743571 263.983668 
L 462.519692 273.489825 
L 463.55452 285.456815 
L 464.330641 297.401815 
L 465.75353 323.131608 
L 466.012237 324.643558 
L 466.14159 324.699531 
L 466.270944 324.276399 
L 466.529651 322.142078 
L 467.176418 313.05972 
L 467.693832 306.834673 
L 468.211246 303.187736 
L 468.72866 299.428853 
L 469.246074 293.50433 
L 470.151549 282.525539 
L 470.668963 279.147808 
L 471.057023 277.99169 
L 471.31573 277.709157 
L 471.703791 277.64652 
L 472.350558 277.567224 
L 472.867973 277.22472 
L 473.773447 276.483738 
L 474.032154 276.451753 
L 474.290861 276.672315 
L 474.549568 277.390641 
L 474.937629 279.500974 
L 475.455043 284.02616 
L 476.10181 292.342881 
L 476.748578 304.075982 
L 477.783406 323.210238 
L 478.30082 329.499254 
L 478.68888 331.493641 
L 478.818234 331.669558 
L 478.947587 331.648235 
L 479.206294 331.161799 
L 480.88789 325.990918 
L 481.146597 324.135132 
L 481.534658 319.011563 
L 482.310779 303.121768 
L 483.0869 289.747446 
L 483.733667 281.659283 
L 484.251081 277.42929 
L 484.639142 275.718768 
L 485.027202 274.938471 
L 485.415263 274.705915 
L 486.320737 274.628618 
L 486.450091 274.727905 
L 486.708798 275.380262 
L 487.096858 277.597876 
L 487.614272 282.389603 
L 488.907808 297.957551 
L 489.554575 309.793936 
L 490.718757 331.344379 
L 491.236171 336.648529 
L 491.624231 338.83216 
L 492.012292 339.9423 
L 492.270999 340.257484 
L 492.529706 340.247488 
L 492.788413 339.72507 
L 493.04712 338.544296 
L 493.564534 334.732105 
L 494.470008 326.867169 
L 494.987422 318.921606 
L 496.410311 295.543363 
L 497.574493 282.229679 
L 497.962553 279.095832 
L 498.22126 278.233575 
L 498.350614 278.212252 
L 498.609321 278.871939 
L 499.126735 281.680606 
L 500.42027 289.622172 
L 500.80833 293.848167 
L 501.325744 302.487402 
L 502.877986 331.217106 
L 503.524754 341.987996 
L 504.300875 355.638853 
L 504.559582 357.007537 
L 504.688936 356.81896 
L 504.947643 355.003821 
L 507.405359 327.44223 
L 508.052127 312.927782 
L 508.828248 296.259023 
L 509.604369 285.213597 
L 510.121783 280.043383 
L 510.509843 277.817106 
L 510.897904 276.798922 
L 511.285965 276.51439 
L 511.803379 276.561701 
L 512.191439 276.668984 
L 512.450146 277.093449 
L 512.708853 278.01168 
L 513.096914 280.309923 
L 513.614328 285.29156 
L 514.261095 293.886815 
L 514.778509 304.075982 
L 516.977519 352.663598 
L 517.494933 360.599167 
L 517.75364 361.833248 
L 517.882993 361.574704 
L 518.141701 359.518346 
L 518.659115 351.975924 
L 519.305882 343.579241 
L 519.823296 339.899653 
L 520.211357 337.180277 
L 520.599417 332.337241 
L 521.116831 321.24517 
L 522.410366 288.983808 
L 522.92778 280.846335 
L 523.315841 277.205396 
L 523.703901 275.308296 
L 524.091962 274.481355 
L 524.480022 274.186162 
L 524.609376 274.227475 
L 524.868083 274.700584 
L 525.256143 276.425766 
L 525.902911 280.910305 
L 526.549679 287.357913 
L 527.455153 298.234086 
L 528.231274 312.661242 
L 529.136749 328.706963 
L 530.688991 347.237506 
L 530.947698 347.801905 
L 531.077051 347.58001 
L 531.335758 346.418561 
L 533.017354 335.193886 
L 533.405415 329.670506 
L 533.922829 318.219938 
L 535.08701 291.112132 
L 535.733778 281.669945 
L 536.251192 277.558562 
L 536.639252 276.097255 
L 537.027313 275.558844 
L 537.803434 275.283641 
L 539.355676 274.641279 
L 539.614383 275.38426 
L 539.87309 277.011488 
L 540.26115 281.295456 
L 541.425332 298.957077 
L 543.106928 327.821383 
L 543.624342 333.201498 
L 543.883049 334.408925 
L 544.012402 334.587507 
L 544.141756 334.509544 
L 544.400463 333.742574 
L 544.917877 331.023198 
L 545.305937 328.079261 
L 545.693998 323.102955 
L 546.470119 308.959665 
L 547.6343 287.848347 
L 548.281068 279.536956 
L 548.798482 275.78407 
L 549.186543 272.754841 
L 549.703957 265.836789 
L 550.221371 258.492273 
L 550.480078 256.87704 
L 550.609431 256.819067 
L 550.738785 257.2422 
L 550.997492 259.283898 
L 552.42038 274.20282 
L 552.808441 275.348277 
L 553.196501 276.307155 
L 553.584562 277.95504 
L 553.972622 280.486506 
L 554.490036 285.712693 
L 555.395511 297.463785 
L 556.300986 312.015548 
L 556.559693 313.25496 
L 556.689046 313.162338 
L 556.947753 311.848961 
L 558.241288 300.352415 
L 558.758702 294.571157 
L 560.440298 269.254501 
L 562.251247 237.323649 
L 562.639307 234.863483 
L 562.898014 234.095847 
L 563.156721 233.825975 
L 563.415428 233.917932 
L 563.674136 234.316409 
L 563.932843 235.239305 
L 564.320903 237.87672 
L 565.226378 245.755649 
L 565.226378 245.755649 
" clip-path="url(#p7000fb848d)" style="fill: none; stroke: #1f77b4; stroke-width: 1.5; stroke-linecap: square"/>
   </g>
   <g id="patch_3">
    <path d="M 60.59 390.04 
L 60.59 38.16 
" style="fill: none; stroke: #000000; stroke-width: 0.8; stroke-linejoin: miter; stroke-linecap: square"/>
   </g>
   <g id="patch_4">
    <path d="M 565.2 390.04 
L 565.2 38.16 
" style="fill: none; stroke: #000000; stroke-width: 0.8; stroke-linejoin: miter; stroke-linecap: square"/>
   </g>
   <g id="patch_5">
    <path d="M 60.59 390.04 
L 565.2 390.04 
" style="fill: none; stroke: #000000; stroke-width: 0.8; stroke-linejoin: miter; stroke-linecap: square"/>
   </g>
   <g id="patch_6">
    <path d="M 60.59 38.16 
L 565.2 38.16 
" style="fill: none; stroke: #000000; stroke-width: 0.8; stroke-linejoin: miter; stroke-linecap: square"/>
   </g>
  </g>
  <g id="text_18">
   <!-- The different data collected in a random timespan -->
   <g transform="translate(86.4975 20.7975) scale(0.16 -0.16)">
    <defs>
     <path id="DejaVuSans-54" d="M -19 4666 
L 3928 4666 
L 3928 4134 
L 2272 4134 
L 2272 0 
L 1638 0 
L 1638 4134 
L -19 4134 
L -19 4666 
z
" transform="scale(0.015625)"/>
     <path id="DejaVuSans-68" d="M 3513 2113 
L 3513 0 
L 2938 0 
L 2938 2094 
Q 2938 2591 2744 2837 
Q 2550 3084 2163 3084 
Q 1697 3084 1428 2787 
Q 1159 2491 1159 1978 
L 1159 0 
L 581 0 
L 581 4863 
L 1159 4863 
L 1159 2956 
Q 1366 3272 1645 3428 
Q 1925 3584 2291 3584 
Q 2894 3584 3203 3211 
Q 3513 2838 3513 2113 
z
" transform="scale(0.015625)"/>
     <path id="DejaVuSans-65" d="M 3597 1894 
L 3597 1613 
L 953 1613 
Q 991 1019 1311 708 
Q 1631 397 2203 397 
Q 2534 397 2845 478 
Q 3156 559 3463 722 
L 3463 178 
Q 3153 47 2828 -22 
Q 2503 -91 2169 -91 
Q 1331 -91 842 396 
Q 353 884 353 1716 
Q 353 2575 817 3079 
Q 1281 3584 2069 3584 
Q 2775 3584 3186 3129 
Q 3597 2675 3597 1894 
z
M 3022 2063 
Q 3016 2534 2758 2815 
Q 2500 3097 2075 3097 
Q 1594 3097 1305 2825 
Q 1016 2553 972 2059 
L 3022 2063 
z
" transform="scale(0.015625)"/>
     <path id="DejaVuSans-64" d="M 2906 2969 
L 2906 4863 
L 3481 4863 
L 3481 0 
L 2906 0 
L 2906 525 
Q 2725 213 2448 61 
Q 2172 -91 1784 -91 
Q 1150 -91 751 415 
Q 353 922 353 1747 
Q 353 2572 751 3078 
Q 1150 3584 1784 3584 
Q 2172 3584 2448 3432 
Q 2725 3281 2906 2969 
z
M 947 1747 
Q 947 1113 1208 752 
Q 1469 391 1925 391 
Q 2381 391 2643 752 
Q 2906 1113 2906 1747 
Q 2906 2381 2643 2742 
Q 2381 3103 1925 3103 
Q 1469 3103 1208 2742 
Q 947 2381 947 1747 
z
" transform="scale(0.015625)"/>
     <path id="DejaVuSans-66" d="M 2375 4863 
L 2375 4384 
L 1825 4384 
Q 1516 4384 1395 4259 
Q 1275 4134 1275 3809 
L 1275 3500 
L 2222 3500 
L 2222 3053 
L 1275 3053 
L 1275 0 
L 697 0 
L 697 3053 
L 147 3053 
L 147 3500 
L 697 3500 
L 697 3744 
Q 697 4328 969 4595 
Q 1241 4863 1831 4863 
L 2375 4863 
z
" transform="scale(0.015625)"/>
     <path id="DejaVuSans-63" d="M 3122 3366 
L 3122 2828 
Q 2878 2963 2633 3030 
Q 2388 3097 2138 3097 
Q 1578 3097 1268 2742 
Q 959 2388 959 1747 
Q 959 1106 1268 751 
Q 1578 397 2138 397 
Q 2388 397 2633 464 
Q 2878 531 3122 666 
L 3122 134 
Q 2881 22 2623 -34 
Q 2366 -91 2075 -91 
Q 1284 -91 818 406 
Q 353 903 353 1747 
Q 353 2603 823 3093 
Q 1294 3584 2113 3584 
Q 2378 3584 2631 3529 
Q 2884 3475 3122 3366 
z
" transform="scale(0.015625)"/>
     <path id="DejaVuSans-70" d="M 1159 525 
L 1159 -1331 
L 581 -1331 
L 581 3500 
L 1159 3500 
L 1159 2969 
Q 1341 3281 1617 3432 
Q 1894 3584 2278 3584 
Q 2916 3584 3314 3078 
Q 3713 2572 3713 1747 
Q 3713 922 3314 415 
Q 2916 -91 2278 -91 
Q 1894 -91 1617 61 
Q 1341 213 1159 525 
z
M 3116 1747 
Q 3116 2381 2855 2742 
Q 2594 3103 2138 3103 
Q 1681 3103 1420 2742 
Q 1159 2381 1159 1747 
Q 1159 1113 1420 752 
Q 1681 391 2138 391 
Q 2594 391 2855 752 
Q 3116 1113 3116 1747 
z
" transform="scale(0.015625)"/>
    </defs>
    <use xlink:href="#DejaVuSans-54"/>
    <use xlink:href="#DejaVuSans-68" x="61.083984"/>
    <use xlink:href="#DejaVuSans-65" x="124.462891"/>
    <use xlink:href="#DejaVuSans-20" x="185.986328"/>
    <use xlink:href="#DejaVuSans-64" x="217.773438"/>
    <use xlink:href="#DejaVuSans-69" x="281.25"/>
    <use xlink:href="#DejaVuSans-66" x="309.033203"/>
    <use xlink:href="#DejaVuSans-66" x="344.238281"/>
    <use xlink:href="#DejaVuSans-65" x="379.443359"/>
    <use xlink:href="#DejaVuSans-72" x="440.966797"/>
    <use xlink:href="#DejaVuSans-65" x="479.830078"/>
    <use xlink:href="#DejaVuSans-6e" x="541.353516"/>
    <use xlink:href="#DejaVuSans-74" x="604.732422"/>
    <use xlink:href="#DejaVuSans-20" x="643.941406"/>
    <use xlink:href="#DejaVuSans-64" x="675.728516"/>
    <use xlink:href="#DejaVuSans-61" x="739.205078"/>
    <use xlink:href="#DejaVuSans-74" x="800.484375"/>
    <use xlink:href="#DejaVuSans-61" x="839.693359"/>
    <use xlink:href="#DejaVuSans-20" x="900.972656"/>
    <use xlink:href="#DejaVuSans-63" x="932.759766"/>
    <use xlink:href="#DejaVuSans-6f" x="987.740234"/>
    <use xlink:href="#DejaVuSans-6c" x="1048.921875"/>
    <use xlink:href="#DejaVuSans-6c" x="1076.705078"/>
    <use xlink:href="#DejaVuSans-65" x="1104.488281"/>
    <use xlink:href="#DejaVuSans-63" x="1166.011719"/>
    <use xlink:href="#DejaVuSans-74" x="1220.992188"/>
    <use xlink:href="#DejaVuSans-65" x="1260.201172"/>
    <use xlink:href="#DejaVuSans-64" x="1321.724609"/>
    <use xlink:href="#DejaVuSans-20" x="1385.201172"/>
    <use xlink:href="#DejaVuSans-69" x="1416.988281"/>
    <use xlink:href="#DejaVuSans-6e" x="1444.771484"/>
    <use xlink:href="#DejaVuSans-20" x="1508.150391"/>
    <use xlink:href="#DejaVuSans-61" x="1539.9375"/>
    <use xlink:href="#DejaVuSans-20" x="1601.216797"/>
    <use xlink:href="#DejaVuSans-72" x="1633.003906"/>
    <use xlink:href="#DejaVuSans-61" x="1674.117188"/>
    <use xlink:href="#DejaVuSans-6e" x="1735.396484"/>
    <use xlink:href="#DejaVuSans-64" x="1798.775391"/>
    <use xlink:href="#DejaVuSans-6f" x="1862.251953"/>
    <use xlink:href="#DejaVuSans-6d" x="1923.433594"/>
    <use xlink:href="#DejaVuSans-20" x="2020.845703"/>
    <use xlink:href="#DejaVuSans-74" x="2052.632812"/>
    <use xlink:href="#DejaVuSans-69" x="2091.841797"/>
    <use xlink:href="#DejaVuSans-6d" x="2119.625"/>
    <use xlink:href="#DejaVuSans-65" x="2217.037109"/>
    <use xlink:href="#DejaVuSans-73" x="2278.560547"/>
    <use xlink:href="#DejaVuSans-70" x="2330.660156"/>
    <use xlink:href="#DejaVuSans-61" x="2394.136719"/>
    <use xlink:href="#DejaVuSans-6e" x="2455.416016"/>
   </g>
  </g>
 </g>
 <defs>
  <clipPath id="p7000fb848d">
   <rect x="60.59" y="38.16" width="504.61" height="351.88"/>
  </clipPath>
 </defs>
</svg>
